<svg width="191" height="185" viewBox="0 0 191 185" fill="none" xmlns="http://www.w3.org/2000/svg">
<path d="M189.857 132.515V132.514C189.869 131.745 189.885 130.946 189.902 130.117C190.107 120.168 190.399 105.937 184.039 87.6673C177.149 67.8738 162.42 43.2678 131.144 14.3243C110.812 -3.44259 80.7822 -3.44142 60.4512 14.3278C28.8657 42.961 13.9841 67.4112 7.01819 87.1638C0.586217 105.402 0.875306 119.698 1.07918 129.781C1.09609 130.617 1.11242 131.424 1.12427 132.202C1.27698 142.227 3.26209 150.612 5.80427 156.897C8.36447 163.226 11.44 167.306 13.6781 168.86C14.6554 169.539 15.7313 170.5 16.9157 171.559C17.305 171.907 17.706 172.265 18.1191 172.628C19.8253 174.124 21.8365 175.782 24.34 177.34C29.3276 180.446 36.3357 183.201 46.8102 183.355C59.2044 183.353 71.307 178.161 80.0846 168.99L80.113 168.961L80.1437 168.933C87.5011 162.413 90.907 153.742 92.4659 146.638C93.244 143.092 93.5572 139.957 93.6757 137.711C93.7349 136.589 93.7455 135.691 93.7414 135.076C93.7393 134.769 93.7336 134.533 93.7285 134.375C93.726 134.297 93.7236 134.238 93.7219 134.199L93.7199 134.157L93.7194 134.148L93.7193 134.146L189.857 132.515ZM189.857 132.515C189.704 142.534 187.644 150.916 185.026 157.199C182.391 163.525 179.239 167.614 176.994 169.173C176.034 169.839 174.977 170.769 173.814 171.794C173.409 172.15 172.99 172.518 172.559 172.891C170.853 174.362 168.842 175.992 166.337 177.533C161.346 180.602 154.333 183.358 143.855 183.668C131.132 183.664 119.055 178.769 110.61 169.327L110.572 169.285L110.529 169.247C103.014 162.568 99.6103 153.894 98.0911 146.837C97.3326 143.313 97.0481 140.209 96.9534 137.99C96.9061 136.881 96.9062 135.994 96.9179 135.388C96.9238 135.085 96.9325 134.853 96.9397 134.698C96.9414 134.659 96.9431 134.626 96.9446 134.597C96.9462 134.568 96.9475 134.544 96.9486 134.525L96.9512 134.484L96.9518 134.475L96.9518 134.474M189.857 132.515L96.9518 134.474M96.9518 134.474L96.9519 134.473L96.9518 134.474ZM94.6255 90.6155L91.8992 93.3689L98.7168 93.3823C98.5963 93.2777 98.4433 93.1409 98.2613 92.9702C97.747 92.4879 97.0005 91.7348 96.0985 90.672L95.3928 89.8405L94.6255 90.6155Z" stroke="#FF7B00" stroke-width="2"/>
<path d="M16.1988 105.056C16.1988 105.056 9.0888 115.983 14.344 143.144C16.1988 153.759 21.1448 163.75 28.5639 171.867C37.5286 181.545 51.1303 189.35 69.0598 179.048C78.0245 173.74 84.2071 164.374 85.1345 153.759C86.0619 144.393 83.2797 135.027 77.7154 127.847C66.2776 112.861 50.2029 102.246 31.9643 97.5629C28.5639 96.6263 24.5452 97.2507 21.4539 99.1239C18.9809 100.373 17.1261 102.558 16.1988 105.056Z" stroke="#FF7B00" stroke-width="0.75" stroke-miterlimit="10"/>
<path d="M16.5079 110.676C17.7444 110.988 19.2901 110.988 20.5266 110.676" stroke="#FF7B00" stroke-width="0.75" stroke-miterlimit="10"/>
<path d="M14.9621 118.48C16.5078 118.792 18.0534 118.792 19.2899 118.168" stroke="#FF7B00" stroke-width="0.75" stroke-miterlimit="10"/>
<path d="M15.2715 113.797C15.5806 114.109 16.1989 114.109 16.508 114.109" stroke="#FF7B00" stroke-width="0.75" stroke-miterlimit="10"/>
<path d="M14.035 125.661C14.9624 125.974 15.8898 125.974 16.8172 125.661" stroke="#FF7B00" stroke-width="0.75" stroke-miterlimit="10"/>
<path d="M14.6534 122.539C15.5808 122.851 16.8173 122.539 17.7447 122.227" stroke="#FF7B00" stroke-width="0.75" stroke-miterlimit="10"/>
<path d="M18.6718 143.769C19.5992 144.081 20.8357 143.769 21.7631 143.457" stroke="#FF7B00" stroke-width="0.75" stroke-miterlimit="10"/>
<path d="M18.9806 147.515C19.908 147.827 21.1445 147.515 22.0719 147.203" stroke="#FF7B00" stroke-width="0.75" stroke-miterlimit="10"/>
<path d="M19.9083 154.384C22.0722 155.008 24.2361 155.008 26.4 154.384" stroke="#FF7B00" stroke-width="0.75" stroke-miterlimit="10"/>
<path d="M22.3812 157.193C24.5451 157.818 26.709 157.818 28.8729 157.193" stroke="#FF7B00" stroke-width="0.75" stroke-miterlimit="10"/>
<path d="M31.3462 170.618C33.8193 171.242 36.2923 170.93 38.7653 169.993" stroke="#FF7B00" stroke-width="0.75" stroke-miterlimit="10"/>
<path d="M42.4744 177.486C43.7109 177.799 45.2566 177.486 46.4931 177.174" stroke="#FF7B00" stroke-width="0.75" stroke-miterlimit="10"/>
<path d="M30.1098 167.809C33.5102 168.433 36.9106 168.121 40.0019 166.872" stroke="#FF7B00" stroke-width="0.75" stroke-miterlimit="10"/>
<path d="M34.7466 173.116C39.3835 173.116 44.3296 172.179 48.6574 170.306" stroke="#FF7B00" stroke-width="0.75" stroke-miterlimit="10"/>
<path d="M38.4559 175.301C42.4746 175.613 46.8024 174.989 50.5119 173.116" stroke="#FF7B00" stroke-width="0.75" stroke-miterlimit="10"/>
<path d="M48.3485 179.984C52.6763 179.047 56.695 177.799 60.4045 175.613" stroke="#FF7B00" stroke-width="0.75" stroke-miterlimit="10"/>
<path d="M77.406 159.691C79.5699 156.881 81.4246 153.447 82.352 150.013" stroke="#FF7B00" stroke-width="0.75" stroke-miterlimit="10"/>
<path d="M78.0243 163.438C79.8791 160.94 81.4247 158.443 82.043 155.633" stroke="#FF7B00" stroke-width="0.75" stroke-miterlimit="10"/>
<path d="M77.7155 154.071C78.0247 153.759 78.3338 153.447 78.6429 153.135" stroke="#FF7B00" stroke-width="0.75" stroke-miterlimit="10"/>
<path d="M80.8065 146.579C81.1157 146.267 81.4248 145.954 81.7339 145.642" stroke="#FF7B00" stroke-width="0.75" stroke-miterlimit="10"/>
<path d="M53.6036 181.233C55.4584 180.921 57.3132 179.984 58.8588 179.048" stroke="#FF7B00" stroke-width="0.75" stroke-miterlimit="10"/>
<path d="M27.3275 164.686C29.4914 164.998 31.3462 164.999 33.5101 164.374" stroke="#FF7B00" stroke-width="0.75" stroke-miterlimit="10"/>
<path d="M20.5266 151.262C21.1449 151.574 21.7631 151.574 22.3814 151.262" stroke="#FF7B00" stroke-width="0.75" stroke-miterlimit="10"/>
<path d="M177.564 105.056C177.564 105.056 184.674 115.983 179.419 143.145C177.564 153.76 172.618 163.75 165.199 171.555C156.234 181.234 142.633 189.039 124.703 178.736C115.738 173.429 109.556 164.062 108.629 153.448C107.701 144.082 110.483 134.716 116.048 127.535C127.485 112.549 143.56 101.934 161.799 97.2513C165.199 96.3147 169.218 96.9391 172.309 98.8123C174.782 100.061 176.637 102.246 177.564 105.056Z" stroke="#FF7B00" stroke-width="0.75" stroke-miterlimit="10"/>
<path d="M177.255 110.676C176.019 110.988 174.473 110.988 173.237 110.676" stroke="#FF7B00" stroke-width="0.75" stroke-miterlimit="10"/>
<path d="M178.801 118.481C177.255 118.793 175.709 118.793 174.473 118.169" stroke="#FF7B00" stroke-width="0.75" stroke-miterlimit="10"/>
<path d="M178.492 113.798C178.182 114.11 177.564 114.11 177.255 114.11" stroke="#FF7B00" stroke-width="0.75" stroke-miterlimit="10"/>
<path d="M179.728 125.661C178.801 125.973 177.873 125.973 176.946 125.661" stroke="#FF7B00" stroke-width="0.75" stroke-miterlimit="10"/>
<path d="M179.11 122.539C178.183 122.852 176.946 122.539 176.019 122.227" stroke="#FF7B00" stroke-width="0.75" stroke-miterlimit="10"/>
<path d="M175.091 143.769C174.164 144.081 172.928 143.769 172 143.457" stroke="#FF7B00" stroke-width="0.75" stroke-miterlimit="10"/>
<path d="M174.782 147.516C173.855 147.828 172.618 147.516 171.691 147.203" stroke="#FF7B00" stroke-width="0.75" stroke-miterlimit="10"/>
<path d="M173.854 154.384C171.69 155.009 169.526 155.009 167.363 154.384" stroke="#FF7B00" stroke-width="0.75" stroke-miterlimit="10"/>
<path d="M171.381 157.194C169.217 157.818 167.054 157.818 164.89 157.194" stroke="#FF7B00" stroke-width="0.75" stroke-miterlimit="10"/>
<path d="M162.417 170.619C159.944 171.243 157.471 170.931 154.998 169.994" stroke="#FF7B00" stroke-width="0.75" stroke-miterlimit="10"/>
<path d="M151.288 177.487C150.051 177.799 148.506 177.487 147.269 177.175" stroke="#FF7B00" stroke-width="0.75" stroke-miterlimit="10"/>
<path d="M163.654 167.808C160.253 168.433 156.853 168.121 153.761 166.872" stroke="#FF7B00" stroke-width="0.75" stroke-miterlimit="10"/>
<path d="M159.017 173.116C154.38 173.116 149.434 172.179 145.106 170.306" stroke="#FF7B00" stroke-width="0.75" stroke-miterlimit="10"/>
<path d="M155.307 175.301C151.288 175.613 146.96 174.989 143.251 173.116" stroke="#FF7B00" stroke-width="0.75" stroke-miterlimit="10"/>
<path d="M145.415 179.985C141.087 179.048 137.069 177.799 133.05 175.614" stroke="#FF7B00" stroke-width="0.75" stroke-miterlimit="10"/>
<path d="M116.357 159.692C114.193 156.882 112.338 153.447 111.411 150.013" stroke="#FF7B00" stroke-width="0.75" stroke-miterlimit="10"/>
<path d="M115.738 163.438C113.883 161.252 112.338 158.442 111.719 155.633" stroke="#FF7B00" stroke-width="0.75" stroke-miterlimit="10"/>
<path d="M116.047 154.072C115.738 153.76 115.429 153.448 115.12 153.136" stroke="#FF7B00" stroke-width="0.75" stroke-miterlimit="10"/>
<path d="M112.956 146.579C112.647 146.267 112.338 145.955 112.029 145.642" stroke="#FF7B00" stroke-width="0.75" stroke-miterlimit="10"/>
<path d="M140.16 181.233C138.305 180.921 136.45 179.985 134.904 179.048" stroke="#FF7B00" stroke-width="0.75" stroke-miterlimit="10"/>
<path d="M166.435 164.687C164.272 164.999 162.417 164.999 160.253 164.375" stroke="#FF7B00" stroke-width="0.75" stroke-miterlimit="10"/>
<path d="M173.237 151.262C172.618 151.574 172 151.574 171.382 151.262" stroke="#FF7B00" stroke-width="0.75" stroke-miterlimit="10"/>
<path d="M64.6079 83.0456C64.6079 83.0456 59.3527 87.7286 59.3527 91.1628C59.3527 91.1628 62.7531 86.4798 65.8444 85.5432C65.8444 85.5432 64.6079 88.0408 64.917 89.914C64.917 89.914 68.6265 87.7286 68.6265 87.1042C68.6265 86.4798 68.6265 87.7286 68.6265 87.7286C68.6265 87.7286 68.9357 97.7191 72.9543 99.2801C72.9543 99.2801 71.0996 94.9093 72.9543 91.1628C72.9543 91.1628 73.2635 95.5337 76.0456 96.7825C76.0456 96.7825 75.1182 93.6605 76.0456 89.6018C76.0456 89.6018 77.2821 96.1581 80.6825 98.0313C80.6825 98.0313 78.5186 93.6605 80.0643 91.1628C80.0643 91.1628 81.6099 97.7191 92.7386 102.402C92.7386 102.402 88.7199 95.5337 89.029 92.7238C89.029 92.7238 91.8112 97.7191 93.666 98.6557C93.666 98.6557 95.5207 94.5971 96.4481 93.9727C96.4481 93.9727 96.139 97.7191 95.5207 98.9679C95.5207 98.9679 99.5394 96.4703 101.394 92.7238C101.394 92.7238 101.085 99.2801 99.5394 101.153C99.5394 101.153 105.722 95.5337 106.031 92.7238C106.031 92.7238 106.031 96.7825 104.485 98.6557C104.485 98.6557 109.741 95.2215 110.668 92.7238C110.668 92.7238 110.977 99.9045 108.195 100.841C108.195 100.841 120.251 93.3483 120.56 88.6652C120.56 88.6652 120.251 94.2849 118.705 94.5971C118.705 94.5971 122.106 92.4116 122.415 88.9774C122.415 88.9774 125.506 91.475 124.579 94.9093C124.579 94.9093 126.743 91.475 126.743 88.9774C126.743 88.9774 131.998 93.6605 131.071 98.0313C131.071 98.0313 135.089 92.7238 133.234 82.7334C133.234 82.7334 136.017 84.6066 136.326 87.4164C136.326 87.4164 137.562 84.9188 136.326 80.8602C136.326 80.8602 140.035 81.4846 142.199 84.6066C142.199 84.6066 139.726 79.9236 135.398 77.1137C135.398 77.1137 138.49 76.1771 139.417 77.1137C139.417 77.1137 136.944 74.6161 134.162 73.9917C134.162 73.9917 140.654 72.7429 142.817 73.9917C142.817 73.9917 138.181 68.0599 129.834 67.1233C129.834 67.1233 131.071 64.9379 132.925 65.2501C132.925 65.2501 128.598 64.3135 127.361 64.3135C127.361 64.3135 133.853 61.1914 135.089 61.8158C135.089 61.8158 133.853 59.6304 122.724 59.9426C122.724 59.9426 124.888 57.7572 128.288 57.445C128.288 57.445 123.961 56.1962 115.923 58.3816C115.923 58.3816 119.633 54.9474 121.178 55.2596C121.178 55.2596 117.469 54.9474 112.214 58.3816C112.214 58.3816 113.45 55.5718 115.305 55.2596C115.305 55.2596 111.286 55.2596 109.122 57.445C109.122 57.445 108.813 55.5718 111.286 54.323C111.286 54.323 106.031 54.0108 103.867 56.1962C103.867 56.1962 103.867 54.323 105.722 53.0742C105.722 53.0742 102.012 53.0742 100.158 55.2596C100.158 55.2596 99.2303 55.5718 97.9938 54.323C97.9938 54.323 96.7572 55.5718 97.6846 57.445C97.6846 57.445 93.3568 58.3816 95.5207 53.0742C95.5207 53.0742 91.8112 54.323 89.9564 56.5084C89.9564 56.5084 90.2655 55.5718 84.083 54.323C84.083 54.323 87.7925 56.5084 87.7925 58.0694C87.7925 58.0694 85.9377 55.884 78.5186 54.6352C78.5186 54.6352 80.9917 55.5718 80.3734 58.3816C80.3734 58.3816 80.6825 55.884 76.973 55.2596C76.973 55.2596 77.9004 57.7572 75.7365 57.7572C75.7365 57.7572 75.4274 54.6352 72.6452 54.323C72.6452 54.323 74.5 56.5084 73.5726 56.8206C73.5726 56.8206 70.4813 55.5718 67.6991 56.5084C67.6991 56.5084 71.0996 57.445 71.4087 59.9426C71.4087 59.9426 68.0083 56.1962 59.9709 60.2548C59.9709 60.2548 68.6265 59.9426 69.2448 62.1281C69.2448 62.1281 63.6805 60.2548 58.4253 62.1281C58.4253 62.1281 64.2987 62.4402 65.2261 64.0013C65.2261 64.0013 57.1888 62.7525 49.7697 67.1233C49.7697 67.1233 57.4979 66.1867 58.4253 68.3721C58.4253 68.3721 50.3879 69.3087 49.4605 72.1185C49.4605 72.1185 53.7883 70.2453 58.7344 70.2453C58.7344 70.2453 52.861 72.1185 50.6971 83.67C50.6971 83.67 55.334 77.1137 60.8983 75.8649C60.8983 75.8649 55.0249 80.2358 55.0249 82.4212C55.0249 82.4212 58.4253 79.9236 60.28 80.2358C60.28 80.2358 57.807 82.4212 57.1888 84.9188C56.8796 86.1676 63.0622 82.109 64.6079 83.0456Z" stroke="#FF7B00" stroke-width="0.75" stroke-miterlimit="10"/>
<path d="M80.9917 78.0504C80.9917 78.0504 74.5 78.987 72.9543 81.7968" stroke="#FF7B00" stroke-width="0.75" stroke-miterlimit="10"/>
<path d="M83.1557 78.0504C83.1557 78.0504 76.3549 80.548 75.7366 83.9823" stroke="#FF7B00" stroke-width="0.75" stroke-miterlimit="10"/>
<path d="M86.8648 79.9229C86.8648 79.9229 80.9914 79.6107 79.4457 83.0449" stroke="#FF7B00" stroke-width="0.75" stroke-miterlimit="10"/>
<path d="M96.1387 79.9232C96.1387 79.9232 92.7382 84.6063 93.9748 89.6015" stroke="#FF7B00" stroke-width="0.75" stroke-miterlimit="10"/>
<path d="M97.3759 78.0504C97.3759 78.0504 100.467 84.6067 98.9215 88.3531" stroke="#FF7B00" stroke-width="0.75" stroke-miterlimit="10"/>
<path d="M106.031 81.797C106.031 81.797 107.577 83.6702 107.577 84.6068" stroke="#FF7B00" stroke-width="0.75" stroke-miterlimit="10"/>
<path d="M106.031 79.2991C106.959 79.2991 115.614 85.8553 115.614 87.1041" stroke="#FF7B00" stroke-width="0.75" stroke-miterlimit="10"/>
<path d="M107.268 79.2991C107.268 79.2991 109.741 82.7333 109.741 83.9821" stroke="#FF7B00" stroke-width="0.75" stroke-miterlimit="10"/>
<path d="M109.74 79.2991C109.74 79.2991 112.213 81.1723 112.832 82.1089" stroke="#FF7B00" stroke-width="0.75" stroke-miterlimit="10"/>
<path d="M110.977 78.0504C110.977 78.0504 114.377 79.2992 114.996 80.548" stroke="#FF7B00" stroke-width="0.75" stroke-miterlimit="10"/>
<path d="M121.488 81.1727C121.488 81.1727 124.27 83.0459 124.27 84.9191" stroke="#FF7B00" stroke-width="0.75" stroke-miterlimit="10"/>
<path d="M121.488 79.2991C121.488 79.2991 125.506 80.5479 125.816 82.1089" stroke="#FF7B00" stroke-width="0.75" stroke-miterlimit="10"/>
<path d="M84.392 73.0554C84.392 73.3676 84.0829 73.6798 83.7738 73.992C83.4646 74.6164 82.8464 74.9286 82.2281 74.9286C81.6099 75.2408 80.9916 75.2408 80.3734 75.2408H79.7551C78.5186 75.2408 77.2821 75.2408 76.0456 74.9286C75.4273 74.9286 75.1182 74.6164 74.4999 74.6164L73.2634 74.3042C72.336 73.992 71.4086 73.3676 70.4812 73.0554L70.1721 72.7431C68.9356 72.1187 68.0082 71.1821 67.0808 70.2455C66.4626 69.6211 66.1534 68.6845 65.5352 68.0601C65.226 67.1235 64.9169 66.1869 64.9169 65.5625C64.9169 63.6893 65.5352 62.1283 66.4626 60.5673C68.0082 58.3819 70.4812 57.4453 72.9543 57.4453V57.4453C75.1182 57.4453 77.2821 58.3819 78.5186 59.9429C81.919 63.0649 83.7738 67.4357 84.392 71.8065C84.7012 72.4309 84.7012 72.7432 84.392 73.0554Z" stroke="#FF7B00" stroke-width="0.75" stroke-miterlimit="10"/>
<path d="M73.2636 73.6796C73.2636 73.3674 73.2636 73.0552 73.5727 73.0552" stroke="#FF7B00" stroke-width="0.75" stroke-linecap="round" stroke-linejoin="round"/>
<path d="M72.3359 73.3672C72.3359 73.055 72.3359 72.7428 72.645 72.7428" stroke="#FF7B00" stroke-width="0.75" stroke-linecap="round" stroke-linejoin="round"/>
<path d="M70.7901 73.0551C70.7901 72.4307 70.7901 72.1185 71.0992 71.4941" stroke="#FF7B00" stroke-width="0.75" stroke-linecap="round" stroke-linejoin="round"/>
<path d="M70.1718 72.431C70.1718 71.8066 70.1718 71.4944 70.4809 70.87" stroke="#FF7B00" stroke-width="0.75" stroke-linecap="round" stroke-linejoin="round"/>
<path d="M67.081 69.6215C67.081 68.9971 67.081 68.3727 67.3901 67.7483" stroke="#FF7B00" stroke-width="0.75" stroke-linecap="round" stroke-linejoin="round"/>
<path d="M67.6991 70.2459C67.6991 69.3093 67.6991 68.6849 68.3174 67.7483" stroke="#FF7B00" stroke-width="0.75" stroke-linecap="round" stroke-linejoin="round"/>
<path d="M66.7714 68.6848C66.7714 67.436 67.3897 66.4994 68.0079 65.5628" stroke="#FF7B00" stroke-width="0.75" stroke-linecap="round" stroke-linejoin="round"/>
<path d="M66.1533 68.06C66.1533 67.1234 66.4624 66.1868 67.0807 65.2502" stroke="#FF7B00" stroke-width="0.75" stroke-linecap="round" stroke-linejoin="round"/>
<path d="M65.535 65.2504C65.8441 64.3138 66.4624 63.3772 67.0806 62.4406" stroke="#FF7B00" stroke-width="0.75" stroke-linecap="round" stroke-linejoin="round"/>
<path d="M71.0995 59.0062C71.7177 58.3818 72.6451 58.0696 73.5725 58.0696" stroke="#FF7B00" stroke-width="0.75" stroke-linecap="round" stroke-linejoin="round"/>
<path d="M70.1718 58.694C70.79 58.3818 71.4083 58.0696 72.0266 58.0696" stroke="#FF7B00" stroke-width="0.75" stroke-linecap="round" stroke-linejoin="round"/>
<path d="M72.3359 59.0064C72.645 59.0064 72.645 59.0064 72.3359 59.0064" stroke="#FF7B00" stroke-width="0.75" stroke-linecap="round" stroke-linejoin="round"/>
<path d="M65.2262 64.0018C65.2262 63.6896 65.5354 63.0652 65.8445 62.753" stroke="#FF7B00" stroke-width="0.75" stroke-linecap="round" stroke-linejoin="round"/>
<path d="M68.3172 70.8696C68.3172 70.2452 68.3172 69.933 68.6263 69.3086" stroke="#FF7B00" stroke-width="0.75" stroke-linecap="round" stroke-linejoin="round"/>
<path d="M71.4082 73.055V72.7428" stroke="#FF7B00" stroke-width="0.75" stroke-linecap="round" stroke-linejoin="round"/>
<path d="M130.143 67.4356C129.834 68.06 129.834 68.3722 129.525 68.6844V68.9966C128.598 69.9332 127.67 70.5576 126.743 71.182C126.743 71.182 126.743 71.4942 127.052 71.4942C126.434 71.8064 125.815 72.1186 125.197 72.4308C124.579 72.743 124.27 72.743 123.652 73.0552C121.488 73.6796 119.324 73.9918 117.16 73.6796H116.851C116.232 73.6796 115.614 73.0552 115.305 72.743C114.996 72.4308 114.687 71.8064 114.687 71.182C114.687 68.6844 115.614 66.1868 117.16 64.3136C117.778 63.3769 118.705 62.4403 119.633 61.8159C120.251 61.1915 120.869 60.8793 121.797 60.2549H122.106C123.033 59.9427 123.961 59.6305 124.579 59.6305C125.197 59.6305 125.815 59.6305 126.434 59.9427C127.361 60.2549 127.979 60.5671 128.598 61.1915C128.598 61.1915 128.598 61.1915 128.907 61.5037L129.525 62.1281C129.834 62.4403 129.834 62.4403 129.834 62.7525C130.761 64.0014 130.761 65.8746 130.143 67.4356Z" stroke="#FF7B00" stroke-width="0.75" stroke-miterlimit="10" stroke-linecap="round" stroke-linejoin="round"/>
<path d="M115.615 68.3724C115.924 68.3724 116.233 68.6846 116.233 68.6846" stroke="#FF7B00" stroke-width="0.75" stroke-miterlimit="10" stroke-linecap="round" stroke-linejoin="round"/>
<path d="M115.923 67.1231C116.232 67.1231 116.232 67.1231 116.542 67.4353" stroke="#FF7B00" stroke-width="0.75" stroke-miterlimit="10" stroke-linecap="round" stroke-linejoin="round"/>
<path d="M115.615 67.7481C115.924 67.7481 115.924 68.0603 116.233 68.0603" stroke="#FF7B00" stroke-width="0.75" stroke-miterlimit="10" stroke-linecap="round" stroke-linejoin="round"/>
<path d="M118.087 64.3133C118.397 64.3133 118.397 64.6255 118.706 64.6255" stroke="#FF7B00" stroke-width="0.75" stroke-miterlimit="10" stroke-linecap="round" stroke-linejoin="round"/>
<path d="M118.396 63.689C118.705 63.689 118.705 63.689 119.014 64.0012" stroke="#FF7B00" stroke-width="0.75" stroke-miterlimit="10" stroke-linecap="round" stroke-linejoin="round"/>
<path d="M119.015 62.4403C119.324 62.4403 119.942 62.7525 120.252 62.7525" stroke="#FF7B00" stroke-width="0.75" stroke-miterlimit="10" stroke-linecap="round" stroke-linejoin="round"/>
<path d="M119.633 62.1278C119.942 62.1278 120.561 62.44 120.87 62.44" stroke="#FF7B00" stroke-width="0.75" stroke-miterlimit="10" stroke-linecap="round" stroke-linejoin="round"/>
<path d="M122.106 60.5673C122.724 60.5673 123.033 60.8795 123.343 61.1917" stroke="#FF7B00" stroke-width="0.75" stroke-miterlimit="10" stroke-linecap="round" stroke-linejoin="round"/>
<path d="M123.652 60.2551C124.27 60.5673 125.198 60.8795 125.507 61.5039" stroke="#FF7B00" stroke-width="0.75" stroke-miterlimit="10" stroke-linecap="round" stroke-linejoin="round"/>
<path d="M125.815 60.2551C126.433 60.5673 127.052 61.1917 127.67 61.8161" stroke="#FF7B00" stroke-width="0.75" stroke-miterlimit="10" stroke-linecap="round" stroke-linejoin="round"/>
<path d="M129.834 65.2501C130.143 65.8745 130.143 66.4989 130.143 66.8111" stroke="#FF7B00" stroke-width="0.75" stroke-miterlimit="10" stroke-linecap="round" stroke-linejoin="round"/>
<path d="M120.87 61.1919C121.179 61.1919 121.488 61.5041 121.797 61.8163" stroke="#FF7B00" stroke-width="0.75" stroke-miterlimit="10" stroke-linecap="round" stroke-linejoin="round"/>
<path d="M118.706 63.0647H119.015" stroke="#FF7B00" stroke-width="0.75" stroke-miterlimit="10" stroke-linecap="round" stroke-linejoin="round"/>
<path d="M110.05 58.3819C110.05 58.3819 108.504 62.1284 101.085 65.2504C97.9937 66.4992 94.9024 67.1236 91.8111 66.4992C87.1742 66.187 83.4646 62.4406 83.1555 57.4453C82.8463 54.3233 84.392 51.2013 86.5559 49.3281C88.7198 47.4549 91.502 46.8305 94.2841 46.8305C99.8484 47.1427 105.104 49.3281 109.431 53.0745C110.359 53.6989 110.668 54.9477 110.977 55.8843C110.668 56.8209 110.359 57.7575 110.05 58.3819Z" stroke="#FF7B00" stroke-width="0.75" stroke-miterlimit="10" stroke-linecap="round" stroke-linejoin="round"/>
<path d="M108.504 59.3188C108.195 59.0066 107.886 58.6944 107.886 58.3822" stroke="#FF7B00" stroke-width="0.75" stroke-miterlimit="10" stroke-linecap="round" stroke-linejoin="round"/>
<path d="M106.958 61.1921C106.649 60.8799 106.34 60.5677 106.34 59.9433" stroke="#FF7B00" stroke-width="0.75" stroke-miterlimit="10" stroke-linecap="round" stroke-linejoin="round"/>
<path d="M107.889 60.2555C107.889 60.2555 107.573 59.9433 107.889 60.2555" stroke="#FF7B00" stroke-width="0.75" stroke-miterlimit="10" stroke-linecap="round" stroke-linejoin="round"/>
<path d="M105.413 62.4405C105.103 62.1283 105.103 62.1283 104.794 61.8161" stroke="#FF7B00" stroke-width="0.75" stroke-miterlimit="10" stroke-linecap="round" stroke-linejoin="round"/>
<path d="M106.031 61.8159C105.722 61.5037 105.722 61.1915 105.412 60.8793" stroke="#FF7B00" stroke-width="0.75" stroke-miterlimit="10" stroke-linecap="round" stroke-linejoin="round"/>
<path d="M100.157 64.3141C99.8483 64.0019 99.8483 63.6897 99.5392 63.3775" stroke="#FF7B00" stroke-width="0.75" stroke-miterlimit="10" stroke-linecap="round" stroke-linejoin="round"/>
<path d="M98.921 64.9382C98.6119 64.626 98.6119 64.3138 98.3027 64.0016" stroke="#FF7B00" stroke-width="0.75" stroke-miterlimit="10" stroke-linecap="round" stroke-linejoin="round"/>
<path d="M97.3751 65.8745C96.7568 65.5623 96.4477 64.9378 96.1386 64.3134" stroke="#FF7B00" stroke-width="0.75" stroke-miterlimit="10" stroke-linecap="round" stroke-linejoin="round"/>
<path d="M96.1389 65.5626C95.5206 65.2504 95.2115 64.626 94.9024 64.0016" stroke="#FF7B00" stroke-width="0.75" stroke-miterlimit="10" stroke-linecap="round" stroke-linejoin="round"/>
<path d="M91.5019 65.5623C90.8836 64.9379 90.5745 64.3135 90.2654 63.6891" stroke="#FF7B00" stroke-width="0.75" stroke-miterlimit="10" stroke-linecap="round" stroke-linejoin="round"/>
<path d="M87.7928 64.0014C87.4837 63.6892 87.1746 63.377 87.1746 63.0648" stroke="#FF7B00" stroke-width="0.75" stroke-miterlimit="10" stroke-linecap="round" stroke-linejoin="round"/>
<path d="M92.1206 65.5624C91.5023 64.938 90.884 64.0014 90.5749 63.0648" stroke="#FF7B00" stroke-width="0.75" stroke-miterlimit="10" stroke-linecap="round" stroke-linejoin="round"/>
<path d="M90.2652 65.2506C89.3378 64.0018 89.0287 62.753 88.7195 61.192" stroke="#FF7B00" stroke-width="0.75" stroke-miterlimit="10" stroke-linecap="round" stroke-linejoin="round"/>
<path d="M89.0289 64.6262C88.4107 63.6896 87.7924 62.4408 87.4833 61.192" stroke="#FF7B00" stroke-width="0.75" stroke-miterlimit="10" stroke-linecap="round" stroke-linejoin="round"/>
<path d="M86.2464 63.0646C85.6281 61.8158 85.319 60.567 85.319 59.3182" stroke="#FF7B00" stroke-width="0.75" stroke-miterlimit="10" stroke-linecap="round" stroke-linejoin="round"/>
<path d="M86.2469 52.4499C86.556 51.5133 87.1743 50.2645 87.7925 49.6401" stroke="#FF7B00" stroke-width="0.75" stroke-miterlimit="10" stroke-linecap="round" stroke-linejoin="round"/>
<path d="M85.319 52.7622C85.6281 51.8256 85.9372 51.2012 86.5555 50.2646" stroke="#FF7B00" stroke-width="0.75" stroke-miterlimit="10" stroke-linecap="round" stroke-linejoin="round"/>
<path d="M87.7927 51.2009V50.8887" stroke="#FF7B00" stroke-width="0.75" stroke-miterlimit="10" stroke-linecap="round" stroke-linejoin="round"/>
<path d="M89.0291 49.3282V49.016" stroke="#FF7B00" stroke-width="0.75" stroke-miterlimit="10" stroke-linecap="round" stroke-linejoin="round"/>
<path d="M85.3196 61.8162C85.0104 61.1918 85.0104 60.5674 85.0104 60.2552" stroke="#FF7B00" stroke-width="0.75" stroke-miterlimit="10" stroke-linecap="round" stroke-linejoin="round"/>
<path d="M93.6656 65.5626C93.3565 65.2504 93.0474 64.626 92.7382 64.0016" stroke="#FF7B00" stroke-width="0.75" stroke-miterlimit="10" stroke-linecap="round" stroke-linejoin="round"/>
<path d="M97.9938 65.2503C97.6846 64.9381 97.6846 64.9381 97.6846 64.6259" stroke="#FF7B00" stroke-width="0.75" stroke-miterlimit="10" stroke-linecap="round" stroke-linejoin="round"/>
<g opacity="0.2">
<path opacity="0.2" d="M100.776 66.8109L100.467 66.1865C99.23 64.0011 97.9935 62.1279 96.1388 60.5669C94.9022 59.6303 93.6657 58.3814 92.4292 57.757C90.2653 56.196 87.7923 54.9472 85.0101 54.0106C84.701 54.0106 84.3919 53.6984 84.0827 53.6984C83.1554 53.3862 82.5371 53.074 81.6097 53.074H81.3006C80.3732 52.7618 79.1367 52.7618 77.9002 52.7618C76.6636 52.7618 75.7363 53.074 74.8089 53.6984C74.1906 54.0106 73.5724 54.635 73.2632 55.2594L72.9541 55.5716C72.645 56.196 72.645 56.5082 72.3358 57.1326C72.3358 57.757 72.0267 58.0692 72.0267 58.6936C72.0267 59.3181 72.0267 59.3181 72.0267 59.6303C71.7176 65.2499 72.645 70.5573 75.118 75.5526V75.8648L75.4271 76.177V75.8648H76.0454H76.6636H77.2819H77.9002C78.2093 75.8648 78.8275 75.8648 79.1367 75.8648C79.1367 75.8648 79.1367 75.8648 79.1367 76.177H79.4458H79.7549C80.9915 76.4892 82.228 76.8014 83.4645 77.1136L84.0827 77.4258L85.6284 78.0502H86.2466C89.0288 77.738 91.5018 77.4258 93.9749 77.1136C93.9749 77.1136 93.9749 77.1136 93.9749 77.4258L94.284 77.1136H94.5931C95.8296 77.1136 97.0662 77.1136 97.9935 77.1136H98.3027C98.3027 77.1136 98.3027 77.1136 98.3027 77.4258L97.9935 77.738L98.3027 78.0502V77.1136L98.6118 76.8014H101.085C101.394 76.177 101.703 75.5526 101.703 74.616V74.3038C102.63 71.8061 102.012 69.3085 100.776 66.8109Z" stroke="#FF7B00" stroke-width="0.75" stroke-linecap="round" stroke-linejoin="round"/>
<path opacity="0.2" d="M80.3736 53.3859C80.3736 54.0103 80.0645 54.3225 79.7553 54.6347" stroke="#FF7B00" stroke-width="0.75" stroke-linecap="round" stroke-linejoin="round"/>
<path opacity="0.2" d="M83.4641 54.0104C83.4641 54.6348 83.155 55.2592 82.5367 55.5714" stroke="#FF7B00" stroke-width="0.75" stroke-linecap="round" stroke-linejoin="round"/>
<path opacity="0.2" d="M81.6099 53.3859C81.6099 53.6981 81.6099 53.6981 81.6099 54.0103" stroke="#FF7B00" stroke-width="0.75" stroke-linecap="round" stroke-linejoin="round"/>
<path opacity="0.2" d="M86.2464 54.6348C86.2464 54.947 86.2464 55.2592 85.9373 55.5714" stroke="#FF7B00" stroke-width="0.75" stroke-linecap="round" stroke-linejoin="round"/>
<path opacity="0.2" d="M85.0104 54.3229C85.0104 54.6351 84.7012 55.2595 84.3921 55.2595" stroke="#FF7B00" stroke-width="0.75" stroke-linecap="round" stroke-linejoin="round"/>
<path opacity="0.2" d="M92.1201 59.0057C92.1201 59.3179 91.8109 59.6301 91.5018 59.9423" stroke="#FF7B00" stroke-width="0.75" stroke-linecap="round" stroke-linejoin="round"/>
<path opacity="0.2" d="M93.6659 59.6298C93.6659 59.942 93.3567 60.5664 93.0476 60.8786" stroke="#FF7B00" stroke-width="0.75" stroke-linecap="round" stroke-linejoin="round"/>
<path opacity="0.2" d="M95.8296 61.191C95.8296 62.1276 95.5204 62.752 94.9022 63.3764" stroke="#FF7B00" stroke-width="0.75" stroke-linecap="round" stroke-linejoin="round"/>
<path opacity="0.2" d="M96.4479 62.4396C96.4479 63.3762 96.1388 64.0006 95.5205 64.6251" stroke="#FF7B00" stroke-width="0.75" stroke-linecap="round" stroke-linejoin="round"/>
<path opacity="0.2" d="M100.157 67.7474C99.8483 68.684 99.5391 69.6206 98.9209 70.245" stroke="#FF7B00" stroke-width="0.75" stroke-linecap="round" stroke-linejoin="round"/>
<path opacity="0.2" d="M100.776 72.4302C100.776 73.0546 100.467 73.3668 99.8486 73.9912" stroke="#FF7B00" stroke-width="0.75" stroke-linecap="round" stroke-linejoin="round"/>
<path opacity="0.2" d="M99.2298 66.8106C98.9207 68.0594 98.3024 69.3082 97.3751 70.2448" stroke="#FF7B00" stroke-width="0.75" stroke-linecap="round" stroke-linejoin="round"/>
<path opacity="0.2" d="M100.467 68.9961C99.8485 70.5571 98.612 72.1181 97.0663 73.3669" stroke="#FF7B00" stroke-width="0.75" stroke-linecap="round" stroke-linejoin="round"/>
<path opacity="0.2" d="M100.466 70.8699C99.8481 72.4309 98.9208 73.6797 97.9934 74.9285" stroke="#FF7B00" stroke-width="0.75" stroke-linecap="round" stroke-linejoin="round"/>
<path opacity="0.2" d="M100.775 74.9282C100.775 74.9282 100.466 75.2404 100.157 75.5526C99.848 75.8648 99.5389 76.4892 99.2298 76.8014L98.9206 77.1136L98.6115 77.4258L98.9206 77.1136L99.2298 76.8014L100.157 75.8648L100.775 74.9282Z" stroke="#FF7B00" stroke-width="0.75" stroke-linecap="round" stroke-linejoin="round"/>
<path opacity="0.2" d="M98.6116 65.2495C98.3025 66.1861 97.9933 66.8105 97.3751 67.4349" stroke="#FF7B00" stroke-width="0.75" stroke-linecap="round" stroke-linejoin="round"/>
<path opacity="0.2" d="M94.5932 60.8793C94.5932 61.1915 94.5932 61.5037 94.2841 61.5037" stroke="#FF7B00" stroke-width="0.75" stroke-linecap="round" stroke-linejoin="round"/>
</g>
<path d="M101.085 66.1867C101.085 65.8745 101.085 65.5623 100.776 65.2501C99.8483 63.0647 98.3026 60.8793 96.4478 59.3183C95.2113 58.0695 93.9748 57.1329 92.7383 56.1963C90.5744 54.6352 88.1014 53.3864 85.3192 52.1376L84.3918 51.8254C83.4644 51.5132 82.537 51.201 81.9188 51.201H81.6097C80.6823 50.8888 79.4458 50.8888 78.2093 50.8888C76.9727 50.8888 76.0454 51.201 75.118 51.8254C74.4997 52.1376 73.8815 52.762 73.5723 53.6986V54.0108C73.2632 54.6352 73.2632 54.9475 72.9541 55.5719C72.9541 56.1963 72.6449 56.5085 72.6449 57.1329V58.0695C72.0267 64.0013 73.2632 69.6209 75.7362 74.9284V75.2406L76.0453 75.5528V75.2406H76.6636H77.2819H77.9001H78.5184C78.8275 75.2406 79.4458 75.2406 79.7549 75.2406C79.7549 75.2406 79.7549 75.2406 79.7549 75.5528H80.064H80.3731C81.6097 75.865 82.8462 76.1772 84.0827 76.8016L84.7009 77.1138C85.3192 77.426 85.6283 77.426 86.2466 77.7382H86.8649C89.3379 77.426 92.12 77.1138 94.5931 76.8016V77.1138C94.5931 77.1138 94.5931 77.1138 94.9022 76.8016H95.2113H98.6117H98.9209C98.9209 76.8016 98.9209 76.8016 98.9209 77.1138L98.6117 77.426L98.9209 77.7382C98.9209 77.426 98.9209 77.426 98.9209 77.1138L99.23 76.8016C99.23 76.8016 99.23 76.8016 99.5391 76.4894C100.467 76.4894 101.085 76.4894 102.012 76.4894C102.321 75.865 102.63 74.9284 102.63 74.304V73.9918C102.94 71.4942 102.321 68.6843 101.085 66.1867Z" stroke="#FF7B00" stroke-width="0.75" stroke-miterlimit="10"/>
<path d="M80.3736 51.8257C80.3736 52.4501 80.0644 52.7623 79.7553 53.3867" stroke="#FF7B00" stroke-width="0.75" stroke-miterlimit="10" stroke-linecap="round" stroke-linejoin="round"/>
<path d="M83.7737 52.45C83.7737 53.0744 83.4646 53.6988 82.8463 54.011" stroke="#FF7B00" stroke-width="0.75" stroke-miterlimit="10" stroke-linecap="round" stroke-linejoin="round"/>
<path d="M81.919 51.8257C81.919 52.1379 81.919 52.1379 81.6098 52.4501" stroke="#FF7B00" stroke-width="0.75" stroke-miterlimit="10" stroke-linecap="round" stroke-linejoin="round"/>
<path d="M86.2472 53.3868C86.2472 53.699 86.2472 54.0112 85.9381 54.3234" stroke="#FF7B00" stroke-width="0.75" stroke-miterlimit="10" stroke-linecap="round" stroke-linejoin="round"/>
<path d="M85.3199 53.0743C85.3199 53.3865 85.0108 54.0109 84.7017 54.3231" stroke="#FF7B00" stroke-width="0.75" stroke-miterlimit="10" stroke-linecap="round" stroke-linejoin="round"/>
<path d="M92.4296 58.0694C92.4296 58.3816 92.1205 59.006 91.8114 59.3182" stroke="#FF7B00" stroke-width="0.75" stroke-miterlimit="10" stroke-linecap="round" stroke-linejoin="round"/>
<path d="M93.6661 58.6937C93.6661 59.0059 93.3569 59.6303 93.0478 59.9425" stroke="#FF7B00" stroke-width="0.75" stroke-miterlimit="10" stroke-linecap="round" stroke-linejoin="round"/>
<path d="M96.1391 60.2551C96.1391 61.1917 95.83 62.1283 95.2117 62.7527" stroke="#FF7B00" stroke-width="0.75" stroke-miterlimit="10" stroke-linecap="round" stroke-linejoin="round"/>
<path d="M96.7574 61.5035C96.7574 62.4401 96.4483 63.3767 95.83 64.0012" stroke="#FF7B00" stroke-width="0.75" stroke-miterlimit="10" stroke-linecap="round" stroke-linejoin="round"/>
<path d="M100.158 67.1231C99.8484 68.0597 99.5393 68.9964 98.9211 69.6208" stroke="#FF7B00" stroke-width="0.75" stroke-miterlimit="10" stroke-linecap="round" stroke-linejoin="round"/>
<path d="M101.085 72.4309C101.085 73.0553 100.776 73.3675 100.467 73.9919" stroke="#FF7B00" stroke-width="0.75" stroke-miterlimit="10" stroke-linecap="round" stroke-linejoin="round"/>
<path d="M99.5394 66.1872C99.2303 67.436 98.612 68.6848 97.6846 69.9336" stroke="#FF7B00" stroke-width="0.75" stroke-miterlimit="10" stroke-linecap="round" stroke-linejoin="round"/>
<path d="M100.776 68.6843C100.158 70.5575 98.9215 72.1185 97.3759 73.3673" stroke="#FF7B00" stroke-width="0.75" stroke-miterlimit="10" stroke-linecap="round" stroke-linejoin="round"/>
<path d="M100.776 70.2454C100.157 71.8064 99.2301 73.3674 98.3027 74.3041" stroke="#FF7B00" stroke-width="0.75" stroke-miterlimit="10" stroke-linecap="round" stroke-linejoin="round"/>
<path d="M98.6124 64.6258C98.3032 65.5624 97.9941 66.1868 97.3759 66.8112" stroke="#FF7B00" stroke-width="0.75" stroke-miterlimit="10" stroke-linecap="round" stroke-linejoin="round"/>
<path d="M94.9027 59.9432C94.9027 60.2554 94.9027 60.5676 94.5936 60.5676" stroke="#FF7B00" stroke-width="0.75" stroke-miterlimit="10" stroke-linecap="round" stroke-linejoin="round"/>
<path d="M98.9208 77.4256V77.7378M98.9208 77.7378L99.2299 77.4256M98.9208 77.7378L99.2299 78.05C99.2299 77.7378 99.2299 77.7378 99.2299 77.4256M99.2299 77.4256C99.2299 77.1134 99.2299 77.1134 99.2299 77.1134H98.9208H95.5203H95.2112C94.9021 77.4256 94.9021 77.4256 94.9021 77.4256L94.593 77.1134C92.4291 74.3036 91.5017 70.5571 92.1199 67.1229V66.8107C92.1199 65.8741 92.4291 65.2497 92.7382 64.6253C93.6656 62.4399 94.9021 60.8789 96.4477 59.3179L97.3751 58.6935C101.085 56.1958 104.794 54.3226 109.122 53.386C111.595 52.7616 114.068 52.7616 116.85 52.7616C118.396 52.7616 119.632 53.386 120.56 54.3226C121.178 54.947 121.796 55.8836 121.796 56.8203C122.105 57.7569 122.105 59.0057 121.487 60.2545C121.487 60.5667 121.487 60.8789 121.487 61.1911C121.487 61.1911 121.487 61.5033 121.487 61.8155C121.178 64.9375 119.942 68.0595 118.396 70.8693C118.087 71.4938 117.468 72.4304 116.85 73.367C116.232 73.9914 115.923 74.6158 115.614 74.928C115.305 75.2402 115.305 75.2402 114.995 75.5524L114.686 75.8646L113.45 76.489C112.213 77.1134 111.286 77.4256 110.359 78.05H110.049L109.74 78.3622L109.122 78.6744M99.2299 77.4256L99.539 77.1134C99.539 77.1134 99.539 77.1134 99.8481 76.8012C100.776 76.8012 101.394 76.8012 102.321 76.8012H103.867L105.722 77.1134H106.031C107.267 77.4256 108.504 77.4256 109.74 77.7378L109.431 78.05L108.813 78.6744M108.813 78.6744L108.195 78.9866M108.813 78.6744H109.122M109.122 78.6744H109.431" stroke="#FF7B00" stroke-width="0.75" stroke-miterlimit="10" stroke-linecap="round" stroke-linejoin="round"/>
<path d="M121.488 79.9234C121.488 79.9234 124.579 78.9868 130.143 79.9234C130.143 79.9234 124.579 76.8014 120.251 78.3624C120.251 78.3624 122.106 75.8648 125.197 75.5526C125.197 75.5526 118.396 75.5526 115.614 77.738C115.614 77.738 119.324 73.6794 121.488 73.6794C121.488 73.6794 108.504 76.8014 105.722 78.9868C105.722 78.9868 109.432 73.6794 113.45 73.055C113.45 73.055 105.413 73.6794 99.2303 78.3624C99.2303 78.3624 105.104 70.2452 106.958 68.6842C106.958 68.6842 98.3029 71.8062 96.139 75.5526C96.139 75.5526 94.2842 73.3672 96.139 71.494C96.139 71.494 94.9025 71.8062 93.9751 76.177C93.9751 76.177 90.8838 71.8062 88.4108 72.4306C88.4108 72.4306 91.8112 75.5526 91.8112 78.3624C91.8112 78.3624 85.9377 72.4306 82.5373 73.3672C82.5373 73.3672 86.2469 76.177 86.8651 78.6746C86.8651 78.6746 80.3734 71.1818 76.0456 71.8062C76.0456 71.8062 79.1369 73.9916 79.446 75.5526C79.446 75.5526 72.6452 69.6208 64.917 74.3038C64.917 74.3038 72.6452 74.616 73.8817 77.1136" stroke="#FF7B00" stroke-width="0.75" stroke-miterlimit="10"/>
</svg>
