<svg width="427" height="121" viewBox="0 0 427 121" fill="none" xmlns="http://www.w3.org/2000/svg">
<path d="M79.9467 42.3269L79.9467 42.3271C79.8992 45.4414 79.2589 48.0342 78.4556 49.9624C77.6347 51.933 76.6914 53.1002 76.1293 53.4905C75.7875 53.7279 75.4048 54.0649 75.024 54.4003C74.9006 54.5089 74.7775 54.6173 74.656 54.7221C74.1238 55.1814 73.5121 55.6758 72.7561 56.1408C71.2627 57.0593 69.1408 57.9033 65.9197 58C62.0327 57.9963 58.3697 56.5011 55.8157 53.6453L55.7774 53.6026L55.7346 53.5645C53.4786 51.5595 52.4411 48.9412 51.9738 46.7701C51.7412 45.6893 51.6539 44.737 51.6249 44.0577C51.6105 43.7188 51.6106 43.4497 51.6141 43.2688C51.6158 43.1784 51.6184 43.1102 51.6205 43.0664C51.6209 43.0558 51.6214 43.0467 51.6218 43.039C51.6222 43.0309 51.6226 43.0244 51.6229 43.0196L51.6234 43.0114L51.6234 43.0107L51.6234 43.0106L51.6234 43.0102L51.6235 43.0097L51.6259 42.9762V42.9408C51.6259 37.3207 54.1753 34.0114 56.8363 32.0506C59.5399 30.0584 62.3841 29.448 62.8557 29.3614L62.5177 27.3903L51.7283 29.1108C51.5888 28.9739 51.4056 28.7819 51.1908 28.5287L50.4851 27.6973L49.7177 28.4722L49.0951 29.101L38.3475 27.292L37.9835 29.2583C38.4237 29.3472 41.2689 29.9593 43.985 31.9521C46.6601 33.9149 49.2308 37.2246 49.2308 42.8411V42.869L49.2323 42.8953L49.2323 42.8957L49.2323 42.8962L49.2323 42.8963L49.2324 42.8968L49.2328 42.9058C49.2332 42.9155 49.2339 42.9316 49.2346 42.954C49.236 42.9988 49.2377 43.0684 49.2383 43.1604C49.2396 43.3447 49.2364 43.6182 49.2183 43.962C49.1819 44.6509 49.0857 45.6146 48.8466 46.7039C48.3658 48.895 47.3266 51.5109 45.1231 53.4638L45.0924 53.491L45.064 53.5207C42.3869 56.3176 38.6989 57.8982 34.9296 57.9003C31.7128 57.8519 29.5956 57.0094 28.1053 56.0814C27.3505 55.6114 26.7395 55.109 26.2067 54.6417C26.0904 54.5397 25.9725 54.4343 25.8543 54.3286C25.4676 53.9828 25.0773 53.6338 24.7273 53.3908C24.1721 53.0052 23.2528 51.846 22.4544 49.8723C21.674 47.9431 21.0563 45.3471 21.0087 42.2274C21.0049 41.9783 20.9998 41.7206 20.9944 41.4544C20.9299 38.2422 20.8402 33.7824 22.8531 28.0746C25.0333 21.8926 29.7122 14.1733 39.7353 5.08597C45.972 -0.360865 55.1759 -0.361988 61.4138 5.08259C71.3371 14.2677 75.9687 22.0365 78.1256 28.2328C80.1165 33.9519 80.0258 38.3924 79.9611 41.5615C79.9557 41.8254 79.9505 42.0806 79.9467 42.3269Z" fill="#FFF6CC" stroke="#FF7B00" stroke-width="2"/>
<path d="M25.1446 33.5646C25.1446 33.5646 22.873 37.0557 24.552 45.7337C25.1446 49.125 26.7248 52.3169 29.0952 54.9103C31.9594 58.0025 36.305 60.4961 42.0333 57.2045C44.8975 55.5088 46.8728 52.5164 47.1691 49.125C47.4654 46.1326 46.5765 43.1403 44.7987 40.8461C41.1445 36.0583 36.0087 32.6669 30.1816 31.1707C29.0952 30.8714 27.8113 31.0709 26.8236 31.6694C26.0335 32.0684 25.4409 32.7666 25.1446 33.5646Z" fill="#FFF6CC" stroke="#FF7B00" stroke-width="0.75" stroke-miterlimit="10"/>
<path d="M25.2434 35.3601C25.6384 35.4598 26.1323 35.4598 26.5273 35.3601H25.2434Z" fill="#FFF6CC"/>
<path d="M25.2434 35.3601C25.6384 35.4598 26.1323 35.4598 26.5273 35.3601" stroke="#FF7B00" stroke-width="0.75" stroke-miterlimit="10"/>
<path d="M24.7495 37.8537C25.2434 37.9534 25.7372 37.9534 26.1323 37.7539L24.7495 37.8537Z" fill="#FFF6CC"/>
<path d="M24.7495 37.8537C25.2434 37.9534 25.7372 37.9534 26.1323 37.7539" stroke="#FF7B00" stroke-width="0.75" stroke-miterlimit="10"/>
<path d="M24.8483 36.3574C24.9471 36.4572 25.1446 36.4572 25.2434 36.4572L24.8483 36.3574Z" fill="#FFF6CC"/>
<path d="M24.8483 36.3574C24.9471 36.4572 25.1446 36.4572 25.2434 36.4572" stroke="#FF7B00" stroke-width="0.75" stroke-miterlimit="10"/>
<path d="M24.4533 40.1479C24.7495 40.2477 25.0458 40.2477 25.3421 40.1479H24.4533Z" fill="#FFF6CC"/>
<path d="M24.4533 40.1479C24.7495 40.2477 25.0458 40.2477 25.3421 40.1479" stroke="#FF7B00" stroke-width="0.75" stroke-miterlimit="10"/>
<path d="M24.6508 39.1503C24.9471 39.25 25.3421 39.1503 25.6384 39.0505L24.6508 39.1503Z" fill="#FFF6CC"/>
<path d="M24.6508 39.1503C24.9471 39.25 25.3421 39.1503 25.6384 39.0505" stroke="#FF7B00" stroke-width="0.75" stroke-miterlimit="10"/>
<path d="M25.9347 45.9332C26.231 46.033 26.6261 45.9332 26.9224 45.8335L25.9347 45.9332Z" fill="#FFF6CC"/>
<path d="M25.9347 45.9332C26.231 46.033 26.6261 45.9332 26.9224 45.8335" stroke="#FF7B00" stroke-width="0.75" stroke-miterlimit="10"/>
<path d="M26.0335 47.13C26.3298 47.2298 26.7248 47.13 27.0211 47.0303L26.0335 47.13Z" fill="#FFF6CC"/>
<path d="M26.0335 47.13C26.3298 47.2298 26.7248 47.13 27.0211 47.0303" stroke="#FF7B00" stroke-width="0.75" stroke-miterlimit="10"/>
<path d="M26.3298 49.3245C27.0211 49.524 27.7125 49.524 28.4038 49.3245H26.3298Z" fill="#FFF6CC"/>
<path d="M26.3298 49.3245C27.0211 49.524 27.7125 49.524 28.4038 49.3245" stroke="#FF7B00" stroke-width="0.75" stroke-miterlimit="10"/>
<path d="M27.1199 50.2222C27.8112 50.4217 28.5026 50.4217 29.194 50.2222H27.1199Z" fill="#FFF6CC"/>
<path d="M27.1199 50.2222C27.8112 50.4217 28.5026 50.4217 29.194 50.2222" stroke="#FF7B00" stroke-width="0.75" stroke-miterlimit="10"/>
<path d="M29.9841 54.5113C30.7742 54.7108 31.5643 54.611 32.3544 54.3118L29.9841 54.5113Z" fill="#FFF6CC"/>
<path d="M29.9841 54.5113C30.7742 54.7108 31.5643 54.611 32.3544 54.3118" stroke="#FF7B00" stroke-width="0.75" stroke-miterlimit="10"/>
<path d="M33.5396 56.7057C33.9346 56.8055 34.4285 56.7057 34.8235 56.606L33.5396 56.7057Z" fill="#FFF6CC"/>
<path d="M33.5396 56.7057C33.9346 56.8055 34.4285 56.7057 34.8235 56.606" stroke="#FF7B00" stroke-width="0.75" stroke-miterlimit="10"/>
<path d="M29.589 53.6137C30.6754 53.8132 31.7618 53.7134 32.7495 53.3145L29.589 53.6137Z" fill="#FFF6CC"/>
<path d="M29.589 53.6137C30.6754 53.8132 31.7618 53.7134 32.7495 53.3145" stroke="#FF7B00" stroke-width="0.75" stroke-miterlimit="10"/>
<path d="M31.0705 55.3093C32.5519 55.3093 34.1322 55.0101 35.5149 54.4116L31.0705 55.3093Z" fill="#FFF6CC"/>
<path d="M31.0705 55.3093C32.5519 55.3093 34.1322 55.0101 35.5149 54.4116" stroke="#FF7B00" stroke-width="0.75" stroke-miterlimit="10"/>
<path d="M32.2557 56.0076C33.5396 56.1073 34.9223 55.9078 36.1075 55.3093L32.2557 56.0076Z" fill="#FFF6CC"/>
<path d="M32.2557 56.0076C33.5396 56.1073 34.9223 55.9078 36.1075 55.3093" stroke="#FF7B00" stroke-width="0.75" stroke-miterlimit="10"/>
<path d="M35.4161 57.5036C36.7988 57.2044 38.0828 56.8054 39.2679 56.1072L35.4161 57.5036Z" fill="#FFF6CC"/>
<path d="M35.4161 57.5036C36.7988 57.2044 38.0828 56.8054 39.2679 56.1072" stroke="#FF7B00" stroke-width="0.75" stroke-miterlimit="10"/>
<path d="M44.7 51.0201C45.3913 50.1224 45.9839 49.0252 46.2802 47.928L44.7 51.0201Z" fill="#FFF6CC"/>
<path d="M44.7 51.0201C45.3913 50.1224 45.9839 49.0252 46.2802 47.928" stroke="#FF7B00" stroke-width="0.75" stroke-miterlimit="10"/>
<path d="M44.8975 52.2173C45.4901 51.4193 45.9839 50.6214 46.1814 49.7236L44.8975 52.2173Z" fill="#FFF6CC"/>
<path d="M44.8975 52.2173C45.4901 51.4193 45.9839 50.6214 46.1814 49.7236" stroke="#FF7B00" stroke-width="0.75" stroke-miterlimit="10"/>
<path d="M44.7987 49.2248C44.8975 49.125 44.9963 49.0253 45.095 48.9255L44.7987 49.2248Z" fill="#FFF6CC"/>
<path d="M44.7987 49.2248C44.8975 49.125 44.9963 49.0253 45.095 48.9255" stroke="#FF7B00" stroke-width="0.75" stroke-miterlimit="10"/>
<path d="M45.7864 46.831C45.8852 46.7312 45.9839 46.6315 46.0827 46.5317L45.7864 46.831Z" fill="#FFF6CC"/>
<path d="M45.7864 46.831C45.8852 46.7312 45.9839 46.6315 46.0827 46.5317" stroke="#FF7B00" stroke-width="0.75" stroke-miterlimit="10"/>
<path d="M37.0951 57.9028C37.6877 57.8031 38.2803 57.5038 38.7741 57.2046L37.0951 57.9028Z" fill="#FFF6CC"/>
<path d="M37.0951 57.9028C37.6877 57.8031 38.2803 57.5038 38.7741 57.2046" stroke="#FF7B00" stroke-width="0.75" stroke-miterlimit="10"/>
<path d="M28.7001 52.6161C29.3915 52.7159 29.9841 52.7159 30.6754 52.5164L28.7001 52.6161Z" fill="#FFF6CC"/>
<path d="M28.7001 52.6161C29.3915 52.7159 29.9841 52.7159 30.6754 52.5164" stroke="#FF7B00" stroke-width="0.75" stroke-miterlimit="10"/>
<path d="M26.5273 48.3271C26.7248 48.4269 26.9224 48.4269 27.1199 48.3271H26.5273Z" fill="#FFF6CC"/>
<path d="M26.5273 48.3271C26.7248 48.4269 26.9224 48.4269 27.1199 48.3271" stroke="#FF7B00" stroke-width="0.75" stroke-miterlimit="10"/>
<path d="M76.6997 33.5647C76.6997 33.5647 78.9713 37.0559 77.2923 45.7338C76.6997 49.1252 75.1195 52.3171 72.7491 54.8107C69.8849 57.9029 65.5393 60.3965 59.811 57.1049C56.9468 55.4092 54.9715 52.4168 54.6752 49.0254C54.3789 46.033 55.2678 43.0406 57.0455 40.7465C60.6998 35.9586 65.8356 32.5673 71.6627 31.0711C72.7491 30.7718 74.033 30.9713 75.0207 31.5698C75.8108 31.9688 76.4034 32.667 76.6997 33.5647Z" fill="#FFF6CC" stroke="#FF7B00" stroke-width="0.75" stroke-miterlimit="10"/>
<path d="M76.6009 35.3601C76.2059 35.4598 75.712 35.4598 75.317 35.3601H76.6009Z" fill="#FFF6CC"/>
<path d="M76.6009 35.3601C76.2059 35.4598 75.712 35.4598 75.317 35.3601" stroke="#FF7B00" stroke-width="0.75" stroke-miterlimit="10"/>
<path d="M77.0947 37.8539C76.6009 37.9536 76.1071 37.9536 75.712 37.7542L77.0947 37.8539Z" fill="#FFF6CC"/>
<path d="M77.0947 37.8539C76.6009 37.9536 76.1071 37.9536 75.712 37.7542" stroke="#FF7B00" stroke-width="0.75" stroke-miterlimit="10"/>
<path d="M76.996 36.3577C76.8972 36.4574 76.6997 36.4574 76.6009 36.4574L76.996 36.3577Z" fill="#FFF6CC"/>
<path d="M76.996 36.3577C76.8972 36.4574 76.6997 36.4574 76.6009 36.4574" stroke="#FF7B00" stroke-width="0.75" stroke-miterlimit="10"/>
<path d="M77.391 40.1479C77.0947 40.2477 76.7985 40.2477 76.5022 40.1479H77.391Z" fill="#FFF6CC"/>
<path d="M77.391 40.1479C77.0947 40.2477 76.7985 40.2477 76.5022 40.1479" stroke="#FF7B00" stroke-width="0.75" stroke-miterlimit="10"/>
<path d="M77.1935 39.1505C76.8972 39.2503 76.5022 39.1505 76.2059 39.0508L77.1935 39.1505Z" fill="#FFF6CC"/>
<path d="M77.1935 39.1505C76.8972 39.2503 76.5022 39.1505 76.2059 39.0508" stroke="#FF7B00" stroke-width="0.75" stroke-miterlimit="10"/>
<path d="M75.9096 45.9332C75.6133 46.033 75.2182 45.9332 74.9219 45.8335L75.9096 45.9332Z" fill="#FFF6CC"/>
<path d="M75.9096 45.9332C75.6133 46.033 75.2182 45.9332 74.9219 45.8335" stroke="#FF7B00" stroke-width="0.75" stroke-miterlimit="10"/>
<path d="M75.8108 47.1303C75.5145 47.23 75.1195 47.1303 74.8232 47.0305L75.8108 47.1303Z" fill="#FFF6CC"/>
<path d="M75.8108 47.1303C75.5145 47.23 75.1195 47.1303 74.8232 47.0305" stroke="#FF7B00" stroke-width="0.75" stroke-miterlimit="10"/>
<path d="M75.5145 49.3247C74.8232 49.5242 74.1318 49.5242 73.4405 49.3247H75.5145Z" fill="#FFF6CC"/>
<path d="M75.5145 49.3247C74.8232 49.5242 74.1318 49.5242 73.4405 49.3247" stroke="#FF7B00" stroke-width="0.75" stroke-miterlimit="10"/>
<path d="M74.7244 50.2224C74.033 50.4219 73.3417 50.4219 72.6503 50.2224H74.7244Z" fill="#FFF6CC"/>
<path d="M74.7244 50.2224C74.033 50.4219 73.3417 50.4219 72.6503 50.2224" stroke="#FF7B00" stroke-width="0.75" stroke-miterlimit="10"/>
<path d="M71.8602 54.5115C71.0701 54.711 70.28 54.6112 69.4899 54.312L71.8602 54.5115Z" fill="#FFF6CC"/>
<path d="M71.8602 54.5115C71.0701 54.711 70.28 54.6112 69.4899 54.312" stroke="#FF7B00" stroke-width="0.75" stroke-miterlimit="10"/>
<path d="M68.3047 56.7059C67.9096 56.8057 67.4158 56.7059 67.0208 56.6062L68.3047 56.7059Z" fill="#FFF6CC"/>
<path d="M68.3047 56.7059C67.9096 56.8057 67.4158 56.7059 67.0208 56.6062" stroke="#FF7B00" stroke-width="0.75" stroke-miterlimit="10"/>
<path d="M72.2553 53.6137C71.1689 53.8132 70.0825 53.7134 69.0948 53.3145L72.2553 53.6137Z" fill="#FFF6CC"/>
<path d="M72.2553 53.6137C71.1689 53.8132 70.0825 53.7134 69.0948 53.3145" stroke="#FF7B00" stroke-width="0.75" stroke-miterlimit="10"/>
<path d="M70.7738 55.3093C69.2923 55.3093 67.7121 55.0101 66.3294 54.4116L70.7738 55.3093Z" fill="#FFF6CC"/>
<path d="M70.7738 55.3093C69.2923 55.3093 67.7121 55.0101 66.3294 54.4116" stroke="#FF7B00" stroke-width="0.75" stroke-miterlimit="10"/>
<path d="M69.5886 56.0076C68.3047 56.1073 66.922 55.9078 65.7368 55.3093L69.5886 56.0076Z" fill="#FFF6CC"/>
<path d="M69.5886 56.0076C68.3047 56.1073 66.922 55.9078 65.7368 55.3093" stroke="#FF7B00" stroke-width="0.75" stroke-miterlimit="10"/>
<path d="M66.4282 57.5039C65.0455 57.2046 63.7615 56.8056 62.4776 56.1074L66.4282 57.5039Z" fill="#FFF6CC"/>
<path d="M66.4282 57.5039C65.0455 57.2046 63.7615 56.8056 62.4776 56.1074" stroke="#FF7B00" stroke-width="0.75" stroke-miterlimit="10"/>
<path d="M57.1443 51.0204C56.453 50.1226 55.8604 49.0254 55.5641 47.9282L57.1443 51.0204Z" fill="#FFF6CC"/>
<path d="M57.1443 51.0204C56.453 50.1226 55.8604 49.0254 55.5641 47.9282" stroke="#FF7B00" stroke-width="0.75" stroke-miterlimit="10"/>
<path d="M56.9468 52.2173C56.3542 51.5191 55.8604 50.6214 55.6628 49.7236L56.9468 52.2173Z" fill="#FFF6CC"/>
<path d="M56.9468 52.2173C56.3542 51.5191 55.8604 50.6214 55.6628 49.7236" stroke="#FF7B00" stroke-width="0.75" stroke-miterlimit="10"/>
<path d="M57.0455 49.225C56.9468 49.1253 56.848 49.0255 56.7493 48.9258L57.0455 49.225Z" fill="#FFF6CC"/>
<path d="M57.0455 49.225C56.9468 49.1253 56.848 49.0255 56.7493 48.9258" stroke="#FF7B00" stroke-width="0.75" stroke-miterlimit="10"/>
<path d="M56.0579 46.831C55.9591 46.7312 55.8604 46.6315 55.7616 46.5317L56.0579 46.831Z" fill="#FFF6CC"/>
<path d="M56.0579 46.831C55.9591 46.7312 55.8604 46.6315 55.7616 46.5317" stroke="#FF7B00" stroke-width="0.75" stroke-miterlimit="10"/>
<path d="M64.7492 57.9028C64.1566 57.8031 63.564 57.5038 63.0702 57.2046L64.7492 57.9028Z" fill="#FFF6CC"/>
<path d="M64.7492 57.9028C64.1566 57.8031 63.564 57.5038 63.0702 57.2046" stroke="#FF7B00" stroke-width="0.75" stroke-miterlimit="10"/>
<path d="M73.1442 52.6163C72.4528 52.7161 71.8602 52.7161 71.1689 52.5166L73.1442 52.6163Z" fill="#FFF6CC"/>
<path d="M73.1442 52.6163C72.4528 52.7161 71.8602 52.7161 71.1689 52.5166" stroke="#FF7B00" stroke-width="0.75" stroke-miterlimit="10"/>
<path d="M75.317 48.3271C75.1194 48.4269 74.9219 48.4269 74.7244 48.3271H75.317Z" fill="#FFF6CC"/>
<path d="M75.317 48.3271C75.1194 48.4269 74.9219 48.4269 74.7244 48.3271" stroke="#FF7B00" stroke-width="0.75" stroke-miterlimit="10"/>
<path d="M40.6109 26.5324C40.6109 26.5324 38.9319 28.0286 38.9319 29.1258C38.9319 29.1258 40.0183 27.6297 41.006 27.3304C41.006 27.3304 40.6109 28.1284 40.7097 28.7269C40.7097 28.7269 41.8948 28.0286 41.8948 27.8291C41.8948 27.6297 41.8948 28.0286 41.8948 28.0286C41.8948 28.0286 41.9936 31.2205 43.2775 31.7193C43.2775 31.7193 42.685 30.3228 43.2775 29.1258C43.2775 29.1258 43.3763 30.5223 44.2652 30.9213C44.2652 30.9213 43.9689 29.9238 44.2652 28.6271C44.2652 28.6271 44.6602 30.7218 45.7467 31.3203C45.7467 31.3203 45.0553 29.9238 45.5491 29.1258C45.5491 29.1258 46.0429 31.2205 49.5985 32.7167C49.5985 32.7167 48.3145 30.5223 48.4133 29.6246C48.4133 29.6246 49.3022 31.2205 49.8948 31.5198C49.8948 31.5198 50.4874 30.2231 50.7836 30.0236C50.7836 30.0236 50.6849 31.2205 50.4874 31.6195C50.4874 31.6195 51.7713 30.8215 52.3639 29.6246C52.3639 29.6246 52.2651 31.7193 51.7713 32.3177C51.7713 32.3177 53.7466 30.5223 53.8453 29.6246C53.8453 29.6246 53.8453 30.9213 53.3515 31.5198C53.3515 31.5198 55.0305 30.4226 55.3268 29.6246C55.3268 29.6246 55.4256 31.9187 54.5367 32.218C54.5367 32.218 58.3885 29.8241 58.4873 28.3279C58.4873 28.3279 58.3885 30.1233 57.8947 30.2231C57.8947 30.2231 58.9811 29.5248 59.0799 28.4276C59.0799 28.4276 60.0675 29.2256 59.7712 30.3228C59.7712 30.3228 60.4626 29.2256 60.4626 28.4276C60.4626 28.4276 62.1416 29.9238 61.8453 31.3203C61.8453 31.3203 63.1292 29.6246 62.5366 26.4327C62.5366 26.4327 63.4255 27.0312 63.5243 27.9289C63.5243 27.9289 63.9193 27.1309 63.5243 25.8342C63.5243 25.8342 64.7094 26.0337 65.4008 27.0312C65.4008 27.0312 64.6107 25.535 63.228 24.6373C63.228 24.6373 64.2156 24.338 64.5119 24.6373C64.5119 24.6373 63.7218 23.8393 62.8329 23.6398C62.8329 23.6398 64.907 23.2408 65.5983 23.6398C65.5983 23.6398 64.1169 21.7446 61.4502 21.4454C61.4502 21.4454 61.8453 20.7472 62.4379 20.8469C62.4379 20.8469 61.0552 20.5477 60.6601 20.5477C60.6601 20.5477 62.7342 19.5502 63.1292 19.7497C63.1292 19.7497 62.7342 19.0515 59.1786 19.1512C59.1786 19.1512 59.87 18.453 60.9564 18.3532C60.9564 18.3532 59.5737 17.9543 57.0058 18.6525C57.0058 18.6525 58.191 17.5553 58.6848 17.655C58.6848 17.655 57.4996 17.5553 55.8206 18.6525C55.8206 18.6525 56.2157 17.7548 56.8083 17.655C56.8083 17.655 55.5243 17.655 54.833 18.3532C54.833 18.3532 54.7342 17.7548 55.5243 17.3558C55.5243 17.3558 53.8453 17.256 53.154 17.9543C53.154 17.9543 53.154 17.3558 53.7466 16.9568C53.7466 16.9568 52.5614 16.9568 51.9688 17.655C51.9688 17.655 51.6725 17.7548 51.2775 17.3558C51.2775 17.3558 50.8824 17.7548 51.1787 18.3532C51.1787 18.3532 49.796 18.6525 50.4874 16.9568C50.4874 16.9568 49.3022 17.3558 48.7096 18.054C48.7096 18.054 48.8084 17.7548 46.8331 17.3558C46.8331 17.3558 48.0182 18.054 48.0182 18.5527C48.0182 18.5527 47.4257 17.8545 45.0553 17.4555C45.0553 17.4555 45.8454 17.7548 45.6479 18.6525C45.6479 18.6525 45.7467 17.8545 44.5615 17.655C44.5615 17.655 44.8578 18.453 44.1664 18.453C44.1664 18.453 44.0677 17.4555 43.1788 17.3558C43.1788 17.3558 43.7714 18.054 43.4751 18.1537C43.4751 18.1537 42.4874 17.7548 41.5985 18.054C41.5985 18.054 42.685 18.3532 42.7837 19.1512C42.7837 19.1512 41.6973 17.9543 39.1294 19.251C39.1294 19.251 41.8948 19.1512 42.0924 19.8494C42.0924 19.8494 40.3146 19.251 38.6356 19.8494C38.6356 19.8494 40.5121 19.9492 40.8084 20.4479C40.8084 20.4479 38.2406 20.0489 35.8702 21.4454C35.8702 21.4454 38.3393 21.1461 38.6356 21.8444C38.6356 21.8444 36.0677 22.1436 35.7714 23.0413C35.7714 23.0413 37.1541 22.4428 38.7344 22.4428C38.7344 22.4428 36.8578 23.0413 36.1665 26.7319C36.1665 26.7319 37.648 24.6373 39.4257 24.2383C39.4257 24.2383 37.5492 25.6347 37.5492 26.333C37.5492 26.333 38.6356 25.535 39.2282 25.6347C39.2282 25.6347 38.4381 26.3329 38.2406 27.1309C38.1418 27.5299 40.1171 26.2332 40.6109 26.5324Z" fill="#FFF6CC" stroke="#FF7B00" stroke-width="0.75" stroke-miterlimit="10"/>
<path d="M45.8454 24.9365C45.8454 24.9365 43.7714 25.2358 43.2775 26.1335L45.8454 24.9365Z" fill="#FFF6CC"/>
<path d="M45.8454 24.9365C45.8454 24.9365 43.7714 25.2358 43.2775 26.1335" stroke="#FF7B00" stroke-width="0.75" stroke-miterlimit="10"/>
<path d="M46.5368 24.9365C46.5368 24.9365 44.3639 25.7345 44.1664 26.8317L46.5368 24.9365Z" fill="#FFF6CC"/>
<path d="M46.5368 24.9365C46.5368 24.9365 44.3639 25.7345 44.1664 26.8317" stroke="#FF7B00" stroke-width="0.75" stroke-miterlimit="10"/>
<path d="M47.722 25.5348C47.722 25.5348 45.8454 25.4351 45.3516 26.5323L47.722 25.5348Z" fill="#FFF6CC"/>
<path d="M47.722 25.5348C47.722 25.5348 45.8454 25.4351 45.3516 26.5323" stroke="#FF7B00" stroke-width="0.75" stroke-miterlimit="10"/>
<path d="M50.6849 25.5349C50.6849 25.5349 49.5985 27.0311 49.9935 28.6271L50.6849 25.5349Z" fill="#FFF6CC"/>
<path d="M50.6849 25.5349C50.6849 25.5349 49.5985 27.0311 49.9935 28.6271" stroke="#FF7B00" stroke-width="0.75" stroke-miterlimit="10"/>
<path d="M51.0799 24.9365C51.0799 24.9365 52.0676 27.0312 51.5738 28.2282L51.0799 24.9365Z" fill="#FFF6CC"/>
<path d="M51.0799 24.9365C51.0799 24.9365 52.0676 27.0312 51.5738 28.2282" stroke="#FF7B00" stroke-width="0.75" stroke-miterlimit="10"/>
<path d="M53.8454 26.1335C53.8454 26.1335 54.3392 26.732 54.3392 27.0313L53.8454 26.1335Z" fill="#FFF6CC"/>
<path d="M53.8454 26.1335C53.8454 26.1335 54.3392 26.732 54.3392 27.0313" stroke="#FF7B00" stroke-width="0.75" stroke-miterlimit="10"/>
<path d="M53.8454 25.3354C54.1417 25.3354 56.9071 27.4301 56.9071 27.8291L53.8454 25.3354Z" fill="#FFF6CC"/>
<path d="M53.8454 25.3354C54.1417 25.3354 56.9071 27.4301 56.9071 27.8291" stroke="#FF7B00" stroke-width="0.75" stroke-miterlimit="10"/>
<path d="M54.2404 25.3354C54.2404 25.3354 55.0305 26.4327 55.0305 26.8316L54.2404 25.3354Z" fill="#FFF6CC"/>
<path d="M54.2404 25.3354C54.2404 25.3354 55.0305 26.4327 55.0305 26.8316" stroke="#FF7B00" stroke-width="0.75" stroke-miterlimit="10"/>
<path d="M55.0305 25.3354C55.0305 25.3354 55.8206 25.9339 56.0182 26.2332L55.0305 25.3354Z" fill="#FFF6CC"/>
<path d="M55.0305 25.3354C55.0305 25.3354 55.8206 25.9339 56.0182 26.2332" stroke="#FF7B00" stroke-width="0.75" stroke-miterlimit="10"/>
<path d="M55.4256 24.9365C55.4256 24.9365 56.512 25.3355 56.7095 25.7345L55.4256 24.9365Z" fill="#FFF6CC"/>
<path d="M55.4256 24.9365C55.4256 24.9365 56.512 25.3355 56.7095 25.7345" stroke="#FF7B00" stroke-width="0.75" stroke-miterlimit="10"/>
<path d="M58.7836 25.9341C58.7836 25.9341 59.6725 26.5326 59.6725 27.131L58.7836 25.9341Z" fill="#FFF6CC"/>
<path d="M58.7836 25.9341C58.7836 25.9341 59.6725 26.5326 59.6725 27.131" stroke="#FF7B00" stroke-width="0.75" stroke-miterlimit="10"/>
<path d="M58.7836 25.3354C58.7836 25.3354 60.0675 25.7344 60.1663 26.2332L58.7836 25.3354Z" fill="#FFF6CC"/>
<path d="M58.7836 25.3354C58.7836 25.3354 60.0675 25.7344 60.1663 26.2332" stroke="#FF7B00" stroke-width="0.75" stroke-miterlimit="10"/>
<path d="M46.9318 23.3406C46.9318 23.4403 46.8331 23.5401 46.7343 23.6398C46.6355 23.8393 46.438 23.9391 46.2405 23.9391C46.0429 24.0388 45.8454 24.0388 45.6479 24.0388H45.4504C45.0553 24.0388 44.6602 24.0388 44.2652 23.9391C44.0677 23.9391 43.9689 23.8393 43.7714 23.8393L43.3763 23.7396C43.08 23.6398 42.7837 23.4403 42.4874 23.3406L42.3887 23.2408C41.9936 23.0414 41.6973 22.7421 41.401 22.4429C41.2035 22.2434 41.1047 21.9441 40.9072 21.7446C40.8084 21.4454 40.7097 21.1462 40.7097 20.9467C40.7097 20.3482 40.9072 19.8495 41.2035 19.3507C41.6973 18.6525 42.4874 18.3533 43.2775 18.3533C43.9689 18.3533 44.6602 18.6525 45.0553 19.1512C46.1417 20.1487 46.7343 21.5452 46.9318 22.9416C47.0306 23.1411 47.0306 23.2408 46.9318 23.3406Z" fill="#FFF6CC" stroke="#FF7B00" stroke-width="0.75" stroke-miterlimit="10"/>
<path d="M43.3763 23.5401C43.3763 23.4403 43.3763 23.3406 43.4751 23.3406L43.3763 23.5401Z" fill="#FFF6CC"/>
<path d="M43.3763 23.5401C43.3763 23.4403 43.3763 23.3406 43.4751 23.3406" stroke="#FF7B00" stroke-width="0.75" stroke-linecap="round" stroke-linejoin="round"/>
<path d="M43.08 23.4402C43.08 23.3405 43.08 23.2407 43.1788 23.2407L43.08 23.4402Z" fill="#FFF6CC"/>
<path d="M43.08 23.4402C43.08 23.3405 43.08 23.2407 43.1788 23.2407" stroke="#FF7B00" stroke-width="0.75" stroke-linecap="round" stroke-linejoin="round"/>
<path d="M42.5862 23.3405C42.5862 23.141 42.5862 23.0413 42.685 22.8418L42.5862 23.3405Z" fill="#FFF6CC"/>
<path d="M42.5862 23.3405C42.5862 23.141 42.5862 23.0413 42.685 22.8418" stroke="#FF7B00" stroke-width="0.75" stroke-linecap="round" stroke-linejoin="round"/>
<path d="M42.3887 23.1411C42.3887 22.9416 42.3887 22.8418 42.4874 22.6423L42.3887 23.1411Z" fill="#FFF6CC"/>
<path d="M42.3887 23.1411C42.3887 22.9416 42.3887 22.8418 42.4874 22.6423" stroke="#FF7B00" stroke-width="0.75" stroke-linecap="round" stroke-linejoin="round"/>
<path d="M41.401 22.2435C41.401 22.044 41.401 21.8445 41.4998 21.645L41.401 22.2435Z" fill="#FFF6CC"/>
<path d="M41.401 22.2435C41.401 22.044 41.401 21.8445 41.4998 21.645" stroke="#FF7B00" stroke-width="0.75" stroke-linecap="round" stroke-linejoin="round"/>
<path d="M41.5985 22.443C41.5985 22.1438 41.5985 21.9443 41.7961 21.645L41.5985 22.443Z" fill="#FFF6CC"/>
<path d="M41.5985 22.443C41.5985 22.1438 41.5985 21.9443 41.7961 21.645" stroke="#FF7B00" stroke-width="0.75" stroke-linecap="round" stroke-linejoin="round"/>
<path d="M41.3022 21.9442C41.3022 21.5453 41.4998 21.246 41.6973 20.9468L41.3022 21.9442Z" fill="#FFF6CC"/>
<path d="M41.3022 21.9442C41.3022 21.5453 41.4998 21.246 41.6973 20.9468" stroke="#FF7B00" stroke-width="0.75" stroke-linecap="round" stroke-linejoin="round"/>
<path d="M41.1047 21.7446C41.1047 21.4454 41.2035 21.1462 41.401 20.8469L41.1047 21.7446Z" fill="#FFF6CC"/>
<path d="M41.1047 21.7446C41.1047 21.4454 41.2035 21.1462 41.401 20.8469" stroke="#FF7B00" stroke-width="0.75" stroke-linecap="round" stroke-linejoin="round"/>
<path d="M40.9072 20.8469C41.006 20.5477 41.2035 20.2485 41.401 19.9492L40.9072 20.8469Z" fill="#FFF6CC"/>
<path d="M40.9072 20.8469C41.006 20.5477 41.2035 20.2485 41.401 19.9492" stroke="#FF7B00" stroke-width="0.75" stroke-linecap="round" stroke-linejoin="round"/>
<path d="M42.685 18.852C42.8825 18.6525 43.1788 18.5527 43.4751 18.5527L42.685 18.852Z" fill="#FFF6CC"/>
<path d="M42.685 18.852C42.8825 18.6525 43.1788 18.5527 43.4751 18.5527" stroke="#FF7B00" stroke-width="0.75" stroke-linecap="round" stroke-linejoin="round"/>
<path d="M42.3887 18.7522C42.5862 18.6525 42.7837 18.5527 42.9812 18.5527L42.3887 18.7522Z" fill="#FFF6CC"/>
<path d="M42.3887 18.7522C42.5862 18.6525 42.7837 18.5527 42.9812 18.5527" stroke="#FF7B00" stroke-width="0.75" stroke-linecap="round" stroke-linejoin="round"/>
<path d="M43.08 18.8521C43.1788 18.8521 43.1788 18.8521 43.08 18.8521V18.8521Z" fill="#FFF6CC"/>
<path d="M43.08 18.8521C43.1788 18.8521 43.1788 18.8521 43.08 18.8521" stroke="#FF7B00" stroke-width="0.75" stroke-linecap="round" stroke-linejoin="round"/>
<path d="M40.8084 20.4481C40.8084 20.3483 40.9072 20.1488 41.006 20.0491L40.8084 20.4481Z" fill="#FFF6CC"/>
<path d="M40.8084 20.4481C40.8084 20.3483 40.9072 20.1488 41.006 20.0491" stroke="#FF7B00" stroke-width="0.75" stroke-linecap="round" stroke-linejoin="round"/>
<path d="M41.7961 22.6423C41.7961 22.4428 41.7961 22.343 41.8948 22.1436L41.7961 22.6423Z" fill="#FFF6CC"/>
<path d="M41.7961 22.6423C41.7961 22.4428 41.7961 22.343 41.8948 22.1436" stroke="#FF7B00" stroke-width="0.75" stroke-linecap="round" stroke-linejoin="round"/>
<path d="M42.7837 23.3405V23.2407V23.3405Z" fill="#FFF6CC"/>
<path d="M42.7837 23.3405V23.2407" stroke="#FF7B00" stroke-width="0.75" stroke-linecap="round" stroke-linejoin="round"/>
<path d="M61.549 21.5452C61.4502 21.7447 61.4502 21.8444 61.3515 21.9442V22.0439C61.0552 22.3431 60.7589 22.5426 60.4626 22.7421C60.4626 22.7421 60.4626 22.8419 60.5613 22.8419C60.3638 22.9416 60.1663 23.0414 59.9688 23.1411C59.7712 23.2409 59.6725 23.2409 59.4749 23.3406C58.7836 23.5401 58.0922 23.6398 57.4009 23.5401H57.3021C57.1046 23.5401 56.9071 23.3406 56.8083 23.2409C56.7095 23.1411 56.6108 22.9416 56.6108 22.7421C56.6108 21.9442 56.907 21.1462 57.4009 20.5477C57.5984 20.2485 57.8947 19.9492 58.191 19.7497C58.3885 19.5502 58.586 19.4505 58.8823 19.251H58.9811C59.2774 19.1513 59.5737 19.0515 59.7712 19.0515C59.9688 19.0515 60.1663 19.0515 60.3638 19.1513C60.6601 19.251 60.8576 19.3508 61.0552 19.5502C61.0552 19.5502 61.0552 19.5502 61.1539 19.65L61.3515 19.8495C61.4502 19.9492 61.4502 19.9492 61.4502 20.049C61.7465 20.448 61.7465 21.0464 61.549 21.5452Z" fill="#FFF6CC" stroke="#FF7B00" stroke-width="0.75" stroke-miterlimit="10" stroke-linecap="round" stroke-linejoin="round"/>
<path d="M56.9071 21.8445C57.0058 21.8445 57.1046 21.9442 57.1046 21.9442L56.9071 21.8445Z" fill="#FFF6CC"/>
<path d="M56.9071 21.8445C57.0058 21.8445 57.1046 21.9442 57.1046 21.9442" stroke="#FF7B00" stroke-width="0.75" stroke-miterlimit="10" stroke-linecap="round" stroke-linejoin="round"/>
<path d="M57.0058 21.4453C57.1046 21.4453 57.1046 21.4453 57.2033 21.5451L57.0058 21.4453Z" fill="#FFF6CC"/>
<path d="M57.0058 21.4453C57.1046 21.4453 57.1046 21.4453 57.2033 21.5451" stroke="#FF7B00" stroke-width="0.75" stroke-miterlimit="10" stroke-linecap="round" stroke-linejoin="round"/>
<path d="M56.9071 21.645C57.0058 21.645 57.0058 21.7448 57.1046 21.7448L56.9071 21.645Z" fill="#FFF6CC"/>
<path d="M56.9071 21.645C57.0058 21.645 57.0058 21.7448 57.1046 21.7448" stroke="#FF7B00" stroke-width="0.75" stroke-miterlimit="10" stroke-linecap="round" stroke-linejoin="round"/>
<path d="M57.6972 20.5476C57.7959 20.5476 57.7959 20.6474 57.8947 20.6474L57.6972 20.5476Z" fill="#FFF6CC"/>
<path d="M57.6972 20.5476C57.7959 20.5476 57.7959 20.6474 57.8947 20.6474" stroke="#FF7B00" stroke-width="0.75" stroke-miterlimit="10" stroke-linecap="round" stroke-linejoin="round"/>
<path d="M57.7959 20.3481C57.8947 20.3481 57.8947 20.3481 57.9935 20.4479L57.7959 20.3481Z" fill="#FFF6CC"/>
<path d="M57.7959 20.3481C57.8947 20.3481 57.8947 20.3481 57.9935 20.4479" stroke="#FF7B00" stroke-width="0.75" stroke-miterlimit="10" stroke-linecap="round" stroke-linejoin="round"/>
<path d="M57.9935 19.9492C58.0922 19.9492 58.2897 20.049 58.3885 20.049L57.9935 19.9492Z" fill="#FFF6CC"/>
<path d="M57.9935 19.9492C58.0922 19.9492 58.2897 20.049 58.3885 20.049" stroke="#FF7B00" stroke-width="0.75" stroke-miterlimit="10" stroke-linecap="round" stroke-linejoin="round"/>
<path d="M58.191 19.8494C58.2898 19.8494 58.4873 19.9491 58.586 19.9491L58.191 19.8494Z" fill="#FFF6CC"/>
<path d="M58.191 19.8494C58.2898 19.8494 58.4873 19.9491 58.586 19.9491" stroke="#FF7B00" stroke-width="0.75" stroke-miterlimit="10" stroke-linecap="round" stroke-linejoin="round"/>
<path d="M58.9811 19.3508C59.1786 19.3508 59.2774 19.4506 59.3762 19.5503L58.9811 19.3508Z" fill="#FFF6CC"/>
<path d="M58.9811 19.3508C59.1786 19.3508 59.2774 19.4506 59.3762 19.5503" stroke="#FF7B00" stroke-width="0.75" stroke-miterlimit="10" stroke-linecap="round" stroke-linejoin="round"/>
<path d="M59.4749 19.251C59.6725 19.3507 59.9687 19.4505 60.0675 19.65L59.4749 19.251Z" fill="#FFF6CC"/>
<path d="M59.4749 19.251C59.6725 19.3507 59.9687 19.4505 60.0675 19.65" stroke="#FF7B00" stroke-width="0.75" stroke-miterlimit="10" stroke-linecap="round" stroke-linejoin="round"/>
<path d="M60.1663 19.251C60.3638 19.3507 60.5613 19.5502 60.7589 19.7497L60.1663 19.251Z" fill="#FFF6CC"/>
<path d="M60.1663 19.251C60.3638 19.3507 60.5613 19.5502 60.7589 19.7497" stroke="#FF7B00" stroke-width="0.75" stroke-miterlimit="10" stroke-linecap="round" stroke-linejoin="round"/>
<path d="M61.4502 20.8469C61.549 21.0464 61.549 21.2459 61.549 21.3457L61.4502 20.8469Z" fill="#FFF6CC"/>
<path d="M61.4502 20.8469C61.549 21.0464 61.549 21.2459 61.549 21.3457" stroke="#FF7B00" stroke-width="0.75" stroke-miterlimit="10" stroke-linecap="round" stroke-linejoin="round"/>
<path d="M58.586 19.5503C58.6848 19.5503 58.7836 19.65 58.8823 19.7498L58.586 19.5503Z" fill="#FFF6CC"/>
<path d="M58.586 19.5503C58.6848 19.5503 58.7836 19.65 58.8823 19.7498" stroke="#FF7B00" stroke-width="0.75" stroke-miterlimit="10" stroke-linecap="round" stroke-linejoin="round"/>
<path d="M57.8947 20.1487H57.9935H57.8947Z" fill="#FFF6CC"/>
<path d="M57.8947 20.1487H57.9935" stroke="#FF7B00" stroke-width="0.75" stroke-miterlimit="10" stroke-linecap="round" stroke-linejoin="round"/>
<path d="M55.1293 18.6525C55.1293 18.6525 54.6355 19.8495 52.2651 20.847C51.2775 21.2459 50.2898 21.4454 49.3022 21.2459C47.8207 21.1462 46.6355 19.9492 46.5368 18.3533C46.438 17.3558 46.9318 16.3584 47.6232 15.7599C48.3145 15.1614 49.2034 14.9619 50.0923 14.9619C51.8701 15.0617 53.5491 15.7599 54.9318 16.9568C55.2281 17.1563 55.3268 17.5553 55.4256 17.8546C55.3268 18.1538 55.2281 18.453 55.1293 18.6525Z" fill="#FFF6CC" stroke="#FF7B00" stroke-width="0.75" stroke-miterlimit="10" stroke-linecap="round" stroke-linejoin="round"/>
<path d="M54.6355 18.9518C54.5367 18.8521 54.4379 18.7523 54.4379 18.6526L54.6355 18.9518Z" fill="#FFF6CC"/>
<path d="M54.6355 18.9518C54.5367 18.8521 54.4379 18.7523 54.4379 18.6526" stroke="#FF7B00" stroke-width="0.75" stroke-miterlimit="10" stroke-linecap="round" stroke-linejoin="round"/>
<path d="M54.1417 19.5504C54.0429 19.4506 53.9441 19.3509 53.9441 19.1514L54.1417 19.5504Z" fill="#FFF6CC"/>
<path d="M54.1417 19.5504C54.0429 19.4506 53.9441 19.3509 53.9441 19.1514" stroke="#FF7B00" stroke-width="0.75" stroke-miterlimit="10" stroke-linecap="round" stroke-linejoin="round"/>
<path d="M54.4389 19.2511C54.4389 19.2511 54.338 19.1514 54.4389 19.2511V19.2511Z" fill="#FFF6CC"/>
<path d="M54.4389 19.2511C54.4389 19.2511 54.338 19.1514 54.4389 19.2511" stroke="#FF7B00" stroke-width="0.75" stroke-miterlimit="10" stroke-linecap="round" stroke-linejoin="round"/>
<path d="M53.6478 19.9492C53.5491 19.8495 53.5491 19.8495 53.4503 19.7498L53.6478 19.9492Z" fill="#FFF6CC"/>
<path d="M53.6478 19.9492C53.5491 19.8495 53.5491 19.8495 53.4503 19.7498" stroke="#FF7B00" stroke-width="0.75" stroke-miterlimit="10" stroke-linecap="round" stroke-linejoin="round"/>
<path d="M53.8454 19.7497C53.7466 19.6499 53.7466 19.5502 53.6478 19.4504L53.8454 19.7497Z" fill="#FFF6CC"/>
<path d="M53.8454 19.7497C53.7466 19.6499 53.7466 19.5502 53.6478 19.4504" stroke="#FF7B00" stroke-width="0.75" stroke-miterlimit="10" stroke-linecap="round" stroke-linejoin="round"/>
<path d="M51.9688 20.5478C51.8701 20.448 51.8701 20.3483 51.7713 20.2485L51.9688 20.5478Z" fill="#FFF6CC"/>
<path d="M51.9688 20.5478C51.8701 20.448 51.8701 20.3483 51.7713 20.2485" stroke="#FF7B00" stroke-width="0.75" stroke-miterlimit="10" stroke-linecap="round" stroke-linejoin="round"/>
<path d="M51.5738 20.7472C51.475 20.6475 51.475 20.5477 51.3762 20.448L51.5738 20.7472Z" fill="#FFF6CC"/>
<path d="M51.5738 20.7472C51.475 20.6475 51.475 20.5477 51.3762 20.448" stroke="#FF7B00" stroke-width="0.75" stroke-miterlimit="10" stroke-linecap="round" stroke-linejoin="round"/>
<path d="M51.0799 21.0463C50.8824 20.9466 50.7837 20.7471 50.6849 20.5476L51.0799 21.0463Z" fill="#FFF6CC"/>
<path d="M51.0799 21.0463C50.8824 20.9466 50.7837 20.7471 50.6849 20.5476" stroke="#FF7B00" stroke-width="0.75" stroke-miterlimit="10" stroke-linecap="round" stroke-linejoin="round"/>
<path d="M50.6849 20.9467C50.4874 20.847 50.3886 20.6475 50.2898 20.448L50.6849 20.9467Z" fill="#FFF6CC"/>
<path d="M50.6849 20.9467C50.4874 20.847 50.3886 20.6475 50.2898 20.448" stroke="#FF7B00" stroke-width="0.75" stroke-miterlimit="10" stroke-linecap="round" stroke-linejoin="round"/>
<path d="M49.2034 20.9466C49.0059 20.7471 48.9071 20.5476 48.8084 20.3481L49.2034 20.9466Z" fill="#FFF6CC"/>
<path d="M49.2034 20.9466C49.0059 20.7471 48.9071 20.5476 48.8084 20.3481" stroke="#FF7B00" stroke-width="0.75" stroke-miterlimit="10" stroke-linecap="round" stroke-linejoin="round"/>
<path d="M48.0182 20.4479C47.9195 20.3482 47.8207 20.2484 47.8207 20.1487L48.0182 20.4479Z" fill="#FFF6CC"/>
<path d="M48.0182 20.4479C47.9195 20.3482 47.8207 20.2484 47.8207 20.1487" stroke="#FF7B00" stroke-width="0.75" stroke-miterlimit="10" stroke-linecap="round" stroke-linejoin="round"/>
<path d="M49.4009 20.9467C49.2034 20.7472 49.0059 20.4479 48.9071 20.1487L49.4009 20.9467Z" fill="#FFF6CC"/>
<path d="M49.4009 20.9467C49.2034 20.7472 49.0059 20.4479 48.9071 20.1487" stroke="#FF7B00" stroke-width="0.75" stroke-miterlimit="10" stroke-linecap="round" stroke-linejoin="round"/>
<path d="M48.8084 20.847C48.5121 20.448 48.4133 20.049 48.3145 19.5503L48.8084 20.847Z" fill="#FFF6CC"/>
<path d="M48.8084 20.847C48.5121 20.448 48.4133 20.049 48.3145 19.5503" stroke="#FF7B00" stroke-width="0.75" stroke-miterlimit="10" stroke-linecap="round" stroke-linejoin="round"/>
<path d="M48.4133 20.6475C48.2158 20.3483 48.0182 19.9493 47.9195 19.5503L48.4133 20.6475Z" fill="#FFF6CC"/>
<path d="M48.4133 20.6475C48.2158 20.3483 48.0182 19.9493 47.9195 19.5503" stroke="#FF7B00" stroke-width="0.75" stroke-miterlimit="10" stroke-linecap="round" stroke-linejoin="round"/>
<path d="M47.5244 20.1486C47.3269 19.7496 47.2281 19.3506 47.2281 18.9517L47.5244 20.1486Z" fill="#FFF6CC"/>
<path d="M47.5244 20.1486C47.3269 19.7496 47.2281 19.3506 47.2281 18.9517" stroke="#FF7B00" stroke-width="0.75" stroke-miterlimit="10" stroke-linecap="round" stroke-linejoin="round"/>
<path d="M47.5244 16.7573C47.6232 16.4581 47.8207 16.0591 48.0182 15.8596L47.5244 16.7573Z" fill="#FFF6CC"/>
<path d="M47.5244 16.7573C47.6232 16.4581 47.8207 16.0591 48.0182 15.8596" stroke="#FF7B00" stroke-width="0.75" stroke-miterlimit="10" stroke-linecap="round" stroke-linejoin="round"/>
<path d="M47.2281 16.8571C47.3269 16.5578 47.4257 16.3583 47.6232 16.0591L47.2281 16.8571Z" fill="#FFF6CC"/>
<path d="M47.2281 16.8571C47.3269 16.5578 47.4257 16.3583 47.6232 16.0591" stroke="#FF7B00" stroke-width="0.75" stroke-miterlimit="10" stroke-linecap="round" stroke-linejoin="round"/>
<path d="M48.0182 16.3583V16.2585V16.3583Z" fill="#FFF6CC"/>
<path d="M48.0182 16.3583V16.2585" stroke="#FF7B00" stroke-width="0.75" stroke-miterlimit="10" stroke-linecap="round" stroke-linejoin="round"/>
<path d="M48.4133 15.7599V15.6602V15.7599Z" fill="#FFF6CC"/>
<path d="M48.4133 15.7599V15.6602" stroke="#FF7B00" stroke-width="0.75" stroke-miterlimit="10" stroke-linecap="round" stroke-linejoin="round"/>
<path d="M47.2281 19.7497C47.1294 19.5502 47.1294 19.3507 47.1294 19.251L47.2281 19.7497Z" fill="#FFF6CC"/>
<path d="M47.2281 19.7497C47.1294 19.5502 47.1294 19.3507 47.1294 19.251" stroke="#FF7B00" stroke-width="0.75" stroke-miterlimit="10" stroke-linecap="round" stroke-linejoin="round"/>
<path d="M49.8948 20.9467C49.796 20.847 49.6972 20.6475 49.5985 20.448L49.8948 20.9467Z" fill="#FFF6CC"/>
<path d="M49.8948 20.9467C49.796 20.847 49.6972 20.6475 49.5985 20.448" stroke="#FF7B00" stroke-width="0.75" stroke-miterlimit="10" stroke-linecap="round" stroke-linejoin="round"/>
<path d="M51.2775 20.847C51.1787 20.7472 51.1787 20.7472 51.1787 20.6475L51.2775 20.847Z" fill="#FFF6CC"/>
<path d="M51.2775 20.847C51.1787 20.7472 51.1787 20.7472 51.1787 20.6475" stroke="#FF7B00" stroke-width="0.75" stroke-miterlimit="10" stroke-linecap="round" stroke-linejoin="round"/>
<g opacity="0.2">
<path opacity="0.2" d="M52.1664 21.3455L52.0676 21.146C51.6725 20.4478 51.2775 19.8493 50.6849 19.3506C50.2898 19.0514 49.8948 18.6524 49.4997 18.4529C48.8084 17.9541 48.0182 17.5552 47.1294 17.2559C47.0306 17.2559 46.9318 17.1562 46.8331 17.1562C46.5368 17.0564 46.3392 16.9567 46.043 16.9567H45.9442C45.6479 16.8569 45.2528 16.8569 44.8578 16.8569C44.4627 16.8569 44.1664 16.9567 43.8701 17.1562C43.6726 17.2559 43.4751 17.4554 43.3763 17.6549L43.2775 17.7547C43.1788 17.9541 43.1788 18.0539 43.08 18.2534C43.08 18.4529 42.9813 18.5526 42.9813 18.7521C42.9813 18.9516 42.9813 18.9516 42.9813 19.0514C42.8825 20.8468 43.1788 22.5425 43.9689 24.1384V24.2382L44.0677 24.3379V24.2382H44.2652H44.4627H44.6602H44.8578C44.9565 24.2382 45.1541 24.2382 45.2528 24.2382C45.2528 24.2382 45.2528 24.2382 45.2528 24.3379H45.3516H45.4504C45.8454 24.4377 46.2405 24.5374 46.6355 24.6372L46.8331 24.7369L47.3269 24.9364H47.5244C48.4133 24.8366 49.2034 24.7369 49.9935 24.6372C49.9935 24.6372 49.9935 24.6372 49.9935 24.7369L50.0923 24.6372H50.1911C50.5861 24.6372 50.9812 24.6372 51.2775 24.6372H51.3762C51.3762 24.6372 51.3762 24.6372 51.3762 24.7369L51.2775 24.8366L51.3762 24.9364V24.6372L51.475 24.5374H52.2651C52.3639 24.3379 52.4626 24.1384 52.4626 23.8392V23.7394C52.7589 22.9415 52.5614 22.1435 52.1664 21.3455Z" fill="#FFF6CC" stroke="#FF7B00" stroke-width="0.75" stroke-linecap="round" stroke-linejoin="round"/>
<g opacity="0.2">
<path d="M45.6479 17.0564C45.6479 17.2559 45.5491 17.3556 45.4504 17.4554L45.6479 17.0564Z" fill="#FFF6CC"/>
<path d="M45.6479 17.0564C45.6479 17.2559 45.5491 17.3556 45.4504 17.4554" stroke="#FF7B00" stroke-width="0.75" stroke-linecap="round" stroke-linejoin="round"/>
</g>
<g opacity="0.2">
<path d="M46.6355 17.2559C46.6355 17.4554 46.5368 17.6548 46.3392 17.7546L46.6355 17.2559Z" fill="#FFF6CC"/>
<path d="M46.6355 17.2559C46.6355 17.4554 46.5368 17.6548 46.3392 17.7546" stroke="#FF7B00" stroke-width="0.75" stroke-linecap="round" stroke-linejoin="round"/>
</g>
<g opacity="0.2">
<path d="M46.043 17.0564C46.043 17.1561 46.043 17.1561 46.043 17.2559V17.0564Z" fill="#FFF6CC"/>
<path d="M46.043 17.0564C46.043 17.1561 46.043 17.1561 46.043 17.2559" stroke="#FF7B00" stroke-width="0.75" stroke-linecap="round" stroke-linejoin="round"/>
</g>
<g opacity="0.2">
<path d="M47.5244 17.4553C47.5244 17.5551 47.5244 17.6548 47.4257 17.7546L47.5244 17.4553Z" fill="#FFF6CC"/>
<path d="M47.5244 17.4553C47.5244 17.5551 47.5244 17.6548 47.4257 17.7546" stroke="#FF7B00" stroke-width="0.75" stroke-linecap="round" stroke-linejoin="round"/>
</g>
<g opacity="0.2">
<path d="M47.1294 17.3557C47.1294 17.4555 47.0306 17.655 46.9318 17.655L47.1294 17.3557Z" fill="#FFF6CC"/>
<path d="M47.1294 17.3557C47.1294 17.4555 47.0306 17.655 46.9318 17.655" stroke="#FF7B00" stroke-width="0.75" stroke-linecap="round" stroke-linejoin="round"/>
</g>
<g opacity="0.2">
<path d="M49.4009 18.8518C49.4009 18.9516 49.3022 19.0513 49.2034 19.151L49.4009 18.8518Z" fill="#FFF6CC"/>
<path d="M49.4009 18.8518C49.4009 18.9516 49.3022 19.0513 49.2034 19.151" stroke="#FF7B00" stroke-width="0.75" stroke-linecap="round" stroke-linejoin="round"/>
</g>
<g opacity="0.2">
<path d="M49.8948 19.0513C49.8948 19.151 49.796 19.3505 49.6972 19.4503L49.8948 19.0513Z" fill="#FFF6CC"/>
<path d="M49.8948 19.0513C49.8948 19.151 49.796 19.3505 49.6972 19.4503" stroke="#FF7B00" stroke-width="0.75" stroke-linecap="round" stroke-linejoin="round"/>
</g>
<g opacity="0.2">
<path d="M50.5861 19.55C50.5861 19.8493 50.4874 20.0488 50.2898 20.2483L50.5861 19.55Z" fill="#FFF6CC"/>
<path d="M50.5861 19.55C50.5861 19.8493 50.4874 20.0488 50.2898 20.2483" stroke="#FF7B00" stroke-width="0.75" stroke-linecap="round" stroke-linejoin="round"/>
</g>
<g opacity="0.2">
<path d="M50.7836 19.949C50.7836 20.2482 50.6849 20.4477 50.4874 20.6472L50.7836 19.949Z" fill="#FFF6CC"/>
<path d="M50.7836 19.949C50.7836 20.2482 50.6849 20.4477 50.4874 20.6472" stroke="#FF7B00" stroke-width="0.75" stroke-linecap="round" stroke-linejoin="round"/>
</g>
<g opacity="0.2">
<path d="M51.9688 21.6448C51.8701 21.944 51.7713 22.2433 51.5738 22.4427L51.9688 21.6448Z" fill="#FFF6CC"/>
<path d="M51.9688 21.6448C51.8701 21.944 51.7713 22.2433 51.5738 22.4427" stroke="#FF7B00" stroke-width="0.75" stroke-linecap="round" stroke-linejoin="round"/>
</g>
<g opacity="0.2">
<path d="M52.1663 23.1409C52.1663 23.3404 52.0676 23.4401 51.8701 23.6396L52.1663 23.1409Z" fill="#FFF6CC"/>
<path d="M52.1663 23.1409C52.1663 23.3404 52.0676 23.4401 51.8701 23.6396" stroke="#FF7B00" stroke-width="0.75" stroke-linecap="round" stroke-linejoin="round"/>
</g>
<g opacity="0.2">
<path d="M51.6725 21.3455C51.5738 21.7444 51.3762 22.1434 51.0799 22.4427L51.6725 21.3455Z" fill="#FFF6CC"/>
<path d="M51.6725 21.3455C51.5738 21.7444 51.3762 22.1434 51.0799 22.4427" stroke="#FF7B00" stroke-width="0.75" stroke-linecap="round" stroke-linejoin="round"/>
</g>
<g opacity="0.2">
<path d="M52.0676 22.0437C51.8701 22.5424 51.475 23.0412 50.9812 23.4402L52.0676 22.0437Z" fill="#FFF6CC"/>
<path d="M52.0676 22.0437C51.8701 22.5424 51.475 23.0412 50.9812 23.4402" stroke="#FF7B00" stroke-width="0.75" stroke-linecap="round" stroke-linejoin="round"/>
</g>
<g opacity="0.2">
<path d="M52.0676 22.6423C51.8701 23.1411 51.5738 23.5401 51.2775 23.939L52.0676 22.6423Z" fill="#FFF6CC"/>
<path d="M52.0676 22.6423C51.8701 23.1411 51.5738 23.5401 51.2775 23.939" stroke="#FF7B00" stroke-width="0.75" stroke-linecap="round" stroke-linejoin="round"/>
</g>
<path opacity="0.2" d="M52.1663 23.939C52.1663 23.939 52.0676 24.0387 51.9688 24.1385C51.8701 24.2382 51.7713 24.4377 51.6725 24.5374L51.5738 24.6372L51.475 24.7369L51.5738 24.6372L51.6725 24.5374L51.9688 24.2382L52.1663 23.939Z" fill="#FFF6CC" stroke="#FF7B00" stroke-width="0.75" stroke-linecap="round" stroke-linejoin="round"/>
<g opacity="0.2">
<path d="M51.475 20.8467C51.3762 21.1459 51.2775 21.3454 51.0799 21.5449L51.475 20.8467Z" fill="#FFF6CC"/>
<path d="M51.475 20.8467C51.3762 21.1459 51.2775 21.3454 51.0799 21.5449" stroke="#FF7B00" stroke-width="0.75" stroke-linecap="round" stroke-linejoin="round"/>
</g>
<g opacity="0.2">
<path d="M50.1911 19.4504C50.1911 19.5502 50.1911 19.6499 50.0923 19.6499L50.1911 19.4504Z" fill="#FFF6CC"/>
<path d="M50.1911 19.4504C50.1911 19.5502 50.1911 19.6499 50.0923 19.6499" stroke="#FF7B00" stroke-width="0.75" stroke-linecap="round" stroke-linejoin="round"/>
</g>
</g>
<path d="M52.2651 21.1461C52.2651 21.0464 52.2651 20.9466 52.1663 20.8469C51.8701 20.1487 51.3762 19.4504 50.7836 18.9517C50.3886 18.5527 49.9935 18.2535 49.5985 17.9542C48.9071 17.4555 48.117 17.0565 47.2281 16.6575L46.9318 16.5578C46.6355 16.458 46.3392 16.3583 46.1417 16.3583H46.0429C45.7467 16.2585 45.3516 16.2585 44.9565 16.2585C44.5615 16.2585 44.2652 16.3583 43.9689 16.5578C43.7714 16.6575 43.5738 16.857 43.4751 17.1563V17.256C43.3763 17.4555 43.3763 17.5552 43.2775 17.7547C43.2775 17.9542 43.1788 18.054 43.1788 18.2535V18.5527C42.9812 20.4479 43.3763 22.2433 44.1664 23.939V24.0388L44.2652 24.1385V24.0388H44.4627H44.6602H44.8578H45.0553C45.1541 24.0388 45.3516 24.0388 45.4504 24.0388C45.4504 24.0388 45.4504 24.0388 45.4504 24.1385H45.5491H45.6479C46.0429 24.2383 46.438 24.338 46.8331 24.5375L47.0306 24.6372C47.2281 24.737 47.3269 24.737 47.5244 24.8367H47.7219C48.5121 24.737 49.4009 24.6372 50.1911 24.5375V24.6372C50.1911 24.6372 50.1911 24.6372 50.2898 24.5375H50.3886H51.475H51.5738C51.5738 24.5375 51.5738 24.5375 51.5738 24.6372L51.475 24.737L51.5738 24.8367C51.5738 24.737 51.5738 24.737 51.5738 24.6372L51.6725 24.5375C51.6725 24.5375 51.6725 24.5375 51.7713 24.4377C52.0676 24.4377 52.2651 24.4377 52.5614 24.4377C52.6602 24.2383 52.7589 23.939 52.7589 23.7395V23.6398C52.8577 22.8418 52.6602 21.9441 52.2651 21.1461Z" fill="#FFF6CC" stroke="#FF7B00" stroke-width="0.75" stroke-miterlimit="10"/>
<path d="M45.6479 16.5579C45.6479 16.7574 45.5491 16.8571 45.4504 17.0566L45.6479 16.5579Z" fill="#FFF6CC"/>
<path d="M45.6479 16.5579C45.6479 16.7574 45.5491 16.8571 45.4504 17.0566" stroke="#FF7B00" stroke-width="0.75" stroke-miterlimit="10" stroke-linecap="round" stroke-linejoin="round"/>
<path d="M46.7343 16.7573C46.7343 16.9568 46.6355 17.1563 46.438 17.2561L46.7343 16.7573Z" fill="#FFF6CC"/>
<path d="M46.7343 16.7573C46.7343 16.9568 46.6355 17.1563 46.438 17.2561" stroke="#FF7B00" stroke-width="0.75" stroke-miterlimit="10" stroke-linecap="round" stroke-linejoin="round"/>
<path d="M46.1417 16.5579C46.1417 16.6576 46.1417 16.6576 46.043 16.7574L46.1417 16.5579Z" fill="#FFF6CC"/>
<path d="M46.1417 16.5579C46.1417 16.6576 46.1417 16.6576 46.043 16.7574" stroke="#FF7B00" stroke-width="0.75" stroke-miterlimit="10" stroke-linecap="round" stroke-linejoin="round"/>
<path d="M47.5244 17.0566C47.5244 17.1564 47.5244 17.2561 47.4257 17.3559L47.5244 17.0566Z" fill="#FFF6CC"/>
<path d="M47.5244 17.0566C47.5244 17.1564 47.5244 17.2561 47.4257 17.3559" stroke="#FF7B00" stroke-width="0.75" stroke-miterlimit="10" stroke-linecap="round" stroke-linejoin="round"/>
<path d="M47.2281 16.9568C47.2281 17.0565 47.1294 17.256 47.0306 17.3558L47.2281 16.9568Z" fill="#FFF6CC"/>
<path d="M47.2281 16.9568C47.2281 17.0565 47.1294 17.256 47.0306 17.3558" stroke="#FF7B00" stroke-width="0.75" stroke-miterlimit="10" stroke-linecap="round" stroke-linejoin="round"/>
<path d="M49.4997 18.5527C49.4997 18.6525 49.4009 18.852 49.3022 18.9517L49.4997 18.5527Z" fill="#FFF6CC"/>
<path d="M49.4997 18.5527C49.4997 18.6525 49.4009 18.852 49.3022 18.9517" stroke="#FF7B00" stroke-width="0.75" stroke-miterlimit="10" stroke-linecap="round" stroke-linejoin="round"/>
<path d="M49.8948 18.7522C49.8948 18.8519 49.796 19.0514 49.6972 19.1512L49.8948 18.7522Z" fill="#FFF6CC"/>
<path d="M49.8948 18.7522C49.8948 18.8519 49.796 19.0514 49.6972 19.1512" stroke="#FF7B00" stroke-width="0.75" stroke-miterlimit="10" stroke-linecap="round" stroke-linejoin="round"/>
<path d="M50.6849 19.251C50.6849 19.5502 50.5861 19.8495 50.3886 20.0489L50.6849 19.251Z" fill="#FFF6CC"/>
<path d="M50.6849 19.251C50.6849 19.5502 50.5861 19.8495 50.3886 20.0489" stroke="#FF7B00" stroke-width="0.75" stroke-miterlimit="10" stroke-linecap="round" stroke-linejoin="round"/>
<path d="M50.8824 19.6499C50.8824 19.9491 50.7836 20.2484 50.5861 20.4479L50.8824 19.6499Z" fill="#FFF6CC"/>
<path d="M50.8824 19.6499C50.8824 19.9491 50.7836 20.2484 50.5861 20.4479" stroke="#FF7B00" stroke-width="0.75" stroke-miterlimit="10" stroke-linecap="round" stroke-linejoin="round"/>
<path d="M51.9688 21.4453C51.8701 21.7446 51.7713 22.0438 51.5738 22.2433L51.9688 21.4453Z" fill="#FFF6CC"/>
<path d="M51.9688 21.4453C51.8701 21.7446 51.7713 22.0438 51.5738 22.2433" stroke="#FF7B00" stroke-width="0.75" stroke-miterlimit="10" stroke-linecap="round" stroke-linejoin="round"/>
<path d="M52.2651 23.1411C52.2651 23.3406 52.1663 23.4404 52.0676 23.6398L52.2651 23.1411Z" fill="#FFF6CC"/>
<path d="M52.2651 23.1411C52.2651 23.3406 52.1663 23.4404 52.0676 23.6398" stroke="#FF7B00" stroke-width="0.75" stroke-miterlimit="10" stroke-linecap="round" stroke-linejoin="round"/>
<path d="M51.7713 21.1462C51.6725 21.5452 51.475 21.9442 51.1787 22.3432L51.7713 21.1462Z" fill="#FFF6CC"/>
<path d="M51.7713 21.1462C51.6725 21.5452 51.475 21.9442 51.1787 22.3432" stroke="#FF7B00" stroke-width="0.75" stroke-miterlimit="10" stroke-linecap="round" stroke-linejoin="round"/>
<path d="M52.1663 21.9441C51.9688 22.5426 51.5738 23.0413 51.0799 23.4403L52.1663 21.9441Z" fill="#FFF6CC"/>
<path d="M52.1663 21.9441C51.9688 22.5426 51.5738 23.0413 51.0799 23.4403" stroke="#FF7B00" stroke-width="0.75" stroke-miterlimit="10" stroke-linecap="round" stroke-linejoin="round"/>
<path d="M52.1664 22.4429C51.9688 22.9416 51.6725 23.4403 51.3762 23.7396L52.1664 22.4429Z" fill="#FFF6CC"/>
<path d="M52.1664 22.4429C51.9688 22.9416 51.6725 23.4403 51.3762 23.7396" stroke="#FF7B00" stroke-width="0.75" stroke-miterlimit="10" stroke-linecap="round" stroke-linejoin="round"/>
<path d="M51.475 20.6475C51.3762 20.9467 51.2775 21.1462 51.0799 21.3457L51.475 20.6475Z" fill="#FFF6CC"/>
<path d="M51.475 20.6475C51.3762 20.9467 51.2775 21.1462 51.0799 21.3457" stroke="#FF7B00" stroke-width="0.75" stroke-miterlimit="10" stroke-linecap="round" stroke-linejoin="round"/>
<path d="M50.2898 19.1514C50.2898 19.2511 50.2898 19.3509 50.1911 19.3509L50.2898 19.1514Z" fill="#FFF6CC"/>
<path d="M50.2898 19.1514C50.2898 19.2511 50.2898 19.3509 50.1911 19.3509" stroke="#FF7B00" stroke-width="0.75" stroke-miterlimit="10" stroke-linecap="round" stroke-linejoin="round"/>
<path d="M58.8823 18.1536C58.8823 17.8544 58.6848 17.5552 58.4873 17.3557C58.191 17.0564 57.7959 16.8569 57.3021 16.8569C56.4132 16.8569 55.6231 16.8569 54.833 17.0564C53.4503 17.3557 52.2651 17.9541 51.0799 18.7521L50.7836 18.9516C50.2898 19.4503 49.8948 19.9491 49.5985 20.6473C49.4997 20.8468 49.4009 21.0463 49.4009 21.3455V21.4453C49.2034 22.5425 49.4997 23.7394 50.191 24.6372L50.2898 24.7369C50.2898 24.7369 50.2898 24.7369 50.3886 24.6372H50.4873H51.5738H51.6725C51.6725 24.6372 51.6725 24.6372 51.6725 24.7369L51.5738 24.8366L51.6725 24.9364C51.6725 24.8366 51.6725 24.8366 51.6725 24.7369L51.7713 24.6372C51.7713 24.6372 51.7713 24.6372 51.87 24.5374C52.1663 24.5374 52.3639 24.5374 52.6602 24.5374H53.154L53.7466 24.6372H53.8453C54.2404 24.7369 54.6355 24.7369 55.0305 24.8366L54.9317 24.9364L54.7342 25.1359H54.833L55.0305 25.0361L55.1293 24.9364H55.228C55.5243 24.7369 55.8206 24.6372 56.2157 24.4377L56.6107 24.2382L56.7095 24.1384C56.8083 24.0387 56.8083 24.0387 56.907 23.9389C57.0058 23.8392 57.1046 23.6397 57.3021 23.4402C57.4996 23.141 57.6972 22.8417 57.7959 22.6422C58.2897 21.7445 58.6848 20.747 58.7836 19.7496C58.7836 19.6498 58.7836 19.5501 58.7836 19.5501C58.7836 19.4503 58.7836 19.3506 58.7836 19.2508C58.9811 18.8519 58.9811 18.4529 58.8823 18.1536Z" fill="#FFF6CC"/>
<path d="M51.5738 24.7369V24.8366M51.5738 24.8366L51.6725 24.7369M51.5738 24.8366L51.6725 24.9364C51.6725 24.8366 51.6725 24.8366 51.6725 24.7369M51.6725 24.7369C51.6725 24.6372 51.6725 24.6372 51.6725 24.6372H51.5738H50.4873H50.3886C50.2898 24.7369 50.2898 24.7369 50.2898 24.7369L50.191 24.6372C49.4997 23.7394 49.2034 22.5425 49.4009 21.4453V21.3455C49.4009 21.0463 49.4997 20.8468 49.5985 20.6473C49.8948 19.9491 50.2898 19.4503 50.7836 18.9516L51.0799 18.7521C52.2651 17.9541 53.4503 17.3557 54.833 17.0564C55.6231 16.8569 56.4132 16.8569 57.3021 16.8569C57.7959 16.8569 58.191 17.0564 58.4873 17.3557C58.6848 17.5552 58.8823 17.8544 58.8823 18.1536C58.9811 18.4529 58.9811 18.8519 58.7836 19.2508C58.7836 19.3506 58.7836 19.4503 58.7836 19.5501C58.7836 19.5501 58.7836 19.6498 58.7836 19.7496C58.6848 20.747 58.2897 21.7445 57.7959 22.6422C57.6972 22.8417 57.4996 23.141 57.3021 23.4402C57.1046 23.6397 57.0058 23.8392 56.907 23.9389C56.8083 24.0387 56.8083 24.0387 56.7095 24.1384L56.6107 24.2382L56.2157 24.4377C55.8206 24.6372 55.5243 24.7369 55.228 24.9364H55.1293L55.0305 25.0361L54.833 25.1359M51.6725 24.7369L51.7713 24.6372C51.7713 24.6372 51.7713 24.6372 51.87 24.5374C52.1663 24.5374 52.3639 24.5374 52.6602 24.5374H53.154L53.7466 24.6372H53.8453C54.2404 24.7369 54.6355 24.7369 55.0305 24.8366L54.9317 24.9364L54.7342 25.1359M54.7342 25.1359L54.5367 25.2356M54.7342 25.1359H54.833M54.833 25.1359H54.9317" stroke="#FF7B00" stroke-width="0.75" stroke-miterlimit="10" stroke-linecap="round" stroke-linejoin="round"/>
<path d="M58.7836 25.535C58.7836 25.535 59.7712 25.2357 61.549 25.535C61.549 25.535 59.7712 24.5375 58.3885 25.0362C58.3885 25.0362 58.9811 24.2383 59.9687 24.1385C59.9687 24.1385 57.7959 24.1385 56.907 24.8367C56.907 24.8367 58.0922 23.54 58.7836 23.54C58.7836 23.54 54.6355 24.5375 53.7466 25.2357C53.7466 25.2357 54.9318 23.54 56.2157 23.3405C56.2157 23.3405 53.6478 23.54 51.6725 25.0362C51.6725 25.0362 53.549 22.4428 54.1416 21.9441C54.1416 21.9441 51.3762 22.9416 50.6849 24.1385C50.6849 24.1385 50.0923 23.4403 50.6849 22.8418C50.6849 22.8418 50.2898 22.9416 49.9935 24.338C49.9935 24.338 49.0059 22.9416 48.2158 23.141C48.2158 23.141 49.3022 24.1385 49.3022 25.0362C49.3022 25.0362 47.4257 23.141 46.3392 23.4403C46.3392 23.4403 47.5244 24.338 47.7219 25.136C47.7219 25.136 45.6479 22.7421 44.2652 22.9416C44.2652 22.9416 45.2528 23.6398 45.3516 24.1385C45.3516 24.1385 43.1788 22.2433 40.7097 23.7395C40.7097 23.7395 43.1788 23.8393 43.5738 24.6372" fill="#FFF6CC"/>
<path d="M58.7836 25.535C58.7836 25.535 59.7712 25.2357 61.549 25.535C61.549 25.535 59.7712 24.5375 58.3885 25.0362C58.3885 25.0362 58.9811 24.2383 59.9687 24.1385C59.9687 24.1385 57.7959 24.1385 56.907 24.8367C56.907 24.8367 58.0922 23.54 58.7836 23.54C58.7836 23.54 54.6355 24.5375 53.7466 25.2357C53.7466 25.2357 54.9317 23.54 56.2157 23.3405C56.2157 23.3405 53.6478 23.54 51.6725 25.0362C51.6725 25.0362 53.549 22.4428 54.1416 21.9441C54.1416 21.9441 51.3762 22.9416 50.6849 24.1385C50.6849 24.1385 50.0923 23.4403 50.6849 22.8418C50.6849 22.8418 50.2898 22.9416 49.9935 24.338C49.9935 24.338 49.0059 22.9416 48.2158 23.141C48.2158 23.141 49.3022 24.1385 49.3022 25.0362C49.3022 25.0362 47.4256 23.141 46.3392 23.4403C46.3392 23.4403 47.5244 24.338 47.7219 25.136C47.7219 25.136 45.6479 22.7421 44.2652 22.9416C44.2652 22.9416 45.2528 23.6398 45.3516 24.1385C45.3516 24.1385 43.1788 22.2433 40.7097 23.7395C40.7097 23.7395 43.1788 23.8393 43.5738 24.6372" stroke="#FF7B00" stroke-width="0.75" stroke-miterlimit="10"/>
<path d="M93.7973 56.8978C91.427 55.5014 89.5505 53.5064 88.1678 51.1125C86.6863 48.4194 85.995 45.3272 85.995 42.2351C85.8962 39.143 86.6863 36.0508 88.1678 33.3577C89.4517 30.9637 91.427 28.9688 93.7973 27.5724C95.9702 26.2757 98.538 25.5774 101.106 25.5774C105.155 25.5774 109.007 27.2731 111.674 30.3653V15.1041C111.674 14.3061 111.97 13.6079 112.464 13.0094C112.958 12.5107 113.748 12.2114 114.439 12.2114C115.229 12.2114 115.921 12.5107 116.414 13.0094C116.908 13.5081 117.205 14.3061 117.205 15.0043V55.7009C117.205 57.197 116.019 58.4938 114.439 58.4938C114.439 58.4938 114.439 58.4938 114.34 58.4938C113.649 58.4938 112.859 58.1945 112.365 57.6958C111.772 57.197 111.476 56.4988 111.575 55.7009V54.1049C108.908 57.0973 105.056 58.8927 101.007 58.8927C98.538 58.8927 95.9702 58.1945 93.7973 56.8978ZM107.229 52.3095C108.908 51.4118 110.39 50.3145 111.674 48.9181V35.7516C110.39 34.3551 108.908 33.1582 107.229 32.3602C105.55 31.4625 103.773 30.9637 101.896 30.9637C99.1306 30.864 96.464 31.9612 94.4887 33.9561C92.6122 35.9511 91.7233 38.744 91.7233 42.2351C91.7233 45.826 92.6122 48.6189 94.4887 50.514C96.3652 52.509 99.1306 53.6062 101.896 53.5064C103.773 53.6062 105.55 53.2072 107.229 52.3095Z" stroke="#FF7B00" stroke-width="2" stroke-miterlimit="10"/>
<path d="M127.575 19.1935C126.982 18.595 126.587 17.797 126.686 16.8993V16.6001C126.686 14.8047 128.069 13.4082 129.846 13.4082H130.241C132.019 13.4082 133.402 14.8047 133.402 16.6001V16.8993C133.402 18.6948 132.019 20.0912 130.241 20.0912H129.846C128.958 20.0912 128.167 19.792 127.575 19.1935ZM127.871 58.0946C127.377 57.5959 127.081 56.8976 127.081 56.0997V29.1681C127.081 28.4699 127.377 27.6719 127.871 27.1732C128.365 26.5747 129.056 26.2755 129.846 26.2755C130.637 26.2755 131.328 26.5747 131.92 27.0735C132.414 27.5722 132.711 28.3702 132.711 29.1681V55.9999C132.711 56.7979 132.414 57.4961 131.92 57.9948C131.427 58.4936 130.637 58.7928 129.945 58.7928C129.155 58.8926 128.464 58.5933 127.871 58.0946Z" stroke="#FF7B00" stroke-width="2" stroke-miterlimit="10"/>
<path d="M147.723 58.0947C147.229 57.596 146.933 56.798 146.933 56.0998C146.933 55.8005 147.031 55.4015 147.13 55.1023L151.18 44.6289L139.525 16.0017C139.328 15.6027 139.328 15.2037 139.229 14.8048C139.229 14.1065 139.525 13.3086 140.019 12.8098C140.513 12.2113 141.204 11.9121 141.994 11.9121C142.587 11.9121 143.081 12.1116 143.575 12.4108C143.97 12.7101 144.365 13.2088 144.562 13.7075L154.142 37.6467L163.92 13.8073C164.315 12.7101 165.303 11.9121 166.488 11.9121C167.278 11.9121 167.969 12.2113 168.463 12.8098C168.957 13.3086 169.253 14.1065 169.253 14.8048C169.253 15.2037 169.155 15.503 169.056 15.902L152.167 56.8977C151.772 57.995 150.784 58.7929 149.599 58.7929C148.908 58.8927 148.217 58.5934 147.723 58.0947Z" stroke="#FF7B00" stroke-width="2" stroke-miterlimit="10"/>
<path d="M177.747 54.5038C174.982 51.6111 173.5 47.5215 173.5 42.2349C173.5 39.4421 173.994 36.6491 175.081 34.0557C176.068 31.5621 177.846 29.4674 180.019 27.9712C182.488 26.3753 185.352 25.5773 188.315 25.677C191.08 25.5773 193.846 26.3753 196.216 27.8715C198.389 29.2679 200.167 31.2628 201.253 33.6568C202.438 36.1504 203.031 38.8436 203.031 41.5367C203.031 43.0329 201.846 44.3296 200.364 44.3296C200.265 44.3296 200.167 44.3296 200.167 44.3296H179.13C179.327 46.923 180.513 49.4167 182.389 51.2121C184.167 52.8081 186.735 53.606 189.994 53.606C192.858 53.7058 195.821 53.0076 198.389 51.7109C198.784 51.5114 199.08 51.4116 199.475 51.4116C200.167 51.4116 200.759 51.6111 201.253 52.1098C201.747 52.5088 202.043 53.2071 202.043 53.9053C201.944 54.9027 201.352 55.8005 200.463 56.1994C197.204 58.1944 193.451 59.0921 189.599 58.9923C184.562 58.8926 180.611 57.3964 177.747 54.5038ZM197.5 39.6415C197.401 37.8461 196.907 36.0507 195.92 34.5545C195.031 33.2578 193.846 32.2603 192.463 31.5621C189.796 30.2654 186.735 30.2654 184.167 31.5621C182.784 32.2603 181.599 33.2578 180.809 34.5545C179.821 36.0507 179.327 37.8461 179.229 39.6415H197.5Z" stroke="#FF7B00" stroke-width="2" stroke-miterlimit="10"/>
<g clip-path="url(#clip0_81_25)">
<path d="M0.830742 64.3098H426.169V120.69" stroke="#FF7B00" stroke-width="2" stroke-miterlimit="10" stroke-linecap="round" stroke-dasharray="12 12"/>
</g>
<defs>
<clipPath id="clip0_81_25">
<rect width="427" height="57" fill="white" transform="translate(0 64)"/>
</clipPath>
</defs>
</svg>
