<svg width="235" height="58" viewBox="0 0 235 58" fill="none" xmlns="http://www.w3.org/2000/svg">
<path d="M30.4753 21.5012L30.4753 21.5014C30.4511 23.0843 30.1256 24.4024 29.7172 25.3829C29.2999 26.3845 28.82 26.979 28.5327 27.1785C28.3594 27.2988 28.1656 27.4696 27.9722 27.6398C27.9095 27.6951 27.8468 27.7503 27.7849 27.8037C27.5144 28.0371 27.2034 28.2885 26.8188 28.5251C26.059 28.9924 24.9797 29.4216 23.342 29.4707C21.3654 29.4688 19.5024 28.7085 18.2033 27.2559L18.1842 27.2346L18.1628 27.2155C17.0151 26.1955 16.4875 24.8637 16.2499 23.7599C16.1316 23.2103 16.0872 22.7261 16.0725 22.3807C16.0651 22.2083 16.0652 22.0715 16.067 21.9794C16.0679 21.9334 16.0692 21.8987 16.0702 21.8764L16.0714 21.8525L16.0717 21.8483L16.0717 21.8479L16.0717 21.8479L16.0717 21.8477L16.0718 21.8474L16.0729 21.8306V21.813C16.0729 18.9552 17.3695 17.2719 18.723 16.2746C20.0977 15.2616 21.5439 14.9512 21.784 14.9071L21.615 13.9216L16.1303 14.7962C16.0589 14.7263 15.9646 14.6277 15.8538 14.4971L15.501 14.0814L15.1173 14.4689L14.7981 14.7912L9.3345 13.8716L9.15251 14.8548C9.37652 14.9 10.8232 15.2112 12.2042 16.2245C13.5649 17.2228 14.8723 18.9064 14.8723 21.7623V21.7763L14.873 21.7894L14.873 21.7896L14.873 21.7899L14.873 21.79L14.873 21.7902L14.8733 21.7948L14.8742 21.8194C14.8749 21.8422 14.8758 21.8777 14.8761 21.9245C14.8767 22.0182 14.8751 22.1573 14.8659 22.3321C14.8474 22.6824 14.7985 23.1724 14.6769 23.7262C14.4325 24.8402 13.904 26.1708 12.783 27.1644L12.7676 27.178L12.7534 27.1929C11.392 28.6152 9.51651 29.419 7.59954 29.42C5.96393 29.3955 4.88704 28.967 4.12877 28.4949C3.74483 28.2558 3.43411 28.0003 3.16331 27.7628C3.10406 27.7108 3.04404 27.6571 2.98389 27.6034C2.78757 27.4278 2.58983 27.251 2.4125 27.1279C2.12858 26.9307 1.66087 26.3402 1.25507 25.337C0.858281 24.3561 0.544285 23.0364 0.52013 21.4507C0.518202 21.3242 0.515572 21.1933 0.512853 21.058C0.480056 19.4262 0.434496 17.1594 1.4575 14.2586C2.56549 11.1168 4.94319 7.19445 10.0355 2.5776C13.2066 -0.191981 17.8866 -0.192533 21.0583 2.57594C26.0999 7.24249 28.4535 11.1899 29.5497 14.339C30.5615 17.2456 30.5154 19.5025 30.4826 21.1124C30.4798 21.2465 30.4772 21.3761 30.4753 21.5012Z" stroke="#FF7B00"/>
<path d="M2.62898 17.0501C2.62898 17.0501 1.47507 18.8235 2.32796 23.2317C2.62898 24.9544 3.43171 26.5758 4.63579 27.8932C6.09073 29.4639 8.29821 30.7307 11.2081 29.0586C12.663 28.1972 13.6664 26.6772 13.8169 24.9544C13.9674 23.4343 13.5159 21.9143 12.6128 20.7489C10.7566 18.3168 8.1477 16.594 5.18766 15.834C4.63579 15.682 3.98358 15.7833 3.48188 16.0873C3.08051 16.29 2.77949 16.6447 2.62898 17.0501Z" fill="#FFF6CC" stroke="#FF7B00" stroke-width="0.5" stroke-miterlimit="10"/>
<path d="M2.67908 17.9619C2.87976 18.0126 3.13061 18.0126 3.33129 17.9619Z" fill="#FFF6CC"/>
<path d="M2.67908 17.9619C2.87976 18.0126 3.13061 18.0126 3.33129 17.9619" stroke="#FF7B00" stroke-width="0.5" stroke-miterlimit="10"/>
<path d="M2.42816 19.2289C2.67901 19.2796 2.92986 19.2796 3.13054 19.1782Z" fill="#FFF6CC"/>
<path d="M2.42816 19.2289C2.67901 19.2796 2.92986 19.2796 3.13054 19.1782" stroke="#FF7B00" stroke-width="0.5" stroke-miterlimit="10"/>
<path d="M2.47845 18.4688C2.52862 18.5194 2.62897 18.5194 2.67914 18.5194Z" fill="#FFF6CC"/>
<path d="M2.47845 18.4688C2.52862 18.5194 2.62897 18.5194 2.67914 18.5194" stroke="#FF7B00" stroke-width="0.5" stroke-miterlimit="10"/>
<path d="M2.27771 20.394C2.42822 20.4447 2.57873 20.4447 2.72924 20.394Z" fill="#FFF6CC"/>
<path d="M2.27771 20.394C2.42822 20.4447 2.57873 20.4447 2.72924 20.394" stroke="#FF7B00" stroke-width="0.5" stroke-miterlimit="10"/>
<path d="M2.37805 19.8876C2.52856 19.9382 2.72924 19.8876 2.87975 19.8369Z" fill="#FFF6CC"/>
<path d="M2.37805 19.8876C2.52856 19.9382 2.72924 19.8876 2.87975 19.8369" stroke="#FF7B00" stroke-width="0.5" stroke-miterlimit="10"/>
<path d="M3.03027 23.3329C3.18078 23.3836 3.38146 23.3329 3.53198 23.2822Z" fill="#FFF6CC"/>
<path d="M3.03027 23.3329C3.18078 23.3836 3.38146 23.3329 3.53198 23.2822" stroke="#FF7B00" stroke-width="0.5" stroke-miterlimit="10"/>
<path d="M3.08038 23.9408C3.23089 23.9915 3.43157 23.9408 3.58208 23.8901Z" fill="#FFF6CC"/>
<path d="M3.08038 23.9408C3.23089 23.9915 3.43157 23.9408 3.58208 23.8901" stroke="#FF7B00" stroke-width="0.5" stroke-miterlimit="10"/>
<path d="M3.2309 25.0557C3.58209 25.157 3.93328 25.157 4.28447 25.0557Z" fill="#FFF6CC"/>
<path d="M3.2309 25.0557C3.58209 25.157 3.93328 25.157 4.28447 25.0557" stroke="#FF7B00" stroke-width="0.5" stroke-miterlimit="10"/>
<path d="M3.63226 25.5117C3.98345 25.6131 4.33465 25.6131 4.68584 25.5117Z" fill="#FFF6CC"/>
<path d="M3.63226 25.5117C3.98345 25.6131 4.33465 25.6131 4.68584 25.5117" stroke="#FF7B00" stroke-width="0.5" stroke-miterlimit="10"/>
<path d="M5.08722 27.6902C5.48858 27.7915 5.88994 27.7409 6.2913 27.5889Z" fill="#FFF6CC"/>
<path d="M5.08722 27.6902C5.48858 27.7915 5.88994 27.7409 6.2913 27.5889" stroke="#FF7B00" stroke-width="0.5" stroke-miterlimit="10"/>
<path d="M6.89337 28.8051C7.09405 28.8557 7.3449 28.8051 7.54558 28.7544Z" fill="#FFF6CC"/>
<path d="M6.89337 28.8051C7.09405 28.8557 7.3449 28.8051 7.54558 28.7544" stroke="#FF7B00" stroke-width="0.5" stroke-miterlimit="10"/>
<path d="M4.8866 27.2345C5.43847 27.3359 5.99034 27.2852 6.49204 27.0825Z" fill="#FFF6CC"/>
<path d="M4.8866 27.2345C5.43847 27.3359 5.99034 27.2852 6.49204 27.0825" stroke="#FF7B00" stroke-width="0.5" stroke-miterlimit="10"/>
<path d="M5.63916 28.0957C6.39171 28.0957 7.19444 27.9437 7.89682 27.6396Z" fill="#FFF6CC"/>
<path d="M5.63916 28.0957C6.39171 28.0957 7.19444 27.9437 7.89682 27.6396" stroke="#FF7B00" stroke-width="0.5" stroke-miterlimit="10"/>
<path d="M6.24109 28.4504C6.8933 28.5011 7.59568 28.3997 8.19773 28.0957Z" fill="#FFF6CC"/>
<path d="M6.24109 28.4504C6.8933 28.5011 7.59568 28.3997 8.19773 28.0957" stroke="#FF7B00" stroke-width="0.5" stroke-miterlimit="10"/>
<path d="M7.84662 29.2103C8.549 29.0583 9.20121 28.8557 9.80326 28.501Z" fill="#FFF6CC"/>
<path d="M7.84662 29.2103C8.549 29.0583 9.20121 28.8557 9.80326 28.501" stroke="#FF7B00" stroke-width="0.5" stroke-miterlimit="10"/>
<path d="M12.5626 25.9169C12.9138 25.4609 13.2148 24.9035 13.3653 24.3462Z" fill="#FFF6CC"/>
<path d="M12.5626 25.9169C12.9138 25.4609 13.2148 24.9035 13.3653 24.3462" stroke="#FF7B00" stroke-width="0.5" stroke-miterlimit="10"/>
<path d="M12.6629 26.525C12.9639 26.1197 13.2148 25.7143 13.3151 25.2583Z" fill="#FFF6CC"/>
<path d="M12.6629 26.525C12.9639 26.1197 13.2148 25.7143 13.3151 25.2583" stroke="#FF7B00" stroke-width="0.5" stroke-miterlimit="10"/>
<path d="M12.6128 25.005C12.663 24.9544 12.7131 24.9037 12.7633 24.853Z" fill="#FFF6CC"/>
<path d="M12.6128 25.005C12.663 24.9544 12.7131 24.9037 12.7633 24.853" stroke="#FF7B00" stroke-width="0.5" stroke-miterlimit="10"/>
<path d="M13.1144 23.7887C13.1646 23.7381 13.2148 23.6874 13.265 23.6367Z" fill="#FFF6CC"/>
<path d="M13.1144 23.7887C13.1646 23.7381 13.2148 23.6874 13.265 23.6367" stroke="#FF7B00" stroke-width="0.5" stroke-miterlimit="10"/>
<path d="M8.69952 29.4133C9.00054 29.3626 9.30157 29.2106 9.55242 29.0586Z" fill="#FFF6CC"/>
<path d="M8.69952 29.4133C9.00054 29.3626 9.30157 29.2106 9.55242 29.0586" stroke="#FF7B00" stroke-width="0.5" stroke-miterlimit="10"/>
<path d="M4.43506 26.7279C4.78625 26.7786 5.08727 26.7786 5.43846 26.6772Z" fill="#FFF6CC"/>
<path d="M4.43506 26.7279C4.78625 26.7786 5.08727 26.7786 5.43846 26.6772" stroke="#FF7B00" stroke-width="0.5" stroke-miterlimit="10"/>
<path d="M3.3313 24.5488C3.43164 24.5995 3.53198 24.5995 3.63232 24.5488Z" fill="#FFF6CC"/>
<path d="M3.3313 24.5488C3.43164 24.5995 3.53198 24.5995 3.63232 24.5488" stroke="#FF7B00" stroke-width="0.5" stroke-miterlimit="10"/>
<path d="M28.8179 17.0499C28.8179 17.0499 29.9718 18.8234 29.1189 23.2316C28.8179 24.9543 28.0151 26.5757 26.811 27.8424C25.3561 29.4132 23.1486 30.6799 20.2388 29.0078C18.7838 28.1464 17.7804 26.6264 17.6299 24.9036C17.4794 23.3836 17.9309 21.8635 18.834 20.6981C20.6903 18.266 23.2991 16.5432 26.2592 15.7832C26.811 15.6312 27.4633 15.7325 27.965 16.0366C28.3663 16.2392 28.6673 16.5939 28.8179 17.0499Z" fill="#FFF6CC" stroke="#FF7B00" stroke-width="0.5" stroke-miterlimit="10"/>
<path d="M28.7679 17.9619C28.5672 18.0126 28.3163 18.0126 28.1157 17.9619Z" fill="#FFF6CC"/>
<path d="M28.7679 17.9619C28.5672 18.0126 28.3163 18.0126 28.1157 17.9619" stroke="#FF7B00" stroke-width="0.5" stroke-miterlimit="10"/>
<path d="M29.0187 19.2289C28.7678 19.2796 28.517 19.2796 28.3163 19.1782Z" fill="#FFF6CC"/>
<path d="M29.0187 19.2289C28.7678 19.2796 28.517 19.2796 28.3163 19.1782" stroke="#FF7B00" stroke-width="0.5" stroke-miterlimit="10"/>
<path d="M28.9685 18.4688C28.9183 18.5194 28.818 18.5194 28.7678 18.5194Z" fill="#FFF6CC"/>
<path d="M28.9685 18.4688C28.9183 18.5194 28.818 18.5194 28.7678 18.5194" stroke="#FF7B00" stroke-width="0.5" stroke-miterlimit="10"/>
<path d="M29.1691 20.394C29.0186 20.4447 28.8681 20.4447 28.7176 20.394Z" fill="#FFF6CC"/>
<path d="M29.1691 20.394C29.0186 20.4447 28.8681 20.4447 28.7176 20.394" stroke="#FF7B00" stroke-width="0.5" stroke-miterlimit="10"/>
<path d="M29.0689 19.8876C28.9184 19.9382 28.7177 19.8876 28.5672 19.8369Z" fill="#FFF6CC"/>
<path d="M29.0689 19.8876C28.9184 19.9382 28.7177 19.8876 28.5672 19.8369" stroke="#FF7B00" stroke-width="0.5" stroke-miterlimit="10"/>
<path d="M28.4167 23.3329C28.2662 23.3836 28.0655 23.3329 27.915 23.2822Z" fill="#FFF6CC"/>
<path d="M28.4167 23.3329C28.2662 23.3836 28.0655 23.3329 27.915 23.2822" stroke="#FF7B00" stroke-width="0.5" stroke-miterlimit="10"/>
<path d="M28.3664 23.9408C28.2159 23.9915 28.0152 23.9408 27.8647 23.8901Z" fill="#FFF6CC"/>
<path d="M28.3664 23.9408C28.2159 23.9915 28.0152 23.9408 27.8647 23.8901" stroke="#FF7B00" stroke-width="0.5" stroke-miterlimit="10"/>
<path d="M28.2159 25.0557C27.8647 25.157 27.5135 25.157 27.1623 25.0557Z" fill="#FFF6CC"/>
<path d="M28.2159 25.0557C27.8647 25.157 27.5135 25.157 27.1623 25.0557" stroke="#FF7B00" stroke-width="0.5" stroke-miterlimit="10"/>
<path d="M27.8146 25.5117C27.4634 25.6131 27.1122 25.6131 26.761 25.5117Z" fill="#FFF6CC"/>
<path d="M27.8146 25.5117C27.4634 25.6131 27.1122 25.6131 26.761 25.5117" stroke="#FF7B00" stroke-width="0.5" stroke-miterlimit="10"/>
<path d="M26.3596 27.6907C25.9582 27.792 25.5569 27.7414 25.1555 27.5894Z" fill="#FFF6CC"/>
<path d="M26.3596 27.6907C25.9582 27.792 25.5569 27.7414 25.1555 27.5894" stroke="#FF7B00" stroke-width="0.5" stroke-miterlimit="10"/>
<path d="M24.5535 28.8051C24.3528 28.8557 24.1019 28.8051 23.9012 28.7544Z" fill="#FFF6CC"/>
<path d="M24.5535 28.8051C24.3528 28.8557 24.1019 28.8051 23.9012 28.7544" stroke="#FF7B00" stroke-width="0.5" stroke-miterlimit="10"/>
<path d="M26.5603 27.2345C26.0085 27.3359 25.4566 27.2852 24.9549 27.0825Z" fill="#FFF6CC"/>
<path d="M26.5603 27.2345C26.0085 27.3359 25.4566 27.2852 24.9549 27.0825" stroke="#FF7B00" stroke-width="0.5" stroke-miterlimit="10"/>
<path d="M25.8078 28.0957C25.0553 28.0957 24.2526 27.9437 23.5502 27.6396Z" fill="#FFF6CC"/>
<path d="M25.8078 28.0957C25.0553 28.0957 24.2526 27.9437 23.5502 27.6396" stroke="#FF7B00" stroke-width="0.5" stroke-miterlimit="10"/>
<path d="M25.2057 28.4504C24.5535 28.5011 23.8511 28.3997 23.2491 28.0957Z" fill="#FFF6CC"/>
<path d="M25.2057 28.4504C24.5535 28.5011 23.8511 28.3997 23.2491 28.0957" stroke="#FF7B00" stroke-width="0.5" stroke-miterlimit="10"/>
<path d="M23.6004 29.2108C22.898 29.0588 22.2458 28.8561 21.5936 28.5015Z" fill="#FFF6CC"/>
<path d="M23.6004 29.2108C22.898 29.0588 22.2458 28.8561 21.5936 28.5015" stroke="#FF7B00" stroke-width="0.5" stroke-miterlimit="10"/>
<path d="M18.8843 25.9169C18.5331 25.4609 18.2321 24.9035 18.0816 24.3462Z" fill="#FFF6CC"/>
<path d="M18.8843 25.9169C18.5331 25.4609 18.2321 24.9035 18.0816 24.3462" stroke="#FF7B00" stroke-width="0.5" stroke-miterlimit="10"/>
<path d="M18.7839 26.525C18.4828 26.1703 18.232 25.7143 18.1317 25.2583Z" fill="#FFF6CC"/>
<path d="M18.7839 26.525C18.4828 26.1703 18.232 25.7143 18.1317 25.2583" stroke="#FF7B00" stroke-width="0.5" stroke-miterlimit="10"/>
<path d="M18.8341 25.005C18.7839 24.9544 18.7338 24.9037 18.6836 24.853Z" fill="#FFF6CC"/>
<path d="M18.8341 25.005C18.7839 24.9544 18.7338 24.9037 18.6836 24.853" stroke="#FF7B00" stroke-width="0.5" stroke-miterlimit="10"/>
<path d="M18.3324 23.7887C18.2822 23.7381 18.2321 23.6874 18.1819 23.6367Z" fill="#FFF6CC"/>
<path d="M18.3324 23.7887C18.2822 23.7381 18.2321 23.6874 18.1819 23.6367" stroke="#FF7B00" stroke-width="0.5" stroke-miterlimit="10"/>
<path d="M22.7474 29.4133C22.4463 29.3626 22.1453 29.2106 21.8945 29.0586Z" fill="#FFF6CC"/>
<path d="M22.7474 29.4133C22.4463 29.3626 22.1453 29.2106 21.8945 29.0586" stroke="#FF7B00" stroke-width="0.5" stroke-miterlimit="10"/>
<path d="M27.0119 26.7279C26.6607 26.7786 26.3597 26.7786 26.0085 26.6772Z" fill="#FFF6CC"/>
<path d="M27.0119 26.7279C26.6607 26.7786 26.3597 26.7786 26.0085 26.6772" stroke="#FF7B00" stroke-width="0.5" stroke-miterlimit="10"/>
<path d="M28.1157 24.5488C28.0153 24.5995 27.915 24.5995 27.8146 24.5488Z" fill="#FFF6CC"/>
<path d="M28.1157 24.5488C28.0153 24.5995 27.915 24.5995 27.8146 24.5488" stroke="#FF7B00" stroke-width="0.5" stroke-miterlimit="10"/>
<path d="M10.4854 13.4775C10.4854 13.4775 9.63255 14.2375 9.63255 14.7949C9.63255 14.7949 10.1844 14.0349 10.6861 13.8829C10.6861 13.8829 10.4854 14.2882 10.5356 14.5922C10.5356 14.5922 11.1377 14.2375 11.1377 14.1362C11.1377 14.0349 11.1377 14.2375 11.1377 14.2375C11.1377 14.2375 11.1878 15.8589 11.84 16.1123C11.84 16.1123 11.539 15.4029 11.84 14.7949C11.84 14.7949 11.8902 15.5043 12.3417 15.7069C12.3417 15.7069 12.1912 15.2002 12.3417 14.5416C12.3417 14.5416 12.5424 15.6056 13.0943 15.9096C13.0943 15.9096 12.7431 15.2002 12.9939 14.7949C12.9939 14.7949 13.2448 15.8589 15.0509 16.619C15.0509 16.619 14.3987 15.5043 14.4489 15.0482C14.4489 15.0482 14.9004 15.8589 15.2014 16.011C15.2014 16.011 15.5025 15.3523 15.653 15.2509C15.653 15.2509 15.6028 15.8589 15.5025 16.0616C15.5025 16.0616 16.1547 15.6563 16.4557 15.0482C16.4557 15.0482 16.4055 16.1123 16.1547 16.4163C16.1547 16.4163 17.1581 15.5043 17.2082 15.0482C17.2082 15.0482 17.2082 15.7069 16.9574 16.011C16.9574 16.011 17.8103 15.4536 17.9608 15.0482C17.9608 15.0482 18.011 16.2136 17.5594 16.3656C17.5594 16.3656 19.5161 15.1496 19.5662 14.3895C19.5662 14.3895 19.5161 15.3016 19.2652 15.3523C19.2652 15.3523 19.8171 14.9976 19.8673 14.4402C19.8673 14.4402 20.369 14.8456 20.2185 15.4029C20.2185 15.4029 20.5696 14.8456 20.5696 14.4402C20.5696 14.4402 21.4225 15.2002 21.272 15.9096C21.272 15.9096 21.9242 15.0482 21.6232 13.4268C21.6232 13.4268 22.0748 13.7308 22.1249 14.1869C22.1249 14.1869 22.3256 13.7815 22.1249 13.1228C22.1249 13.1228 22.727 13.2242 23.0782 13.7308C23.0782 13.7308 22.6768 12.9708 21.9744 12.5148C21.9744 12.5148 22.4761 12.3628 22.6266 12.5148C22.6266 12.5148 22.2253 12.1094 21.7737 12.0081C21.7737 12.0081 22.8273 11.8054 23.1785 12.0081C23.1785 12.0081 22.4259 11.0454 21.0713 10.8934C21.0713 10.8934 21.272 10.5387 21.5731 10.5894C21.5731 10.5894 20.8707 10.4374 20.67 10.4374C20.67 10.4374 21.7236 9.93067 21.9242 10.032C21.9242 10.032 21.7236 9.67733 19.9174 9.728C19.9174 9.728 20.2686 9.37332 20.8205 9.32265C20.8205 9.32265 20.1181 9.11997 18.8137 9.47465C18.8137 9.47465 19.4157 8.9173 19.6666 8.96796C19.6666 8.96796 19.0645 8.9173 18.2116 9.47465C18.2116 9.47465 18.4123 9.01863 18.7133 8.96796C18.7133 8.96796 18.0611 8.96796 17.7099 9.32265C17.7099 9.32265 17.6598 9.01863 18.0611 8.81596C18.0611 8.81596 17.2082 8.76529 16.8571 9.11997C16.8571 9.11997 16.8571 8.81596 17.1581 8.61328C17.1581 8.61328 16.556 8.61328 16.255 8.96796C16.255 8.96796 16.1045 9.01863 15.9038 8.81596C15.9038 8.81596 15.7031 9.01863 15.8536 9.32265C15.8536 9.32265 15.1513 9.47465 15.5025 8.61328C15.5025 8.61328 14.9004 8.81596 14.5994 9.17064C14.5994 9.17064 14.6496 9.01863 13.6462 8.81596C13.6462 8.81596 14.2482 9.17064 14.2482 9.42398C14.2482 9.42398 13.9472 9.0693 12.7431 8.86663C12.7431 8.86663 13.1445 9.01863 13.0441 9.47465C13.0441 9.47465 13.0943 9.0693 12.4922 8.96796C12.4922 8.96796 12.6428 9.37332 12.2916 9.37332C12.2916 9.37332 12.2414 8.86663 11.7899 8.81596C11.7899 8.81596 12.0909 9.17064 11.9404 9.22131C11.9404 9.22131 11.4387 9.01863 10.9871 9.17064C10.9871 9.17064 11.539 9.32265 11.5892 9.728C11.5892 9.728 11.0373 9.11997 9.73289 9.77867C9.73289 9.77867 11.1377 9.728 11.238 10.0827C11.238 10.0827 10.3349 9.77867 9.48203 10.0827C9.48203 10.0827 10.4353 10.1334 10.5858 10.3867C10.5858 10.3867 9.28135 10.184 8.07727 10.8934C8.07727 10.8934 9.33152 10.7414 9.48203 11.0961C9.48203 11.0961 8.17761 11.2481 8.0271 11.7041C8.0271 11.7041 8.72948 11.4001 9.53221 11.4001C9.53221 11.4001 8.57897 11.7041 8.22778 13.5788C8.22778 13.5788 8.98033 12.5148 9.8834 12.3121C9.8834 12.3121 8.93016 13.0215 8.93016 13.3762C8.93016 13.3762 9.48203 12.9708 9.78306 13.0215C9.78306 13.0215 9.38169 13.3762 9.28135 13.7815C9.23118 13.9842 10.2346 13.3255 10.4854 13.4775Z" fill="#FFF6CC" stroke="#FF7B00" stroke-width="0.5" stroke-miterlimit="10"/>
<path d="M13.1445 12.667C13.1445 12.667 12.0909 12.819 11.8401 13.275Z" fill="#FFF6CC"/>
<path d="M13.1445 12.667C13.1445 12.667 12.0909 12.819 11.8401 13.275" stroke="#FF7B00" stroke-width="0.5" stroke-miterlimit="10"/>
<path d="M13.4957 12.667C13.4957 12.667 12.392 13.0723 12.2916 13.6297Z" fill="#FFF6CC"/>
<path d="M13.4957 12.667C13.4957 12.667 12.392 13.0723 12.2916 13.6297" stroke="#FF7B00" stroke-width="0.5" stroke-miterlimit="10"/>
<path d="M14.0976 12.9709C14.0976 12.9709 13.1444 12.9203 12.8936 13.4776Z" fill="#FFF6CC"/>
<path d="M14.0976 12.9709C14.0976 12.9709 13.1444 12.9203 12.8936 13.4776" stroke="#FF7B00" stroke-width="0.5" stroke-miterlimit="10"/>
<path d="M15.6028 12.9712C15.6028 12.9712 15.0509 13.7312 15.2516 14.5419Z" fill="#FFF6CC"/>
<path d="M15.6028 12.9712C15.6028 12.9712 15.0509 13.7312 15.2516 14.5419" stroke="#FF7B00" stroke-width="0.5" stroke-miterlimit="10"/>
<path d="M15.8035 12.667C15.8035 12.667 16.3052 13.731 16.0544 14.3391Z" fill="#FFF6CC"/>
<path d="M15.8035 12.667C15.8035 12.667 16.3052 13.731 16.0544 14.3391" stroke="#FF7B00" stroke-width="0.5" stroke-miterlimit="10"/>
<path d="M17.2083 13.2749C17.2083 13.2749 17.4591 13.5789 17.4591 13.7309Z" fill="#FFF6CC"/>
<path d="M17.2083 13.2749C17.2083 13.2749 17.4591 13.5789 17.4591 13.7309" stroke="#FF7B00" stroke-width="0.5" stroke-miterlimit="10"/>
<path d="M17.2083 12.8696C17.3588 12.8696 18.7635 13.9337 18.7635 14.1364Z" fill="#FFF6CC"/>
<path d="M17.2083 12.8696C17.3588 12.8696 18.7635 13.9337 18.7635 14.1364" stroke="#FF7B00" stroke-width="0.5" stroke-miterlimit="10"/>
<path d="M17.409 12.8696C17.409 12.8696 17.8104 13.427 17.8104 13.6297Z" fill="#FFF6CC"/>
<path d="M17.409 12.8696C17.409 12.8696 17.8104 13.427 17.8104 13.6297" stroke="#FF7B00" stroke-width="0.5" stroke-miterlimit="10"/>
<path d="M17.8103 12.8696C17.8103 12.8696 18.2117 13.1736 18.312 13.3256Z" fill="#FFF6CC"/>
<path d="M17.8103 12.8696C17.8103 12.8696 18.2117 13.1736 18.312 13.3256" stroke="#FF7B00" stroke-width="0.5" stroke-miterlimit="10"/>
<path d="M18.0109 12.667C18.0109 12.667 18.5628 12.8697 18.6631 13.0723Z" fill="#FFF6CC"/>
<path d="M18.0109 12.667C18.0109 12.667 18.5628 12.8697 18.6631 13.0723" stroke="#FF7B00" stroke-width="0.5" stroke-miterlimit="10"/>
<path d="M19.7169 13.1738C19.7169 13.1738 20.1684 13.4778 20.1684 13.7819Z" fill="#FFF6CC"/>
<path d="M19.7169 13.1738C19.7169 13.1738 20.1684 13.4778 20.1684 13.7819" stroke="#FF7B00" stroke-width="0.5" stroke-miterlimit="10"/>
<path d="M19.7169 12.8696C19.7169 12.8696 20.3691 13.0723 20.4192 13.3256Z" fill="#FFF6CC"/>
<path d="M19.7169 12.8696C19.7169 12.8696 20.3691 13.0723 20.4192 13.3256" stroke="#FF7B00" stroke-width="0.5" stroke-miterlimit="10"/>
<path d="M13.6965 11.8562C13.6965 11.9069 13.6463 11.9575 13.5961 12.0082C13.546 12.1095 13.4456 12.1602 13.3453 12.1602C13.245 12.2109 13.1446 12.2109 13.0443 12.2109H12.9439C12.7433 12.2109 12.5426 12.2109 12.3419 12.1602C12.2416 12.1602 12.1914 12.1095 12.091 12.1095L11.8904 12.0589C11.7399 12.0082 11.5893 11.9069 11.4388 11.8562L11.3887 11.8055C11.188 11.7042 11.0375 11.5522 10.887 11.4002C10.7866 11.2988 10.7364 11.1468 10.6361 11.0455C10.5859 10.8935 10.5358 10.7415 10.5358 10.6401C10.5358 10.3361 10.6361 10.0828 10.7866 9.82944C11.0375 9.47476 11.4388 9.32275 11.8402 9.32275V9.32275C12.1914 9.32275 12.5426 9.47476 12.7433 9.72811C13.2951 10.2348 13.5961 10.9442 13.6965 11.6535C13.7467 11.7549 13.7467 11.8055 13.6965 11.8562Z" fill="#FFF6CC" stroke="#FF7B00" stroke-width="0.5" stroke-miterlimit="10"/>
<path d="M11.8905 11.9578C11.8905 11.9071 11.8905 11.8564 11.9407 11.8564Z" fill="#FFF6CC"/>
<path d="M11.8905 11.9578C11.8905 11.9071 11.8905 11.8564 11.9407 11.8564" stroke="#FF7B00" stroke-width="0.5" stroke-linecap="round" stroke-linejoin="round"/>
<path d="M11.7399 11.907C11.7399 11.8563 11.7399 11.8057 11.7901 11.8057Z" fill="#FFF6CC"/>
<path d="M11.7399 11.907C11.7399 11.8563 11.7399 11.8057 11.7901 11.8057" stroke="#FF7B00" stroke-width="0.5" stroke-linecap="round" stroke-linejoin="round"/>
<path d="M11.4891 11.8564C11.4891 11.755 11.4891 11.7044 11.5392 11.603Z" fill="#FFF6CC"/>
<path d="M11.4891 11.8564C11.4891 11.755 11.4891 11.7044 11.5392 11.603" stroke="#FF7B00" stroke-width="0.5" stroke-linecap="round" stroke-linejoin="round"/>
<path d="M11.3887 11.7548C11.3887 11.6535 11.3887 11.6028 11.4388 11.5015Z" fill="#FFF6CC"/>
<path d="M11.3887 11.7548C11.3887 11.6535 11.3887 11.6028 11.4388 11.5015" stroke="#FF7B00" stroke-width="0.5" stroke-linecap="round" stroke-linejoin="round"/>
<path d="M10.8871 11.2986C10.8871 11.1973 10.8871 11.096 10.9373 10.9946Z" fill="#FFF6CC"/>
<path d="M10.8871 11.2986C10.8871 11.1973 10.8871 11.096 10.9373 10.9946" stroke="#FF7B00" stroke-width="0.5" stroke-linecap="round" stroke-linejoin="round"/>
<path d="M10.9874 11.4C10.9874 11.248 10.9874 11.1466 11.0877 10.9946Z" fill="#FFF6CC"/>
<path d="M10.9874 11.4C10.9874 11.248 10.9874 11.1466 11.0877 10.9946" stroke="#FF7B00" stroke-width="0.5" stroke-linecap="round" stroke-linejoin="round"/>
<path d="M10.8369 11.1468C10.8369 10.9441 10.9372 10.7921 11.0375 10.6401Z" fill="#FFF6CC"/>
<path d="M10.8369 11.1468C10.8369 10.9441 10.9372 10.7921 11.0375 10.6401" stroke="#FF7B00" stroke-width="0.5" stroke-linecap="round" stroke-linejoin="round"/>
<path d="M10.7365 11.0454C10.7365 10.8934 10.7867 10.7414 10.887 10.5894Z" fill="#FFF6CC"/>
<path d="M10.7365 11.0454C10.7365 10.8934 10.7867 10.7414 10.887 10.5894" stroke="#FF7B00" stroke-width="0.5" stroke-linecap="round" stroke-linejoin="round"/>
<path d="M10.6362 10.5898C10.6863 10.4378 10.7867 10.2858 10.887 10.1338Z" fill="#FFF6CC"/>
<path d="M10.6362 10.5898C10.6863 10.4378 10.7867 10.2858 10.887 10.1338" stroke="#FF7B00" stroke-width="0.5" stroke-linecap="round" stroke-linejoin="round"/>
<path d="M11.5393 9.57632C11.6396 9.47499 11.7902 9.42432 11.9407 9.42432Z" fill="#FFF6CC"/>
<path d="M11.5393 9.57632C11.6396 9.47499 11.7902 9.42432 11.9407 9.42432" stroke="#FF7B00" stroke-width="0.5" stroke-linecap="round" stroke-linejoin="round"/>
<path d="M11.3887 9.52565C11.489 9.47499 11.5894 9.42432 11.6897 9.42432Z" fill="#FFF6CC"/>
<path d="M11.3887 9.52565C11.489 9.47499 11.5894 9.42432 11.6897 9.42432" stroke="#FF7B00" stroke-width="0.5" stroke-linecap="round" stroke-linejoin="round"/>
<path d="M11.7399 9.57617C11.7912 9.57617 11.7912 9.57617 11.7399 9.57617Z" fill="#FFF6CC"/>
<path d="M11.7399 9.57617C11.7912 9.57617 11.7912 9.57617 11.7399 9.57617" stroke="#FF7B00" stroke-width="0.5" stroke-linecap="round" stroke-linejoin="round"/>
<path d="M10.5861 10.3868C10.5861 10.3361 10.6362 10.2348 10.6864 10.1841Z" fill="#FFF6CC"/>
<path d="M10.5861 10.3868C10.5861 10.3361 10.6362 10.2348 10.6864 10.1841" stroke="#FF7B00" stroke-width="0.5" stroke-linecap="round" stroke-linejoin="round"/>
<path d="M11.0878 11.5019C11.0878 11.4005 11.0878 11.3499 11.1379 11.2485Z" fill="#FFF6CC"/>
<path d="M11.0878 11.5019C11.0878 11.4005 11.0878 11.3499 11.1379 11.2485" stroke="#FF7B00" stroke-width="0.5" stroke-linecap="round" stroke-linejoin="round"/>
<path d="M11.5894 11.8563V11.8057Z" fill="#FFF6CC"/>
<path d="M11.5894 11.8563V11.8057" stroke="#FF7B00" stroke-width="0.5" stroke-linecap="round" stroke-linejoin="round"/>
<path d="M21.1217 10.9445C21.0716 11.0458 21.0716 11.0965 21.0214 11.1471V11.1978C20.8709 11.3498 20.7204 11.4511 20.5699 11.5525C20.5699 11.5525 20.5699 11.6032 20.62 11.6032C20.5197 11.6538 20.4193 11.7045 20.319 11.7552C20.2187 11.8058 20.1685 11.8058 20.0682 11.8565C19.717 11.9578 19.3658 12.0085 19.0146 11.9578H18.9644C18.8641 11.9578 18.7637 11.8565 18.7136 11.8058C18.6634 11.7552 18.6132 11.6538 18.6132 11.5525C18.6132 11.1471 18.7637 10.7418 19.0146 10.4378C19.1149 10.2858 19.2654 10.1338 19.4159 10.0324C19.5163 9.93108 19.6166 9.88041 19.7671 9.77907H19.8173C19.9678 9.7284 20.1183 9.67773 20.2187 9.67773C20.319 9.67773 20.4193 9.67773 20.5197 9.7284C20.6702 9.77907 20.7705 9.82974 20.8709 9.93108C20.8709 9.93108 20.8709 9.93108 20.921 9.98175L21.0214 10.0831C21.0716 10.1338 21.0716 10.1338 21.0716 10.1844C21.2221 10.3871 21.2221 10.6911 21.1217 10.9445Z" fill="#FFF6CC" stroke="#FF7B00" stroke-width="0.5" stroke-miterlimit="10" stroke-linecap="round" stroke-linejoin="round"/>
<path d="M18.7638 11.0967C18.814 11.0967 18.8641 11.1473 18.8641 11.1473Z" fill="#FFF6CC"/>
<path d="M18.7638 11.0967C18.814 11.0967 18.8641 11.1473 18.8641 11.1473" stroke="#FF7B00" stroke-width="0.5" stroke-miterlimit="10" stroke-linecap="round" stroke-linejoin="round"/>
<path d="M18.8139 10.894C18.8641 10.894 18.8641 10.894 18.9142 10.9447Z" fill="#FFF6CC"/>
<path d="M18.8139 10.894C18.8641 10.894 18.8641 10.894 18.9142 10.9447" stroke="#FF7B00" stroke-width="0.5" stroke-miterlimit="10" stroke-linecap="round" stroke-linejoin="round"/>
<path d="M18.7638 10.9951C18.814 10.9951 18.814 11.0458 18.8641 11.0458Z" fill="#FFF6CC"/>
<path d="M18.7638 10.9951C18.814 10.9951 18.814 11.0458 18.8641 11.0458" stroke="#FF7B00" stroke-width="0.5" stroke-miterlimit="10" stroke-linecap="round" stroke-linejoin="round"/>
<path d="M19.1652 10.438C19.2153 10.438 19.2153 10.4887 19.2655 10.4887Z" fill="#FFF6CC"/>
<path d="M19.1652 10.438C19.2153 10.438 19.2153 10.4887 19.2655 10.4887" stroke="#FF7B00" stroke-width="0.5" stroke-miterlimit="10" stroke-linecap="round" stroke-linejoin="round"/>
<path d="M19.2152 10.3364C19.2654 10.3364 19.2654 10.3364 19.3156 10.3871Z" fill="#FFF6CC"/>
<path d="M19.2152 10.3364C19.2654 10.3364 19.2654 10.3364 19.3156 10.3871" stroke="#FF7B00" stroke-width="0.5" stroke-miterlimit="10" stroke-linecap="round" stroke-linejoin="round"/>
<path d="M19.3157 10.1338C19.3658 10.1338 19.4662 10.1845 19.5164 10.1845Z" fill="#FFF6CC"/>
<path d="M19.3157 10.1338C19.3658 10.1338 19.4662 10.1845 19.5164 10.1845" stroke="#FF7B00" stroke-width="0.5" stroke-miterlimit="10" stroke-linecap="round" stroke-linejoin="round"/>
<path d="M19.416 10.083C19.4662 10.083 19.5665 10.1337 19.6167 10.1337Z" fill="#FFF6CC"/>
<path d="M19.416 10.083C19.4662 10.083 19.5665 10.1337 19.6167 10.1337" stroke="#FF7B00" stroke-width="0.5" stroke-miterlimit="10" stroke-linecap="round" stroke-linejoin="round"/>
<path d="M19.8173 9.82959C19.9177 9.82959 19.9678 9.88026 20.018 9.93093Z" fill="#FFF6CC"/>
<path d="M19.8173 9.82959C19.9177 9.82959 19.9678 9.88026 20.018 9.93093" stroke="#FF7B00" stroke-width="0.5" stroke-miterlimit="10" stroke-linecap="round" stroke-linejoin="round"/>
<path d="M20.0682 9.7793C20.1686 9.82997 20.3191 9.88063 20.3693 9.98197Z" fill="#FFF6CC"/>
<path d="M20.0682 9.7793C20.1686 9.82997 20.3191 9.88063 20.3693 9.98197" stroke="#FF7B00" stroke-width="0.5" stroke-miterlimit="10" stroke-linecap="round" stroke-linejoin="round"/>
<path d="M20.4193 9.7793C20.5197 9.82997 20.62 9.9313 20.7203 10.0326Z" fill="#FFF6CC"/>
<path d="M20.4193 9.7793C20.5197 9.82997 20.62 9.9313 20.7203 10.0326" stroke="#FF7B00" stroke-width="0.5" stroke-miterlimit="10" stroke-linecap="round" stroke-linejoin="round"/>
<path d="M21.0715 10.5898C21.1217 10.6912 21.1217 10.7925 21.1217 10.8432Z" fill="#FFF6CC"/>
<path d="M21.0715 10.5898C21.1217 10.6912 21.1217 10.7925 21.1217 10.8432" stroke="#FF7B00" stroke-width="0.5" stroke-miterlimit="10" stroke-linecap="round" stroke-linejoin="round"/>
<path d="M19.6167 9.93115C19.6669 9.93115 19.717 9.98182 19.7672 10.0325Z" fill="#FFF6CC"/>
<path d="M19.6167 9.93115C19.6669 9.93115 19.717 9.98182 19.7672 10.0325" stroke="#FF7B00" stroke-width="0.5" stroke-miterlimit="10" stroke-linecap="round" stroke-linejoin="round"/>
<path d="M19.2654 10.2349H19.3156Z" fill="#FFF6CC"/>
<path d="M19.2654 10.2349H19.3156" stroke="#FF7B00" stroke-width="0.5" stroke-miterlimit="10" stroke-linecap="round" stroke-linejoin="round"/>
<path d="M17.8606 9.47485C17.8606 9.47485 17.6097 10.0829 16.4056 10.5896C15.9039 10.7922 15.4022 10.8936 14.9005 10.7922C14.148 10.7416 13.5459 10.1335 13.4958 9.32284C13.4456 8.81615 13.6965 8.30946 14.0476 8.00545C14.3988 7.70144 14.8504 7.6001 15.3019 7.6001C16.205 7.65077 17.0579 8.00545 17.7602 8.61348C17.9108 8.71481 17.9609 8.91749 18.0111 9.0695C17.9609 9.2215 17.9108 9.37351 17.8606 9.47485Z" fill="#FFF6CC" stroke="#FF7B00" stroke-width="0.5" stroke-miterlimit="10" stroke-linecap="round" stroke-linejoin="round"/>
<path d="M17.6097 9.6271C17.5596 9.57644 17.5094 9.52577 17.5094 9.4751Z" fill="#FFF6CC"/>
<path d="M17.6097 9.6271C17.5596 9.57644 17.5094 9.52577 17.5094 9.4751" stroke="#FF7B00" stroke-width="0.5" stroke-miterlimit="10" stroke-linecap="round" stroke-linejoin="round"/>
<path d="M17.3589 9.9307C17.3087 9.88003 17.2585 9.82936 17.2585 9.72803Z" fill="#FFF6CC"/>
<path d="M17.3589 9.9307C17.3087 9.88003 17.2585 9.82936 17.2585 9.72803" stroke="#FF7B00" stroke-width="0.5" stroke-miterlimit="10" stroke-linecap="round" stroke-linejoin="round"/>
<path d="M17.5099 9.77887C17.5099 9.77887 17.4586 9.7282 17.5099 9.77887Z" fill="#FFF6CC"/>
<path d="M17.5099 9.77887C17.5099 9.77887 17.4586 9.7282 17.5099 9.77887" stroke="#FF7B00" stroke-width="0.5" stroke-miterlimit="10" stroke-linecap="round" stroke-linejoin="round"/>
<path d="M17.108 10.1336C17.0579 10.0829 17.0579 10.0829 17.0077 10.0322Z" fill="#FFF6CC"/>
<path d="M17.108 10.1336C17.0579 10.0829 17.0579 10.0829 17.0077 10.0322" stroke="#FF7B00" stroke-width="0.5" stroke-miterlimit="10" stroke-linecap="round" stroke-linejoin="round"/>
<path d="M17.2083 10.0324C17.1581 9.98171 17.1581 9.93104 17.108 9.88037Z" fill="#FFF6CC"/>
<path d="M17.2083 10.0324C17.1581 9.98171 17.1581 9.93104 17.108 9.88037" stroke="#FF7B00" stroke-width="0.5" stroke-miterlimit="10" stroke-linecap="round" stroke-linejoin="round"/>
<path d="M16.2551 10.4377C16.2049 10.387 16.2049 10.3363 16.1547 10.2856Z" fill="#FFF6CC"/>
<path d="M16.2551 10.4377C16.2049 10.387 16.2049 10.3363 16.1547 10.2856" stroke="#FF7B00" stroke-width="0.5" stroke-miterlimit="10" stroke-linecap="round" stroke-linejoin="round"/>
<path d="M16.0544 10.5387C16.0043 10.4881 16.0043 10.4374 15.9541 10.3867Z" fill="#FFF6CC"/>
<path d="M16.0544 10.5387C16.0043 10.4881 16.0043 10.4374 15.9541 10.3867" stroke="#FF7B00" stroke-width="0.5" stroke-miterlimit="10" stroke-linecap="round" stroke-linejoin="round"/>
<path d="M15.8035 10.6908C15.7032 10.6402 15.653 10.5388 15.6028 10.4375Z" fill="#FFF6CC"/>
<path d="M15.8035 10.6908C15.7032 10.6402 15.653 10.5388 15.6028 10.4375" stroke="#FF7B00" stroke-width="0.5" stroke-miterlimit="10" stroke-linecap="round" stroke-linejoin="round"/>
<path d="M15.6029 10.6401C15.5026 10.5894 15.4524 10.4881 15.4022 10.3867Z" fill="#FFF6CC"/>
<path d="M15.6029 10.6401C15.5026 10.5894 15.4524 10.4881 15.4022 10.3867" stroke="#FF7B00" stroke-width="0.5" stroke-miterlimit="10" stroke-linecap="round" stroke-linejoin="round"/>
<path d="M14.8503 10.6404C14.75 10.5391 14.6998 10.4378 14.6497 10.3364Z" fill="#FFF6CC"/>
<path d="M14.8503 10.6404C14.75 10.5391 14.6998 10.4378 14.6497 10.3364" stroke="#FF7B00" stroke-width="0.5" stroke-miterlimit="10" stroke-linecap="round" stroke-linejoin="round"/>
<path d="M14.2484 10.3869C14.1982 10.3362 14.1481 10.2855 14.1481 10.2349Z" fill="#FFF6CC"/>
<path d="M14.2484 10.3869C14.1982 10.3362 14.1481 10.2855 14.1481 10.2349" stroke="#FF7B00" stroke-width="0.5" stroke-miterlimit="10" stroke-linecap="round" stroke-linejoin="round"/>
<path d="M14.9507 10.6402C14.8504 10.5389 14.7501 10.3869 14.6999 10.2349Z" fill="#FFF6CC"/>
<path d="M14.9507 10.6402C14.8504 10.5389 14.7501 10.3869 14.6999 10.2349" stroke="#FF7B00" stroke-width="0.5" stroke-miterlimit="10" stroke-linecap="round" stroke-linejoin="round"/>
<path d="M14.6497 10.5894C14.4991 10.3867 14.449 10.184 14.3988 9.93066Z" fill="#FFF6CC"/>
<path d="M14.6497 10.5894C14.4991 10.3867 14.449 10.184 14.3988 9.93066" stroke="#FF7B00" stroke-width="0.5" stroke-miterlimit="10" stroke-linecap="round" stroke-linejoin="round"/>
<path d="M14.449 10.488C14.3486 10.336 14.2483 10.1333 14.1981 9.93066Z" fill="#FFF6CC"/>
<path d="M14.449 10.488C14.3486 10.336 14.2483 10.1333 14.1981 9.93066" stroke="#FF7B00" stroke-width="0.5" stroke-miterlimit="10" stroke-linecap="round" stroke-linejoin="round"/>
<path d="M13.9974 10.235C13.897 10.0323 13.8469 9.82963 13.8469 9.62695Z" fill="#FFF6CC"/>
<path d="M13.9974 10.235C13.897 10.0323 13.8469 9.82963 13.8469 9.62695" stroke="#FF7B00" stroke-width="0.5" stroke-miterlimit="10" stroke-linecap="round" stroke-linejoin="round"/>
<path d="M13.9975 8.51217C14.0477 8.36017 14.148 8.15749 14.2483 8.05615Z" fill="#FFF6CC"/>
<path d="M13.9975 8.51217C14.0477 8.36017 14.148 8.15749 14.2483 8.05615" stroke="#FF7B00" stroke-width="0.5" stroke-miterlimit="10" stroke-linecap="round" stroke-linejoin="round"/>
<path d="M13.8469 8.56258C13.897 8.41057 13.9472 8.30923 14.0475 8.15723Z" fill="#FFF6CC"/>
<path d="M13.8469 8.56258C13.897 8.41057 13.9472 8.30923 14.0475 8.15723" stroke="#FF7B00" stroke-width="0.5" stroke-miterlimit="10" stroke-linecap="round" stroke-linejoin="round"/>
<path d="M14.2484 8.30946V8.25879Z" fill="#FFF6CC"/>
<path d="M14.2484 8.30946V8.25879" stroke="#FF7B00" stroke-width="0.5" stroke-miterlimit="10" stroke-linecap="round" stroke-linejoin="round"/>
<path d="M14.449 8.00526V7.95459Z" fill="#FFF6CC"/>
<path d="M14.449 8.00526V7.95459" stroke="#FF7B00" stroke-width="0.5" stroke-miterlimit="10" stroke-linecap="round" stroke-linejoin="round"/>
<path d="M13.847 10.0322C13.7968 9.93081 13.7968 9.82948 13.7968 9.77881Z" fill="#FFF6CC"/>
<path d="M13.847 10.0322C13.7968 9.93081 13.7968 9.82948 13.7968 9.77881" stroke="#FF7B00" stroke-width="0.5" stroke-miterlimit="10" stroke-linecap="round" stroke-linejoin="round"/>
<path d="M15.2015 10.6401C15.1514 10.5894 15.1012 10.4881 15.051 10.3867Z" fill="#FFF6CC"/>
<path d="M15.2015 10.6401C15.1514 10.5894 15.1012 10.4881 15.051 10.3867" stroke="#FF7B00" stroke-width="0.5" stroke-miterlimit="10" stroke-linecap="round" stroke-linejoin="round"/>
<path d="M15.904 10.5896C15.8538 10.539 15.8538 10.539 15.8538 10.4883Z" fill="#FFF6CC"/>
<path d="M15.904 10.5896C15.8538 10.539 15.8538 10.539 15.8538 10.4883" stroke="#FF7B00" stroke-width="0.5" stroke-miterlimit="10" stroke-linecap="round" stroke-linejoin="round"/>
<g opacity="0.2">
<path opacity="0.2" d="M16.3554 10.8426L16.3053 10.7413C16.1046 10.3866 15.9039 10.0826 15.6029 9.82922C15.4022 9.67722 15.2015 9.47454 15.0008 9.3732C14.6496 9.11986 14.2483 8.91718 13.7968 8.76518C13.7466 8.76518 13.6964 8.71451 13.6462 8.71451C13.4957 8.66384 13.3954 8.61317 13.2449 8.61317H13.1947C13.0442 8.5625 12.8435 8.5625 12.6428 8.5625C12.4422 8.5625 12.2917 8.61317 12.1411 8.71451C12.0408 8.76518 11.9405 8.86651 11.8903 8.96785L11.8401 9.01852C11.7899 9.11986 11.7899 9.17053 11.7398 9.27187C11.7398 9.3732 11.6896 9.42387 11.6896 9.52521C11.6896 9.62655 11.6896 9.62655 11.6896 9.67722C11.6394 10.5893 11.7899 11.4506 12.1913 12.2613V12.312L12.2415 12.3627V12.312H12.3418H12.4422H12.5425H12.6428C12.693 12.312 12.7934 12.312 12.8435 12.312C12.8435 12.312 12.8435 12.312 12.8435 12.3627H12.8937H12.9439C13.1445 12.4133 13.3452 12.464 13.5459 12.5147L13.6462 12.5653L13.8971 12.6667H13.9974C14.449 12.616 14.8503 12.5653 15.2517 12.5147C15.2517 12.5147 15.2517 12.5147 15.2517 12.5653L15.3019 12.5147H15.352C15.5527 12.5147 15.7534 12.5147 15.9039 12.5147H15.9541C15.9541 12.5147 15.9541 12.5147 15.9541 12.5653L15.9039 12.616L15.9541 12.6667V12.5147L16.0042 12.464H16.4056C16.4558 12.3627 16.5059 12.2613 16.5059 12.1093V12.0587C16.6565 11.6533 16.5561 11.248 16.3554 10.8426Z" fill="#FFF6CC" stroke="#FF7B00" stroke-width="0.5" stroke-linecap="round" stroke-linejoin="round"/>
<g opacity="0.2">
<path d="M13.0442 8.66357C13.0442 8.76491 12.9941 8.81558 12.9439 8.86625Z" fill="#FFF6CC"/>
<path d="M13.0442 8.66357C13.0442 8.76491 12.9941 8.81558 12.9439 8.86625" stroke="#FF7B00" stroke-width="0.5" stroke-linecap="round" stroke-linejoin="round"/>
</g>
<g opacity="0.2">
<path d="M13.5459 8.76514C13.5459 8.86647 13.4957 8.96781 13.3954 9.01848Z" fill="#FFF6CC"/>
<path d="M13.5459 8.76514C13.5459 8.86647 13.4957 8.96781 13.3954 9.01848" stroke="#FF7B00" stroke-width="0.5" stroke-linecap="round" stroke-linejoin="round"/>
</g>
<g opacity="0.2">
<path d="M13.2449 8.66357C13.2449 8.71424 13.2449 8.71424 13.2449 8.76491Z" fill="#FFF6CC"/>
<path d="M13.2449 8.66357C13.2449 8.71424 13.2449 8.71424 13.2449 8.76491" stroke="#FF7B00" stroke-width="0.5" stroke-linecap="round" stroke-linejoin="round"/>
</g>
<g opacity="0.2">
<path d="M13.9974 8.86621C13.9974 8.91688 13.9974 8.96755 13.9473 9.01822Z" fill="#FFF6CC"/>
<path d="M13.9974 8.86621C13.9974 8.91688 13.9974 8.96755 13.9473 9.01822" stroke="#FF7B00" stroke-width="0.5" stroke-linecap="round" stroke-linejoin="round"/>
</g>
<g opacity="0.2">
<path d="M13.7968 8.81592C13.7968 8.86659 13.7466 8.96793 13.6965 8.96793Z" fill="#FFF6CC"/>
<path d="M13.7968 8.81592C13.7968 8.86659 13.7466 8.96793 13.6965 8.96793" stroke="#FF7B00" stroke-width="0.5" stroke-linecap="round" stroke-linejoin="round"/>
</g>
<g opacity="0.2">
<path d="M14.9507 9.57568C14.9507 9.62635 14.9006 9.67702 14.8504 9.72769Z" fill="#FFF6CC"/>
<path d="M14.9507 9.57568C14.9507 9.62635 14.9006 9.67702 14.8504 9.72769" stroke="#FF7B00" stroke-width="0.5" stroke-linecap="round" stroke-linejoin="round"/>
</g>
<g opacity="0.2">
<path d="M15.2016 9.67725C15.2016 9.72791 15.1514 9.82925 15.1013 9.87992Z" fill="#FFF6CC"/>
<path d="M15.2016 9.67725C15.2016 9.72791 15.1514 9.82925 15.1013 9.87992" stroke="#FF7B00" stroke-width="0.5" stroke-linecap="round" stroke-linejoin="round"/>
</g>
<g opacity="0.2">
<path d="M15.5527 9.93066C15.5527 10.0827 15.5026 10.184 15.4022 10.2853Z" fill="#FFF6CC"/>
<path d="M15.5527 9.93066C15.5527 10.0827 15.5026 10.184 15.4022 10.2853" stroke="#FF7B00" stroke-width="0.5" stroke-linecap="round" stroke-linejoin="round"/>
</g>
<g opacity="0.2">
<path d="M15.6531 10.1333C15.6531 10.2853 15.6029 10.3866 15.5026 10.488Z" fill="#FFF6CC"/>
<path d="M15.6531 10.1333C15.6531 10.2853 15.6029 10.3866 15.5026 10.488" stroke="#FF7B00" stroke-width="0.5" stroke-linecap="round" stroke-linejoin="round"/>
</g>
<g opacity="0.2">
<path d="M16.2551 10.9946C16.205 11.1466 16.1548 11.2986 16.0544 11.4Z" fill="#FFF6CC"/>
<path d="M16.2551 10.9946C16.205 11.1466 16.1548 11.2986 16.0544 11.4" stroke="#FF7B00" stroke-width="0.5" stroke-linecap="round" stroke-linejoin="round"/>
</g>
<g opacity="0.2">
<path d="M16.3555 11.7544C16.3555 11.8557 16.3053 11.9064 16.205 12.0077Z" fill="#FFF6CC"/>
<path d="M16.3555 11.7544C16.3555 11.8557 16.3053 11.9064 16.205 12.0077" stroke="#FF7B00" stroke-width="0.5" stroke-linecap="round" stroke-linejoin="round"/>
</g>
<g opacity="0.2">
<path d="M16.1046 10.8428C16.0544 11.0454 15.9541 11.2481 15.8036 11.4001Z" fill="#FFF6CC"/>
<path d="M16.1046 10.8428C16.0544 11.0454 15.9541 11.2481 15.8036 11.4001" stroke="#FF7B00" stroke-width="0.5" stroke-linecap="round" stroke-linejoin="round"/>
</g>
<g opacity="0.2">
<path d="M16.3053 11.1973C16.205 11.4506 16.0043 11.704 15.7534 11.9066Z" fill="#FFF6CC"/>
<path d="M16.3053 11.1973C16.205 11.4506 16.0043 11.704 15.7534 11.9066" stroke="#FF7B00" stroke-width="0.5" stroke-linecap="round" stroke-linejoin="round"/>
</g>
<g opacity="0.2">
<path d="M16.3052 11.5015C16.2049 11.7548 16.0544 11.9575 15.9039 12.1602Z" fill="#FFF6CC"/>
<path d="M16.3052 11.5015C16.2049 11.7548 16.0544 11.9575 15.9039 12.1602" stroke="#FF7B00" stroke-width="0.5" stroke-linecap="round" stroke-linejoin="round"/>
</g>
<path opacity="0.2" d="M16.3555 12.1602C16.3555 12.1602 16.3053 12.2108 16.2551 12.2615C16.205 12.3122 16.1548 12.4135 16.1046 12.4642L16.0544 12.5148L16.0043 12.5655L16.0544 12.5148L16.1046 12.4642L16.2551 12.3122L16.3555 12.1602Z" fill="#FFF6CC" stroke="#FF7B00" stroke-width="0.5" stroke-linecap="round" stroke-linejoin="round"/>
<g opacity="0.2">
<path d="M16.0043 10.5894C15.9541 10.7414 15.9039 10.8427 15.8036 10.944Z" fill="#FFF6CC"/>
<path d="M16.0043 10.5894C15.9541 10.7414 15.9039 10.8427 15.8036 10.944" stroke="#FF7B00" stroke-width="0.5" stroke-linecap="round" stroke-linejoin="round"/>
</g>
<g opacity="0.2">
<path d="M15.3521 9.87988C15.3521 9.93055 15.3521 9.98122 15.3019 9.98122Z" fill="#FFF6CC"/>
<path d="M15.3521 9.87988C15.3521 9.93055 15.3521 9.98122 15.3019 9.98122" stroke="#FF7B00" stroke-width="0.5" stroke-linecap="round" stroke-linejoin="round"/>
</g>
</g>
<path d="M16.4056 10.7416C16.4056 10.6909 16.4056 10.6402 16.3555 10.5896C16.2049 10.2349 15.9541 9.8802 15.6531 9.62685C15.4524 9.42417 15.2517 9.27217 15.051 9.12016C14.6998 8.86682 14.2985 8.66414 13.847 8.46146L13.6964 8.4108C13.5459 8.36013 13.3954 8.30946 13.2951 8.30946H13.2449C13.0944 8.25879 12.8937 8.25879 12.693 8.25879C12.4924 8.25879 12.3418 8.30946 12.1913 8.4108C12.091 8.46146 11.9907 8.5628 11.9405 8.71481V8.76548C11.8903 8.86682 11.8903 8.91749 11.8401 9.01882C11.8401 9.12016 11.79 9.17083 11.79 9.27217V9.42417C11.6896 10.3869 11.8903 11.2989 12.2917 12.1603V12.211L12.3418 12.2616V12.211H12.4422H12.5425H12.6429H12.7432C12.7934 12.211 12.8937 12.211 12.9439 12.211C12.9439 12.211 12.9439 12.211 12.9439 12.2616H12.9941H13.0442C13.2449 12.3123 13.4456 12.363 13.6463 12.4643L13.7466 12.515C13.847 12.5657 13.8971 12.5657 13.9975 12.6163H14.0978C14.4992 12.5657 14.9507 12.515 15.3521 12.4643V12.515C15.3521 12.515 15.3521 12.515 15.4022 12.4643H15.4524H16.0043H16.0544C16.0544 12.4643 16.0544 12.4643 16.0544 12.515L16.0043 12.5657L16.0544 12.6163C16.0544 12.5657 16.0544 12.5657 16.0544 12.515L16.1046 12.4643C16.1046 12.4643 16.1046 12.4643 16.1548 12.4136C16.3053 12.4136 16.4056 12.4136 16.5561 12.4136C16.6063 12.3123 16.6565 12.1603 16.6565 12.059V12.0083C16.7066 11.6029 16.6063 11.1469 16.4056 10.7416Z" fill="#FFF6CC" stroke="#FF7B00" stroke-width="0.5" stroke-miterlimit="10"/>
<path d="M13.0442 8.41064C13.0442 8.51198 12.9941 8.56265 12.9439 8.66399Z" fill="#FFF6CC"/>
<path d="M13.0442 8.41064C13.0442 8.51198 12.9941 8.56265 12.9439 8.66399" stroke="#FF7B00" stroke-width="0.5" stroke-miterlimit="10" stroke-linecap="round" stroke-linejoin="round"/>
<path d="M13.5959 8.51172C13.5959 8.61306 13.5458 8.7144 13.4454 8.76506Z" fill="#FFF6CC"/>
<path d="M13.5959 8.51172C13.5959 8.61306 13.5458 8.7144 13.4454 8.76506" stroke="#FF7B00" stroke-width="0.5" stroke-miterlimit="10" stroke-linecap="round" stroke-linejoin="round"/>
<path d="M13.295 8.41064C13.295 8.46131 13.295 8.46131 13.2448 8.51198Z" fill="#FFF6CC"/>
<path d="M13.295 8.41064C13.295 8.46131 13.295 8.46131 13.2448 8.51198" stroke="#FF7B00" stroke-width="0.5" stroke-miterlimit="10" stroke-linecap="round" stroke-linejoin="round"/>
<path d="M13.9974 8.66406C13.9974 8.71473 13.9974 8.7654 13.9472 8.81607Z" fill="#FFF6CC"/>
<path d="M13.9974 8.66406C13.9974 8.71473 13.9974 8.7654 13.9472 8.81607" stroke="#FF7B00" stroke-width="0.5" stroke-miterlimit="10" stroke-linecap="round" stroke-linejoin="round"/>
<path d="M13.8469 8.61328C13.8469 8.66395 13.7967 8.76529 13.7465 8.81596Z" fill="#FFF6CC"/>
<path d="M13.8469 8.61328C13.8469 8.66395 13.7967 8.76529 13.7465 8.81596" stroke="#FF7B00" stroke-width="0.5" stroke-miterlimit="10" stroke-linecap="round" stroke-linejoin="round"/>
<path d="M15.0008 9.42383C15.0008 9.4745 14.9506 9.57584 14.9005 9.6265Z" fill="#FFF6CC"/>
<path d="M15.0008 9.42383C15.0008 9.4745 14.9506 9.57584 14.9005 9.6265" stroke="#FF7B00" stroke-width="0.5" stroke-miterlimit="10" stroke-linecap="round" stroke-linejoin="round"/>
<path d="M15.2015 9.52539C15.2015 9.57606 15.1513 9.6774 15.1011 9.72807Z" fill="#FFF6CC"/>
<path d="M15.2015 9.52539C15.2015 9.57606 15.1513 9.6774 15.1011 9.72807" stroke="#FF7B00" stroke-width="0.5" stroke-miterlimit="10" stroke-linecap="round" stroke-linejoin="round"/>
<path d="M15.6028 9.77881C15.6028 9.93082 15.5526 10.0828 15.4523 10.1842Z" fill="#FFF6CC"/>
<path d="M15.6028 9.77881C15.6028 9.93082 15.5526 10.0828 15.4523 10.1842" stroke="#FF7B00" stroke-width="0.5" stroke-miterlimit="10" stroke-linecap="round" stroke-linejoin="round"/>
<path d="M15.7032 9.98145C15.7032 10.1335 15.653 10.2855 15.5527 10.3868Z" fill="#FFF6CC"/>
<path d="M15.7032 9.98145C15.7032 10.1335 15.653 10.2855 15.5527 10.3868" stroke="#FF7B00" stroke-width="0.5" stroke-miterlimit="10" stroke-linecap="round" stroke-linejoin="round"/>
<path d="M16.255 10.8936C16.2048 11.0456 16.1547 11.1976 16.0543 11.2989Z" fill="#FFF6CC"/>
<path d="M16.255 10.8936C16.2048 11.0456 16.1547 11.1976 16.0543 11.2989" stroke="#FF7B00" stroke-width="0.5" stroke-miterlimit="10" stroke-linecap="round" stroke-linejoin="round"/>
<path d="M16.4055 11.7549C16.4055 11.8562 16.3553 11.9069 16.3052 12.0082Z" fill="#FFF6CC"/>
<path d="M16.4055 11.7549C16.4055 11.8562 16.3553 11.9069 16.3052 12.0082" stroke="#FF7B00" stroke-width="0.5" stroke-miterlimit="10" stroke-linecap="round" stroke-linejoin="round"/>
<path d="M16.1547 10.7412C16.1046 10.9439 16.0042 11.1466 15.8537 11.3492Z" fill="#FFF6CC"/>
<path d="M16.1547 10.7412C16.1046 10.9439 16.0042 11.1466 15.8537 11.3492" stroke="#FF7B00" stroke-width="0.5" stroke-miterlimit="10" stroke-linecap="round" stroke-linejoin="round"/>
<path d="M16.3554 11.147C16.2551 11.451 16.0544 11.7043 15.8035 11.907Z" fill="#FFF6CC"/>
<path d="M16.3554 11.147C16.2551 11.451 16.0544 11.7043 15.8035 11.907" stroke="#FF7B00" stroke-width="0.5" stroke-miterlimit="10" stroke-linecap="round" stroke-linejoin="round"/>
<path d="M16.3553 11.3999C16.255 11.6532 16.1045 11.9066 15.954 12.0586Z" fill="#FFF6CC"/>
<path d="M16.3553 11.3999C16.255 11.6532 16.1045 11.9066 15.954 12.0586" stroke="#FF7B00" stroke-width="0.5" stroke-miterlimit="10" stroke-linecap="round" stroke-linejoin="round"/>
<path d="M16.0042 10.4878C15.954 10.6398 15.9039 10.7411 15.8035 10.8425Z" fill="#FFF6CC"/>
<path d="M16.0042 10.4878C15.954 10.6398 15.9039 10.7411 15.8035 10.8425" stroke="#FF7B00" stroke-width="0.5" stroke-miterlimit="10" stroke-linecap="round" stroke-linejoin="round"/>
<path d="M15.4022 9.72803C15.4022 9.7787 15.4022 9.82936 15.352 9.82936Z" fill="#FFF6CC"/>
<path d="M15.4022 9.72803C15.4022 9.7787 15.4022 9.82936 15.352 9.82936" stroke="#FF7B00" stroke-width="0.5" stroke-miterlimit="10" stroke-linecap="round" stroke-linejoin="round"/>
<path d="M19.7671 9.22168C19.7671 9.06968 19.6667 8.91767 19.5664 8.81633C19.4159 8.66433 19.2152 8.56299 18.9644 8.56299C18.5128 8.56299 18.1115 8.56299 17.7101 8.66433C17.0077 8.81633 16.4057 9.12035 15.8036 9.5257L15.6531 9.62704C15.4023 9.88038 15.2016 10.1337 15.0511 10.4884C15.0009 10.5897 14.9507 10.6911 14.9507 10.8431V10.8938C14.8504 11.4511 15.0009 12.0591 15.3521 12.5152L15.4023 12.5658C15.4023 12.5658 15.4023 12.5658 15.4524 12.5152H15.5026H16.0545H16.1047C16.1047 12.5152 16.1047 12.5152 16.1047 12.5658L16.0545 12.6165L16.1047 12.6672C16.1047 12.6165 16.1047 12.6165 16.1047 12.5658L16.1548 12.5152C16.1548 12.5152 16.1548 12.5152 16.205 12.4645C16.3555 12.4645 16.4558 12.4645 16.6064 12.4645H16.8572L17.1582 12.5152H17.2084C17.4091 12.5658 17.6098 12.5658 17.8104 12.6165L17.7603 12.6672L17.6599 12.7685H17.7101L17.8104 12.7178L17.8606 12.6672H17.9108C18.0613 12.5658 18.2118 12.5152 18.4125 12.4138L18.6132 12.3125L18.6633 12.2618C18.7135 12.2112 18.7135 12.2112 18.7637 12.1605C18.8138 12.1098 18.864 12.0085 18.9644 11.9071C19.0647 11.7551 19.165 11.6031 19.2152 11.5018C19.4661 11.0458 19.6667 10.5391 19.7169 10.0324C19.7169 9.98172 19.7169 9.93105 19.7169 9.93105C19.7169 9.88038 19.7169 9.82971 19.7169 9.77904C19.8173 9.57637 19.8173 9.37369 19.7671 9.22168Z" fill="#FFF6CC"/>
<path d="M16.0545 12.5658V12.6165M16.0545 12.6165L16.1047 12.5658M16.0545 12.6165L16.1047 12.6672C16.1047 12.6165 16.1047 12.6165 16.1047 12.5658M16.1047 12.5658C16.1047 12.5152 16.1047 12.5152 16.1047 12.5152H16.0545H15.5026H15.4524C15.4023 12.5658 15.4023 12.5658 15.4023 12.5658L15.3521 12.5152C15.0009 12.0591 14.8504 11.4511 14.9507 10.8938V10.8431C14.9507 10.6911 15.0009 10.5897 15.0511 10.4884C15.2016 10.1337 15.4023 9.88038 15.6531 9.62704L15.8036 9.5257C16.4057 9.12035 17.0077 8.81633 17.7101 8.66433C18.1115 8.56299 18.5128 8.56299 18.9644 8.56299C19.2152 8.56299 19.4159 8.66433 19.5664 8.81633C19.6667 8.91767 19.7671 9.06968 19.7671 9.22168C19.8173 9.37369 19.8173 9.57637 19.7169 9.77904C19.7169 9.82971 19.7169 9.88038 19.7169 9.93105C19.7169 9.93105 19.7169 9.98172 19.7169 10.0324C19.6667 10.5391 19.4661 11.0458 19.2152 11.5018C19.165 11.6031 19.0647 11.7551 18.9644 11.9071C18.864 12.0085 18.8138 12.1098 18.7637 12.1605C18.7135 12.2112 18.7135 12.2112 18.6633 12.2618L18.6132 12.3125L18.4125 12.4138C18.2118 12.5152 18.0613 12.5658 17.9108 12.6672H17.8606L17.8104 12.7178L17.7101 12.7685M16.1047 12.5658L16.1548 12.5152C16.1548 12.5152 16.1548 12.5152 16.205 12.4645C16.3555 12.4645 16.4558 12.4645 16.6064 12.4645H16.8572L17.1582 12.5152H17.2084C17.4091 12.5658 17.6098 12.5658 17.8104 12.6165L17.7603 12.6672L17.6599 12.7685M17.6599 12.7685L17.5596 12.8192M17.6599 12.7685H17.7101M17.7101 12.7685H17.7603" stroke="#FF7B00" stroke-width="0.5" stroke-miterlimit="10" stroke-linecap="round" stroke-linejoin="round"/>
<path d="M19.7168 12.9711C19.7168 12.9711 20.2185 12.819 21.1216 12.9711C21.1216 12.9711 20.2185 12.4644 19.5161 12.7177C19.5161 12.7177 19.8171 12.3124 20.3188 12.2617C20.3188 12.2617 19.2151 12.2617 18.7636 12.6164C18.7636 12.6164 19.3656 11.9577 19.7168 11.9577C19.7168 11.9577 17.6096 12.4644 17.1581 12.819C17.1581 12.819 17.7601 11.9577 18.4124 11.8563C18.4124 11.8563 17.1079 11.9577 16.1045 12.7177C16.1045 12.7177 17.0578 11.4003 17.3588 11.147C17.3588 11.147 15.954 11.6537 15.6028 12.2617C15.6028 12.2617 15.3018 11.907 15.6028 11.603C15.6028 11.603 15.4022 11.6537 15.2516 12.363C15.2516 12.363 14.7499 11.6537 14.3486 11.755C14.3486 11.755 14.9005 12.2617 14.9005 12.7177C14.9005 12.7177 13.9472 11.755 13.3953 11.907C13.3953 11.907 13.9974 12.363 14.0977 12.7684C14.0977 12.7684 13.0442 11.5523 12.3418 11.6537C12.3418 11.6537 12.8435 12.0083 12.8936 12.2617C12.8936 12.2617 11.7899 11.299 10.5356 12.059C10.5356 12.059 11.7899 12.1097 11.9906 12.515" fill="#FFF6CC"/>
<path d="M19.7168 12.9711C19.7168 12.9711 20.2185 12.819 21.1216 12.9711C21.1216 12.9711 20.2185 12.4644 19.5161 12.7177C19.5161 12.7177 19.8171 12.3124 20.3188 12.2617C20.3188 12.2617 19.2151 12.2617 18.7636 12.6164C18.7636 12.6164 19.3656 11.9577 19.7168 11.9577C19.7168 11.9577 17.6096 12.4644 17.1581 12.819C17.1581 12.819 17.7601 11.9577 18.4124 11.8563C18.4124 11.8563 17.1079 11.9577 16.1045 12.7177C16.1045 12.7177 17.0578 11.4003 17.3588 11.147C17.3588 11.147 15.954 11.6537 15.6028 12.2617C15.6028 12.2617 15.3018 11.907 15.6028 11.603C15.6028 11.603 15.4022 11.6537 15.2516 12.363C15.2516 12.363 14.7499 11.6537 14.3486 11.755C14.3486 11.755 14.9005 12.2617 14.9005 12.7177C14.9005 12.7177 13.9472 11.755 13.3953 11.907C13.3953 11.907 13.9974 12.363 14.0977 12.7684C14.0977 12.7684 13.0442 11.5523 12.3418 11.6537C12.3418 11.6537 12.8435 12.0083 12.8936 12.2617C12.8936 12.2617 11.7899 11.299 10.5356 12.059C10.5356 12.059 11.7899 12.1097 11.9906 12.515" stroke="#FF7B00" stroke-width="0.5" stroke-miterlimit="10"/>
<path d="M38.3082 25.8769C37.1041 25.1676 36.1508 24.1542 35.4485 22.9381C34.6959 21.5701 34.3447 19.9993 34.3447 18.4286C34.2945 16.8579 34.6959 15.2871 35.4485 13.9191C36.1007 12.703 37.1041 11.6896 38.3082 10.9803C39.4119 10.3216 40.7163 9.96689 42.0208 9.96689C44.0777 9.96689 46.0344 10.8283 47.389 12.399V4.64665C47.389 4.24129 47.5395 3.88661 47.7903 3.5826C48.0412 3.32925 48.4425 3.17725 48.7937 3.17725C49.1951 3.17725 49.5463 3.32925 49.7971 3.5826C50.048 3.83594 50.1985 4.24129 50.1985 4.59598V25.2689C50.1985 26.0289 49.5964 26.6876 48.7937 26.6876C48.7937 26.6876 48.7937 26.6876 48.7436 26.6876C48.3924 26.6876 47.991 26.5356 47.7401 26.2823C47.4391 26.0289 47.2886 25.6743 47.3388 25.2689V24.4582C45.9842 25.9783 44.0276 26.8903 41.9706 26.8903C40.7163 26.8903 39.4119 26.5356 38.3082 25.8769ZM45.1313 23.5462C45.9842 23.0901 46.7367 22.5328 47.389 21.8234V15.1351C46.7367 14.4258 45.9842 13.8177 45.1313 13.4124C44.2784 12.9564 43.3753 12.703 42.4221 12.703C41.0173 12.6523 39.6628 13.2097 38.6593 14.2231C37.7061 15.2365 37.2546 16.6552 37.2546 18.4286C37.2546 20.2527 37.7061 21.6714 38.6593 22.6341C39.6126 23.6475 41.0173 24.2049 42.4221 24.1542C43.3753 24.2049 44.2784 24.0022 45.1313 23.5462Z" stroke="#FF7B00" stroke-miterlimit="10"/>
<path d="M55.4664 6.72444C55.1653 6.42043 54.9647 6.01508 55.0148 5.55906V5.40705C55.0148 4.49501 55.7172 3.78564 56.6203 3.78564H56.821C57.724 3.78564 58.4264 4.49501 58.4264 5.40705V5.55906C58.4264 6.4711 57.724 7.18047 56.821 7.18047H56.6203C56.1687 7.18047 55.7674 7.02846 55.4664 6.72444ZM55.6169 26.4853C55.366 26.232 55.2155 25.8773 55.2155 25.472V11.7913C55.2155 11.4367 55.366 11.0313 55.6169 10.778C55.8677 10.4739 56.2189 10.3219 56.6203 10.3219C57.0216 10.3219 57.3728 10.4739 57.6738 10.7273C57.9247 10.9806 58.0752 11.386 58.0752 11.7913V25.4213C58.0752 25.8266 57.9247 26.1813 57.6738 26.4347C57.423 26.688 57.0216 26.84 56.6704 26.84C56.2691 26.8907 55.9179 26.7387 55.6169 26.4853Z" stroke="#FF7B00" stroke-miterlimit="10"/>
<path d="M65.7011 26.4851C65.4503 26.2318 65.2997 25.8264 65.2997 25.4717C65.2997 25.3197 65.3499 25.1171 65.4001 24.9651L67.4571 19.6448L61.537 5.10282C61.4366 4.90014 61.4366 4.69747 61.3865 4.49479C61.3865 4.14011 61.537 3.73476 61.7878 3.48141C62.0387 3.1774 62.3899 3.02539 62.7912 3.02539C63.0923 3.02539 63.3431 3.12673 63.594 3.27874C63.7946 3.43074 63.9953 3.68409 64.0957 3.93743L68.9622 16.098L73.929 3.9881C74.1297 3.43074 74.6314 3.02539 75.2334 3.02539C75.6348 3.02539 75.986 3.1774 76.2368 3.48141C76.4877 3.73476 76.6382 4.14011 76.6382 4.49479C76.6382 4.69747 76.588 4.84947 76.5379 5.05215L67.9588 25.8771C67.7581 26.4345 67.2564 26.8398 66.6543 26.8398C66.3031 26.8905 65.952 26.7385 65.7011 26.4851Z" stroke="#FF7B00" stroke-miterlimit="10"/>
<path d="M80.9528 24.6612C79.5481 23.1918 78.7955 21.1144 78.7955 18.429C78.7955 17.0102 79.0464 15.5915 79.5983 14.2741C80.1 13.0074 81.003 11.9433 82.1068 11.1833C83.361 10.3726 84.816 9.96724 86.3211 10.0179C87.7258 9.96724 89.1306 10.3726 90.3347 11.1326C91.4384 11.842 92.3415 12.8554 92.8933 14.0714C93.4954 15.3382 93.7964 16.7062 93.7964 18.0743C93.7964 18.8343 93.1944 19.493 92.4418 19.493C92.3916 19.493 92.3415 19.493 92.3415 19.493H81.6552C81.7556 20.8104 82.3576 22.0771 83.3108 22.9892C84.2139 23.7999 85.5183 24.2052 87.174 24.2052C88.6289 24.2559 90.134 23.9012 91.4384 23.2425C91.6391 23.1412 91.7896 23.0905 91.9903 23.0905C92.3415 23.0905 92.6425 23.1918 92.8933 23.4452C93.1442 23.6479 93.2947 24.0025 93.2947 24.3572C93.2445 24.8639 92.9435 25.3199 92.492 25.5226C90.8364 26.536 88.9299 26.992 86.9733 26.9413C84.4146 26.8907 82.4078 26.1306 80.9528 24.6612ZM90.9869 17.1116C90.9367 16.1995 90.6859 15.2875 90.1842 14.5274C89.7326 13.8688 89.1306 13.3621 88.4282 13.0074C87.0736 12.3487 85.5183 12.3487 84.2139 13.0074C83.5115 13.3621 82.9095 13.8688 82.5081 14.5274C82.0064 15.2875 81.7556 16.1995 81.7054 17.1116H90.9869Z" stroke="#FF7B00" stroke-miterlimit="10"/>
<g clip-path="url(#clip0_131_10)">
<path d="M0.457214 30.123H234.543V57.8187" stroke="#FF7B00" stroke-width="2" stroke-miterlimit="10" stroke-linecap="round" stroke-dasharray="12 12"/>
</g>
<defs>
<clipPath id="clip0_131_10">
<rect width="235" height="28" fill="white" transform="translate(0 29.9707)"/>
</clipPath>
</defs>
</svg>
