<svg width="80" height="40" viewBox="0 0 80 40" fill="none" xmlns="http://www.w3.org/2000/svg">
<path d="M6.65992 8.59865C6.17265 7.35665 6.38419 5.92857 6.83303 4.7275C7.30527 3.46365 8.12756 2.20327 9.35657 1.53857C9.41754 2.87042 9.01188 4.18627 8.56864 5.37281C8.17003 6.44004 7.68094 7.57704 6.8733 8.45965C6.7492 9.12842 6.65409 9.79534 6.58721 10.4592C6.85489 9.75788 7.28893 9.11865 7.8305 8.60465C8.52776 7.94281 9.56496 7.43211 10.5386 7.73411C10.2534 8.8135 9.60339 9.84819 8.83356 10.574C8.22764 11.1453 7.42776 11.8774 6.48559 11.9062C6.44678 12.8831 6.46871 13.8511 6.54886 14.806C6.68178 14.1072 6.96657 13.4492 7.37806 12.9592C7.94333 12.2859 8.78148 11.4633 9.85189 11.6009C9.79345 12.6933 9.35895 13.8127 8.75387 14.6537C8.27304 15.3221 7.6383 16.174 6.73731 16.394C6.88158 17.3323 7.08253 18.255 7.33748 19.1578C7.33994 18.4665 7.49218 17.788 7.79422 17.2437C8.21989 16.4763 8.88288 15.5192 9.95451 15.4443C10.1116 16.5161 9.89875 17.6877 9.46939 18.6196C9.12624 19.3644 8.66873 20.3143 7.8348 20.7073C8.18499 21.6787 8.5994 22.6229 9.07455 23.5343C8.90773 22.7487 8.9144 21.921 9.11182 21.1762C9.38387 20.1494 10.0592 19.0709 11.1434 18.7579C11.5267 19.8914 11.4738 21.1565 11.2512 22.3087C11.068 23.2573 10.7079 24.3714 9.9009 24.9877C10.4285 25.8416 11.0122 26.6611 11.6487 27.4409C11.3067 26.6761 11.1368 25.8397 11.2279 25.074C11.3608 23.9584 11.6733 22.765 12.8095 22.1703C13.4541 23.2857 13.6034 24.537 13.6582 25.7729C13.7024 26.772 13.5589 28.0044 12.867 28.8173C13.6281 29.6109 14.4493 30.3537 15.3264 31.0386C14.7602 30.31 14.3636 29.4551 14.2796 28.6097C14.1611 27.4151 14.2191 26.1001 15.276 25.2235C16.18 26.1704 16.7194 27.565 16.9838 28.7762C17.2176 29.8471 17.4617 31.1147 16.9051 32.1686C18.0213 32.8993 19.213 33.5432 20.4729 34.0884C19.5864 33.4548 18.8607 32.5855 18.5149 31.688C18.0618 30.5114 17.7816 29.1095 18.6641 27.9312C19.8466 28.6908 20.7157 29.9868 21.4004 31.1688C21.9879 32.183 22.596 33.5829 22.2943 34.7908C22.9919 35.0282 23.7075 35.2367 24.4402 35.4145L24.3966 35.5949C23.6612 35.4163 22.9428 35.2072 22.2424 34.9691C21.7517 36.4235 20.1441 36.904 18.8441 37.1161C16.9917 37.4183 14.7861 36.8327 13.2047 35.653C14.0394 34.47 15.7423 34.35 17.0264 34.2595L17.0431 34.2583C18.4499 34.1592 19.9713 34.2917 21.386 34.6603C19.7517 34.0363 18.2226 33.2519 16.8126 32.3297L16.7918 32.3626C16.0191 33.6191 14.4678 33.6681 13.2501 33.5887C11.5978 33.4808 9.69013 32.4732 8.58605 31.0803C9.62455 30.1665 11.1585 30.4223 12.347 30.6204L12.3527 30.6213C13.6792 30.8425 15.1288 31.325 16.3455 32.0678C16.2296 31.9763 16.1162 31.8794 16.006 31.7779C14.823 30.932 13.7317 29.9857 12.7415 28.954C12.7299 28.9656 12.7183 28.977 12.7066 28.9884C11.7437 29.9599 10.3413 29.7055 9.24689 29.3893C7.78234 28.9663 6.26347 27.6899 5.53559 26.2246C6.66353 25.5907 8.01205 26.113 9.06097 26.5262C10.2122 26.9797 11.4303 27.705 12.3669 28.6297C12.2703 28.5076 12.1782 28.38 12.0911 28.2479C11.2206 27.2625 10.4375 26.2073 9.74904 25.0942L9.71452 25.1159C8.62524 25.8209 7.39109 25.3103 6.41295 24.8083C5.08675 24.1276 4.02102 22.6316 3.56052 21.1603C4.737 20.7824 5.89938 21.5242 6.80297 22.1117C7.79123 22.7541 8.79229 23.6704 9.47944 24.7213C9.42897 24.6177 9.38196 24.5119 9.33862 24.404C8.6784 23.2488 8.11751 22.036 7.66345 20.778L7.64006 20.786L7.63814 20.7867C6.64773 21.1643 5.5448 20.5772 4.82574 19.9333C3.82635 19.0386 3.12195 17.663 2.95682 16.319C3.98942 16.1849 4.96227 16.9861 5.6274 17.6695C6.39301 18.456 7.08016 19.3857 7.50261 20.4182C7.47178 20.306 7.44532 20.1921 7.42308 20.077C7.03866 18.8948 6.74744 17.6756 6.55546 16.4291L6.5405 16.431L6.53544 16.4318C5.48835 16.6071 4.52025 15.8087 3.94186 15.0339C3.13039 13.9466 2.71207 12.4417 2.81692 11.0778C3.85995 11.151 4.65417 12.1461 5.1692 12.9511C5.76531 13.883 6.25963 14.9377 6.47615 16.0411C6.46956 15.9533 6.46564 15.865 6.46426 15.7765C6.30527 14.5079 6.24859 13.2133 6.30043 11.9027L6.29744 11.9025C5.23286 11.864 4.44608 10.8727 4.03988 9.99342C3.45866 8.73511 3.36509 7.14457 3.75303 5.80411C4.76768 6.08973 5.33334 7.25704 5.66721 8.15558C6.05216 9.19158 6.32084 10.3215 6.32298 11.4449C6.37836 10.5024 6.48988 9.5525 6.65992 8.59865Z" fill="#394149"/>
<path d="M27.6273 6.27344V10.7733C27.6273 12.7524 25.84 13.7047 23.1313 13.7047C20.5993 13.7047 18.7842 12.7618 18.7842 10.5399V6.27344H21.3068V10.5399C21.3068 11.3334 21.9863 11.8282 23.2336 11.8282C24.4252 11.8282 25.1326 11.3147 25.1326 10.5492V6.27344H27.6273Z" fill="#394149"/>
<path d="M36.0287 11.6508V13.602H29.0566V6.27344H31.5793V11.6508H36.0287Z" fill="#394149"/>
<path d="M43.5257 8.11259V6.27344H34.8036V8.11259H37.8847V13.602H40.4353V8.11259H43.5257Z" fill="#394149"/>
<path fill-rule="evenodd" clip-rule="evenodd" d="M52.4736 7.02036C52.8088 7.36575 52.9675 7.8419 52.9675 8.50467C52.9675 9.07421 52.828 9.55967 52.5948 9.88636C52.334 10.2411 51.9336 10.5399 51.4405 10.6146L53.6471 13.602H50.8729L49.0574 11.016H46.7957V13.602H44.3103V6.27344H50.1282C51.2825 6.27344 52.0364 6.55351 52.4736 7.02036ZM50.4633 9.1209C50.5285 9.00882 50.5469 8.85944 50.5469 8.73813C50.5469 8.59805 50.5285 8.44867 50.4633 8.35536C50.3329 8.11259 50.0722 8.04728 49.681 8.04728H46.805V9.38228H49.7278C50.1282 9.38228 50.3705 9.30759 50.4633 9.1209Z" fill="#394149"/>
<path fill-rule="evenodd" clip-rule="evenodd" d="M57.0049 12.2484H60.9519L61.5938 13.602H64.2844L60.5983 6.27344H57.5917L53.6915 13.602H56.3254L57.0049 12.2484ZM60.1603 10.6052H57.8241L58.746 8.84082L59.0252 8.16859L59.286 8.83144L60.1603 10.6052Z" fill="#394149"/>
<path fill-rule="evenodd" clip-rule="evenodd" d="M52.2074 14.9822C50.6458 14.9822 49.8243 15.7245 49.8243 16.8153C49.8243 18.0464 50.6864 18.6709 52.2074 18.6709C53.8817 18.6709 54.5858 17.9468 54.5858 16.8153C54.5858 15.6656 53.7912 14.9822 52.2074 14.9822ZM52.2074 17.7613C51.3184 17.7613 51.0607 17.3946 51.0607 16.8289C51.0607 16.2722 51.3407 15.9056 52.2028 15.9056C53.1462 15.9056 53.3579 16.3174 53.3579 16.8289C53.3579 17.372 53.1009 17.7613 52.2074 17.7613Z" fill="#394149"/>
<path d="M47.5099 18.6166V16.5119H45.1541V17.2769H46.4132C46.4042 17.3357 46.3591 17.4489 46.3004 17.5167C46.1695 17.6706 45.822 17.8064 45.3707 17.8064C44.9014 17.8064 44.599 17.6842 44.4366 17.4941C44.3283 17.3538 44.2651 17.1546 44.2651 16.8559C44.2651 16.5436 44.3283 16.3309 44.4501 16.1906C44.6261 15.9915 44.9239 15.9055 45.3617 15.9055C45.7544 15.9055 46.0251 15.9959 46.1515 16.1091C46.2327 16.177 46.2959 16.2721 46.3094 16.3354H47.4783C47.4738 16.2222 47.4377 16.0412 47.3745 15.91C47.0947 15.3397 46.4448 15.0002 45.3392 15.0002C44.3779 15.0002 43.7326 15.2944 43.3761 15.738C43.1414 16.0412 43.0331 16.4214 43.0331 16.8469C43.0331 17.3176 43.1594 17.7204 43.367 17.9875C43.719 18.4446 44.3463 18.6709 45.1 18.6709C45.7634 18.6709 46.2192 18.5125 46.508 18.2726L46.5396 18.6166H47.5099Z" fill="#394149"/>
<path d="M35.2164 16.4667C36.1325 16.5662 36.5251 16.8921 36.5251 17.5122C36.5251 18.2635 35.794 18.6708 34.3544 18.6708C33.0141 18.6708 32.4365 18.2907 32.2153 17.7928C32.1656 17.6751 32.1431 17.5303 32.1295 17.4397H33.4293C33.4383 17.494 33.4699 17.5755 33.515 17.6298C33.6233 17.7611 33.9257 17.838 34.4402 17.838C35.1036 17.838 35.2615 17.743 35.2615 17.5665C35.2615 17.3764 35.0991 17.3357 34.4988 17.2723C34.2597 17.2497 33.8806 17.2134 33.7226 17.1999C32.5764 17.0957 32.1521 16.7382 32.1521 16.1272C32.1521 15.4935 32.9013 15.0093 34.2687 15.0093C35.4826 15.0093 36.0468 15.3714 36.2815 15.824C36.3536 15.9597 36.3987 16.1136 36.4123 16.2222H35.1126C35.108 16.1724 35.09 16.1227 35.0404 16.0593C34.9411 15.928 34.6883 15.842 34.2371 15.842C33.6008 15.842 33.4338 15.919 33.4338 16.0819C33.4338 16.263 33.6459 16.3037 34.3544 16.3807C34.6297 16.4033 35.0675 16.4485 35.2164 16.4667Z" fill="#394149"/>
<path fill-rule="evenodd" clip-rule="evenodd" d="M22.2601 15.367C22.4992 15.557 22.6346 15.8784 22.6346 16.3446C22.6346 16.7248 22.5399 17.0099 22.3593 17.209C22.1157 17.4896 21.714 17.6164 21.1905 17.621C21.028 17.6255 19.6381 17.621 19.6381 17.621V18.6166H18.4241V15.0637H21.1724C21.6599 15.0637 22.0299 15.1633 22.2601 15.367ZM21.362 16.6206C21.3981 16.5573 21.4162 16.4758 21.4162 16.3626C21.4162 16.245 21.3936 16.1454 21.353 16.0911C21.2763 15.978 21.1319 15.9236 20.8972 15.9236H19.629V16.7926H20.8881C21.1408 16.7926 21.2898 16.7338 21.362 16.6206Z" fill="#394149"/>
<path fill-rule="evenodd" clip-rule="evenodd" d="M27.0755 15.4258C27.238 15.5933 27.3147 15.8241 27.3147 16.1454C27.3147 16.4215 27.247 16.6569 27.1342 16.8153C27.0078 16.9873 26.8138 17.1321 26.5746 17.1683L27.6441 18.6166H26.2993L25.4193 17.363H24.3226V18.6166H23.1177V15.0637H25.9383C26.4979 15.0637 26.8634 15.1995 27.0755 15.4258ZM26.1007 16.4442C26.1323 16.3899 26.1413 16.3174 26.1413 16.2586C26.1413 16.1907 26.1323 16.1183 26.1007 16.073C26.0375 15.9553 25.9112 15.9236 25.7217 15.9236H24.3271V16.5709H25.7442C25.9383 16.5709 26.0556 16.5346 26.1007 16.4442Z" fill="#394149"/>
<path d="M31.7638 18.6166V17.7341H29.2231V17.2724H31.66V16.408H29.2231V15.9508H31.7322V15.0637H28.0316V18.6166H31.7638Z" fill="#394149"/>
<path d="M40.9167 15.9553V15.0637H36.6881V15.9553H38.1818V18.6166H39.4184V15.9553H40.9167Z" fill="#394149"/>
<path d="M42.5427 15.0637V18.6166H41.3016V15.0637H42.5427Z" fill="#394149"/>
<path d="M49.3343 15.0637V18.6166H48.093V15.0637H49.3343Z" fill="#394149"/>
<path d="M59.3741 15.0637V17.2453C59.3741 18.2048 58.5074 18.6665 57.1944 18.6665C55.9672 18.6665 55.0867 18.2093 55.0867 17.1321V15.0637H56.31V17.1321C56.31 17.5168 56.6391 17.7567 57.2442 17.7567C57.8218 17.7567 58.1646 17.5078 58.1646 17.1366V15.0637H59.3741Z" fill="#394149"/>
<path d="M64.2461 17.5122C64.2461 16.8921 63.8534 16.5662 62.9376 16.4667C62.788 16.4485 62.3509 16.4033 62.0755 16.3807C61.3668 16.3037 61.1544 16.263 61.1544 16.0819C61.1544 15.919 61.3216 15.842 61.9582 15.842C62.4091 15.842 62.6623 15.928 62.7612 16.0593C62.811 16.1227 62.8287 16.1724 62.8333 16.2222H64.1333C64.1195 16.1136 64.0743 15.9597 64.0022 15.824C63.7675 15.3714 63.2037 15.0093 61.9896 15.0093C60.6221 15.0093 59.8727 15.4935 59.8727 16.1272C59.8727 16.7382 60.2976 17.0957 61.4435 17.1999L61.5171 17.2064L61.6399 17.2177L62.2197 17.2723C62.8203 17.3357 62.9821 17.3764 62.9821 17.5665C62.9821 17.743 62.8249 17.838 62.1614 17.838C61.6468 17.838 61.3446 17.7611 61.2356 17.6298C61.1912 17.5755 61.1589 17.494 61.1505 17.4397H59.8505C59.8643 17.5303 59.8865 17.6751 59.9364 17.7928C60.1573 18.2907 60.7348 18.6708 62.0755 18.6708C63.5151 18.6708 64.2461 18.2635 64.2461 17.5122Z" fill="#394149"/>
<path fill-rule="evenodd" clip-rule="evenodd" d="M32.688 19.9771C31.6732 19.9771 31.1394 20.4595 31.1394 21.1684C31.1394 21.9685 31.6996 22.3744 32.688 22.3744C33.7762 22.3744 34.2337 21.9038 34.2337 21.1684C34.2337 20.4213 33.7176 19.9771 32.688 19.9771ZM32.688 21.7832C32.1103 21.7832 31.9431 21.5449 31.9431 21.1772C31.9431 20.8154 32.1249 20.5771 32.6851 20.5771C33.2981 20.5771 33.436 20.8448 33.436 21.1772C33.436 21.5302 33.2688 21.7832 32.688 21.7832Z" fill="#394149"/>
<path d="M27.0444 21.6213C27.0444 21.2183 26.7893 21.0065 26.1938 20.9418C26.097 20.93 25.8126 20.9006 25.6336 20.8859C25.1731 20.8359 25.0353 20.8094 25.0353 20.6918C25.0353 20.5859 25.1438 20.5359 25.5574 20.5359C25.8507 20.5359 26.0149 20.5917 26.0795 20.677C26.1117 20.7182 26.1234 20.7506 26.1264 20.7829H26.9711C26.9623 20.7123 26.933 20.6123 26.886 20.5241C26.7335 20.2299 26.3669 19.9946 25.5779 19.9946C24.6892 19.9946 24.2023 20.3093 24.2023 20.7212C24.2023 21.1183 24.478 21.3507 25.223 21.4183C25.3257 21.4272 25.572 21.4507 25.7275 21.4654C26.1176 21.5066 26.2231 21.5331 26.2231 21.6566C26.2231 21.7713 26.1205 21.8331 25.6894 21.8331C25.355 21.8331 25.1585 21.7831 25.0881 21.6978C25.0588 21.6625 25.0382 21.6096 25.0324 21.5742H24.1876C24.1964 21.6331 24.2111 21.7272 24.2434 21.8037C24.3871 22.1272 24.7626 22.3743 25.6336 22.3743C26.5693 22.3743 27.0444 22.1096 27.0444 21.6213Z" fill="#394149"/>
<path fill-rule="evenodd" clip-rule="evenodd" d="M21.1881 21.6862C21.1881 21.845 21.1441 22.001 21.0561 22.1039C20.9212 22.2686 20.6689 22.3392 20.3434 22.3392H18.2991V20.03H20.2876C20.6044 20.03 20.8068 20.1066 20.9183 20.2213C21.018 20.3213 21.062 20.4536 21.062 20.6036C21.062 20.7537 21.0268 20.8773 20.9506 20.9684C20.8889 21.045 20.7834 21.1037 20.6719 21.1185C20.8361 21.139 20.9916 21.2214 21.0796 21.3361C21.1529 21.4214 21.1881 21.5509 21.1881 21.6862ZM20.1997 20.8773C20.229 20.8449 20.2466 20.7978 20.2466 20.742C20.2466 20.686 20.229 20.639 20.1909 20.6066C20.1498 20.5683 20.0735 20.5536 19.9621 20.5536H19.0675V20.9302H19.9826C20.0823 20.9302 20.1586 20.9155 20.1997 20.8773ZM20.0677 21.8156C20.2055 21.8156 20.2876 21.798 20.3346 21.7539C20.3639 21.7244 20.3756 21.6803 20.3756 21.6244C20.3756 21.5656 20.361 21.5215 20.3258 21.4862C20.2818 21.448 20.2055 21.4303 20.0765 21.4303H19.0675V21.8156H20.0677Z" fill="#394149"/>
<path d="M23.9499 21.7656V22.3392H21.5243V20.03H23.9293V20.6066H22.2986V20.9037H23.8824V21.4656H22.2986V21.7656H23.9499Z" fill="#394149"/>
<path d="M29.8985 20.03V20.6096H28.9247V22.3392H28.1211V20.6096H27.1503V20.03H29.8985Z" fill="#394149"/>
<path d="M36.9176 20.03V20.6154H35.3543V20.942H36.8443V21.5215H35.3543V22.3392H34.5653V20.03H36.9176Z" fill="#394149"/>
<path d="M40.8916 20.6096V20.03H38.1434V20.6096H39.1143V22.3392H39.9179V20.6096H40.8916Z" fill="#394149"/>
<path d="M43.8901 20.03V22.3392H43.104V21.5009H41.9249V22.3392H41.1389V20.03H41.9249V20.8713H43.104V20.03H43.8901Z" fill="#394149"/>
<path d="M46.7811 22.3392V21.7656H45.1297V21.4656H46.7136V20.9037H45.1297V20.6066H46.7605V20.03H44.3555V22.3392H46.7811Z" fill="#394149"/>
<path d="M51.6437 20.03H52.4031L51.5617 22.3392H50.6996C50.6996 22.3392 50.2386 20.9596 50.2355 20.9213C50.2332 20.9596 49.7692 22.3392 49.7692 22.3392H48.9102L48.0479 20.03H48.901C48.901 20.03 49.4003 21.4832 49.4003 21.5185C49.4003 21.4832 49.8605 20.03 49.8605 20.03H50.685C50.685 20.03 51.1483 21.4832 51.1483 21.5185C51.1483 21.4832 51.6437 20.03 51.6437 20.03Z" fill="#394149"/>
<path fill-rule="evenodd" clip-rule="evenodd" d="M53.9094 19.9771C52.8947 19.9771 52.3608 20.4595 52.3608 21.1684C52.3608 21.9685 52.9207 22.3744 53.9094 22.3744C54.9978 22.3744 55.4549 21.9038 55.4549 21.1684C55.4549 20.4213 54.9387 19.9771 53.9094 19.9771ZM53.9094 21.7832C53.3319 21.7832 53.1646 21.5449 53.1646 21.1772C53.1646 20.8154 53.3464 20.5771 53.9063 20.5771C54.5199 20.5771 54.6572 20.8448 54.6572 21.1772C54.6572 21.5302 54.49 21.7832 53.9094 21.7832Z" fill="#394149"/>
<path fill-rule="evenodd" clip-rule="evenodd" d="M58.3595 20.2654C58.4645 20.3743 58.5144 20.5243 58.5144 20.7331C58.5144 20.9126 58.4707 21.0655 58.3971 21.1685C58.315 21.2803 58.1892 21.3744 58.0335 21.3979L58.7284 22.3392H57.8548L57.2826 21.5244H56.5701V22.3392H55.787V20.03H57.6201C57.9836 20.03 58.2214 20.1183 58.3595 20.2654ZM57.7259 20.9273C57.7459 20.892 57.752 20.8449 57.752 20.8066C57.752 20.7625 57.7459 20.7155 57.7259 20.686C57.6845 20.6096 57.6025 20.589 57.479 20.589H56.5732V21.0096H57.4935C57.6201 21.0096 57.696 20.9861 57.7259 20.9273Z" fill="#394149"/>
<path d="M61.1774 22.3392V21.7244H59.7753V20.03H58.9807V22.3392H61.1774Z" fill="#394149"/>
<path fill-rule="evenodd" clip-rule="evenodd" d="M64.2875 21.142C64.2875 21.5009 64.2522 21.695 64.1471 21.8774C63.9884 22.1686 63.6747 22.3392 63.1201 22.3392H61.4895V20.03H63.1025C63.654 20.03 63.9799 20.186 64.141 20.4536C64.2553 20.6331 64.2875 20.8243 64.2875 21.142ZM62.9706 21.7715C63.2198 21.7715 63.361 21.7126 63.4461 21.5833C63.499 21.5038 63.5136 21.3185 63.5136 21.1567C63.5105 21.0096 63.4929 20.8537 63.4461 20.7831C63.3548 20.6449 63.2175 20.5949 62.9767 20.5949H62.2757V21.7715H62.9706Z" fill="#394149"/>
<path d="M32.8247 33.5696H31.6093C31.6093 33.5696 30.8162 35.8946 30.8162 35.951C30.8162 35.8946 30.0748 33.5696 30.0748 33.5696H28.7561C28.7561 33.5696 28.0193 35.8946 28.0193 35.951C28.0193 35.8946 27.2216 33.5696 27.2216 33.5696H25.856L27.2356 37.2641H28.6106C28.6106 37.2641 29.3521 35.0568 29.3567 34.9957C29.3615 35.0568 30.0982 37.2641 30.0982 37.2641H31.4778L32.8247 33.5696Z" fill="#394149"/>
<path d="M34.4879 37.2641V33.5696H33.1974V37.2641H34.4879Z" fill="#394149"/>
<path d="M39.5075 33.5696V37.2641H38.2498L36.4243 35.2074V37.2641H35.2136V33.5696H36.5369L38.306 35.5793V33.5696H39.5075Z" fill="#394149"/>
<path d="M44.5348 37.2641V33.5696H43.3335V35.5793L41.5643 33.5696H40.241V37.2641H41.4517V35.2074L43.2772 37.2641H44.5348Z" fill="#394149"/>
<path d="M49.1495 36.3463V37.2641H45.2682V33.5696H49.1165V34.492H46.5071V34.9674H49.0413V35.8663H46.5071V36.3463H49.1495Z" fill="#394149"/>
<path fill-rule="evenodd" clip-rule="evenodd" d="M54.1095 34.6944C54.1095 34.3603 54.0298 34.1203 53.861 33.9461C53.6401 33.7108 53.2605 33.5696 52.6783 33.5696H49.7454V37.2641H50.9986V35.9604H52.1391L53.0542 37.2641H54.4524L53.3402 35.7581C53.5887 35.7204 53.7905 35.5698 53.9224 35.391C54.039 35.2263 54.1095 34.9815 54.1095 34.6944ZM52.8893 34.8121C52.8893 34.8733 52.88 34.9486 52.8471 35.005C52.8003 35.0992 52.6783 35.1368 52.4766 35.1368H51.0032V34.4638H52.4528C52.65 34.4638 52.7819 34.4967 52.8471 34.6191C52.88 34.6662 52.8893 34.7415 52.8893 34.8121Z" fill="#394149"/>
<path d="M29.0777 27.0514L28.5688 25.4805L28.0598 27.0514H26.4128L27.7453 28.0222L27.2364 29.5932L28.5688 28.6223L29.9011 29.5932L29.3922 28.0222L30.7246 27.0514H29.0777Z" fill="#394149"/>
<path d="M34.4443 25.4795L34.9636 27.0504H36.6441L35.2846 28.0213L35.8039 29.5922L34.4443 28.6213L33.0847 29.5922L33.604 28.0213L32.2444 27.0504H33.9249L34.4443 25.4795Z" fill="#394149"/>
<path d="M40.7923 27.0504L40.2731 25.4795L39.7537 27.0504H38.0731L39.4328 28.0213L38.9134 29.5922L40.2731 28.6213L41.6326 29.5922L41.1133 28.0213L42.473 27.0504H40.7923Z" fill="#394149"/>
<path d="M46.102 25.4795L46.6213 27.0504H48.3019L46.9423 28.0213L47.4616 29.5922L46.102 28.6213L44.7424 29.5922L45.2617 28.0213L43.9021 27.0504H45.5827L46.102 25.4795Z" fill="#394149"/>
<path d="M52.4866 27.0504L51.9773 25.4795L51.468 27.0504H49.8213L51.1536 28.0213L50.645 29.5922L51.9773 28.6213L53.3096 29.5922L52.801 28.0213L54.1333 27.0504H52.4866Z" fill="#394149"/>
<path d="M73.8534 8.6325C74.3404 7.39057 74.1287 5.96234 73.68 4.76127C73.2076 3.4975 72.3853 2.23696 71.1566 1.57227C71.0953 2.90419 71.501 4.21996 71.9443 5.4065C72.3432 6.47365 72.8317 7.61057 73.6394 8.49311C73.7636 9.16173 73.8587 9.8285 73.9255 10.4922C73.6578 9.79119 73.2244 9.15227 72.6829 8.63842C71.9857 7.9765 70.948 7.46588 69.9747 7.76788C70.26 8.84719 70.9097 9.88196 71.6797 10.6078C72.2856 11.1791 73.0856 11.9111 74.0275 11.94C74.0666 12.917 74.0443 13.885 73.9638 14.84C73.8311 14.1412 73.5466 13.4832 73.1347 12.9932C72.5694 12.3198 71.7311 11.4973 70.6611 11.6349C70.7194 12.7273 71.1543 13.8467 71.7595 14.6877C72.2396 15.3561 72.8747 16.208 73.7759 16.4281C73.6317 17.3662 73.4308 18.2887 73.1753 19.1915C73.173 18.5003 73.0212 17.8217 72.719 17.2775C72.2933 16.5101 71.6299 15.553 70.5584 15.4781C70.4011 16.5499 70.6144 17.7215 71.0439 18.6533C71.3867 19.3982 71.8446 20.348 72.6783 20.741C72.3278 21.7126 71.9136 22.657 71.4381 23.5685C71.6053 22.7828 71.5984 21.9549 71.4013 21.2099C71.129 20.1831 70.4541 19.1045 69.3695 18.7916C68.986 19.9253 69.039 21.1902 69.2622 22.3423C69.4455 23.291 69.8052 24.4052 70.6121 25.0214C70.0844 25.8758 69.5007 26.6957 68.8633 27.4759C69.2062 26.7108 69.3757 25.874 69.2844 25.1079C69.1517 23.9922 68.8396 22.7989 67.7036 22.2043C67.0586 23.3197 66.909 24.571 66.8546 25.8069C66.8101 26.8061 66.9535 28.0386 67.6461 28.8515C66.8845 29.6449 66.0638 30.3874 65.1871 31.0722C65.7532 30.3437 66.1497 29.4888 66.2333 28.6434C66.3522 27.4489 66.2947 26.134 65.237 25.2573C64.3335 26.2042 63.7935 27.5987 63.5297 28.81C63.2957 29.8808 63.0518 31.1484 63.6079 32.2023C62.4919 32.9333 61.3 33.5772 60.0399 34.1226C60.9265 33.4889 61.6521 32.6194 61.998 31.7217C62.4513 30.5453 62.7312 29.1433 61.8492 27.965C60.6665 28.7246 59.7975 30.0205 59.1126 31.2026C58.5251 32.2169 57.9168 33.6168 58.219 34.8247C57.5211 35.0621 56.8055 35.2706 56.073 35.4484L56.1167 35.6288C56.8515 35.4503 57.5702 35.2411 58.2704 35.003C58.7613 36.4573 60.3689 36.938 61.669 37.15C63.5212 37.4523 65.7271 36.8667 67.3086 35.687C66.4734 34.504 64.7707 34.384 63.4867 34.2934L63.4698 34.2923C62.0632 34.1931 60.5415 34.3256 59.1272 34.6943C60.7608 34.0703 62.2902 33.2857 63.7007 32.3634L63.7199 32.3942C64.4923 33.6528 66.0446 33.702 67.2626 33.6225C68.9155 33.5147 70.823 32.507 71.9267 31.1142C70.8882 30.2005 69.355 30.4561 68.1661 30.6542L68.16 30.6553C66.8339 30.8763 65.385 31.3586 64.1686 32.1012C64.2844 32.0097 64.3971 31.913 64.5076 31.8116C65.6903 30.9658 66.7809 30.0197 67.7711 28.9882C67.7849 29.002 67.7987 29.0155 67.8126 29.029C68.7759 29.9929 70.1741 29.7386 71.2663 29.4231C72.7313 29 74.2499 27.7237 74.9778 26.2583C73.8495 25.6245 72.5012 26.1467 71.4527 26.56C70.2999 27.0138 69.0812 27.74 68.1439 28.666C68.2405 28.5437 68.3333 28.4158 68.4208 28.2835C69.2913 27.2976 70.0752 26.2418 70.7639 25.128L70.7938 25.1465L70.8015 25.1513C71.8899 25.8538 73.1232 25.3437 74.1003 24.842C75.4265 24.1613 76.4926 22.6653 76.9528 21.1941C75.7762 20.8162 74.6142 21.558 73.7107 22.1454C72.7213 22.7883 71.7196 23.7052 71.0324 24.7568C71.083 24.653 71.1305 24.5469 71.1743 24.4388C71.8346 23.2832 72.3953 22.0701 72.8494 20.8117L72.8732 20.8197L72.877 20.8213C73.8672 21.1972 74.9693 20.6105 75.688 19.9671C76.6866 19.0723 77.3915 17.6967 77.5564 16.3528C76.524 16.2187 75.5507 17.0199 74.8857 17.7032C74.1203 18.4903 73.4323 19.4205 73.0097 20.4539C73.0411 20.3411 73.068 20.2266 73.0902 20.1108C73.4745 18.9287 73.7659 17.7095 73.9577 16.4632L73.9868 16.467C75.0299 16.6364 75.9948 15.8403 76.5716 15.0677C77.3831 13.9803 77.8011 12.4755 77.696 11.1115C76.6536 11.1847 75.859 12.1798 75.3444 12.9849C74.7477 13.9173 74.253 14.9726 74.0367 16.0767C74.0436 15.9883 74.0474 15.8996 74.0489 15.8105C74.2077 14.5418 74.2645 13.2471 74.2123 11.9365C75.2777 11.899 76.0669 10.907 76.4734 10.0273C77.054 8.76911 77.1476 7.1785 76.7603 5.83811C75.7455 6.12373 75.1795 7.29088 74.8458 8.18942C74.4608 9.22542 74.1924 10.3555 74.1901 11.4789C74.1349 10.5364 74.0229 9.58642 73.8534 8.6325Z" fill="#394149"/>
</svg>
