<svg width="133" height="35" viewBox="0 0 133 35" fill="none" xmlns="http://www.w3.org/2000/svg">
<path d="M31.02 12.25C31.38 12.25 31.5 12.38 31.5 12.73V20.65H35.57C35.92 20.65 36.05 20.78 36.05 21.13V21.83C36.05 22.18 35.92 22.31 35.57 22.31H30.21C29.86 22.31 29.72 22.18 29.72 21.83V12.73C29.72 12.38 29.86 12.25 30.21 12.25H31.02Z" fill="#394149"/>
<path d="M39.6 15.74C39.6 13.43 41.06 12.04 43.6 12.04C46.14 12.04 47.6 13.43 47.6 15.74V18.82C47.6 21.13 46.13 22.52 43.6 22.52C41.07 22.52 39.6 21.13 39.6 18.82V15.74ZM45.92 15.74C45.92 14.44 45.11 13.74 43.65 13.74C42.19 13.74 41.39 14.45 41.39 15.74V18.84C41.39 20.15 42.19 20.84 43.65 20.84C45.11 20.84 45.92 20.12 45.92 18.84V15.74Z" fill="#394149"/>
<path d="M59.51 16.8C59.9 16.8 59.99 16.93 59.99 17.28V19.18C60.0006 19.6275 59.9109 20.0718 59.7275 20.4801C59.544 20.8885 59.2716 21.2506 58.93 21.54C58.0817 22.2155 57.0121 22.5506 55.93 22.48C53.34 22.48 51.93 21.09 51.93 18.78V15.68C51.93 13.4 53.39 12 55.93 12C57.93 12 59.23 12.79 59.78 14.37C59.8108 14.4294 59.8273 14.4951 59.8282 14.5619C59.8291 14.6288 59.8144 14.695 59.7853 14.7551C59.7562 14.8153 59.7134 14.8679 59.6604 14.9087C59.6074 14.9494 59.5456 14.9773 59.48 14.99L58.7 15.26C58.36 15.38 58.22 15.31 58.1 14.96C57.9343 14.5329 57.631 14.1731 57.238 13.9377C56.845 13.7023 56.3848 13.6045 55.93 13.66C54.46 13.66 53.66 14.37 53.66 15.66V18.84C53.66 20.15 54.47 20.84 55.93 20.84C57.39 20.84 58.29 20.17 58.29 19.19V18.45H56.12C55.76 18.45 55.63 18.31 55.63 17.96V17.28C55.63 16.93 55.76 16.8 56.12 16.8H59.51Z" fill="#394149"/>
<path d="M64.12 15.74C64.12 13.43 65.58 12.04 68.12 12.04C70.66 12.04 72.12 13.43 72.12 15.74V18.82C72.12 21.13 70.65 22.52 68.12 22.52C65.59 22.52 64.12 21.13 64.12 18.82V15.74ZM70.43 15.74C70.43 14.44 69.62 13.74 68.17 13.74C66.72 13.74 65.9 14.45 65.9 15.74V18.84C65.9 20.15 66.71 20.84 68.17 20.84C69.63 20.84 70.43 20.12 70.43 18.84V15.74Z" fill="#394149"/>
<path d="M76.83 12.54C76.83 12.32 76.9 12.25 77.12 12.25H77.58C77.8 12.25 77.85 12.32 77.85 12.54V22.02C77.85 22.24 77.85 22.31 77.58 22.31H77.12C76.9 22.31 76.83 22.24 76.83 22.02V12.54Z" fill="#394149"/>
<path d="M86.96 12.25C87.7928 12.25 88.5914 12.5808 89.1803 13.1697C89.7692 13.7585 90.1 14.5572 90.1 15.39C90.1 16.2228 89.7692 17.0215 89.1803 17.6103C88.5914 18.1992 87.7928 18.53 86.96 18.53H83.96V22.02C83.96 22.24 83.91 22.31 83.7 22.31H83.23C83.02 22.31 82.94 22.24 82.94 22.02V12.54C82.94 12.32 83.02 12.25 83.23 12.25H86.96ZM86.87 17.54C87.1563 17.54 87.4398 17.4836 87.7043 17.3741C87.9687 17.2645 88.2091 17.1039 88.4115 16.9015C88.6139 16.6991 88.7745 16.4587 88.8841 16.1943C88.9936 15.9298 89.05 15.6463 89.05 15.36C89.05 15.0737 88.9936 14.7902 88.8841 14.5257C88.7745 14.2613 88.6139 14.0209 88.4115 13.8185C88.2091 13.6161 87.9687 13.4555 87.7043 13.3459C87.4398 13.2364 87.1563 13.18 86.87 13.18H83.87V17.54H86.87Z" fill="#394149"/>
<path d="M97.91 12.0501C98.6821 11.9649 99.461 12.131 100.131 12.5237C100.801 12.9165 101.327 13.5149 101.63 14.2301C101.71 14.3901 101.63 14.5201 101.47 14.6001L101.03 14.8001C100.85 14.8701 100.78 14.8601 100.67 14.6701C100.443 14.1393 100.054 13.6943 99.5577 13.3995C99.0616 13.1047 98.4845 12.9753 97.91 13.0301C96.22 13.0301 95.3 13.7001 95.3 14.9001C95.2902 15.2668 95.4133 15.6248 95.6468 15.9078C95.8802 16.1908 96.2081 16.3799 96.57 16.4401C97.1078 16.6155 97.6655 16.723 98.23 16.7601C98.9133 16.7965 99.5874 16.9347 100.23 17.1701C100.723 17.326 101.147 17.6466 101.431 18.0782C101.715 18.5098 101.842 19.026 101.79 19.5401C101.79 21.4101 100.43 22.5401 97.93 22.5401C97.11 22.6339 96.2826 22.4439 95.5857 22.0017C94.8888 21.5596 94.3644 20.8919 94.1 20.1101C94.0823 20.0745 94.0728 20.0354 94.072 19.9956C94.0712 19.9558 94.0793 19.9164 94.0955 19.8801C94.1117 19.8438 94.1358 19.8115 94.166 19.7856C94.1961 19.7596 94.2316 19.7407 94.27 19.7301L94.71 19.5701C94.7446 19.5559 94.7819 19.5491 94.8193 19.5501C94.8567 19.5511 94.8935 19.5599 94.9274 19.5759C94.9612 19.5919 94.9914 19.6147 95.0159 19.643C95.0405 19.6713 95.0589 19.7043 95.07 19.7401C95.2937 20.305 95.6915 20.784 96.2057 21.1077C96.7199 21.4313 97.3239 21.5828 97.93 21.5401C99.82 21.5401 100.75 20.8801 100.75 19.5401C100.768 19.1879 100.66 18.8408 100.445 18.5606C100.231 18.2805 99.9245 18.0854 99.58 18.0101C99.0626 17.8558 98.529 17.7618 97.99 17.7301L96.91 17.5901C96.572 17.5184 96.2382 17.4282 95.91 17.3201C95.5858 17.2222 95.2836 17.0626 95.02 16.8501C94.7547 16.6099 94.5456 16.3143 94.4073 15.9842C94.2691 15.6541 94.2051 15.2977 94.22 14.9401C94.29 13.1901 95.6 12.0501 97.91 12.0501Z" fill="#394149"/>
<path d="M107.18 18.89C107.222 19.5972 107.533 20.2615 108.049 20.7472C108.565 21.2329 109.247 21.5033 109.955 21.5033C110.663 21.5033 111.345 21.2329 111.861 20.7472C112.377 20.2615 112.687 19.5972 112.73 18.89V12.54C112.73 12.32 112.8 12.25 113.02 12.25H113.48C113.7 12.25 113.77 12.32 113.77 12.54V18.88C113.77 21.15 112.43 22.52 109.96 22.52C107.49 22.52 106.15 21.15 106.15 18.88V12.54C106.15 12.32 106.22 12.25 106.43 12.25H106.9C107.11 12.25 107.18 12.32 107.18 12.54V18.89Z" fill="#394149"/>
<path d="M127.57 12.25C127.79 12.25 127.86 12.32 127.86 12.54V22.02C127.86 22.24 127.79 22.31 127.57 22.31H127.15C126.94 22.31 126.87 22.24 126.87 22.02V16.25C126.87 15.4105 126.927 14.5719 127.04 13.74H126.98C126.668 14.5007 126.303 15.2391 125.89 15.95L123.74 19.74C123.714 19.8058 123.668 19.862 123.609 19.9013C123.55 19.9405 123.481 19.961 123.41 19.96H123.13C123.058 19.9604 122.988 19.9397 122.927 19.9007C122.867 19.8616 122.819 19.8058 122.79 19.74L120.61 15.91C120.223 15.2093 119.889 14.4806 119.61 13.73H119.55C119.652 14.5695 119.706 15.4143 119.71 16.26V22.02C119.71 22.24 119.64 22.31 119.42 22.31H119.03C118.81 22.31 118.74 22.24 118.74 22.02V12.54C118.74 12.32 118.81 12.25 119.03 12.25H119.39C119.472 12.2424 119.555 12.2603 119.626 12.3015C119.698 12.3427 119.755 12.4051 119.79 12.48L123.29 18.7L126.77 12.54C126.88 12.33 126.94 12.3 127.16 12.3L127.57 12.25Z" fill="#394149"/>
<path d="M13.23 20.79V28.02C13.23 28.2972 13.1199 28.563 12.9239 28.7589C12.728 28.9549 12.4622 29.065 12.185 29.065C11.9079 29.065 11.6421 28.9549 11.4461 28.7589C11.2501 28.563 11.14 28.2972 11.14 28.02V20.8C11.431 21.0125 11.7798 21.1311 12.14 21.14C12.5326 21.1512 12.9173 21.0277 13.23 20.79ZM22.13 18.7C21.8648 18.7 21.6104 18.8054 21.4229 18.9929C21.2354 19.1804 21.13 19.4348 21.13 19.7V20.96C21.13 21.2372 21.2401 21.503 21.4361 21.6989C21.632 21.8949 21.8978 22.005 22.175 22.005C22.4522 22.005 22.718 21.8949 22.9139 21.6989C23.1099 21.503 23.22 21.2372 23.22 20.96V19.75C23.2278 19.6066 23.2046 19.4632 23.152 19.3296C23.0994 19.196 23.0187 19.0752 22.9152 18.9756C22.8118 18.876 22.6881 18.7998 22.5527 18.7522C22.4172 18.7047 22.273 18.6869 22.13 18.7ZM8.87 23.53C8.51017 23.5192 8.16183 23.4008 7.87 23.19V30.44C7.87 30.7185 7.98062 30.9856 8.17754 31.1825C8.37445 31.3794 8.64152 31.49 8.92 31.49C9.19848 31.49 9.46555 31.3794 9.66246 31.1825C9.85938 30.9856 9.97 30.7185 9.97 30.44V23.24C9.64345 23.4511 9.25816 23.5527 8.87 23.53ZM18.87 16.53C18.7345 16.5232 18.5991 16.5441 18.4719 16.5913C18.3448 16.6385 18.2286 16.7111 18.1303 16.8046C18.0321 16.8982 17.954 17.0107 17.9006 17.1354C17.8473 17.2601 17.8198 17.3944 17.82 17.53V23.1C17.82 23.3785 17.9306 23.6456 18.1275 23.8425C18.3245 24.0394 18.5915 24.15 18.87 24.15C19.1485 24.15 19.4156 24.0394 19.6125 23.8425C19.8094 23.6456 19.92 23.3785 19.92 23.1V17.6C19.928 17.4557 19.9046 17.3114 19.8514 17.177C19.7982 17.0426 19.7166 16.9213 19.612 16.8215C19.5074 16.7217 19.3825 16.6457 19.2458 16.5989C19.1091 16.552 18.9638 16.5353 18.82 16.55L18.87 16.53ZM15.55 18.67C15.1733 18.6674 14.8067 18.5487 14.5 18.33V25.6C14.5 25.8785 14.6106 26.1456 14.8075 26.3425C15.0045 26.5394 15.2715 26.65 15.55 26.65C15.8285 26.65 16.0955 26.5394 16.2925 26.3425C16.4894 26.1456 16.6 25.8785 16.6 25.6V18.34C16.2828 18.5763 15.8955 18.6995 15.5 18.69L15.55 18.67ZM6.6 24.24V3.93C6.59737 3.68243 6.49717 3.44591 6.32117 3.27178C6.14517 3.09765 5.90758 2.99999 5.66 3H5.44C5.19242 2.99999 4.95483 3.09765 4.77883 3.27178C4.60283 3.44591 4.50263 3.68243 4.5 3.93V24.24C4.5 24.4893 4.59904 24.7284 4.77532 24.9047C4.9516 25.081 5.1907 25.18 5.44 25.18H5.66C5.90931 25.18 6.1484 25.081 6.32468 24.9047C6.50097 24.7284 6.6 24.4893 6.6 24.24ZM8.98 22.76H8.76C8.5107 22.76 8.2716 22.661 8.09532 22.4847C7.91904 22.3084 7.82 22.0693 7.82 21.82V6.35C7.82264 6.10244 7.92283 5.8659 8.09883 5.69178C8.27483 5.51765 8.51242 5.41999 8.76 5.42H8.98C9.22758 5.41999 9.46517 5.51765 9.64117 5.69178C9.81717 5.8659 9.91737 6.10244 9.92 6.35V21.84C9.92 22.0893 9.82096 22.3284 9.64468 22.5047C9.4684 22.681 9.2293 22.78 8.98 22.78V22.76ZM12.29 20.38H12.06C11.8134 20.38 11.5768 20.282 11.4024 20.1076C11.228 19.9332 11.13 19.6967 11.13 19.45V8.75C11.1287 8.62703 11.1518 8.50502 11.1979 8.39103C11.244 8.27704 11.3123 8.17334 11.3988 8.08592C11.4853 7.9985 11.5883 7.9291 11.7018 7.88174C11.8153 7.83438 11.937 7.80999 12.06 7.81H12.29C12.5376 7.81264 12.7741 7.91283 12.9482 8.08883C13.1224 8.26483 13.22 8.50242 13.22 8.75V19.45C13.22 19.6967 13.122 19.9332 12.9476 20.1076C12.7732 20.282 12.5367 20.38 12.29 20.38ZM15.6 17.93H15.39C15.1424 17.93 14.9048 17.8324 14.7288 17.6582C14.5528 17.4841 14.4526 17.2476 14.45 17V11.24C14.4418 11.1116 14.46 10.9829 14.5036 10.8618C14.5471 10.7408 14.6151 10.6299 14.7032 10.5362C14.7913 10.4424 14.8977 10.3678 15.0159 10.3168C15.134 10.2659 15.2613 10.2397 15.39 10.24H15.61C15.8593 10.24 16.0984 10.339 16.2747 10.5153C16.451 10.6916 16.55 10.9307 16.55 11.18V16.98C16.5513 17.1043 16.528 17.2276 16.4813 17.3428C16.4347 17.458 16.3657 17.5628 16.2782 17.6512C16.1908 17.7395 16.0868 17.8096 15.972 17.8575C15.8573 17.9054 15.7343 17.93 15.61 17.93H15.6ZM18.92 15.78H18.7C18.4507 15.78 18.2116 15.681 18.0353 15.5047C17.859 15.3284 17.76 15.0893 17.76 14.84V13.35C17.7626 13.1024 17.8628 12.8659 18.0388 12.6918C18.2148 12.5176 18.4524 12.42 18.7 12.42H18.92C19.1676 12.42 19.4052 12.5176 19.5812 12.6918C19.7572 12.8659 19.8574 13.1024 19.86 13.35V14.84C19.86 15.0876 19.7624 15.3252 19.5882 15.5012C19.4141 15.6772 19.1776 15.7774 18.93 15.78H18.92Z" fill="#394149"/>
</svg>
