<svg width="128" height="39" viewBox="0 0 128 39" fill="none" xmlns="http://www.w3.org/2000/svg">
<path d="M20 2C17.7019 2 15.4262 2.4527 13.303 3.3321C11.1798 4.2116 9.2507 5.5006 7.6256 7.1256C6.0006 8.7507 4.7116 10.6798 3.8321 12.803C2.9527 14.9262 2.5 17.2019 2.5 19.5C2.5 21.7981 2.9527 24.0738 3.8321 26.197C4.7116 28.3202 6.0006 30.2493 7.6256 31.8744C9.2507 33.4994 11.1798 34.7884 13.303 35.6679C15.4262 36.5473 17.7019 37 20 37V28.25C18.8509 28.25 17.7131 28.0237 16.6515 27.5839C15.5899 27.1442 14.6253 26.4997 13.8128 25.6872C13.0003 24.8747 12.3558 23.9101 11.9161 22.8485C11.4763 21.7869 11.25 20.6491 11.25 19.5C11.25 18.3509 11.4763 17.2131 11.9161 16.1515C12.3558 15.0899 13.0003 14.1253 13.8128 13.3128C14.6253 12.5003 15.5899 11.8558 16.6515 11.4161C17.7131 10.9763 18.8509 10.75 20 10.75V2Z" fill="#0F52FF"/>
<path d="M20.0001 25.3333C23.2218 25.3333 25.8334 22.7217 25.8334 19.5C25.8334 16.2783 23.2218 13.6667 20.0001 13.6667C16.7784 13.6667 14.1668 16.2783 14.1668 19.5C14.1668 22.7217 16.7784 25.3333 20.0001 25.3333Z" fill="#0F52FF"/>
<path d="M2.5 19.5C2.5 21.7981 2.9527 24.0738 3.8321 26.197C4.7116 28.3202 6.0006 30.2493 7.6256 31.8744C9.2507 33.4994 11.1798 34.7884 13.303 35.6679C15.4262 36.5473 17.7019 37 20 37C22.2981 37 24.5738 36.5473 26.697 35.6679C28.8202 34.7884 30.7493 33.4994 32.3744 31.8744C33.9994 30.2493 35.2884 28.3202 36.1679 26.197C37.0473 24.0738 37.5 21.7981 37.5 19.5H28.75C28.75 20.6491 28.5237 21.7869 28.0839 22.8485C27.6442 23.9101 26.9997 24.8747 26.1872 25.6872C25.3747 26.4997 24.4101 27.1442 23.3485 27.5839C22.2869 28.0237 21.1491 28.25 20 28.25C18.8509 28.25 17.7131 28.0237 16.6515 27.5839C15.5899 27.1442 14.6253 26.4997 13.8128 25.6872C13.0003 24.8747 12.3558 23.9101 11.9161 22.8485C11.4763 21.7869 11.25 20.6491 11.25 19.5H2.5Z" fill="#5BD0F4"/>
<path d="M25.8334 19.4999C25.8334 17.9528 25.2188 16.4691 24.1249 15.3751C23.0309 14.2811 21.5472 13.6665 20.0001 13.6665C18.453 13.6665 16.9693 14.2811 15.8753 15.3751C14.7813 16.4691 14.1667 17.9528 14.1667 19.4999H20.0001H25.8334Z" fill="#5BD0F4"/>
<path d="M46.6396 12.925H44.4661V25H46.6396V12.925Z" fill="#0F52FF"/>
<path d="M48.0589 20.7219C48.0589 23.5164 49.9909 25.2414 52.5439 25.2414C55.0969 25.2414 57.0289 23.5164 57.0289 20.7219C57.0289 17.9274 55.0969 16.2024 52.5439 16.2024C49.9909 16.2024 48.0589 17.9274 48.0589 20.7219ZM50.2324 20.7219C50.2324 19.0659 51.1984 18.0999 52.5439 18.0999C53.8894 18.0999 54.8554 19.0659 54.8554 20.7219C54.8554 22.3779 53.8894 23.3439 52.5439 23.3439C51.1984 23.3439 50.2324 22.3779 50.2324 20.7219Z" fill="#0F52FF"/>
<path d="M64.796 16.4439V17.5996H64.6235C64.106 16.8579 63.278 16.2024 61.7945 16.2024C59.759 16.2024 57.9305 17.9274 57.9305 20.5839C57.9305 23.2404 59.759 24.9654 61.7945 24.9654C63.278 24.9654 64.106 24.2926 64.589 23.6199H64.7615V24.4479C64.7615 26.1039 63.7955 26.8629 62.381 26.8629C60.9665 26.8629 60.242 26.1039 59.9487 25.1206L57.9995 25.9659C58.448 27.2596 59.759 28.6914 62.4155 28.6914C65.141 28.6914 66.935 27.2596 66.935 24.4996V16.4439H64.796ZM62.45 23.1024C61.1045 23.1024 60.104 22.1364 60.104 20.5839C60.104 19.0314 61.1045 18.0654 62.45 18.0654C63.7955 18.0654 64.796 19.0314 64.796 20.5839C64.796 22.1364 63.7955 23.1024 62.45 23.1024Z" fill="#0F52FF"/>
<path d="M68.3411 20.7219C68.3411 23.5164 70.2731 25.2414 72.8261 25.2414C75.3791 25.2414 77.311 23.5164 77.311 20.7219C77.311 17.9274 75.3791 16.2024 72.8261 16.2024C70.2731 16.2024 68.3411 17.9274 68.3411 20.7219ZM70.5146 20.7219C70.5146 19.0659 71.4806 18.0999 72.8261 18.0999C74.1716 18.0999 75.1376 19.0659 75.1376 20.7219C75.1376 22.3779 74.1716 23.3439 72.8261 23.3439C71.4806 23.3439 70.5146 22.3779 70.5146 20.7219Z" fill="#0F52FF"/>
<path d="M79.017 13.9601C79.017 14.8399 79.69 15.4436 80.553 15.4436C81.415 15.4436 82.088 14.8399 82.088 13.9601C82.088 13.0804 81.415 12.4766 80.553 12.4766C79.69 12.4766 79.017 13.0804 79.017 13.9601ZM81.639 16.4441H79.466V25.0001H81.639V16.4441Z" fill="#5BD0F4"/>
<path d="M83.576 28.4499H85.75V23.8959H85.922C86.405 24.5859 87.233 25.2414 88.717 25.2414C90.752 25.2414 92.581 23.5164 92.581 20.7219C92.581 17.9274 90.752 16.2024 88.717 16.2024C87.233 16.2024 86.405 16.8579 85.888 17.5997H85.715V16.4439H83.576V28.4499ZM88.061 23.3784C86.716 23.3784 85.715 22.4124 85.715 20.7219C85.715 19.0314 86.716 18.0654 88.061 18.0654C89.407 18.0654 90.407 19.0314 90.407 20.7219C90.407 22.4124 89.407 23.3784 88.061 23.3784Z" fill="#5BD0F4"/>
<path d="M93.849 18.8417C93.849 20.5322 95.263 21.1532 97.057 21.4982L97.506 21.5844C98.575 21.7914 99.058 22.0502 99.058 22.6022C99.058 23.1542 98.575 23.5854 97.575 23.5854C96.574 23.5854 95.764 23.1714 95.539 21.9294L93.538 22.4469C93.832 24.2409 95.332 25.2414 97.575 25.2414C99.748 25.2414 101.163 24.2237 101.163 22.4297C101.163 20.6356 99.714 20.1527 97.782 19.7732L97.333 19.6869C96.436 19.5144 95.953 19.2729 95.953 18.7037C95.953 18.1862 96.402 17.8584 97.23 17.8584C98.058 17.8584 98.644 18.2034 98.851 19.1349L100.818 18.5312C100.404 17.1512 99.145 16.2024 97.23 16.2024C95.194 16.2024 93.849 17.1512 93.849 18.8417Z" fill="#5BD0F4"/>
<path d="M110.926 25.0001V16.4441H108.753V20.8601C108.753 22.4471 107.977 23.3786 106.648 23.3786C105.475 23.3786 104.82 22.7404 104.82 21.4466V16.4441H102.646V21.5501C102.646 23.6719 103.975 25.1381 105.976 25.1381C107.545 25.1381 108.27 24.4481 108.615 23.7236H108.787V25.0001H110.926Z" fill="#5BD0F4"/>
<path d="M112.854 16.4439V24.9999H115.028V19.8939C115.028 18.7209 115.58 18.0654 116.58 18.0654C117.443 18.0654 117.96 18.5484 117.96 19.4799V24.9999H120.134V19.8939C120.134 18.7209 120.686 18.0654 121.686 18.0654C122.549 18.0654 123.066 18.5484 123.066 19.4799V24.9999H125.24V19.3764C125.24 17.3064 123.963 16.3059 122.376 16.3059C120.979 16.3059 120.341 16.9269 119.927 17.6514H119.754C119.357 16.8407 118.65 16.3059 117.408 16.3059C116.166 16.3059 115.493 16.8579 115.166 17.5134H114.993V16.4439H112.854Z" fill="#5BD0F4"/>
</svg>
