<svg width="169" height="41" viewBox="0 0 169 41" fill="none" xmlns="http://www.w3.org/2000/svg">
<g clip-path="url(#clip0_43_2533)">
<path d="M49 28H59V24.8531H52.5542V13H49V28Z" fill="#3C2B1F"/>
<path d="M64.989 25.6458C63.4314 25.6458 62.6197 24.3875 62.6197 22.5C62.6197 20.6125 63.4314 19.3339 64.989 19.3339C66.5466 19.3339 67.3802 20.6125 67.3802 22.5C67.3802 24.3875 66.5466 25.6458 64.989 25.6458ZM65.011 28C68.6307 28 71 25.6255 71 22.5C71 19.3745 68.6307 17 65.011 17C61.4132 17 59 19.3745 59 22.5C59 25.6255 61.4132 28 65.011 28Z" fill="#3C2B1F"/>
<path d="M76.5532 32C78.1702 32 79.5957 31.6378 80.5532 30.7855C81.4255 29.9972 82 28.804 82 27.1634V17.3196H78.6808V18.4915H78.6383C78 17.5753 77.0213 17 75.5745 17C72.8723 17 71 19.2585 71 22.4545C71 25.7997 73.2766 27.6321 75.7234 27.6321C77.0426 27.6321 77.8723 27.0994 78.5106 26.375H78.5957V27.4616C78.5957 28.7827 77.9787 29.5497 76.5106 29.5497C75.3617 29.5497 74.7872 29.0597 74.5957 28.4844H71.234C71.5745 30.7642 73.5532 32 76.5532 32ZM76.5319 25.054C75.234 25.054 74.383 23.9886 74.383 22.348C74.383 20.6861 75.234 19.6207 76.5319 19.6207C77.9787 19.6207 78.7447 20.8565 78.7447 22.3267C78.7447 23.8608 78.0426 25.054 76.5319 25.054Z" fill="#3C2B1F"/>
<path d="M88.4902 25.6458C87.0623 25.6458 86.3182 24.3875 86.3182 22.5C86.3182 20.6125 87.0623 19.3339 88.4902 19.3339C89.918 19.3339 90.6822 20.6125 90.6822 22.5C90.6822 24.3875 89.918 25.6458 88.4902 25.6458ZM88.5103 28C91.8285 28 94 25.6255 94 22.5C94 19.3745 91.8285 17 88.5103 17C85.2121 17 83 19.3745 83 22.5C83 25.6255 85.2121 28 88.5103 28Z" fill="#3C2B1F"/>
<path d="M95 28H99V17.2587H95V28ZM95 15.7692H99V13H95V15.7692Z" fill="#3C2B1F"/>
<path d="M100 32H103.364V27.2155H103.405C104.066 28.1422 105.036 28.7026 106.398 28.7026C109.163 28.7026 111 26.4181 111 22.8405C111 19.5216 109.287 17 106.48 17C105.036 17 104.004 17.6681 103.281 18.6595H103.22V17.3233H100V32ZM105.531 25.9871C104.086 25.9871 103.261 24.7586 103.261 22.9698C103.261 21.181 104.004 19.8233 105.469 19.8233C106.914 19.8233 107.595 21.0733 107.595 22.9698C107.595 24.8448 106.811 25.9871 105.531 25.9871Z" fill="#3C2B1F"/>
<path d="M117.166 28C119.946 28 122 26.825 122 24.5562C122 21.9024 119.801 21.4365 117.934 21.1326C116.585 20.8895 115.382 20.7882 115.382 20.0589C115.382 19.4107 116.025 19.1068 116.855 19.1068C117.788 19.1068 118.432 19.3904 118.556 20.3223H121.668C121.502 18.2762 119.884 17 116.876 17C114.365 17 112.29 18.1344 112.29 20.3223C112.29 22.7532 114.261 23.2394 116.108 23.5433C117.519 23.7864 118.805 23.8877 118.805 24.8195C118.805 25.488 118.162 25.8527 117.145 25.8527C116.025 25.8527 115.32 25.3462 115.195 24.3131H112C112.104 26.6022 114.054 28 117.166 28Z" fill="#3C2B1F"/>
<path d="M126.659 28C128.102 28 129.016 27.4156 129.768 26.3719H129.829V27.6869H133V17H129.687V22.9696C129.687 24.2429 128.996 25.1195 127.858 25.1195C126.801 25.1195 126.293 24.4725 126.293 23.3036V17H123V24.0133C123 26.3928 124.26 28 126.659 28Z" fill="#3C2B1F"/>
<path d="M134 28H137.486V22.0095C137.486 20.7362 138.127 19.8387 139.218 19.8387C140.265 19.8387 140.757 20.5066 140.757 21.6546V28H144.243V22.0095C144.243 20.7362 144.863 19.8387 145.975 19.8387C147.023 19.8387 147.514 20.5066 147.514 21.6546V28H151V21.0493C151 18.649 149.76 17 147.279 17C145.868 17 144.692 17.5844 143.836 18.8786H143.794C143.238 17.7306 142.147 17 140.714 17C139.132 17 138.084 17.7306 137.4 18.8368H137.336V17.3131H134V28Z" fill="#3C2B1F"/>
<path d="M25.9099 1.97695L21.9769 0.923096L18.6625 13.2927L15.6702 2.12533L11.7371 3.17919L14.9701 15.2447L6.91746 7.19207L4.03827 10.0713L12.871 18.9041L1.87124 15.9567L0.817383 19.8897L12.836 23.1101C12.6984 22.5166 12.6256 21.8982 12.6256 21.2628C12.6256 16.7652 16.2716 13.1192 20.7692 13.1192C25.2668 13.1192 28.9128 16.7652 28.9128 21.2628C28.9128 21.8941 28.8409 22.5087 28.705 23.0987L39.6277 26.0254L40.6815 22.0924L28.6151 18.8592L39.6156 15.9116L38.5617 11.9786L26.4958 15.2116L34.5484 7.15901L31.6692 4.27982L22.959 12.9901L25.9099 1.97695Z" fill="#F97316"/>
<path d="M28.6943 23.1443C28.3571 24.5699 27.6452 25.8506 26.6684 26.8767L34.5814 34.7898L37.4606 31.9106L28.6943 23.1443Z" fill="#F97316"/>
<path d="M26.5884 26.9597C25.5998 27.9694 24.3505 28.7229 22.9495 29.1112L25.8289 39.8572L29.7619 38.8033L26.5884 26.9597Z" fill="#F97316"/>
<path d="M22.8026 29.1503C22.1526 29.3174 21.4713 29.4062 20.7692 29.4062C20.017 29.4062 19.2886 29.3042 18.5971 29.1133L15.7151 39.8691L19.6481 40.9229L22.8026 29.1503Z" fill="#F97316"/>
<path d="M18.4581 29.0737C17.0785 28.6661 15.8514 27.903 14.883 26.8904L6.9505 34.8229L9.82969 37.7021L18.4581 29.0737Z" fill="#F97316"/>
<path d="M14.8168 26.8202C13.865 25.8012 13.1717 24.5376 12.8417 23.134L1.88336 26.0703L2.93721 30.0033L14.8168 26.8202Z" fill="#F97316"/>
</g>
<defs>
<clipPath id="clip0_43_2533">
<rect width="168" height="41" fill="white" transform="translate(0.5)"/>
</clipPath>
</defs>
</svg>
