<svg width="142" height="45" viewBox="0 0 142 45" fill="none" xmlns="http://www.w3.org/2000/svg">
<path d="M45.3008 32.1354L45.3008 32.1356C45.2652 34.4696 44.7853 36.4082 44.187 37.8443C43.5711 39.3227 42.8775 40.1598 42.5056 40.418C42.2334 40.607 41.9267 40.8772 41.6351 41.134C41.5437 41.2145 41.4538 41.2937 41.3669 41.3687C40.9673 41.7135 40.5139 42.0796 39.9554 42.4231C38.8573 43.0986 37.288 43.7265 34.8873 43.7991C31.9987 43.7954 29.2864 42.6844 27.398 40.5728L27.3597 40.5301L27.3169 40.492C25.6552 39.0152 24.8852 37.0811 24.5367 35.4623C24.3635 34.6575 24.2985 33.9483 24.277 33.4431C24.2662 33.1912 24.2664 32.9918 24.2689 32.8589C24.2702 32.7926 24.2721 32.7429 24.2735 32.7118L24.2752 32.6792L24.2754 32.6758L24.2755 32.6752L24.2755 32.6746L24.2755 32.6739L24.2755 32.6738L24.2779 32.6406V32.6053C24.2779 28.4257 26.1676 25.9807 28.1363 24.53C30.1475 23.048 32.2667 22.5937 32.6076 22.5311L32.2695 20.56L24.1987 21.847C24.1117 21.7575 24.0076 21.6446 23.8903 21.5063L23.1846 20.6749L22.4173 21.4498L22.0324 21.8386L13.9948 20.4857L13.6308 22.452C13.9521 22.5169 16.0723 22.9729 18.093 24.4555C20.0729 25.9082 21.9779 28.3536 21.9779 32.5296V32.5574L21.9794 32.5834L21.9794 32.5835L21.9794 32.5841L21.9794 32.5846L21.9795 32.5853L21.9797 32.5894L21.9809 32.6231C21.982 32.6551 21.9832 32.7059 21.9837 32.7737C21.9846 32.9093 21.9823 33.1121 21.9688 33.368C21.9417 33.8809 21.8699 34.5993 21.6918 35.411C21.3328 37.0469 20.561 38.9786 18.94 40.4153L18.9092 40.4426L18.8808 40.4723C16.8932 42.5489 14.1561 43.7214 11.3614 43.7234C8.96467 43.6871 7.40022 43.0606 6.30506 42.3787C5.7479 42.0318 5.29518 41.6599 4.89497 41.3089C4.81179 41.236 4.72575 41.159 4.63817 41.0807C4.34253 40.8162 4.02941 40.5362 3.7502 40.3423C3.38514 40.0888 2.70952 39.2597 2.11021 37.7781C1.52893 36.3411 1.0657 34.3993 1.03006 32.0599C1.02718 31.8706 1.02326 31.6751 1.01922 31.4733C0.970408 29.0374 0.903316 25.6891 2.41686 21.3973C4.05618 16.7488 7.58222 10.9202 15.1686 4.04163C19.8126 -0.0127705 26.6632 -0.0138776 31.3084 4.03831C38.8188 10.9906 42.3093 16.8567 43.9314 21.5165C45.4285 25.8173 45.3606 29.1514 45.3117 31.5544C45.3076 31.7545 45.3037 31.9482 45.3008 32.1354Z" fill="#FFF6CC" stroke="#FF7B00" stroke-width="2"/>
<path d="M3.92969 25.4858C3.92969 25.4858 2.20486 28.1367 3.47974 34.7259C3.92969 37.301 5.12958 39.7246 6.9294 41.6938C9.10419 44.0417 12.4039 45.9351 16.7534 43.4358C18.9282 42.1482 20.4281 39.8761 20.6531 37.301C20.878 35.0288 20.2031 32.7567 18.8532 31.0147C16.0785 27.3793 12.1789 24.8042 7.75432 23.6681C6.9294 23.4409 5.9545 23.5924 5.20457 24.0468C4.60463 24.3498 4.15467 24.8799 3.92969 25.4858Z" fill="#FFF6CC" stroke="#FF7B00" stroke-width="0.75" stroke-miterlimit="10"/>
<path d="M4.00464 26.8491C4.30461 26.9249 4.67957 26.9249 4.97954 26.8491Z" fill="#FFF6CC"/>
<path d="M4.00464 26.8491C4.30461 26.9249 4.67957 26.9249 4.97954 26.8491" stroke="#FF7B00" stroke-width="0.75" stroke-miterlimit="10"/>
<path d="M3.62952 28.7425C4.00448 28.8182 4.37944 28.8182 4.67941 28.6667Z" fill="#FFF6CC"/>
<path d="M3.62952 28.7425C4.00448 28.8182 4.37944 28.8182 4.67941 28.6667" stroke="#FF7B00" stroke-width="0.75" stroke-miterlimit="10"/>
<path d="M3.70471 27.6064C3.7797 27.6822 3.92969 27.6822 4.00468 27.6822Z" fill="#FFF6CC"/>
<path d="M3.70471 27.6064C3.7797 27.6822 3.92969 27.6822 4.00468 27.6822" stroke="#FF7B00" stroke-width="0.75" stroke-miterlimit="10"/>
<path d="M3.40466 30.4846C3.62964 30.5604 3.85462 30.5604 4.0796 30.4846Z" fill="#FFF6CC"/>
<path d="M3.40466 30.4846C3.62964 30.5604 3.85462 30.5604 4.0796 30.4846" stroke="#FF7B00" stroke-width="0.75" stroke-miterlimit="10"/>
<path d="M3.55469 29.7271C3.77967 29.8028 4.07964 29.7271 4.30461 29.6514Z" fill="#FFF6CC"/>
<path d="M3.55469 29.7271C3.77967 29.8028 4.07964 29.7271 4.30461 29.6514" stroke="#FF7B00" stroke-width="0.75" stroke-miterlimit="10"/>
<path d="M4.52954 34.8773C4.75452 34.953 5.05449 34.8773 5.27947 34.8015Z" fill="#FFF6CC"/>
<path d="M4.52954 34.8773C4.75452 34.953 5.05449 34.8773 5.27947 34.8015" stroke="#FF7B00" stroke-width="0.75" stroke-miterlimit="10"/>
<path d="M4.60449 35.7862C4.82947 35.8619 5.12944 35.7862 5.35442 35.7104Z" fill="#FFF6CC"/>
<path d="M4.60449 35.7862C4.82947 35.8619 5.12944 35.7862 5.35442 35.7104" stroke="#FF7B00" stroke-width="0.75" stroke-miterlimit="10"/>
<path d="M4.82947 37.4524C5.35442 37.6039 5.87936 37.6039 6.40431 37.4524Z" fill="#FFF6CC"/>
<path d="M4.82947 37.4524C5.35442 37.6039 5.87936 37.6039 6.40431 37.4524" stroke="#FF7B00" stroke-width="0.75" stroke-miterlimit="10"/>
<path d="M5.42944 38.134C5.95439 38.2855 6.47934 38.2855 7.00429 38.134Z" fill="#FFF6CC"/>
<path d="M5.42944 38.134C5.95439 38.2855 6.47934 38.2855 7.00429 38.134" stroke="#FF7B00" stroke-width="0.75" stroke-miterlimit="10"/>
<path d="M7.60425 41.3907C8.20419 41.5422 8.80413 41.4665 9.40407 41.2393Z" fill="#FFF6CC"/>
<path d="M7.60425 41.3907C8.20419 41.5422 8.80413 41.4665 9.40407 41.2393" stroke="#FF7B00" stroke-width="0.75" stroke-miterlimit="10"/>
<path d="M10.304 43.0572C10.6039 43.1329 10.9789 43.0572 11.2789 42.9814Z" fill="#FFF6CC"/>
<path d="M10.304 43.0572C10.6039 43.1329 10.9789 43.0572 11.2789 42.9814" stroke="#FF7B00" stroke-width="0.75" stroke-miterlimit="10"/>
<path d="M7.30432 40.7091C8.12924 40.8606 8.95416 40.7849 9.70409 40.4819Z" fill="#FFF6CC"/>
<path d="M7.30432 40.7091C8.12924 40.8606 8.95416 40.7849 9.70409 40.4819" stroke="#FF7B00" stroke-width="0.75" stroke-miterlimit="10"/>
<path d="M8.4292 41.9968C9.55409 41.9968 10.754 41.7696 11.8039 41.3152Z" fill="#FFF6CC"/>
<path d="M8.4292 41.9968C9.55409 41.9968 10.754 41.7696 11.8039 41.3152" stroke="#FF7B00" stroke-width="0.75" stroke-miterlimit="10"/>
<path d="M9.32898 42.527C10.3039 42.6027 11.3538 42.4513 12.2537 41.9968Z" fill="#FFF6CC"/>
<path d="M9.32898 42.527C10.3039 42.6027 11.3538 42.4513 12.2537 41.9968" stroke="#FF7B00" stroke-width="0.75" stroke-miterlimit="10"/>
<path d="M11.7289 43.6629C12.7788 43.4357 13.7537 43.1327 14.6536 42.6025Z" fill="#FFF6CC"/>
<path d="M11.7289 43.6629C12.7788 43.4357 13.7537 43.1327 14.6536 42.6025" stroke="#FF7B00" stroke-width="0.75" stroke-miterlimit="10"/>
<path d="M18.7781 38.74C19.303 38.0583 19.753 37.2252 19.978 36.3921Z" fill="#FFF6CC"/>
<path d="M18.7781 38.74C19.303 38.0583 19.753 37.2252 19.978 36.3921" stroke="#FF7B00" stroke-width="0.75" stroke-miterlimit="10"/>
<path d="M18.9281 39.6488C19.3781 39.0429 19.753 38.437 19.903 37.7554Z" fill="#FFF6CC"/>
<path d="M18.9281 39.6488C19.3781 39.0429 19.753 38.437 19.903 37.7554" stroke="#FF7B00" stroke-width="0.75" stroke-miterlimit="10"/>
<path d="M18.8531 37.3766C18.9281 37.3009 19.0031 37.2252 19.0781 37.1494Z" fill="#FFF6CC"/>
<path d="M18.8531 37.3766C18.9281 37.3009 19.0031 37.2252 19.0781 37.1494" stroke="#FF7B00" stroke-width="0.75" stroke-miterlimit="10"/>
<path d="M19.603 35.559C19.678 35.4833 19.753 35.4075 19.828 35.3318Z" fill="#FFF6CC"/>
<path d="M19.603 35.559C19.678 35.4833 19.753 35.4075 19.828 35.3318" stroke="#FF7B00" stroke-width="0.75" stroke-miterlimit="10"/>
<path d="M13.0038 43.966C13.4537 43.8902 13.9037 43.663 14.2787 43.4358Z" fill="#FFF6CC"/>
<path d="M13.0038 43.966C13.4537 43.8902 13.9037 43.663 14.2787 43.4358" stroke="#FF7B00" stroke-width="0.75" stroke-miterlimit="10"/>
<path d="M6.62939 39.9517C7.15434 40.0275 7.6043 40.0275 8.12925 39.876Z" fill="#FFF6CC"/>
<path d="M6.62939 39.9517C7.15434 40.0275 7.6043 40.0275 8.12925 39.876" stroke="#FF7B00" stroke-width="0.75" stroke-miterlimit="10"/>
<path d="M4.97949 36.6951C5.12948 36.7708 5.27946 36.7708 5.42945 36.6951Z" fill="#FFF6CC"/>
<path d="M4.97949 36.6951C5.12948 36.7708 5.27946 36.7708 5.42945 36.6951" stroke="#FF7B00" stroke-width="0.75" stroke-miterlimit="10"/>
<path d="M43.0759 25.4859C43.0759 25.4859 44.8008 28.1367 43.5259 34.7259C43.0759 37.301 41.876 39.7247 40.0762 41.6181C37.9014 43.966 34.6018 45.8595 30.2522 43.3601C28.0774 42.0725 26.5775 39.8004 26.3526 37.2253C26.1276 34.9532 26.8025 32.681 28.1524 30.939C30.9271 27.3036 34.8267 24.7285 39.2513 23.5924C40.0762 23.3652 41.0511 23.5167 41.8011 23.9711C42.401 24.2741 42.851 24.8042 43.0759 25.4859Z" fill="#FFF6CC" stroke="#FF7B00" stroke-width="0.75" stroke-miterlimit="10"/>
<path d="M43.0012 26.8491C42.7012 26.9249 42.3262 26.9249 42.0262 26.8491Z" fill="#FFF6CC"/>
<path d="M43.0012 26.8491C42.7012 26.9249 42.3262 26.9249 42.0262 26.8491" stroke="#FF7B00" stroke-width="0.75" stroke-miterlimit="10"/>
<path d="M43.3761 28.7427C43.0011 28.8185 42.6261 28.8185 42.3262 28.667Z" fill="#FFF6CC"/>
<path d="M43.3761 28.7427C43.0011 28.8185 42.6261 28.8185 42.3262 28.667" stroke="#FF7B00" stroke-width="0.75" stroke-miterlimit="10"/>
<path d="M43.3011 27.6064C43.2261 27.6822 43.0761 27.6822 43.0011 27.6822Z" fill="#FFF6CC"/>
<path d="M43.3011 27.6064C43.2261 27.6822 43.0761 27.6822 43.0011 27.6822" stroke="#FF7B00" stroke-width="0.75" stroke-miterlimit="10"/>
<path d="M43.601 30.4846C43.376 30.5604 43.151 30.5604 42.926 30.4846Z" fill="#FFF6CC"/>
<path d="M43.601 30.4846C43.376 30.5604 43.151 30.5604 42.926 30.4846" stroke="#FF7B00" stroke-width="0.75" stroke-miterlimit="10"/>
<path d="M43.4511 29.7271C43.2261 29.8028 42.9261 29.7271 42.7012 29.6514Z" fill="#FFF6CC"/>
<path d="M43.4511 29.7271C43.2261 29.8028 42.9261 29.7271 42.7012 29.6514" stroke="#FF7B00" stroke-width="0.75" stroke-miterlimit="10"/>
<path d="M42.4762 34.8775C42.2513 34.9532 41.9513 34.8775 41.7263 34.8018Z" fill="#FFF6CC"/>
<path d="M42.4762 34.8775C42.2513 34.9532 41.9513 34.8775 41.7263 34.8018" stroke="#FF7B00" stroke-width="0.75" stroke-miterlimit="10"/>
<path d="M42.4011 35.7862C42.1761 35.8619 41.8761 35.7862 41.6511 35.7104Z" fill="#FFF6CC"/>
<path d="M42.4011 35.7862C42.1761 35.8619 41.8761 35.7862 41.6511 35.7104" stroke="#FF7B00" stroke-width="0.75" stroke-miterlimit="10"/>
<path d="M42.176 37.4524C41.6511 37.6039 41.1261 37.6039 40.6012 37.4524Z" fill="#FFF6CC"/>
<path d="M42.176 37.4524C41.6511 37.6039 41.1261 37.6039 40.6012 37.4524" stroke="#FF7B00" stroke-width="0.75" stroke-miterlimit="10"/>
<path d="M41.5762 38.1343C41.0512 38.2858 40.5263 38.2858 40.0013 38.1343Z" fill="#FFF6CC"/>
<path d="M41.5762 38.1343C41.0512 38.2858 40.5263 38.2858 40.0013 38.1343" stroke="#FF7B00" stroke-width="0.75" stroke-miterlimit="10"/>
<path d="M39.4014 41.391C38.8014 41.5425 38.2015 41.4667 37.6016 41.2395Z" fill="#FFF6CC"/>
<path d="M39.4014 41.391C38.8014 41.5425 38.2015 41.4667 37.6016 41.2395" stroke="#FF7B00" stroke-width="0.75" stroke-miterlimit="10"/>
<path d="M36.7016 43.0572C36.4016 43.1329 36.0267 43.0572 35.7267 42.9814Z" fill="#FFF6CC"/>
<path d="M36.7016 43.0572C36.4016 43.1329 36.0267 43.0572 35.7267 42.9814" stroke="#FF7B00" stroke-width="0.75" stroke-miterlimit="10"/>
<path d="M39.7014 40.7091C38.8765 40.8606 38.0516 40.7849 37.3016 40.4819Z" fill="#FFF6CC"/>
<path d="M39.7014 40.7091C38.8765 40.8606 38.0516 40.7849 37.3016 40.4819" stroke="#FF7B00" stroke-width="0.75" stroke-miterlimit="10"/>
<path d="M38.5766 41.9968C37.4517 41.9968 36.2518 41.7696 35.2019 41.3152Z" fill="#FFF6CC"/>
<path d="M38.5766 41.9968C37.4517 41.9968 36.2518 41.7696 35.2019 41.3152" stroke="#FF7B00" stroke-width="0.75" stroke-miterlimit="10"/>
<path d="M37.6765 42.527C36.7016 42.6027 35.6517 42.4513 34.7518 41.9968Z" fill="#FFF6CC"/>
<path d="M37.6765 42.527C36.7016 42.6027 35.6517 42.4513 34.7518 41.9968" stroke="#FF7B00" stroke-width="0.75" stroke-miterlimit="10"/>
<path d="M35.2769 43.6631C34.227 43.4359 33.2521 43.133 32.2772 42.6028Z" fill="#FFF6CC"/>
<path d="M35.2769 43.6631C34.227 43.4359 33.2521 43.133 32.2772 42.6028" stroke="#FF7B00" stroke-width="0.75" stroke-miterlimit="10"/>
<path d="M28.2276 38.74C27.7026 38.0583 27.2527 37.2252 27.0277 36.3921Z" fill="#FFF6CC"/>
<path d="M28.2276 38.74C27.7026 38.0583 27.2527 37.2252 27.0277 36.3921" stroke="#FF7B00" stroke-width="0.75" stroke-miterlimit="10"/>
<path d="M28.0774 39.6488C27.6275 39.1187 27.2525 38.437 27.1025 37.7554Z" fill="#FFF6CC"/>
<path d="M28.0774 39.6488C27.6275 39.1187 27.2525 38.437 27.1025 37.7554" stroke="#FF7B00" stroke-width="0.75" stroke-miterlimit="10"/>
<path d="M28.1525 37.3769C28.0775 37.3011 28.0025 37.2254 27.9275 37.1497Z" fill="#FFF6CC"/>
<path d="M28.1525 37.3769C28.0775 37.3011 28.0025 37.2254 27.9275 37.1497" stroke="#FF7B00" stroke-width="0.75" stroke-miterlimit="10"/>
<path d="M27.4026 35.559C27.3276 35.4833 27.2526 35.4075 27.1776 35.3318Z" fill="#FFF6CC"/>
<path d="M27.4026 35.559C27.3276 35.4833 27.2526 35.4075 27.1776 35.3318" stroke="#FF7B00" stroke-width="0.75" stroke-miterlimit="10"/>
<path d="M34.0019 43.966C33.552 43.8902 33.102 43.663 32.7271 43.4358Z" fill="#FFF6CC"/>
<path d="M34.0019 43.966C33.552 43.8902 33.102 43.663 32.7271 43.4358" stroke="#FF7B00" stroke-width="0.75" stroke-miterlimit="10"/>
<path d="M40.3763 39.952C39.8514 40.0277 39.4014 40.0277 38.8765 39.8762Z" fill="#FFF6CC"/>
<path d="M40.3763 39.952C39.8514 40.0277 39.4014 40.0277 38.8765 39.8762" stroke="#FF7B00" stroke-width="0.75" stroke-miterlimit="10"/>
<path d="M42.0262 36.6951C41.8763 36.7708 41.7263 36.7708 41.5763 36.6951Z" fill="#FFF6CC"/>
<path d="M42.0262 36.6951C41.8763 36.7708 41.7263 36.7708 41.5763 36.6951" stroke="#FF7B00" stroke-width="0.75" stroke-miterlimit="10"/>
<path d="M15.6734 20.1461C15.6734 20.1461 14.3985 21.2822 14.3985 22.1153C14.3985 22.1153 15.2235 20.9792 15.9734 20.752C15.9734 20.752 15.6734 21.3579 15.7484 21.8124C15.7484 21.8124 16.6483 21.2822 16.6483 21.1307C16.6483 20.9792 16.6483 21.2822 16.6483 21.2822C16.6483 21.2822 16.7233 23.7058 17.6982 24.0845C17.6982 24.0845 17.2483 23.0242 17.6982 22.1153C17.6982 22.1153 17.7732 23.1756 18.4481 23.4786C18.4481 23.4786 18.2232 22.7212 18.4481 21.7366C18.4481 21.7366 18.7481 23.3271 19.573 23.7815C19.573 23.7815 19.0481 22.7212 19.4231 22.1153C19.4231 22.1153 19.798 23.7058 22.4977 24.8419C22.4977 24.8419 21.5228 23.1756 21.5978 22.494C21.5978 22.494 22.2728 23.7058 22.7227 23.933C22.7227 23.933 23.1727 22.9484 23.3977 22.7969C23.3977 22.7969 23.3227 23.7058 23.1727 24.0088C23.1727 24.0088 24.1476 23.4029 24.5975 22.494C24.5975 22.494 24.5226 24.0845 24.1476 24.5389C24.1476 24.5389 25.6474 23.1756 25.7224 22.494C25.7224 22.494 25.7224 23.4786 25.3475 23.933C25.3475 23.933 26.6223 23.0999 26.8473 22.494C26.8473 22.494 26.9223 24.236 26.2474 24.4632C26.2474 24.4632 29.1721 22.6455 29.2471 21.5094C29.2471 21.5094 29.1721 22.8727 28.7971 22.9484C28.7971 22.9484 29.6221 22.4183 29.697 21.5851C29.697 21.5851 30.447 22.191 30.222 23.0242C30.222 23.0242 30.7469 22.191 30.7469 21.5851C30.7469 21.5851 32.0218 22.7212 31.7968 23.7815C31.7968 23.7815 32.7717 22.494 32.3218 20.0704C32.3218 20.0704 32.9967 20.5248 33.0717 21.2064C33.0717 21.2064 33.3717 20.6005 33.0717 19.6159C33.0717 19.6159 33.9716 19.7674 34.4966 20.5248C34.4966 20.5248 33.8966 19.3887 32.8467 18.7071C32.8467 18.7071 33.5967 18.4799 33.8216 18.7071C33.8216 18.7071 33.2217 18.1012 32.5468 17.9497C32.5468 17.9497 34.1216 17.6468 34.6466 17.9497C34.6466 17.9497 33.5217 16.5107 31.4969 16.2835C31.4969 16.2835 31.7968 15.7533 32.2468 15.829C32.2468 15.829 31.1969 15.6018 30.8969 15.6018C30.8969 15.6018 32.4718 14.8444 32.7717 14.9959C32.7717 14.9959 32.4718 14.4657 29.772 14.5415C29.772 14.5415 30.297 14.0113 31.1219 13.9356C31.1219 13.9356 30.072 13.6326 28.1222 14.1628C28.1222 14.1628 29.0221 13.3297 29.3971 13.4054C29.3971 13.4054 28.4972 13.3297 27.2223 14.1628C27.2223 14.1628 27.5223 13.4812 27.9722 13.4054C27.9722 13.4054 26.9973 13.4054 26.4724 13.9356C26.4724 13.9356 26.3974 13.4812 26.9973 13.1782C26.9973 13.1782 25.7224 13.1025 25.1975 13.6326C25.1975 13.6326 25.1975 13.1782 25.6474 12.8752C25.6474 12.8752 24.7475 12.8752 24.2976 13.4054C24.2976 13.4054 24.0726 13.4812 23.7726 13.1782C23.7726 13.1782 23.4727 13.4812 23.6976 13.9356C23.6976 13.9356 22.6477 14.1628 23.1727 12.8752C23.1727 12.8752 22.2728 13.1782 21.8228 13.7084C21.8228 13.7084 21.8978 13.4812 20.398 13.1782C20.398 13.1782 21.2979 13.7084 21.2979 14.0871C21.2979 14.0871 20.8479 13.5569 19.0481 13.2539C19.0481 13.2539 19.648 13.4812 19.498 14.1628C19.498 14.1628 19.573 13.5569 18.6731 13.4054C18.6731 13.4054 18.8981 14.0113 18.3732 14.0113C18.3732 14.0113 18.2982 13.2539 17.6232 13.1782C17.6232 13.1782 18.0732 13.7084 17.8482 13.7841C17.8482 13.7841 17.0983 13.4812 16.4233 13.7084C16.4233 13.7084 17.2483 13.9356 17.3233 14.5415C17.3233 14.5415 16.4983 13.6326 14.5485 14.6172C14.5485 14.6172 16.6483 14.5415 16.7983 15.0717C16.7983 15.0717 15.4484 14.6172 14.1736 15.0717C14.1736 15.0717 15.5984 15.1474 15.8234 15.5261C15.8234 15.5261 13.8736 15.2231 12.0738 16.2835C12.0738 16.2835 13.9486 16.0562 14.1736 16.5864C14.1736 16.5864 12.2238 16.8136 11.9988 17.4953C11.9988 17.4953 13.0487 17.0408 14.2486 17.0408C14.2486 17.0408 12.8237 17.4953 12.2987 20.2976C12.2987 20.2976 13.4236 18.7071 14.7735 18.4041C14.7735 18.4041 13.3486 19.4645 13.3486 19.9946C13.3486 19.9946 14.1736 19.3887 14.6235 19.4645C14.6235 19.4645 14.0236 19.9946 13.8736 20.6005C13.7986 20.9035 15.2985 19.9189 15.6734 20.1461Z" fill="#FFF6CC" stroke="#FF7B00" stroke-width="0.75" stroke-miterlimit="10"/>
<path d="M19.6481 18.9343C19.6481 18.9343 18.0732 19.1615 17.6982 19.8432Z" fill="#FFF6CC"/>
<path d="M19.6481 18.9343C19.6481 18.9343 18.0732 19.1615 17.6982 19.8432" stroke="#FF7B00" stroke-width="0.75" stroke-miterlimit="10"/>
<path d="M20.173 18.9343C20.173 18.9343 18.5232 19.5402 18.3732 20.3734Z" fill="#FFF6CC"/>
<path d="M20.173 18.9343C20.173 18.9343 18.5232 19.5402 18.3732 20.3734" stroke="#FF7B00" stroke-width="0.75" stroke-miterlimit="10"/>
<path d="M21.0728 19.3888C21.0728 19.3888 19.6479 19.313 19.2729 20.1461Z" fill="#FFF6CC"/>
<path d="M21.0728 19.3888C21.0728 19.3888 19.6479 19.313 19.2729 20.1461" stroke="#FF7B00" stroke-width="0.75" stroke-miterlimit="10"/>
<path d="M23.3226 19.3887C23.3226 19.3887 22.4976 20.5247 22.7976 21.7366Z" fill="#FFF6CC"/>
<path d="M23.3226 19.3887C23.3226 19.3887 22.4976 20.5247 22.7976 21.7366" stroke="#FF7B00" stroke-width="0.75" stroke-miterlimit="10"/>
<path d="M23.6227 18.9343C23.6227 18.9343 24.3726 20.5248 23.9976 21.4337Z" fill="#FFF6CC"/>
<path d="M23.6227 18.9343C23.6227 18.9343 24.3726 20.5248 23.9976 21.4337" stroke="#FF7B00" stroke-width="0.75" stroke-miterlimit="10"/>
<path d="M25.7224 19.8433C25.7224 19.8433 26.0974 20.2977 26.0974 20.5249Z" fill="#FFF6CC"/>
<path d="M25.7224 19.8433C25.7224 19.8433 26.0974 20.2977 26.0974 20.5249" stroke="#FF7B00" stroke-width="0.75" stroke-miterlimit="10"/>
<path d="M25.7224 19.2373C25.9474 19.2373 28.0472 20.8278 28.0472 21.1308Z" fill="#FFF6CC"/>
<path d="M25.7224 19.2373C25.9474 19.2373 28.0472 20.8278 28.0472 21.1308" stroke="#FF7B00" stroke-width="0.75" stroke-miterlimit="10"/>
<path d="M26.0225 19.2373C26.0225 19.2373 26.6224 20.0704 26.6224 20.3734Z" fill="#FFF6CC"/>
<path d="M26.0225 19.2373C26.0225 19.2373 26.6224 20.0704 26.6224 20.3734" stroke="#FF7B00" stroke-width="0.75" stroke-miterlimit="10"/>
<path d="M26.6223 19.2373C26.6223 19.2373 27.2223 19.6917 27.3722 19.9189Z" fill="#FFF6CC"/>
<path d="M26.6223 19.2373C26.6223 19.2373 27.2223 19.6917 27.3722 19.9189" stroke="#FF7B00" stroke-width="0.75" stroke-miterlimit="10"/>
<path d="M26.9222 18.9343C26.9222 18.9343 27.7472 19.2373 27.8971 19.5402Z" fill="#FFF6CC"/>
<path d="M26.9222 18.9343C26.9222 18.9343 27.7472 19.2373 27.8971 19.5402" stroke="#FF7B00" stroke-width="0.75" stroke-miterlimit="10"/>
<path d="M29.4722 19.6917C29.4722 19.6917 30.1471 20.1461 30.1471 20.6005Z" fill="#FFF6CC"/>
<path d="M29.4722 19.6917C29.4722 19.6917 30.1471 20.1461 30.1471 20.6005" stroke="#FF7B00" stroke-width="0.75" stroke-miterlimit="10"/>
<path d="M29.4722 19.2373C29.4722 19.2373 30.4471 19.5403 30.5221 19.9189Z" fill="#FFF6CC"/>
<path d="M29.4722 19.2373C29.4722 19.2373 30.4471 19.5403 30.5221 19.9189" stroke="#FF7B00" stroke-width="0.75" stroke-miterlimit="10"/>
<path d="M20.4731 17.7225C20.4731 17.7982 20.3981 17.8739 20.3231 17.9497C20.2481 18.1011 20.0981 18.1769 19.9481 18.1769C19.7981 18.2526 19.6482 18.2526 19.4982 18.2526H19.3482C19.0482 18.2526 18.7482 18.2526 18.4483 18.1769C18.2983 18.1769 18.2233 18.1011 18.0733 18.1011L17.7733 18.0254C17.5484 17.9497 17.3234 17.7982 17.0984 17.7225L17.0234 17.6467C16.7234 17.4952 16.4985 17.268 16.2735 17.0408C16.1235 16.8893 16.0485 16.6621 15.8985 16.5106C15.8235 16.2834 15.7485 16.0562 15.7485 15.9047C15.7485 15.4503 15.8985 15.0716 16.1235 14.6929C16.4985 14.1628 17.0984 13.9355 17.6983 13.9355V13.9355C18.2233 13.9355 18.7482 14.1628 19.0482 14.5415C19.8731 15.2988 20.3231 16.3592 20.4731 17.4195C20.5481 17.571 20.5481 17.6467 20.4731 17.7225Z" fill="#FFF6CC" stroke="#FF7B00" stroke-width="0.75" stroke-miterlimit="10"/>
<path d="M17.7736 17.8739C17.7736 17.7982 17.7736 17.7224 17.8486 17.7224Z" fill="#FFF6CC"/>
<path d="M17.7736 17.8739C17.7736 17.7982 17.7736 17.7224 17.8486 17.7224" stroke="#FF7B00" stroke-width="0.75" stroke-linecap="round" stroke-linejoin="round"/>
<path d="M17.5485 17.7982C17.5485 17.7225 17.5485 17.6467 17.6235 17.6467Z" fill="#FFF6CC"/>
<path d="M17.5485 17.7982C17.5485 17.7225 17.5485 17.6467 17.6235 17.6467" stroke="#FF7B00" stroke-width="0.75" stroke-linecap="round" stroke-linejoin="round"/>
<path d="M17.1735 17.7224C17.1735 17.571 17.1735 17.4952 17.2485 17.3438Z" fill="#FFF6CC"/>
<path d="M17.1735 17.7224C17.1735 17.571 17.1735 17.4952 17.2485 17.3438" stroke="#FF7B00" stroke-width="0.75" stroke-linecap="round" stroke-linejoin="round"/>
<path d="M17.0234 17.5708C17.0234 17.4194 17.0234 17.3436 17.0984 17.1921Z" fill="#FFF6CC"/>
<path d="M17.0234 17.5708C17.0234 17.4194 17.0234 17.3436 17.0984 17.1921" stroke="#FF7B00" stroke-width="0.75" stroke-linecap="round" stroke-linejoin="round"/>
<path d="M16.2737 16.8892C16.2737 16.7378 16.2737 16.5863 16.3487 16.4348Z" fill="#FFF6CC"/>
<path d="M16.2737 16.8892C16.2737 16.7378 16.2737 16.5863 16.3487 16.4348" stroke="#FF7B00" stroke-width="0.75" stroke-linecap="round" stroke-linejoin="round"/>
<path d="M16.4236 17.0407C16.4236 16.8135 16.4236 16.662 16.5736 16.4348Z" fill="#FFF6CC"/>
<path d="M16.4236 17.0407C16.4236 16.8135 16.4236 16.662 16.5736 16.4348" stroke="#FF7B00" stroke-width="0.75" stroke-linecap="round" stroke-linejoin="round"/>
<path d="M16.1986 16.6622C16.1986 16.3592 16.3486 16.132 16.4986 15.9048Z" fill="#FFF6CC"/>
<path d="M16.1986 16.6622C16.1986 16.3592 16.3486 16.132 16.4986 15.9048" stroke="#FF7B00" stroke-width="0.75" stroke-linecap="round" stroke-linejoin="round"/>
<path d="M16.0486 16.5105C16.0486 16.2833 16.1236 16.0561 16.2736 15.8289Z" fill="#FFF6CC"/>
<path d="M16.0486 16.5105C16.0486 16.2833 16.1236 16.0561 16.2736 15.8289" stroke="#FF7B00" stroke-width="0.75" stroke-linecap="round" stroke-linejoin="round"/>
<path d="M15.8986 15.8291C15.9736 15.6019 16.1235 15.3747 16.2735 15.1475Z" fill="#FFF6CC"/>
<path d="M15.8986 15.8291C15.9736 15.6019 16.1235 15.3747 16.2735 15.1475" stroke="#FF7B00" stroke-width="0.75" stroke-linecap="round" stroke-linejoin="round"/>
<path d="M17.2485 14.3141C17.3985 14.1627 17.6235 14.0869 17.8485 14.0869Z" fill="#FFF6CC"/>
<path d="M17.2485 14.3141C17.3985 14.1627 17.6235 14.0869 17.8485 14.0869" stroke="#FF7B00" stroke-width="0.75" stroke-linecap="round" stroke-linejoin="round"/>
<path d="M17.0234 14.2384C17.1734 14.1627 17.3234 14.0869 17.4734 14.0869Z" fill="#FFF6CC"/>
<path d="M17.0234 14.2384C17.1734 14.1627 17.3234 14.0869 17.4734 14.0869" stroke="#FF7B00" stroke-width="0.75" stroke-linecap="round" stroke-linejoin="round"/>
<path d="M17.5485 14.3142C17.6235 14.3142 17.6235 14.3142 17.5485 14.3142Z" fill="#FFF6CC"/>
<path d="M17.5485 14.3142C17.6235 14.3142 17.6235 14.3142 17.5485 14.3142" stroke="#FF7B00" stroke-width="0.75" stroke-linecap="round" stroke-linejoin="round"/>
<path d="M15.8237 15.5261C15.8237 15.4504 15.8987 15.2989 15.9737 15.2231Z" fill="#FFF6CC"/>
<path d="M15.8237 15.5261C15.8237 15.4504 15.8987 15.2989 15.9737 15.2231" stroke="#FF7B00" stroke-width="0.75" stroke-linecap="round" stroke-linejoin="round"/>
<path d="M16.5736 17.1924C16.5736 17.0409 16.5736 16.9652 16.6486 16.8137Z" fill="#FFF6CC"/>
<path d="M16.5736 17.1924C16.5736 17.0409 16.5736 16.9652 16.6486 16.8137" stroke="#FF7B00" stroke-width="0.75" stroke-linecap="round" stroke-linejoin="round"/>
<path d="M17.3235 17.7225V17.6467Z" fill="#FFF6CC"/>
<path d="M17.3235 17.7225V17.6467" stroke="#FF7B00" stroke-width="0.75" stroke-linecap="round" stroke-linejoin="round"/>
<path d="M31.572 16.3593C31.497 16.5108 31.497 16.5865 31.422 16.6622V16.738C31.1971 16.9652 30.9721 17.1167 30.7471 17.2681C30.7471 17.2681 30.7471 17.3439 30.8221 17.3439C30.6721 17.4196 30.5221 17.4953 30.3721 17.5711C30.2222 17.6468 30.1472 17.6468 29.9972 17.7226C29.4722 17.874 28.9473 17.9498 28.4223 17.874H28.3473C28.1974 17.874 28.0474 17.7226 27.9724 17.6468C27.8974 17.5711 27.8224 17.4196 27.8224 17.2681C27.8224 16.6622 28.0474 16.0563 28.4223 15.6019C28.5723 15.3747 28.7973 15.1475 29.0223 14.996C29.1723 14.8445 29.3222 14.7688 29.5472 14.6173H29.6222C29.8472 14.5416 30.0722 14.4658 30.2222 14.4658C30.3721 14.4658 30.5221 14.4658 30.6721 14.5416C30.8971 14.6173 31.0471 14.693 31.1971 14.8445C31.1971 14.8445 31.1971 14.8445 31.272 14.9202L31.422 15.0717C31.497 15.1475 31.497 15.1475 31.497 15.2232C31.722 15.5262 31.722 15.9806 31.572 16.3593Z" fill="#FFF6CC" stroke="#FF7B00" stroke-width="0.75" stroke-miterlimit="10" stroke-linecap="round" stroke-linejoin="round"/>
<path d="M28.0474 16.5864C28.1224 16.5864 28.1973 16.6622 28.1973 16.6622Z" fill="#FFF6CC"/>
<path d="M28.0474 16.5864C28.1224 16.5864 28.1973 16.6622 28.1973 16.6622" stroke="#FF7B00" stroke-width="0.75" stroke-miterlimit="10" stroke-linecap="round" stroke-linejoin="round"/>
<path d="M28.1223 16.2834C28.1973 16.2834 28.1973 16.2834 28.2723 16.3592Z" fill="#FFF6CC"/>
<path d="M28.1223 16.2834C28.1973 16.2834 28.1973 16.2834 28.2723 16.3592" stroke="#FF7B00" stroke-width="0.75" stroke-miterlimit="10" stroke-linecap="round" stroke-linejoin="round"/>
<path d="M28.0474 16.4351C28.1224 16.4351 28.1224 16.5108 28.1973 16.5108Z" fill="#FFF6CC"/>
<path d="M28.0474 16.4351C28.1224 16.4351 28.1224 16.5108 28.1973 16.5108" stroke="#FF7B00" stroke-width="0.75" stroke-miterlimit="10" stroke-linecap="round" stroke-linejoin="round"/>
<path d="M28.6473 15.6018C28.7223 15.6018 28.7223 15.6775 28.7973 15.6775Z" fill="#FFF6CC"/>
<path d="M28.6473 15.6018C28.7223 15.6018 28.7223 15.6775 28.7973 15.6775" stroke="#FF7B00" stroke-width="0.75" stroke-miterlimit="10" stroke-linecap="round" stroke-linejoin="round"/>
<path d="M28.7222 15.4504C28.7972 15.4504 28.7972 15.4504 28.8722 15.5262Z" fill="#FFF6CC"/>
<path d="M28.7222 15.4504C28.7972 15.4504 28.7972 15.4504 28.8722 15.5262" stroke="#FF7B00" stroke-width="0.75" stroke-miterlimit="10" stroke-linecap="round" stroke-linejoin="round"/>
<path d="M28.8723 15.1475C28.9473 15.1475 29.0973 15.2232 29.1723 15.2232Z" fill="#FFF6CC"/>
<path d="M28.8723 15.1475C28.9473 15.1475 29.0973 15.2232 29.1723 15.2232" stroke="#FF7B00" stroke-width="0.75" stroke-miterlimit="10" stroke-linecap="round" stroke-linejoin="round"/>
<path d="M29.0223 15.0718C29.0973 15.0718 29.2473 15.1475 29.3223 15.1475Z" fill="#FFF6CC"/>
<path d="M29.0223 15.0718C29.0973 15.0718 29.2473 15.1475 29.3223 15.1475" stroke="#FF7B00" stroke-width="0.75" stroke-miterlimit="10" stroke-linecap="round" stroke-linejoin="round"/>
<path d="M29.6222 14.6929C29.7722 14.6929 29.8472 14.7686 29.9222 14.8443Z" fill="#FFF6CC"/>
<path d="M29.6222 14.6929C29.7722 14.6929 29.8472 14.7686 29.9222 14.8443" stroke="#FF7B00" stroke-width="0.75" stroke-miterlimit="10" stroke-linecap="round" stroke-linejoin="round"/>
<path d="M29.9972 14.6172C30.1472 14.6929 30.3722 14.7687 30.4471 14.9201Z" fill="#FFF6CC"/>
<path d="M29.9972 14.6172C30.1472 14.6929 30.3722 14.7687 30.4471 14.9201" stroke="#FF7B00" stroke-width="0.75" stroke-miterlimit="10" stroke-linecap="round" stroke-linejoin="round"/>
<path d="M30.522 14.6172C30.672 14.6929 30.8219 14.8444 30.9719 14.9959Z" fill="#FFF6CC"/>
<path d="M30.522 14.6172C30.672 14.6929 30.8219 14.8444 30.9719 14.9959" stroke="#FF7B00" stroke-width="0.75" stroke-miterlimit="10" stroke-linecap="round" stroke-linejoin="round"/>
<path d="M31.4969 15.8291C31.5719 15.9806 31.5719 16.1321 31.5719 16.2078Z" fill="#FFF6CC"/>
<path d="M31.4969 15.8291C31.5719 15.9806 31.5719 16.1321 31.5719 16.2078" stroke="#FF7B00" stroke-width="0.75" stroke-miterlimit="10" stroke-linecap="round" stroke-linejoin="round"/>
<path d="M29.3223 14.8445C29.3973 14.8445 29.4722 14.9202 29.5472 14.996Z" fill="#FFF6CC"/>
<path d="M29.3223 14.8445C29.3973 14.8445 29.4722 14.9202 29.5472 14.996" stroke="#FF7B00" stroke-width="0.75" stroke-miterlimit="10" stroke-linecap="round" stroke-linejoin="round"/>
<path d="M28.7972 15.2988H28.8722Z" fill="#FFF6CC"/>
<path d="M28.7972 15.2988H28.8722" stroke="#FF7B00" stroke-width="0.75" stroke-miterlimit="10" stroke-linecap="round" stroke-linejoin="round"/>
<path d="M26.6974 14.1629C26.6974 14.1629 26.3224 15.0718 24.5226 15.8291C23.7727 16.1321 23.0227 16.2836 22.2728 16.1321C21.1479 16.0564 20.248 15.1475 20.173 13.9357C20.098 13.1783 20.473 12.4209 20.9979 11.9665C21.5229 11.5121 22.1978 11.3606 22.8727 11.3606C24.2226 11.4363 25.4975 11.9665 26.5474 12.8754C26.7724 13.0268 26.8474 13.3298 26.9223 13.557C26.8474 13.7842 26.7724 14.0114 26.6974 14.1629Z" fill="#FFF6CC" stroke="#FF7B00" stroke-width="0.75" stroke-miterlimit="10" stroke-linecap="round" stroke-linejoin="round"/>
<path d="M26.3225 14.3901C26.2475 14.3143 26.1725 14.2386 26.1725 14.1628Z" fill="#FFF6CC"/>
<path d="M26.3225 14.3901C26.2475 14.3143 26.1725 14.2386 26.1725 14.1628" stroke="#FF7B00" stroke-width="0.75" stroke-miterlimit="10" stroke-linecap="round" stroke-linejoin="round"/>
<path d="M25.9475 14.8445C25.8725 14.7687 25.7975 14.693 25.7975 14.5415Z" fill="#FFF6CC"/>
<path d="M25.9475 14.8445C25.8725 14.7687 25.7975 14.693 25.7975 14.5415" stroke="#FF7B00" stroke-width="0.75" stroke-miterlimit="10" stroke-linecap="round" stroke-linejoin="round"/>
<path d="M26.1732 14.6172C26.1732 14.6172 26.0966 14.5414 26.1732 14.6172Z" fill="#FFF6CC"/>
<path d="M26.1732 14.6172C26.1732 14.6172 26.0966 14.5414 26.1732 14.6172" stroke="#FF7B00" stroke-width="0.75" stroke-miterlimit="10" stroke-linecap="round" stroke-linejoin="round"/>
<path d="M25.5725 15.1476C25.4975 15.0718 25.4975 15.0718 25.4225 14.9961Z" fill="#FFF6CC"/>
<path d="M25.5725 15.1476C25.4975 15.0718 25.4975 15.0718 25.4225 14.9961" stroke="#FF7B00" stroke-width="0.75" stroke-miterlimit="10" stroke-linecap="round" stroke-linejoin="round"/>
<path d="M25.7224 14.996C25.6474 14.9203 25.6474 14.8445 25.5724 14.7688Z" fill="#FFF6CC"/>
<path d="M25.7224 14.996C25.6474 14.9203 25.6474 14.8445 25.5724 14.7688" stroke="#FF7B00" stroke-width="0.75" stroke-miterlimit="10" stroke-linecap="round" stroke-linejoin="round"/>
<path d="M24.2976 15.6017C24.2226 15.526 24.2226 15.4502 24.1476 15.3745Z" fill="#FFF6CC"/>
<path d="M24.2976 15.6017C24.2226 15.526 24.2226 15.4502 24.1476 15.3745" stroke="#FF7B00" stroke-width="0.75" stroke-miterlimit="10" stroke-linecap="round" stroke-linejoin="round"/>
<path d="M23.9976 15.7533C23.9226 15.6776 23.9226 15.6019 23.8477 15.5261Z" fill="#FFF6CC"/>
<path d="M23.9976 15.7533C23.9226 15.6776 23.9226 15.6019 23.8477 15.5261" stroke="#FF7B00" stroke-width="0.75" stroke-miterlimit="10" stroke-linecap="round" stroke-linejoin="round"/>
<path d="M23.6226 15.9805C23.4726 15.9048 23.3976 15.7533 23.3226 15.6018Z" fill="#FFF6CC"/>
<path d="M23.6226 15.9805C23.4726 15.9048 23.3976 15.7533 23.3226 15.6018" stroke="#FF7B00" stroke-width="0.75" stroke-miterlimit="10" stroke-linecap="round" stroke-linejoin="round"/>
<path d="M23.3227 15.9048C23.1727 15.8291 23.0977 15.6776 23.0227 15.5261Z" fill="#FFF6CC"/>
<path d="M23.3227 15.9048C23.1727 15.8291 23.0977 15.6776 23.0227 15.5261" stroke="#FF7B00" stroke-width="0.75" stroke-miterlimit="10" stroke-linecap="round" stroke-linejoin="round"/>
<path d="M22.1978 15.9049C22.0478 15.7534 21.9728 15.6019 21.8978 15.4504Z" fill="#FFF6CC"/>
<path d="M22.1978 15.9049C22.0478 15.7534 21.9728 15.6019 21.8978 15.4504" stroke="#FF7B00" stroke-width="0.75" stroke-miterlimit="10" stroke-linecap="round" stroke-linejoin="round"/>
<path d="M21.2981 15.526C21.2231 15.4503 21.1481 15.3746 21.1481 15.2988Z" fill="#FFF6CC"/>
<path d="M21.2981 15.526C21.2231 15.4503 21.1481 15.3746 21.1481 15.2988" stroke="#FF7B00" stroke-width="0.75" stroke-miterlimit="10" stroke-linecap="round" stroke-linejoin="round"/>
<path d="M22.3479 15.9047C22.1979 15.7533 22.0479 15.526 21.9729 15.2988Z" fill="#FFF6CC"/>
<path d="M22.3479 15.9047C22.1979 15.7533 22.0479 15.526 21.9729 15.2988" stroke="#FF7B00" stroke-width="0.75" stroke-miterlimit="10" stroke-linecap="round" stroke-linejoin="round"/>
<path d="M21.8978 15.8291C21.6728 15.5261 21.5978 15.2232 21.5228 14.8445Z" fill="#FFF6CC"/>
<path d="M21.8978 15.8291C21.6728 15.5261 21.5978 15.2232 21.5228 14.8445" stroke="#FF7B00" stroke-width="0.75" stroke-miterlimit="10" stroke-linecap="round" stroke-linejoin="round"/>
<path d="M21.5979 15.6776C21.4479 15.4504 21.2979 15.1474 21.2229 14.8445Z" fill="#FFF6CC"/>
<path d="M21.5979 15.6776C21.4479 15.4504 21.2979 15.1474 21.2229 14.8445" stroke="#FF7B00" stroke-width="0.75" stroke-miterlimit="10" stroke-linecap="round" stroke-linejoin="round"/>
<path d="M20.9229 15.299C20.7729 14.996 20.6979 14.6931 20.6979 14.3901Z" fill="#FFF6CC"/>
<path d="M20.9229 15.299C20.7729 14.996 20.6979 14.6931 20.6979 14.3901" stroke="#FF7B00" stroke-width="0.75" stroke-miterlimit="10" stroke-linecap="round" stroke-linejoin="round"/>
<path d="M20.923 12.7239C20.998 12.4967 21.148 12.1937 21.2979 12.0422Z" fill="#FFF6CC"/>
<path d="M20.923 12.7239C20.998 12.4967 21.148 12.1937 21.2979 12.0422" stroke="#FF7B00" stroke-width="0.75" stroke-miterlimit="10" stroke-linecap="round" stroke-linejoin="round"/>
<path d="M20.6979 12.7995C20.7729 12.5723 20.8479 12.4208 20.9978 12.1936Z" fill="#FFF6CC"/>
<path d="M20.6979 12.7995C20.7729 12.5723 20.8479 12.4208 20.9978 12.1936" stroke="#FF7B00" stroke-width="0.75" stroke-miterlimit="10" stroke-linecap="round" stroke-linejoin="round"/>
<path d="M21.298 12.421V12.3452Z" fill="#FFF6CC"/>
<path d="M21.298 12.421V12.3452" stroke="#FF7B00" stroke-width="0.75" stroke-miterlimit="10" stroke-linecap="round" stroke-linejoin="round"/>
<path d="M21.5979 11.9664V11.8906Z" fill="#FFF6CC"/>
<path d="M21.5979 11.9664V11.8906" stroke="#FF7B00" stroke-width="0.75" stroke-miterlimit="10" stroke-linecap="round" stroke-linejoin="round"/>
<path d="M20.698 14.9959C20.623 14.8444 20.623 14.6929 20.623 14.6172Z" fill="#FFF6CC"/>
<path d="M20.698 14.9959C20.623 14.8444 20.623 14.6929 20.623 14.6172" stroke="#FF7B00" stroke-width="0.75" stroke-miterlimit="10" stroke-linecap="round" stroke-linejoin="round"/>
<path d="M22.7228 15.9048C22.6478 15.8291 22.5728 15.6776 22.4978 15.5261Z" fill="#FFF6CC"/>
<path d="M22.7228 15.9048C22.6478 15.8291 22.5728 15.6776 22.4978 15.5261" stroke="#FF7B00" stroke-width="0.75" stroke-miterlimit="10" stroke-linecap="round" stroke-linejoin="round"/>
<path d="M23.7727 15.8292C23.6978 15.7535 23.6978 15.7535 23.6978 15.6777Z" fill="#FFF6CC"/>
<path d="M23.7727 15.8292C23.6978 15.7535 23.6978 15.7535 23.6978 15.6777" stroke="#FF7B00" stroke-width="0.75" stroke-miterlimit="10" stroke-linecap="round" stroke-linejoin="round"/>
<g opacity="0.2">
<path opacity="0.2" d="M24.4476 16.2075L24.3726 16.0561C24.0726 15.5259 23.7727 15.0715 23.3227 14.6928C23.0227 14.4656 22.7228 14.1626 22.4228 14.0111C21.8978 13.6324 21.2979 13.3295 20.623 13.1023C20.548 13.1023 20.473 13.0265 20.398 13.0265C20.173 12.9508 20.023 12.8751 19.798 12.8751H19.723C19.4981 12.7993 19.1981 12.7993 18.8981 12.7993C18.5982 12.7993 18.3732 12.8751 18.1482 13.0265C17.9982 13.1023 17.8482 13.2537 17.7732 13.4052L17.6982 13.481C17.6233 13.6324 17.6233 13.7082 17.5483 13.8597C17.5483 14.0111 17.4733 14.0869 17.4733 14.2383C17.4733 14.3898 17.4733 14.3898 17.4733 14.4656C17.3983 15.8288 17.6233 17.1164 18.2232 18.3282V18.4039L18.2982 18.4797V18.4039H18.4482H18.5982H18.7481H18.8981C18.9731 18.4039 19.1231 18.4039 19.1981 18.4039C19.1981 18.4039 19.1981 18.4039 19.1981 18.4797H19.2731H19.3481C19.6481 18.5554 19.948 18.6312 20.248 18.7069L20.398 18.7826L20.7729 18.9341H20.9229C21.5979 18.8584 22.1978 18.7826 22.7977 18.7069C22.7977 18.7069 22.7977 18.7069 22.7977 18.7826L22.8727 18.7069H22.9477C23.2477 18.7069 23.5477 18.7069 23.7727 18.7069H23.8476C23.8476 18.7069 23.8476 18.7069 23.8476 18.7826L23.7727 18.8584L23.8476 18.9341V18.7069L23.9226 18.6312H24.5226C24.5976 18.4797 24.6726 18.3282 24.6726 18.101V18.0253C24.8975 17.4193 24.7476 16.8134 24.4476 16.2075Z" fill="#FFF6CC" stroke="#FF7B00" stroke-width="0.75" stroke-linecap="round" stroke-linejoin="round"/>
<g opacity="0.2">
<path d="M19.4981 12.9507C19.4981 13.1022 19.4231 13.1779 19.3481 13.2536Z" fill="#FFF6CC"/>
<path d="M19.4981 12.9507C19.4981 13.1022 19.4231 13.1779 19.3481 13.2536" stroke="#FF7B00" stroke-width="0.75" stroke-linecap="round" stroke-linejoin="round"/>
</g>
<g opacity="0.2">
<path d="M20.2479 13.1023C20.2479 13.2538 20.1729 13.4052 20.0229 13.481Z" fill="#FFF6CC"/>
<path d="M20.2479 13.1023C20.2479 13.2538 20.1729 13.4052 20.0229 13.481" stroke="#FF7B00" stroke-width="0.75" stroke-linecap="round" stroke-linejoin="round"/>
</g>
<g opacity="0.2">
<path d="M19.7981 12.9507C19.7981 13.0264 19.7981 13.0264 19.7981 13.1022Z" fill="#FFF6CC"/>
<path d="M19.7981 12.9507C19.7981 13.0264 19.7981 13.0264 19.7981 13.1022" stroke="#FF7B00" stroke-width="0.75" stroke-linecap="round" stroke-linejoin="round"/>
</g>
<g opacity="0.2">
<path d="M20.9229 13.2537C20.9229 13.3294 20.9229 13.4051 20.8479 13.4809Z" fill="#FFF6CC"/>
<path d="M20.9229 13.2537C20.9229 13.3294 20.9229 13.4051 20.8479 13.4809" stroke="#FF7B00" stroke-width="0.75" stroke-linecap="round" stroke-linejoin="round"/>
</g>
<g opacity="0.2">
<path d="M20.623 13.178C20.623 13.2537 20.548 13.4052 20.473 13.4052Z" fill="#FFF6CC"/>
<path d="M20.623 13.178C20.623 13.2537 20.548 13.4052 20.473 13.4052" stroke="#FF7B00" stroke-width="0.75" stroke-linecap="round" stroke-linejoin="round"/>
</g>
<g opacity="0.2">
<path d="M22.3479 14.314C22.3479 14.3897 22.2729 14.4654 22.1979 14.5412Z" fill="#FFF6CC"/>
<path d="M22.3479 14.314C22.3479 14.3897 22.2729 14.4654 22.1979 14.5412" stroke="#FF7B00" stroke-width="0.75" stroke-linecap="round" stroke-linejoin="round"/>
</g>
<g opacity="0.2">
<path d="M22.7229 14.4656C22.7229 14.5413 22.6479 14.6928 22.5729 14.7685Z" fill="#FFF6CC"/>
<path d="M22.7229 14.4656C22.7229 14.5413 22.6479 14.6928 22.5729 14.7685" stroke="#FF7B00" stroke-width="0.75" stroke-linecap="round" stroke-linejoin="round"/>
</g>
<g opacity="0.2">
<path d="M23.2477 14.8442C23.2477 15.0715 23.1727 15.2229 23.0227 15.3744Z" fill="#FFF6CC"/>
<path d="M23.2477 14.8442C23.2477 15.0715 23.1727 15.2229 23.0227 15.3744" stroke="#FF7B00" stroke-width="0.75" stroke-linecap="round" stroke-linejoin="round"/>
</g>
<g opacity="0.2">
<path d="M23.3977 15.1472C23.3977 15.3744 23.3227 15.5259 23.1727 15.6774Z" fill="#FFF6CC"/>
<path d="M23.3977 15.1472C23.3977 15.3744 23.3227 15.5259 23.1727 15.6774" stroke="#FF7B00" stroke-width="0.75" stroke-linecap="round" stroke-linejoin="round"/>
</g>
<g opacity="0.2">
<path d="M24.2977 16.4348C24.2227 16.662 24.1477 16.8892 23.9977 17.0407Z" fill="#FFF6CC"/>
<path d="M24.2977 16.4348C24.2227 16.662 24.1477 16.8892 23.9977 17.0407" stroke="#FF7B00" stroke-width="0.75" stroke-linecap="round" stroke-linejoin="round"/>
</g>
<g opacity="0.2">
<path d="M24.4476 17.5708C24.4476 17.7223 24.3726 17.798 24.2227 17.9495Z" fill="#FFF6CC"/>
<path d="M24.4476 17.5708C24.4476 17.7223 24.3726 17.798 24.2227 17.9495" stroke="#FF7B00" stroke-width="0.75" stroke-linecap="round" stroke-linejoin="round"/>
</g>
<g opacity="0.2">
<path d="M24.0726 16.2075C23.9976 16.5105 23.8477 16.8134 23.6227 17.0406Z" fill="#FFF6CC"/>
<path d="M24.0726 16.2075C23.9976 16.5105 23.8477 16.8134 23.6227 17.0406" stroke="#FF7B00" stroke-width="0.75" stroke-linecap="round" stroke-linejoin="round"/>
</g>
<g opacity="0.2">
<path d="M24.3727 16.7375C24.2227 17.1162 23.9227 17.4949 23.5477 17.7979Z" fill="#FFF6CC"/>
<path d="M24.3727 16.7375C24.2227 17.1162 23.9227 17.4949 23.5477 17.7979" stroke="#FF7B00" stroke-width="0.75" stroke-linecap="round" stroke-linejoin="round"/>
</g>
<g opacity="0.2">
<path d="M24.3725 17.1921C24.2225 17.5708 23.9976 17.8738 23.7726 18.1767Z" fill="#FFF6CC"/>
<path d="M24.3725 17.1921C24.2225 17.5708 23.9976 17.8738 23.7726 18.1767" stroke="#FF7B00" stroke-width="0.75" stroke-linecap="round" stroke-linejoin="round"/>
</g>
<path opacity="0.2" d="M24.4476 18.1768C24.4476 18.1768 24.3726 18.2525 24.2976 18.3282C24.2226 18.404 24.1476 18.5554 24.0726 18.6312L23.9976 18.7069L23.9226 18.7827L23.9976 18.7069L24.0726 18.6312L24.2976 18.404L24.4476 18.1768Z" fill="#FFF6CC" stroke="#FF7B00" stroke-width="0.75" stroke-linecap="round" stroke-linejoin="round"/>
<g opacity="0.2">
<path d="M23.9227 15.8289C23.8477 16.0561 23.7727 16.2075 23.6227 16.359Z" fill="#FFF6CC"/>
<path d="M23.9227 15.8289C23.8477 16.0561 23.7727 16.2075 23.6227 16.359" stroke="#FF7B00" stroke-width="0.75" stroke-linecap="round" stroke-linejoin="round"/>
</g>
<g opacity="0.2">
<path d="M22.9478 14.7686C22.9478 14.8443 22.9478 14.92 22.8728 14.92Z" fill="#FFF6CC"/>
<path d="M22.9478 14.7686C22.9478 14.8443 22.9478 14.92 22.8728 14.92" stroke="#FF7B00" stroke-width="0.75" stroke-linecap="round" stroke-linejoin="round"/>
</g>
</g>
<path d="M24.5226 16.0561C24.5226 15.9804 24.5226 15.9047 24.4476 15.8289C24.2227 15.2988 23.8477 14.7686 23.3977 14.3899C23.0978 14.0869 22.7978 13.8597 22.4978 13.6325C21.9729 13.2538 21.3729 12.9509 20.698 12.6479L20.473 12.5722C20.248 12.4964 20.0231 12.4207 19.8731 12.4207H19.7981C19.5731 12.345 19.2731 12.345 18.9732 12.345C18.6732 12.345 18.4482 12.4207 18.2232 12.5722C18.0733 12.6479 17.9233 12.7994 17.8483 13.0266V13.1024C17.7733 13.2538 17.7733 13.3296 17.6983 13.481C17.6983 13.6325 17.6233 13.7083 17.6233 13.8597V14.0869C17.4733 15.526 17.7733 16.8893 18.3732 18.1768V18.2526L18.4482 18.3283V18.2526H18.5982H18.7482H18.8982H19.0482C19.1232 18.2526 19.2731 18.2526 19.3481 18.2526C19.3481 18.2526 19.3481 18.2526 19.3481 18.3283H19.4231H19.4981C19.7981 18.404 20.0981 18.4798 20.398 18.6312L20.548 18.707C20.698 18.7827 20.773 18.7827 20.923 18.8585H21.073C21.6729 18.7827 22.3478 18.707 22.9478 18.6312V18.707C22.9478 18.707 22.9478 18.707 23.0228 18.6312H23.0978H23.9227H23.9977C23.9977 18.6312 23.9977 18.6312 23.9977 18.707L23.9227 18.7827L23.9977 18.8585C23.9977 18.7827 23.9977 18.7827 23.9977 18.707L24.0727 18.6312C24.0727 18.6312 24.0727 18.6312 24.1477 18.5555C24.3726 18.5555 24.5226 18.5555 24.7476 18.5555C24.8226 18.404 24.8976 18.1768 24.8976 18.0253V17.9496C24.9726 17.3437 24.8226 16.662 24.5226 16.0561Z" fill="#FFF6CC" stroke="#FF7B00" stroke-width="0.75" stroke-miterlimit="10"/>
<path d="M19.4981 12.572C19.4981 12.7235 19.4231 12.7992 19.3481 12.9507Z" fill="#FFF6CC"/>
<path d="M19.4981 12.572C19.4981 12.7235 19.4231 12.7992 19.3481 12.9507" stroke="#FF7B00" stroke-width="0.75" stroke-miterlimit="10" stroke-linecap="round" stroke-linejoin="round"/>
<path d="M20.3229 12.7234C20.3229 12.8749 20.2479 13.0263 20.0979 13.1021Z" fill="#FFF6CC"/>
<path d="M20.3229 12.7234C20.3229 12.8749 20.2479 13.0263 20.0979 13.1021" stroke="#FF7B00" stroke-width="0.75" stroke-miterlimit="10" stroke-linecap="round" stroke-linejoin="round"/>
<path d="M19.873 12.572C19.873 12.6478 19.873 12.6478 19.798 12.7235Z" fill="#FFF6CC"/>
<path d="M19.873 12.572C19.873 12.6478 19.873 12.6478 19.798 12.7235" stroke="#FF7B00" stroke-width="0.75" stroke-miterlimit="10" stroke-linecap="round" stroke-linejoin="round"/>
<path d="M20.9229 12.9507C20.9229 13.0264 20.9229 13.1022 20.8479 13.1779Z" fill="#FFF6CC"/>
<path d="M20.9229 12.9507C20.9229 13.0264 20.9229 13.1022 20.8479 13.1779" stroke="#FF7B00" stroke-width="0.75" stroke-miterlimit="10" stroke-linecap="round" stroke-linejoin="round"/>
<path d="M20.698 12.875C20.698 12.9507 20.623 13.1022 20.548 13.178Z" fill="#FFF6CC"/>
<path d="M20.698 12.875C20.698 12.9507 20.623 13.1022 20.548 13.178" stroke="#FF7B00" stroke-width="0.75" stroke-miterlimit="10" stroke-linecap="round" stroke-linejoin="round"/>
<path d="M22.4228 14.0867C22.4228 14.1624 22.3478 14.3139 22.2728 14.3896Z" fill="#FFF6CC"/>
<path d="M22.4228 14.0867C22.4228 14.1624 22.3478 14.3139 22.2728 14.3896" stroke="#FF7B00" stroke-width="0.75" stroke-miterlimit="10" stroke-linecap="round" stroke-linejoin="round"/>
<path d="M22.7227 14.2383C22.7227 14.314 22.6477 14.4655 22.5728 14.5412Z" fill="#FFF6CC"/>
<path d="M22.7227 14.2383C22.7227 14.314 22.6477 14.4655 22.5728 14.5412" stroke="#FF7B00" stroke-width="0.75" stroke-miterlimit="10" stroke-linecap="round" stroke-linejoin="round"/>
<path d="M23.3226 14.6169C23.3226 14.8442 23.2476 15.0714 23.0977 15.2228Z" fill="#FFF6CC"/>
<path d="M23.3226 14.6169C23.3226 14.8442 23.2476 15.0714 23.0977 15.2228" stroke="#FF7B00" stroke-width="0.75" stroke-miterlimit="10" stroke-linecap="round" stroke-linejoin="round"/>
<path d="M23.4727 14.9199C23.4727 15.1471 23.3977 15.3744 23.2477 15.5258Z" fill="#FFF6CC"/>
<path d="M23.4727 14.9199C23.4727 15.1471 23.3977 15.3744 23.2477 15.5258" stroke="#FF7B00" stroke-width="0.75" stroke-miterlimit="10" stroke-linecap="round" stroke-linejoin="round"/>
<path d="M24.2975 16.2832C24.2225 16.5104 24.1475 16.7376 23.9976 16.8891Z" fill="#FFF6CC"/>
<path d="M24.2975 16.2832C24.2225 16.5104 24.1475 16.7376 23.9976 16.8891" stroke="#FF7B00" stroke-width="0.75" stroke-miterlimit="10" stroke-linecap="round" stroke-linejoin="round"/>
<path d="M24.5225 17.5708C24.5225 17.7223 24.4476 17.798 24.3726 17.9495Z" fill="#FFF6CC"/>
<path d="M24.5225 17.5708C24.5225 17.7223 24.4476 17.798 24.3726 17.9495" stroke="#FF7B00" stroke-width="0.75" stroke-miterlimit="10" stroke-linecap="round" stroke-linejoin="round"/>
<path d="M24.1476 16.0559C24.0726 16.3589 23.9226 16.6618 23.6976 16.9648Z" fill="#FFF6CC"/>
<path d="M24.1476 16.0559C24.0726 16.3589 23.9226 16.6618 23.6976 16.9648" stroke="#FF7B00" stroke-width="0.75" stroke-miterlimit="10" stroke-linecap="round" stroke-linejoin="round"/>
<path d="M24.4476 16.6619C24.2976 17.1163 23.9976 17.495 23.6227 17.7979Z" fill="#FFF6CC"/>
<path d="M24.4476 16.6619C24.2976 17.1163 23.9976 17.495 23.6227 17.7979" stroke="#FF7B00" stroke-width="0.75" stroke-miterlimit="10" stroke-linecap="round" stroke-linejoin="round"/>
<path d="M24.4475 17.0405C24.2975 17.4192 24.0725 17.7979 23.8475 18.0251Z" fill="#FFF6CC"/>
<path d="M24.4475 17.0405C24.2975 17.4192 24.0725 17.7979 23.8475 18.0251" stroke="#FF7B00" stroke-width="0.75" stroke-miterlimit="10" stroke-linecap="round" stroke-linejoin="round"/>
<path d="M23.9227 15.6772C23.8477 15.9045 23.7727 16.0559 23.6227 16.2074Z" fill="#FFF6CC"/>
<path d="M23.9227 15.6772C23.8477 15.9045 23.7727 16.0559 23.6227 16.2074" stroke="#FF7B00" stroke-width="0.75" stroke-miterlimit="10" stroke-linecap="round" stroke-linejoin="round"/>
<path d="M23.0227 14.5413C23.0227 14.617 23.0227 14.6927 22.9478 14.6927Z" fill="#FFF6CC"/>
<path d="M23.0227 14.5413C23.0227 14.617 23.0227 14.6927 22.9478 14.6927" stroke="#FF7B00" stroke-width="0.75" stroke-miterlimit="10" stroke-linecap="round" stroke-linejoin="round"/>
<path d="M29.5472 13.7842C29.5472 13.5569 29.3972 13.3297 29.2472 13.1783C29.0222 12.951 28.7222 12.7996 28.3473 12.7996C27.6723 12.7996 27.0724 12.7996 26.4725 12.951C25.4226 13.1783 24.5226 13.6327 23.6227 14.2386L23.3978 14.3901C23.0228 14.7688 22.7228 15.1474 22.4978 15.6776C22.4229 15.8291 22.3479 15.9806 22.3479 16.2078V16.2835C22.1979 17.1166 22.4229 18.0255 22.9478 18.7071L23.0228 18.7829C23.0228 18.7829 23.0228 18.7829 23.0978 18.7071H23.1728H23.9977H24.0727C24.0727 18.7071 24.0727 18.7071 24.0727 18.7829L23.9977 18.8586L24.0727 18.9344C24.0727 18.8586 24.0727 18.8586 24.0727 18.7829L24.1477 18.7071C24.1477 18.7071 24.1477 18.7071 24.2227 18.6314C24.4477 18.6314 24.5976 18.6314 24.8226 18.6314H25.1976L25.6475 18.7071H25.7225C26.0225 18.7829 26.3225 18.7829 26.6224 18.8586L26.5474 18.9344L26.3975 19.0858H26.4725L26.6224 19.0101L26.6974 18.9344H26.7724C26.9974 18.7829 27.2224 18.7071 27.5224 18.5557L27.8223 18.4042L27.8973 18.3284C27.9723 18.2527 27.9723 18.2527 28.0473 18.177C28.1223 18.1012 28.1973 17.9498 28.3473 17.7983C28.4973 17.5711 28.6472 17.3439 28.7222 17.1924C29.0972 16.5107 29.3972 15.7534 29.4722 14.996C29.4722 14.9202 29.4722 14.8445 29.4722 14.8445C29.4722 14.7688 29.4722 14.693 29.4722 14.6173C29.6221 14.3143 29.6221 14.0114 29.5472 13.7842Z" fill="#FFF6CC"/>
<path d="M23.9977 18.7829V18.8586M23.9977 18.8586L24.0727 18.7829M23.9977 18.8586L24.0727 18.9344C24.0727 18.8586 24.0727 18.8586 24.0727 18.7829M24.0727 18.7829C24.0727 18.7071 24.0727 18.7071 24.0727 18.7071H23.9977H23.1728H23.0978C23.0228 18.7829 23.0228 18.7829 23.0228 18.7829L22.9478 18.7071C22.4229 18.0255 22.1979 17.1166 22.3479 16.2835V16.2078C22.3479 15.9806 22.4229 15.8291 22.4978 15.6776C22.7228 15.1474 23.0228 14.7688 23.3978 14.3901L23.6227 14.2386C24.5226 13.6327 25.4226 13.1783 26.4725 12.951C27.0724 12.7996 27.6723 12.7996 28.3473 12.7996C28.7222 12.7996 29.0222 12.951 29.2472 13.1783C29.3972 13.3297 29.5472 13.5569 29.5472 13.7842C29.6221 14.0114 29.6221 14.3143 29.4722 14.6173C29.4722 14.693 29.4722 14.7688 29.4722 14.8445C29.4722 14.8445 29.4722 14.9202 29.4722 14.996C29.3972 15.7534 29.0972 16.5107 28.7222 17.1924C28.6472 17.3439 28.4973 17.5711 28.3473 17.7983C28.1973 17.9498 28.1223 18.1012 28.0473 18.177C27.9723 18.2527 27.9723 18.2527 27.8973 18.3284L27.8223 18.4042L27.5224 18.5557C27.2224 18.7071 26.9974 18.7829 26.7724 18.9344H26.6974L26.6224 19.0101L26.4725 19.0858M24.0727 18.7829L24.1477 18.7071C24.1477 18.7071 24.1477 18.7071 24.2227 18.6314C24.4477 18.6314 24.5976 18.6314 24.8226 18.6314H25.1976L25.6475 18.7071H25.7225C26.0225 18.7829 26.3225 18.7829 26.6224 18.8586L26.5474 18.9344L26.3975 19.0858M26.3975 19.0858L26.2475 19.1616M26.3975 19.0858H26.4725M26.4725 19.0858H26.5474" stroke="#FF7B00" stroke-width="0.75" stroke-miterlimit="10" stroke-linecap="round" stroke-linejoin="round"/>
<path d="M29.4721 19.3889C29.4721 19.3889 30.222 19.1617 31.5719 19.3889C31.5719 19.3889 30.222 18.6315 29.1721 19.0102C29.1721 19.0102 29.6221 18.4043 30.372 18.3286C30.372 18.3286 28.7221 18.3286 28.0472 18.8588C28.0472 18.8588 28.9471 17.8742 29.4721 17.8742C29.4721 17.8742 26.3224 18.6315 25.6474 19.1617C25.6474 19.1617 26.5474 17.8742 27.5223 17.7227C27.5223 17.7227 25.5724 17.8742 24.0726 19.0102C24.0726 19.0102 25.4975 17.041 25.9474 16.6624C25.9474 16.6624 23.8476 17.4197 23.3227 18.3286C23.3227 18.3286 22.8727 17.7984 23.3227 17.344C23.3227 17.344 23.0227 17.4197 22.7977 18.4801C22.7977 18.4801 22.0478 17.4197 21.4479 17.5712C21.4479 17.5712 22.2728 18.3286 22.2728 19.0102C22.2728 19.0102 20.8479 17.5712 20.023 17.7984C20.023 17.7984 20.9229 18.4801 21.0729 19.086C21.0729 19.086 19.498 17.2683 18.4481 17.4197C18.4481 17.4197 19.1981 17.9499 19.2731 18.3286C19.2731 18.3286 17.6232 16.8896 15.7484 18.0256C15.7484 18.0256 17.6232 18.1014 17.9232 18.7073" fill="#FFF6CC"/>
<path d="M29.4721 19.3889C29.4721 19.3889 30.222 19.1617 31.5719 19.3889C31.5719 19.3889 30.222 18.6315 29.1721 19.0102C29.1721 19.0102 29.6221 18.4043 30.372 18.3286C30.372 18.3286 28.7221 18.3286 28.0472 18.8588C28.0472 18.8588 28.9471 17.8742 29.4721 17.8742C29.4721 17.8742 26.3224 18.6315 25.6474 19.1617C25.6474 19.1617 26.5474 17.8742 27.5223 17.7227C27.5223 17.7227 25.5724 17.8742 24.0726 19.0102C24.0726 19.0102 25.4975 17.041 25.9474 16.6624C25.9474 16.6624 23.8476 17.4197 23.3227 18.3286C23.3227 18.3286 22.8727 17.7984 23.3227 17.344C23.3227 17.344 23.0227 17.4197 22.7977 18.4801C22.7977 18.4801 22.0478 17.4197 21.4479 17.5712C21.4479 17.5712 22.2728 18.3286 22.2728 19.0102C22.2728 19.0102 20.8479 17.5712 20.023 17.7984C20.023 17.7984 20.9229 18.4801 21.0729 19.086C21.0729 19.086 19.498 17.2683 18.4481 17.4197C18.4481 17.4197 19.1981 17.9499 19.2731 18.3286C19.2731 18.3286 17.6232 16.8896 15.7484 18.0256C15.7484 18.0256 17.6232 18.1014 17.9232 18.7073" stroke="#FF7B00" stroke-width="0.75" stroke-miterlimit="10"/>
<path d="M57.2617 38.6802C55.4619 37.6199 54.0371 36.1051 52.9872 34.2874C51.8623 32.2425 51.3373 29.8946 51.3373 27.5467C51.2623 25.1988 51.8623 22.8509 52.9872 20.806C53.9621 18.9883 55.4619 17.4735 57.2617 16.4132C58.9116 15.4286 60.8614 14.8984 62.8112 14.8984C65.8859 14.8984 68.8106 16.186 70.8354 18.5339V6.94592C70.8354 6.34001 71.0604 5.80985 71.4354 5.35542C71.8103 4.97673 72.4103 4.74951 72.9352 4.74951C73.5351 4.74951 74.0601 4.97673 74.4351 5.35542C74.81 5.73411 75.035 6.34001 75.035 6.87018V37.7714C75.035 38.9074 74.1351 39.892 72.9352 39.892C72.9352 39.892 72.9352 39.892 72.8602 39.892C72.3353 39.892 71.7353 39.6648 71.3604 39.2861C70.9104 38.9074 70.6854 38.3773 70.7604 37.7714V36.5596C68.7356 38.8317 65.8109 40.195 62.7362 40.195C60.8614 40.195 58.9116 39.6648 57.2617 38.6802ZM67.4607 35.1963C68.7356 34.5146 69.8605 33.6815 70.8354 32.6212V22.6237C69.8605 21.5634 68.7356 20.6545 67.4607 20.0486C66.1859 19.367 64.836 18.9883 63.4111 18.9883C61.3113 18.9126 59.2865 19.7457 57.7867 21.2604C56.3618 22.7752 55.6869 24.8959 55.6869 27.5467C55.6869 30.2733 56.3618 32.3939 57.7867 33.833C59.2116 35.3477 61.3113 36.1809 63.4111 36.1051C64.836 36.1809 66.1859 35.8779 67.4607 35.1963Z" stroke="#FF7B00" stroke-width="2" stroke-miterlimit="10"/>
<path d="M82.9092 10.0513C82.4592 9.59683 82.1593 8.99093 82.2343 8.30928V8.08207C82.2343 6.71878 83.2842 5.65845 84.634 5.65845H84.934C86.2839 5.65845 87.3338 6.71878 87.3338 8.08207V8.30928C87.3338 9.67257 86.2839 10.7329 84.934 10.7329H84.634C83.9591 10.7329 83.3592 10.5057 82.9092 10.0513ZM83.1342 39.5892C82.7592 39.2105 82.5342 38.6803 82.5342 38.0744V17.6251C82.5342 17.0949 82.7592 16.489 83.1342 16.1103C83.5091 15.6559 84.0341 15.4287 84.634 15.4287C85.234 15.4287 85.7589 15.6559 86.2089 16.0346C86.5838 16.4133 86.8088 17.0192 86.8088 17.6251V37.9987C86.8088 38.6046 86.5838 39.1347 86.2089 39.5134C85.8339 39.8921 85.234 40.1193 84.709 40.1193C84.1091 40.1951 83.5841 39.9679 83.1342 39.5892Z" stroke="#FF7B00" stroke-width="2" stroke-miterlimit="10"/>
<path d="M98.2078 39.5893C97.8328 39.2106 97.6078 38.6047 97.6078 38.0745C97.6078 37.8473 97.6828 37.5443 97.7578 37.3171L100.833 29.3646L91.9834 7.62773C91.8334 7.32477 91.8334 7.02182 91.7584 6.71887C91.7584 6.1887 91.9834 5.5828 92.3584 5.20411C92.7333 4.74968 93.2583 4.52246 93.8582 4.52246C94.3082 4.52246 94.6831 4.67394 95.0581 4.90115C95.3581 5.12837 95.658 5.50706 95.808 5.88575L103.082 24.0629L110.507 5.96149C110.807 5.12837 111.556 4.52246 112.456 4.52246C113.056 4.52246 113.581 4.74968 113.956 5.20411C114.331 5.5828 114.556 6.1887 114.556 6.71887C114.556 7.02182 114.481 7.24904 114.406 7.55199L101.582 38.6804C101.282 39.5135 100.533 40.1194 99.6326 40.1194C99.1077 40.1952 98.5828 39.9679 98.2078 39.5893Z" stroke="#FF7B00" stroke-width="2" stroke-miterlimit="10"/>
<path d="M121.006 36.8627C118.906 34.6663 117.781 31.561 117.781 27.5469C117.781 25.4262 118.156 23.3056 118.981 21.3364C119.731 19.4429 121.081 17.8524 122.73 16.7163C124.605 15.5045 126.78 14.8986 129.03 14.9744C131.13 14.8986 133.229 15.5045 135.029 16.6406C136.679 17.7009 138.029 19.2157 138.854 21.0334C139.754 22.9269 140.204 24.9718 140.204 27.0167C140.204 28.1528 139.304 29.1374 138.179 29.1374C138.104 29.1374 138.029 29.1374 138.029 29.1374H122.055C122.205 31.1066 123.105 33 124.53 34.3633C125.88 35.5751 127.83 36.1811 130.305 36.1811C132.479 36.2568 134.729 35.7266 136.679 34.742C136.979 34.5905 137.204 34.5148 137.504 34.5148C138.029 34.5148 138.479 34.6663 138.854 35.045C139.229 35.3479 139.454 35.8781 139.454 36.4083C139.379 37.1656 138.929 37.8473 138.254 38.1502C135.779 39.665 132.929 40.3467 130.005 40.2709C126.18 40.1952 123.18 39.0591 121.006 36.8627ZM136.004 25.5777C135.929 24.2144 135.554 22.8511 134.804 21.7151C134.129 20.7305 133.229 19.9731 132.179 19.4429C130.155 18.4583 127.83 18.4583 125.88 19.4429C124.83 19.9731 123.93 20.7305 123.33 21.7151C122.58 22.8511 122.205 24.2144 122.13 25.5777H136.004Z" stroke="#FF7B00" stroke-width="2" stroke-miterlimit="10"/>
</svg>
