<svg width="95" height="31" viewBox="0 0 95 31" fill="none" xmlns="http://www.w3.org/2000/svg">
<path d="M30.6789 21.9155L30.6789 21.9157C30.6547 23.4987 30.3292 24.8167 29.9208 25.7972C29.5035 26.7988 29.0237 27.3933 28.7363 27.5928C28.5631 27.7131 28.3692 27.8839 28.1758 28.0541C28.1131 28.1094 28.0504 28.1646 27.9885 28.218C27.718 28.4514 27.407 28.7028 27.0224 28.9394C26.2626 29.4067 25.1833 29.8359 23.5456 29.885C21.569 29.8831 19.706 29.1228 18.4069 27.6702L18.3878 27.6489L18.3664 27.6298C17.2187 26.6098 16.6911 25.278 16.4535 24.1742C16.3352 23.6246 16.2908 23.1404 16.2761 22.795C16.2687 22.6226 16.2688 22.4858 16.2706 22.3937C16.2715 22.3477 16.2728 22.313 16.2738 22.2907L16.2751 22.2668L16.2753 22.2626L16.2753 22.2622L16.2753 22.2622L16.2754 22.262L16.2754 22.2618L16.2766 22.245V22.2273C16.2766 19.3695 17.5731 17.6862 18.9266 16.6889C20.3013 15.6759 21.7475 15.3655 21.9876 15.3214L21.8186 14.3359L16.3339 15.2105C16.2625 15.1406 16.1682 15.042 16.0574 14.9114L15.7046 14.4957L15.3209 14.8832L15.0017 15.2055L9.53811 14.2859L9.35612 15.2691C9.58013 15.3143 11.0268 15.6255 12.4079 16.6388C13.7685 17.6371 15.0759 19.3207 15.0759 22.1766V22.1906L15.0766 22.2037L15.0766 22.2039L15.0766 22.2042L15.0766 22.2043L15.0767 22.2045L15.0769 22.2092L15.0778 22.2337C15.0785 22.2565 15.0794 22.292 15.0797 22.3388C15.0803 22.4325 15.0787 22.5716 15.0695 22.7464C15.051 23.0967 15.0021 23.5867 14.8805 24.1405C14.6361 25.2545 14.1076 26.5851 12.9866 27.5787L12.9712 27.5923L12.957 27.6072C11.5956 29.0295 9.72013 29.8333 7.80315 29.8343C6.16754 29.8098 5.09065 29.3813 4.33238 28.9092C3.94845 28.6701 3.63772 28.4146 3.36692 28.1771C3.30767 28.1251 3.24765 28.0714 3.18751 28.0177C2.99118 27.8421 2.79345 27.6653 2.61612 27.5422C2.33219 27.345 1.86448 26.7545 1.45868 25.7513C1.06189 24.7704 0.747898 23.4507 0.723743 21.865C0.721816 21.7385 0.719185 21.6076 0.716467 21.4723C0.683669 19.8405 0.63811 17.5737 1.66111 14.6729C2.76911 11.5311 5.14681 7.60876 10.2391 2.9919C13.4102 0.222325 18.0902 0.221774 21.262 2.99025C26.3036 7.6568 28.6572 11.6042 29.7534 14.7533C30.7651 17.6599 30.7191 19.9168 30.6862 21.5267C30.6834 21.6608 30.6808 21.7904 30.6789 21.9155Z" stroke="#FF7B00"/>
<path d="M2.8326 17.4644C2.8326 17.4644 1.67868 19.2378 2.53157 23.646C2.8326 25.3687 3.63532 26.9901 4.8394 28.3075C6.29434 29.8783 8.50183 31.145 11.4117 29.4729C12.8666 28.6115 13.87 27.0915 14.0205 25.3687C14.1711 23.8486 13.7195 22.3286 12.8165 21.1632C10.9602 18.7311 8.35132 17.0083 5.39128 16.2483C4.8394 16.0963 4.18719 16.1976 3.68549 16.5016C3.28413 16.7043 2.98311 17.059 2.8326 17.4644Z" fill="#FFF6CC" stroke="#FF7B00" stroke-width="0.5" stroke-miterlimit="10"/>
<path d="M2.88269 18.3762C3.08337 18.4269 3.33422 18.4269 3.5349 18.3762Z" fill="#FFF6CC"/>
<path d="M2.88269 18.3762C3.08337 18.4269 3.33422 18.4269 3.5349 18.3762" stroke="#FF7B00" stroke-width="0.5" stroke-miterlimit="10"/>
<path d="M2.63171 19.643C2.88256 19.6936 3.13342 19.6936 3.3341 19.5923Z" fill="#FFF6CC"/>
<path d="M2.63171 19.643C2.88256 19.6936 3.13342 19.6936 3.3341 19.5923" stroke="#FF7B00" stroke-width="0.5" stroke-miterlimit="10"/>
<path d="M2.68201 18.8831C2.73218 18.9337 2.83252 18.9337 2.88269 18.9337Z" fill="#FFF6CC"/>
<path d="M2.68201 18.8831C2.73218 18.9337 2.83252 18.9337 2.88269 18.9337" stroke="#FF7B00" stroke-width="0.5" stroke-miterlimit="10"/>
<path d="M2.48132 20.8086C2.63183 20.8593 2.78234 20.8593 2.93285 20.8086Z" fill="#FFF6CC"/>
<path d="M2.48132 20.8086C2.63183 20.8593 2.78234 20.8593 2.93285 20.8086" stroke="#FF7B00" stroke-width="0.5" stroke-miterlimit="10"/>
<path d="M2.58167 20.3016C2.73218 20.3523 2.93286 20.3016 3.08337 20.251Z" fill="#FFF6CC"/>
<path d="M2.58167 20.3016C2.73218 20.3523 2.93286 20.3016 3.08337 20.251" stroke="#FF7B00" stroke-width="0.5" stroke-miterlimit="10"/>
<path d="M3.23389 23.7472C3.3844 23.7979 3.58508 23.7472 3.73559 23.6965Z" fill="#FFF6CC"/>
<path d="M3.23389 23.7472C3.3844 23.7979 3.58508 23.7472 3.73559 23.6965" stroke="#FF7B00" stroke-width="0.5" stroke-miterlimit="10"/>
<path d="M3.28406 24.3554C3.43457 24.406 3.63525 24.3554 3.78576 24.3047Z" fill="#FFF6CC"/>
<path d="M3.28406 24.3554C3.43457 24.406 3.63525 24.3554 3.78576 24.3047" stroke="#FF7B00" stroke-width="0.5" stroke-miterlimit="10"/>
<path d="M3.43457 25.47C3.78576 25.5713 4.13695 25.5713 4.48814 25.47Z" fill="#FFF6CC"/>
<path d="M3.43457 25.47C3.78576 25.5713 4.13695 25.5713 4.48814 25.47" stroke="#FF7B00" stroke-width="0.5" stroke-miterlimit="10"/>
<path d="M3.83594 25.926C4.18713 26.0274 4.53832 26.0274 4.88951 25.926Z" fill="#FFF6CC"/>
<path d="M3.83594 25.926C4.18713 26.0274 4.53832 26.0274 4.88951 25.926" stroke="#FF7B00" stroke-width="0.5" stroke-miterlimit="10"/>
<path d="M5.29089 28.1048C5.69226 28.2061 6.09362 28.1554 6.49498 28.0034Z" fill="#FFF6CC"/>
<path d="M5.29089 28.1048C5.69226 28.2061 6.09362 28.1554 6.49498 28.0034" stroke="#FF7B00" stroke-width="0.5" stroke-miterlimit="10"/>
<path d="M7.09692 29.2196C7.2976 29.2703 7.54846 29.2196 7.74914 29.1689Z" fill="#FFF6CC"/>
<path d="M7.09692 29.2196C7.2976 29.2703 7.54846 29.2196 7.74914 29.1689" stroke="#FF7B00" stroke-width="0.5" stroke-miterlimit="10"/>
<path d="M5.09021 27.6486C5.64208 27.7499 6.19395 27.6993 6.69566 27.4966Z" fill="#FFF6CC"/>
<path d="M5.09021 27.6486C5.64208 27.7499 6.19395 27.6993 6.69566 27.4966" stroke="#FF7B00" stroke-width="0.5" stroke-miterlimit="10"/>
<path d="M5.84277 28.5102C6.59533 28.5102 7.39805 28.3582 8.10043 28.0542Z" fill="#FFF6CC"/>
<path d="M5.84277 28.5102C6.59533 28.5102 7.39805 28.3582 8.10043 28.0542" stroke="#FF7B00" stroke-width="0.5" stroke-miterlimit="10"/>
<path d="M6.4447 28.8649C7.09691 28.9156 7.7993 28.8143 8.40134 28.5103Z" fill="#FFF6CC"/>
<path d="M6.4447 28.8649C7.09691 28.9156 7.7993 28.8143 8.40134 28.5103" stroke="#FF7B00" stroke-width="0.5" stroke-miterlimit="10"/>
<path d="M8.05029 29.6247C8.75268 29.4726 9.40489 29.27 10.0069 28.9153Z" fill="#FFF6CC"/>
<path d="M8.05029 29.6247C8.75268 29.4726 9.40489 29.27 10.0069 28.9153" stroke="#FF7B00" stroke-width="0.5" stroke-miterlimit="10"/>
<path d="M12.7661 26.3312C13.1173 25.8752 13.4183 25.3179 13.5688 24.7605Z" fill="#FFF6CC"/>
<path d="M12.7661 26.3312C13.1173 25.8752 13.4183 25.3179 13.5688 24.7605" stroke="#FF7B00" stroke-width="0.5" stroke-miterlimit="10"/>
<path d="M12.8666 26.9393C13.1676 26.534 13.4184 26.1286 13.5188 25.6726Z" fill="#FFF6CC"/>
<path d="M12.8666 26.9393C13.1676 26.534 13.4184 26.1286 13.5188 25.6726" stroke="#FF7B00" stroke-width="0.5" stroke-miterlimit="10"/>
<path d="M12.8164 25.4193C12.8666 25.3687 12.9167 25.318 12.9669 25.2673Z" fill="#FFF6CC"/>
<path d="M12.8164 25.4193C12.8666 25.3687 12.9167 25.318 12.9669 25.2673" stroke="#FF7B00" stroke-width="0.5" stroke-miterlimit="10"/>
<path d="M13.318 24.2033C13.3682 24.1526 13.4183 24.1019 13.4685 24.0513Z" fill="#FFF6CC"/>
<path d="M13.318 24.2033C13.3682 24.1526 13.4183 24.1019 13.4685 24.0513" stroke="#FF7B00" stroke-width="0.5" stroke-miterlimit="10"/>
<path d="M8.9032 29.8276C9.20422 29.7769 9.50524 29.6249 9.75609 29.4729Z" fill="#FFF6CC"/>
<path d="M8.9032 29.8276C9.20422 29.7769 9.50524 29.6249 9.75609 29.4729" stroke="#FF7B00" stroke-width="0.5" stroke-miterlimit="10"/>
<path d="M4.63867 27.142C4.98986 27.1926 5.29088 27.1926 5.64208 27.0913Z" fill="#FFF6CC"/>
<path d="M4.63867 27.142C4.98986 27.1926 5.29088 27.1926 5.64208 27.0913" stroke="#FF7B00" stroke-width="0.5" stroke-miterlimit="10"/>
<path d="M3.53491 24.9634C3.63525 25.014 3.73559 25.014 3.83593 24.9634Z" fill="#FFF6CC"/>
<path d="M3.53491 24.9634C3.63525 25.014 3.73559 25.014 3.83593 24.9634" stroke="#FF7B00" stroke-width="0.5" stroke-miterlimit="10"/>
<path d="M29.0214 17.4642C29.0214 17.4642 30.1753 19.2377 29.3224 23.6459C29.0214 25.3686 28.2187 26.99 27.0146 28.2567C25.5597 29.8275 23.3522 31.0942 20.4423 29.4221C18.9874 28.5607 17.984 27.0407 17.8335 25.3179C17.6829 23.7979 18.1345 22.2778 19.0375 21.1124C20.8938 18.6803 23.5027 16.9576 26.4627 16.1975C27.0146 16.0455 27.6668 16.1469 28.1685 16.4509C28.5699 16.6535 28.8709 17.0082 29.0214 17.4642Z" fill="#FFF6CC" stroke="#FF7B00" stroke-width="0.5" stroke-miterlimit="10"/>
<path d="M28.9714 18.3762C28.7707 18.4269 28.5199 18.4269 28.3192 18.3762Z" fill="#FFF6CC"/>
<path d="M28.9714 18.3762C28.7707 18.4269 28.5199 18.4269 28.3192 18.3762" stroke="#FF7B00" stroke-width="0.5" stroke-miterlimit="10"/>
<path d="M29.2223 19.6432C28.9714 19.6939 28.7206 19.6939 28.5199 19.5925Z" fill="#FFF6CC"/>
<path d="M29.2223 19.6432C28.9714 19.6939 28.7206 19.6939 28.5199 19.5925" stroke="#FF7B00" stroke-width="0.5" stroke-miterlimit="10"/>
<path d="M29.1721 18.8831C29.1219 18.9337 29.0216 18.9337 28.9714 18.9337Z" fill="#FFF6CC"/>
<path d="M29.1721 18.8831C29.1219 18.9337 29.0216 18.9337 28.9714 18.9337" stroke="#FF7B00" stroke-width="0.5" stroke-miterlimit="10"/>
<path d="M29.3727 20.8086C29.2222 20.8593 29.0717 20.8593 28.9211 20.8086Z" fill="#FFF6CC"/>
<path d="M29.3727 20.8086C29.2222 20.8593 29.0717 20.8593 28.9211 20.8086" stroke="#FF7B00" stroke-width="0.5" stroke-miterlimit="10"/>
<path d="M29.2725 20.3016C29.1219 20.3523 28.9213 20.3016 28.7708 20.251Z" fill="#FFF6CC"/>
<path d="M29.2725 20.3016C29.1219 20.3523 28.9213 20.3016 28.7708 20.251" stroke="#FF7B00" stroke-width="0.5" stroke-miterlimit="10"/>
<path d="M28.6202 23.7472C28.4697 23.7979 28.269 23.7472 28.1185 23.6965Z" fill="#FFF6CC"/>
<path d="M28.6202 23.7472C28.4697 23.7979 28.269 23.7472 28.1185 23.6965" stroke="#FF7B00" stroke-width="0.5" stroke-miterlimit="10"/>
<path d="M28.5699 24.3554C28.4194 24.406 28.2187 24.3554 28.0682 24.3047Z" fill="#FFF6CC"/>
<path d="M28.5699 24.3554C28.4194 24.406 28.2187 24.3554 28.0682 24.3047" stroke="#FF7B00" stroke-width="0.5" stroke-miterlimit="10"/>
<path d="M28.4194 25.47C28.0682 25.5713 27.717 25.5713 27.3658 25.47Z" fill="#FFF6CC"/>
<path d="M28.4194 25.47C28.0682 25.5713 27.717 25.5713 27.3658 25.47" stroke="#FF7B00" stroke-width="0.5" stroke-miterlimit="10"/>
<path d="M28.0182 25.926C27.667 26.0274 27.3158 26.0274 26.9646 25.926Z" fill="#FFF6CC"/>
<path d="M28.0182 25.926C27.667 26.0274 27.3158 26.0274 26.9646 25.926" stroke="#FF7B00" stroke-width="0.5" stroke-miterlimit="10"/>
<path d="M26.5632 28.1048C26.1619 28.2061 25.7605 28.1554 25.3591 28.0034Z" fill="#FFF6CC"/>
<path d="M26.5632 28.1048C26.1619 28.2061 25.7605 28.1554 25.3591 28.0034" stroke="#FF7B00" stroke-width="0.5" stroke-miterlimit="10"/>
<path d="M24.7571 29.2196C24.5564 29.2703 24.3055 29.2196 24.1049 29.1689Z" fill="#FFF6CC"/>
<path d="M24.7571 29.2196C24.5564 29.2703 24.3055 29.2196 24.1049 29.1689" stroke="#FF7B00" stroke-width="0.5" stroke-miterlimit="10"/>
<path d="M26.7639 27.6486C26.212 27.7499 25.6601 27.6993 25.1584 27.4966Z" fill="#FFF6CC"/>
<path d="M26.7639 27.6486C26.212 27.7499 25.6601 27.6993 25.1584 27.4966" stroke="#FF7B00" stroke-width="0.5" stroke-miterlimit="10"/>
<path d="M26.0113 28.5102C25.2588 28.5102 24.456 28.3582 23.7537 28.0542Z" fill="#FFF6CC"/>
<path d="M26.0113 28.5102C25.2588 28.5102 24.456 28.3582 23.7537 28.0542" stroke="#FF7B00" stroke-width="0.5" stroke-miterlimit="10"/>
<path d="M25.4093 28.8649C24.7571 28.9156 24.0547 28.8143 23.4526 28.5103Z" fill="#FFF6CC"/>
<path d="M25.4093 28.8649C24.7571 28.9156 24.0547 28.8143 23.4526 28.5103" stroke="#FF7B00" stroke-width="0.5" stroke-miterlimit="10"/>
<path d="M23.8039 29.6249C23.1015 29.4729 22.4493 29.2702 21.7971 28.9155Z" fill="#FFF6CC"/>
<path d="M23.8039 29.6249C23.1015 29.4729 22.4493 29.2702 21.7971 28.9155" stroke="#FF7B00" stroke-width="0.5" stroke-miterlimit="10"/>
<path d="M19.0879 26.3312C18.7367 25.8752 18.4357 25.3179 18.2852 24.7605Z" fill="#FFF6CC"/>
<path d="M19.0879 26.3312C18.7367 25.8752 18.4357 25.3179 18.2852 24.7605" stroke="#FF7B00" stroke-width="0.5" stroke-miterlimit="10"/>
<path d="M18.9874 26.9393C18.6864 26.5846 18.4355 26.1286 18.3352 25.6726Z" fill="#FFF6CC"/>
<path d="M18.9874 26.9393C18.6864 26.5846 18.4355 26.1286 18.3352 25.6726" stroke="#FF7B00" stroke-width="0.5" stroke-miterlimit="10"/>
<path d="M19.0376 25.4193C18.9874 25.3687 18.9373 25.318 18.8871 25.2673Z" fill="#FFF6CC"/>
<path d="M19.0376 25.4193C18.9874 25.3687 18.9373 25.318 18.8871 25.2673" stroke="#FF7B00" stroke-width="0.5" stroke-miterlimit="10"/>
<path d="M18.536 24.2033C18.4858 24.1526 18.4357 24.1019 18.3855 24.0513Z" fill="#FFF6CC"/>
<path d="M18.536 24.2033C18.4858 24.1526 18.4357 24.1019 18.3855 24.0513" stroke="#FF7B00" stroke-width="0.5" stroke-miterlimit="10"/>
<path d="M22.9509 29.8276C22.6499 29.7769 22.3489 29.6249 22.098 29.4729Z" fill="#FFF6CC"/>
<path d="M22.9509 29.8276C22.6499 29.7769 22.3489 29.6249 22.098 29.4729" stroke="#FF7B00" stroke-width="0.5" stroke-miterlimit="10"/>
<path d="M27.2154 27.1422C26.8642 27.1929 26.5632 27.1929 26.212 27.0916Z" fill="#FFF6CC"/>
<path d="M27.2154 27.1422C26.8642 27.1929 26.5632 27.1929 26.212 27.0916" stroke="#FF7B00" stroke-width="0.5" stroke-miterlimit="10"/>
<path d="M28.3192 24.9634C28.2189 25.014 28.1185 25.014 28.0182 24.9634Z" fill="#FFF6CC"/>
<path d="M28.3192 24.9634C28.2189 25.014 28.1185 25.014 28.0182 24.9634" stroke="#FF7B00" stroke-width="0.5" stroke-miterlimit="10"/>
<path d="M10.6892 13.8921C10.6892 13.8921 9.83628 14.6521 9.83628 15.2094C9.83628 15.2094 10.3882 14.4494 10.8899 14.2974C10.8899 14.2974 10.6892 14.7028 10.7393 15.0068C10.7393 15.0068 11.3414 14.6521 11.3414 14.5508C11.3414 14.4494 11.3414 14.6521 11.3414 14.6521C11.3414 14.6521 11.3916 16.2735 12.0438 16.5268C12.0438 16.5268 11.7427 15.8175 12.0438 15.2094C12.0438 15.2094 12.0939 15.9188 12.5455 16.1215C12.5455 16.1215 12.395 15.6148 12.5455 14.9561C12.5455 14.9561 12.7462 16.0202 13.298 16.3242C13.298 16.3242 12.9468 15.6148 13.1977 15.2094C13.1977 15.2094 13.4485 16.2735 15.2547 17.0335C15.2547 17.0335 14.6024 15.9188 14.6526 15.4628C14.6526 15.4628 15.1042 16.2735 15.4052 16.4255C15.4052 16.4255 15.7062 15.7668 15.8567 15.6655C15.8567 15.6655 15.8065 16.2735 15.7062 16.4762C15.7062 16.4762 16.3584 16.0708 16.6594 15.4628C16.6594 15.4628 16.6093 16.5268 16.3584 16.8309C16.3584 16.8309 17.3618 15.9188 17.412 15.4628C17.412 15.4628 17.412 16.1215 17.1611 16.4255C17.1611 16.4255 18.014 15.8681 18.1645 15.4628C18.1645 15.4628 18.2147 16.6282 17.7632 16.7802C17.7632 16.7802 19.7198 15.5641 19.77 14.8041C19.77 14.8041 19.7198 15.7161 19.469 15.7668C19.469 15.7668 20.0208 15.4121 20.071 14.8548C20.071 14.8548 20.5727 15.2601 20.4222 15.8175C20.4222 15.8175 20.7734 15.2601 20.7734 14.8548C20.7734 14.8548 21.6263 15.6148 21.4758 16.3242C21.4758 16.3242 22.128 15.4628 21.827 13.8414C21.827 13.8414 22.2785 14.1454 22.3287 14.6014C22.3287 14.6014 22.5293 14.1961 22.3287 13.5374C22.3287 13.5374 22.9307 13.6387 23.2819 14.1454C23.2819 14.1454 22.8805 13.3854 22.1781 12.9293C22.1781 12.9293 22.6798 12.7773 22.8304 12.9293C22.8304 12.9293 22.429 12.524 21.9775 12.4227C21.9775 12.4227 23.031 12.22 23.3822 12.4227C23.3822 12.4227 22.6297 11.4599 21.2751 11.3079C21.2751 11.3079 21.4758 10.9533 21.7768 11.0039C21.7768 11.0039 21.0744 10.8519 20.8737 10.8519C20.8737 10.8519 21.9273 10.3452 22.128 10.4466C22.128 10.4466 21.9273 10.0919 20.1212 10.1425C20.1212 10.1425 20.4724 9.78787 21.0242 9.7372C21.0242 9.7372 20.3219 9.53452 19.0174 9.8892C19.0174 9.8892 19.6195 9.33185 19.8703 9.38252C19.8703 9.38252 19.2683 9.33185 18.4154 9.8892C18.4154 9.8892 18.6161 9.43318 18.9171 9.38252C18.9171 9.38252 18.2649 9.38252 17.9137 9.7372C17.9137 9.7372 17.8635 9.43318 18.2649 9.23051C18.2649 9.23051 17.412 9.17984 17.0608 9.53452C17.0608 9.53452 17.0608 9.23051 17.3618 9.02783C17.3618 9.02783 16.7598 9.02783 16.4587 9.38252C16.4587 9.38252 16.3082 9.43318 16.1076 9.23051C16.1076 9.23051 15.9069 9.43318 16.0574 9.7372C16.0574 9.7372 15.355 9.8892 15.7062 9.02783C15.7062 9.02783 15.1042 9.23051 14.8031 9.58519C14.8031 9.58519 14.8533 9.43318 13.8499 9.23051C13.8499 9.23051 14.4519 9.58519 14.4519 9.83854C14.4519 9.83854 14.1509 9.48385 12.9468 9.28118C12.9468 9.28118 13.3482 9.43318 13.2479 9.8892C13.2479 9.8892 13.298 9.48385 12.696 9.38252C12.696 9.38252 12.8465 9.78787 12.4953 9.78787C12.4953 9.78787 12.4451 9.28118 11.9936 9.23051C11.9936 9.23051 12.2946 9.58519 12.1441 9.63586C12.1441 9.63586 11.6424 9.43318 11.1909 9.58519C11.1909 9.58519 11.7427 9.7372 11.7929 10.1425C11.7929 10.1425 11.241 9.53452 9.93662 10.1932C9.93662 10.1932 11.3414 10.1426 11.4417 10.4972C11.4417 10.4972 10.5387 10.1932 9.68577 10.4972C9.68577 10.4972 10.639 10.5479 10.7895 10.8012C10.7895 10.8012 9.48509 10.5986 8.28101 11.3079C8.28101 11.3079 9.53526 11.1559 9.68577 11.5106C9.68577 11.5106 8.38135 11.6626 8.23083 12.1186C8.23083 12.1186 8.93322 11.8146 9.73594 11.8146C9.73594 11.8146 8.78271 12.1186 8.43152 13.9934C8.43152 13.9934 9.18407 12.9293 10.0871 12.7267C10.0871 12.7267 9.1339 13.436 9.1339 13.7907C9.1339 13.7907 9.68577 13.3854 9.98679 13.436C9.98679 13.436 9.58543 13.7907 9.48509 14.1961C9.43492 14.3987 10.4383 13.74 10.6892 13.8921Z" fill="#FFF6CC" stroke="#FF7B00" stroke-width="0.5" stroke-miterlimit="10"/>
<path d="M13.3481 13.0813C13.3481 13.0813 12.2946 13.2333 12.0437 13.6893Z" fill="#FFF6CC"/>
<path d="M13.3481 13.0813C13.3481 13.0813 12.2946 13.2333 12.0437 13.6893" stroke="#FF7B00" stroke-width="0.5" stroke-miterlimit="10"/>
<path d="M13.6993 13.0813C13.6993 13.0813 12.5956 13.4867 12.4952 14.044Z" fill="#FFF6CC"/>
<path d="M13.6993 13.0813C13.6993 13.0813 12.5956 13.4867 12.4952 14.044" stroke="#FF7B00" stroke-width="0.5" stroke-miterlimit="10"/>
<path d="M14.3013 13.3852C14.3013 13.3852 13.348 13.3346 13.0972 13.8919Z" fill="#FFF6CC"/>
<path d="M14.3013 13.3852C14.3013 13.3852 13.348 13.3346 13.0972 13.8919" stroke="#FF7B00" stroke-width="0.5" stroke-miterlimit="10"/>
<path d="M15.8064 13.3853C15.8064 13.3853 15.2545 14.1453 15.4552 14.956Z" fill="#FFF6CC"/>
<path d="M15.8064 13.3853C15.8064 13.3853 15.2545 14.1453 15.4552 14.956" stroke="#FF7B00" stroke-width="0.5" stroke-miterlimit="10"/>
<path d="M16.0072 13.0813C16.0072 13.0813 16.5089 14.1453 16.2581 14.7534Z" fill="#FFF6CC"/>
<path d="M16.0072 13.0813C16.0072 13.0813 16.5089 14.1453 16.2581 14.7534" stroke="#FF7B00" stroke-width="0.5" stroke-miterlimit="10"/>
<path d="M17.412 13.6895C17.412 13.6895 17.6628 13.9935 17.6628 14.1455Z" fill="#FFF6CC"/>
<path d="M17.412 13.6895C17.412 13.6895 17.6628 13.9935 17.6628 14.1455" stroke="#FF7B00" stroke-width="0.5" stroke-miterlimit="10"/>
<path d="M17.412 13.2839C17.5625 13.2839 18.9673 14.348 18.9673 14.5507Z" fill="#FFF6CC"/>
<path d="M17.412 13.2839C17.5625 13.2839 18.9673 14.348 18.9673 14.5507" stroke="#FF7B00" stroke-width="0.5" stroke-miterlimit="10"/>
<path d="M17.6127 13.2839C17.6127 13.2839 18.014 13.8413 18.014 14.044Z" fill="#FFF6CC"/>
<path d="M17.6127 13.2839C17.6127 13.2839 18.014 13.8413 18.014 14.044" stroke="#FF7B00" stroke-width="0.5" stroke-miterlimit="10"/>
<path d="M18.0139 13.2839C18.0139 13.2839 18.4153 13.5879 18.5156 13.74Z" fill="#FFF6CC"/>
<path d="M18.0139 13.2839C18.0139 13.2839 18.4153 13.5879 18.5156 13.74" stroke="#FF7B00" stroke-width="0.5" stroke-miterlimit="10"/>
<path d="M18.2146 13.0813C18.2146 13.0813 18.7665 13.284 18.8668 13.4867Z" fill="#FFF6CC"/>
<path d="M18.2146 13.0813C18.2146 13.0813 18.7665 13.284 18.8668 13.4867" stroke="#FF7B00" stroke-width="0.5" stroke-miterlimit="10"/>
<path d="M19.9205 13.5879C19.9205 13.5879 20.3721 13.8919 20.3721 14.1959Z" fill="#FFF6CC"/>
<path d="M19.9205 13.5879C19.9205 13.5879 20.3721 13.8919 20.3721 14.1959" stroke="#FF7B00" stroke-width="0.5" stroke-miterlimit="10"/>
<path d="M19.9205 13.2839C19.9205 13.2839 20.5727 13.4866 20.6229 13.74Z" fill="#FFF6CC"/>
<path d="M19.9205 13.2839C19.9205 13.2839 20.5727 13.4866 20.6229 13.74" stroke="#FF7B00" stroke-width="0.5" stroke-miterlimit="10"/>
<path d="M13.9001 12.2705C13.9001 12.3212 13.8499 12.3718 13.7998 12.4225C13.7496 12.5239 13.6493 12.5745 13.5489 12.5745C13.4486 12.6252 13.3482 12.6252 13.2479 12.6252H13.1475C12.9469 12.6252 12.7462 12.6252 12.5455 12.5745C12.4452 12.5745 12.395 12.5239 12.2947 12.5239L12.094 12.4732C11.9435 12.4225 11.793 12.3212 11.6424 12.2705L11.5923 12.2198C11.3916 12.1185 11.2411 11.9665 11.0906 11.8145C10.9902 11.7131 10.9401 11.5611 10.8397 11.4598C10.7896 11.3078 10.7394 11.1558 10.7394 11.0545C10.7394 10.7504 10.8397 10.4971 10.9902 10.2438C11.2411 9.88907 11.6424 9.73706 12.0438 9.73706V9.73706C12.395 9.73706 12.7462 9.88907 12.9469 10.1424C13.4987 10.6491 13.7998 11.3585 13.9001 12.0678C13.9503 12.1692 13.9503 12.2198 13.9001 12.2705Z" fill="#FFF6CC" stroke="#FF7B00" stroke-width="0.5" stroke-miterlimit="10"/>
<path d="M12.0941 12.3718C12.0941 12.3212 12.0941 12.2705 12.1443 12.2705Z" fill="#FFF6CC"/>
<path d="M12.0941 12.3718C12.0941 12.3212 12.0941 12.2705 12.1443 12.2705" stroke="#FF7B00" stroke-width="0.5" stroke-linecap="round" stroke-linejoin="round"/>
<path d="M11.9436 12.3213C11.9436 12.2706 11.9436 12.22 11.9938 12.22Z" fill="#FFF6CC"/>
<path d="M11.9436 12.3213C11.9436 12.2706 11.9436 12.22 11.9938 12.22" stroke="#FF7B00" stroke-width="0.5" stroke-linecap="round" stroke-linejoin="round"/>
<path d="M11.6926 12.2707C11.6926 12.1693 11.6926 12.1187 11.7428 12.0173Z" fill="#FFF6CC"/>
<path d="M11.6926 12.2707C11.6926 12.1693 11.6926 12.1187 11.7428 12.0173" stroke="#FF7B00" stroke-width="0.5" stroke-linecap="round" stroke-linejoin="round"/>
<path d="M11.5923 12.1691C11.5923 12.0678 11.5923 12.0171 11.6425 11.9158Z" fill="#FFF6CC"/>
<path d="M11.5923 12.1691C11.5923 12.0678 11.5923 12.0171 11.6425 11.9158" stroke="#FF7B00" stroke-width="0.5" stroke-linecap="round" stroke-linejoin="round"/>
<path d="M11.0907 11.7132C11.0907 11.6119 11.0907 11.5105 11.1409 11.4092Z" fill="#FFF6CC"/>
<path d="M11.0907 11.7132C11.0907 11.6119 11.0907 11.5105 11.1409 11.4092" stroke="#FF7B00" stroke-width="0.5" stroke-linecap="round" stroke-linejoin="round"/>
<path d="M11.191 11.8145C11.191 11.6625 11.191 11.5612 11.2914 11.4092Z" fill="#FFF6CC"/>
<path d="M11.191 11.8145C11.191 11.6625 11.191 11.5612 11.2914 11.4092" stroke="#FF7B00" stroke-width="0.5" stroke-linecap="round" stroke-linejoin="round"/>
<path d="M11.0405 11.5611C11.0405 11.3585 11.1409 11.2064 11.2412 11.0544Z" fill="#FFF6CC"/>
<path d="M11.0405 11.5611C11.0405 11.3585 11.1409 11.2064 11.2412 11.0544" stroke="#FF7B00" stroke-width="0.5" stroke-linecap="round" stroke-linejoin="round"/>
<path d="M10.9401 11.4597C10.9401 11.3077 10.9902 11.1557 11.0906 11.0037Z" fill="#FFF6CC"/>
<path d="M10.9401 11.4597C10.9401 11.3077 10.9902 11.1557 11.0906 11.0037" stroke="#FF7B00" stroke-width="0.5" stroke-linecap="round" stroke-linejoin="round"/>
<path d="M10.8397 11.0039C10.8899 10.8519 10.9902 10.6999 11.0906 10.5479Z" fill="#FFF6CC"/>
<path d="M10.8397 11.0039C10.8899 10.8519 10.9902 10.6999 11.0906 10.5479" stroke="#FF7B00" stroke-width="0.5" stroke-linecap="round" stroke-linejoin="round"/>
<path d="M11.7429 9.99039C11.8433 9.88905 11.9938 9.83838 12.1443 9.83838Z" fill="#FFF6CC"/>
<path d="M11.7429 9.99039C11.8433 9.88905 11.9938 9.83838 12.1443 9.83838" stroke="#FF7B00" stroke-width="0.5" stroke-linecap="round" stroke-linejoin="round"/>
<path d="M11.5923 9.93972C11.6926 9.88905 11.793 9.83838 11.8933 9.83838Z" fill="#FFF6CC"/>
<path d="M11.5923 9.93972C11.6926 9.88905 11.793 9.83838 11.8933 9.83838" stroke="#FF7B00" stroke-width="0.5" stroke-linecap="round" stroke-linejoin="round"/>
<path d="M11.9436 9.99048C11.9948 9.99048 11.9948 9.99048 11.9436 9.99048Z" fill="#FFF6CC"/>
<path d="M11.9436 9.99048C11.9948 9.99048 11.9948 9.99048 11.9436 9.99048" stroke="#FF7B00" stroke-width="0.5" stroke-linecap="round" stroke-linejoin="round"/>
<path d="M10.7897 10.8013C10.7897 10.7506 10.8398 10.6493 10.89 10.5986Z" fill="#FFF6CC"/>
<path d="M10.7897 10.8013C10.7897 10.7506 10.8398 10.6493 10.89 10.5986" stroke="#FF7B00" stroke-width="0.5" stroke-linecap="round" stroke-linejoin="round"/>
<path d="M11.2914 11.9159C11.2914 11.8146 11.2914 11.7639 11.3416 11.6626Z" fill="#FFF6CC"/>
<path d="M11.2914 11.9159C11.2914 11.8146 11.2914 11.7639 11.3416 11.6626" stroke="#FF7B00" stroke-width="0.5" stroke-linecap="round" stroke-linejoin="round"/>
<path d="M11.7931 12.2706V12.22Z" fill="#FFF6CC"/>
<path d="M11.7931 12.2706V12.22" stroke="#FF7B00" stroke-width="0.5" stroke-linecap="round" stroke-linejoin="round"/>
<path d="M21.3253 11.3585C21.2751 11.4599 21.2751 11.5105 21.2249 11.5612V11.6119C21.0744 11.7639 20.9239 11.8652 20.7734 11.9665C20.7734 11.9665 20.7734 12.0172 20.8236 12.0172C20.7232 12.0679 20.6229 12.1186 20.5226 12.1692C20.4222 12.2199 20.372 12.2199 20.2717 12.2706C19.9205 12.3719 19.5693 12.4226 19.2181 12.3719H19.168C19.0676 12.3719 18.9673 12.2706 18.9171 12.2199C18.8669 12.1692 18.8168 12.0679 18.8168 11.9665C18.8168 11.5612 18.9673 11.1558 19.2181 10.8518C19.3185 10.6998 19.469 10.5478 19.6195 10.4465C19.7198 10.3451 19.8202 10.2945 19.9707 10.1931H20.0209C20.1714 10.1425 20.3219 10.0918 20.4222 10.0918C20.5226 10.0918 20.6229 10.0918 20.7232 10.1425C20.8738 10.1931 20.9741 10.2438 21.0744 10.3451C21.0744 10.3451 21.0744 10.3451 21.1246 10.3958L21.2249 10.4971C21.2751 10.5478 21.2751 10.5478 21.2751 10.5985C21.4256 10.8012 21.4256 11.1052 21.3253 11.3585Z" fill="#FFF6CC" stroke="#FF7B00" stroke-width="0.5" stroke-miterlimit="10" stroke-linecap="round" stroke-linejoin="round"/>
<path d="M18.9673 11.5105C19.0175 11.5105 19.0676 11.5612 19.0676 11.5612Z" fill="#FFF6CC"/>
<path d="M18.9673 11.5105C19.0175 11.5105 19.0676 11.5612 19.0676 11.5612" stroke="#FF7B00" stroke-width="0.5" stroke-miterlimit="10" stroke-linecap="round" stroke-linejoin="round"/>
<path d="M19.0175 11.3079C19.0676 11.3079 19.0676 11.3079 19.1178 11.3585Z" fill="#FFF6CC"/>
<path d="M19.0175 11.3079C19.0676 11.3079 19.0676 11.3079 19.1178 11.3585" stroke="#FF7B00" stroke-width="0.5" stroke-miterlimit="10" stroke-linecap="round" stroke-linejoin="round"/>
<path d="M18.9673 11.4094C19.0175 11.4094 19.0175 11.4601 19.0676 11.4601Z" fill="#FFF6CC"/>
<path d="M18.9673 11.4094C19.0175 11.4094 19.0175 11.4601 19.0676 11.4601" stroke="#FF7B00" stroke-width="0.5" stroke-miterlimit="10" stroke-linecap="round" stroke-linejoin="round"/>
<path d="M19.3687 10.8518C19.4188 10.8518 19.4188 10.9025 19.469 10.9025Z" fill="#FFF6CC"/>
<path d="M19.3687 10.8518C19.4188 10.8518 19.4188 10.9025 19.469 10.9025" stroke="#FF7B00" stroke-width="0.5" stroke-miterlimit="10" stroke-linecap="round" stroke-linejoin="round"/>
<path d="M19.4188 10.7505C19.469 10.7505 19.469 10.7505 19.5192 10.8012Z" fill="#FFF6CC"/>
<path d="M19.4188 10.7505C19.469 10.7505 19.469 10.7505 19.5192 10.8012" stroke="#FF7B00" stroke-width="0.5" stroke-miterlimit="10" stroke-linecap="round" stroke-linejoin="round"/>
<path d="M19.5192 10.5479C19.5693 10.5479 19.6697 10.5985 19.7198 10.5985Z" fill="#FFF6CC"/>
<path d="M19.5192 10.5479C19.5693 10.5479 19.6697 10.5985 19.7198 10.5985" stroke="#FF7B00" stroke-width="0.5" stroke-miterlimit="10" stroke-linecap="round" stroke-linejoin="round"/>
<path d="M19.6196 10.4973C19.6698 10.4973 19.7701 10.548 19.8203 10.548Z" fill="#FFF6CC"/>
<path d="M19.6196 10.4973C19.6698 10.4973 19.7701 10.548 19.8203 10.548" stroke="#FF7B00" stroke-width="0.5" stroke-miterlimit="10" stroke-linecap="round" stroke-linejoin="round"/>
<path d="M20.0209 10.2439C20.1212 10.2439 20.1714 10.2946 20.2216 10.3452Z" fill="#FFF6CC"/>
<path d="M20.0209 10.2439C20.1212 10.2439 20.1714 10.2946 20.2216 10.3452" stroke="#FF7B00" stroke-width="0.5" stroke-miterlimit="10" stroke-linecap="round" stroke-linejoin="round"/>
<path d="M20.2717 10.1931C20.3721 10.2438 20.5226 10.2945 20.5727 10.3958Z" fill="#FFF6CC"/>
<path d="M20.2717 10.1931C20.3721 10.2438 20.5226 10.2945 20.5727 10.3958" stroke="#FF7B00" stroke-width="0.5" stroke-miterlimit="10" stroke-linecap="round" stroke-linejoin="round"/>
<path d="M20.6228 10.1931C20.7231 10.2438 20.8235 10.3451 20.9238 10.4465Z" fill="#FFF6CC"/>
<path d="M20.6228 10.1931C20.7231 10.2438 20.8235 10.3451 20.9238 10.4465" stroke="#FF7B00" stroke-width="0.5" stroke-miterlimit="10" stroke-linecap="round" stroke-linejoin="round"/>
<path d="M21.2751 11.0039C21.3253 11.1052 21.3253 11.2066 21.3253 11.2573Z" fill="#FFF6CC"/>
<path d="M21.2751 11.0039C21.3253 11.1052 21.3253 11.2066 21.3253 11.2573" stroke="#FF7B00" stroke-width="0.5" stroke-miterlimit="10" stroke-linecap="round" stroke-linejoin="round"/>
<path d="M19.8202 10.3452C19.8704 10.3452 19.9205 10.3959 19.9707 10.4466Z" fill="#FFF6CC"/>
<path d="M19.8202 10.3452C19.8704 10.3452 19.9205 10.3959 19.9707 10.4466" stroke="#FF7B00" stroke-width="0.5" stroke-miterlimit="10" stroke-linecap="round" stroke-linejoin="round"/>
<path d="M19.469 10.6492H19.5192Z" fill="#FFF6CC"/>
<path d="M19.469 10.6492H19.5192" stroke="#FF7B00" stroke-width="0.5" stroke-miterlimit="10" stroke-linecap="round" stroke-linejoin="round"/>
<path d="M18.0642 9.88916C18.0642 9.88916 17.8133 10.4972 16.6093 11.0039C16.1076 11.2065 15.6059 11.3079 15.1042 11.2065C14.3516 11.1559 13.7496 10.5479 13.6994 9.73715C13.6492 9.23046 13.9001 8.72377 14.2513 8.41976C14.6024 8.11574 15.054 8.0144 15.5055 8.0144C16.4086 8.06507 17.2615 8.41976 17.9639 9.02778C18.1144 9.12912 18.1645 9.3318 18.2147 9.4838C18.1645 9.63581 18.1144 9.78782 18.0642 9.88916Z" fill="#FFF6CC" stroke="#FF7B00" stroke-width="0.5" stroke-miterlimit="10" stroke-linecap="round" stroke-linejoin="round"/>
<path d="M17.8134 10.0412C17.7632 9.9905 17.713 9.93983 17.713 9.88916Z" fill="#FFF6CC"/>
<path d="M17.8134 10.0412C17.7632 9.9905 17.713 9.93983 17.713 9.88916" stroke="#FF7B00" stroke-width="0.5" stroke-miterlimit="10" stroke-linecap="round" stroke-linejoin="round"/>
<path d="M17.5625 10.3453C17.5123 10.2946 17.4622 10.2439 17.4622 10.1426Z" fill="#FFF6CC"/>
<path d="M17.5625 10.3453C17.5123 10.2946 17.4622 10.2439 17.4622 10.1426" stroke="#FF7B00" stroke-width="0.5" stroke-miterlimit="10" stroke-linecap="round" stroke-linejoin="round"/>
<path d="M17.7135 10.1932C17.7135 10.1932 17.6622 10.1425 17.7135 10.1932Z" fill="#FFF6CC"/>
<path d="M17.7135 10.1932C17.7135 10.1932 17.6622 10.1425 17.7135 10.1932" stroke="#FF7B00" stroke-width="0.5" stroke-miterlimit="10" stroke-linecap="round" stroke-linejoin="round"/>
<path d="M17.3116 10.5479C17.2615 10.4972 17.2615 10.4972 17.2113 10.4465Z" fill="#FFF6CC"/>
<path d="M17.3116 10.5479C17.2615 10.4972 17.2615 10.4972 17.2113 10.4465" stroke="#FF7B00" stroke-width="0.5" stroke-miterlimit="10" stroke-linecap="round" stroke-linejoin="round"/>
<path d="M17.4119 10.4467C17.3617 10.396 17.3617 10.3453 17.3115 10.2947Z" fill="#FFF6CC"/>
<path d="M17.4119 10.4467C17.3617 10.396 17.3617 10.3453 17.3115 10.2947" stroke="#FF7B00" stroke-width="0.5" stroke-miterlimit="10" stroke-linecap="round" stroke-linejoin="round"/>
<path d="M16.4587 10.8517C16.4086 10.801 16.4086 10.7504 16.3584 10.6997Z" fill="#FFF6CC"/>
<path d="M16.4587 10.8517C16.4086 10.801 16.4086 10.7504 16.3584 10.6997" stroke="#FF7B00" stroke-width="0.5" stroke-miterlimit="10" stroke-linecap="round" stroke-linejoin="round"/>
<path d="M16.2581 10.9533C16.2079 10.9026 16.2079 10.8519 16.1577 10.8013Z" fill="#FFF6CC"/>
<path d="M16.2581 10.9533C16.2079 10.9026 16.2079 10.8519 16.1577 10.8013" stroke="#FF7B00" stroke-width="0.5" stroke-miterlimit="10" stroke-linecap="round" stroke-linejoin="round"/>
<path d="M16.0072 11.1052C15.9069 11.0545 15.8567 10.9531 15.8065 10.8518Z" fill="#FFF6CC"/>
<path d="M16.0072 11.1052C15.9069 11.0545 15.8567 10.9531 15.8065 10.8518" stroke="#FF7B00" stroke-width="0.5" stroke-miterlimit="10" stroke-linecap="round" stroke-linejoin="round"/>
<path d="M15.8065 11.0546C15.7062 11.0039 15.656 10.9026 15.6058 10.8013Z" fill="#FFF6CC"/>
<path d="M15.8065 11.0546C15.7062 11.0039 15.656 10.9026 15.6058 10.8013" stroke="#FF7B00" stroke-width="0.5" stroke-miterlimit="10" stroke-linecap="round" stroke-linejoin="round"/>
<path d="M15.054 11.0545C14.9536 10.9532 14.9034 10.8518 14.8533 10.7505Z" fill="#FFF6CC"/>
<path d="M15.054 11.0545C14.9536 10.9532 14.9034 10.8518 14.8533 10.7505" stroke="#FF7B00" stroke-width="0.5" stroke-miterlimit="10" stroke-linecap="round" stroke-linejoin="round"/>
<path d="M14.452 10.8012C14.4019 10.7505 14.3517 10.6998 14.3517 10.6492Z" fill="#FFF6CC"/>
<path d="M14.452 10.8012C14.4019 10.7505 14.3517 10.6998 14.3517 10.6492" stroke="#FF7B00" stroke-width="0.5" stroke-miterlimit="10" stroke-linecap="round" stroke-linejoin="round"/>
<path d="M15.1543 11.0545C15.054 10.9532 14.9536 10.8012 14.9034 10.6492Z" fill="#FFF6CC"/>
<path d="M15.1543 11.0545C15.054 10.9532 14.9536 10.8012 14.9034 10.6492" stroke="#FF7B00" stroke-width="0.5" stroke-miterlimit="10" stroke-linecap="round" stroke-linejoin="round"/>
<path d="M14.8533 11.0039C14.7028 10.8012 14.6526 10.5986 14.6024 10.3452Z" fill="#FFF6CC"/>
<path d="M14.8533 11.0039C14.7028 10.8012 14.6526 10.5986 14.6024 10.3452" stroke="#FF7B00" stroke-width="0.5" stroke-miterlimit="10" stroke-linecap="round" stroke-linejoin="round"/>
<path d="M14.6526 10.9026C14.5522 10.7506 14.4519 10.5479 14.4017 10.3452Z" fill="#FFF6CC"/>
<path d="M14.6526 10.9026C14.5522 10.7506 14.4519 10.5479 14.4017 10.3452" stroke="#FF7B00" stroke-width="0.5" stroke-miterlimit="10" stroke-linecap="round" stroke-linejoin="round"/>
<path d="M14.201 10.6493C14.1007 10.4466 14.0505 10.2439 14.0505 10.0413Z" fill="#FFF6CC"/>
<path d="M14.201 10.6493C14.1007 10.4466 14.0505 10.2439 14.0505 10.0413" stroke="#FF7B00" stroke-width="0.5" stroke-miterlimit="10" stroke-linecap="round" stroke-linejoin="round"/>
<path d="M14.201 8.92648C14.2512 8.77447 14.3516 8.5718 14.4519 8.47046Z" fill="#FFF6CC"/>
<path d="M14.201 8.92648C14.2512 8.77447 14.3516 8.5718 14.4519 8.47046" stroke="#FF7B00" stroke-width="0.5" stroke-miterlimit="10" stroke-linecap="round" stroke-linejoin="round"/>
<path d="M14.0505 8.97713C14.1007 8.82512 14.1509 8.72378 14.2512 8.57178Z" fill="#FFF6CC"/>
<path d="M14.0505 8.97713C14.1007 8.82512 14.1509 8.72378 14.2512 8.57178" stroke="#FF7B00" stroke-width="0.5" stroke-miterlimit="10" stroke-linecap="round" stroke-linejoin="round"/>
<path d="M14.452 8.72377V8.6731Z" fill="#FFF6CC"/>
<path d="M14.452 8.72377V8.6731" stroke="#FF7B00" stroke-width="0.5" stroke-miterlimit="10" stroke-linecap="round" stroke-linejoin="round"/>
<path d="M14.6526 8.41981V8.36914Z" fill="#FFF6CC"/>
<path d="M14.6526 8.41981V8.36914" stroke="#FF7B00" stroke-width="0.5" stroke-miterlimit="10" stroke-linecap="round" stroke-linejoin="round"/>
<path d="M14.0507 10.4465C14.0005 10.3451 14.0005 10.2438 14.0005 10.1931Z" fill="#FFF6CC"/>
<path d="M14.0507 10.4465C14.0005 10.3451 14.0005 10.2438 14.0005 10.1931" stroke="#FF7B00" stroke-width="0.5" stroke-miterlimit="10" stroke-linecap="round" stroke-linejoin="round"/>
<path d="M15.4051 11.0546C15.355 11.0039 15.3048 10.9026 15.2546 10.8013Z" fill="#FFF6CC"/>
<path d="M15.4051 11.0546C15.355 11.0039 15.3048 10.9026 15.2546 10.8013" stroke="#FF7B00" stroke-width="0.5" stroke-miterlimit="10" stroke-linecap="round" stroke-linejoin="round"/>
<path d="M16.1075 11.0039C16.0574 10.9533 16.0574 10.9533 16.0574 10.9026Z" fill="#FFF6CC"/>
<path d="M16.1075 11.0039C16.0574 10.9533 16.0574 10.9533 16.0574 10.9026" stroke="#FF7B00" stroke-width="0.5" stroke-miterlimit="10" stroke-linecap="round" stroke-linejoin="round"/>
<g opacity="0.2">
<path opacity="0.2" d="M16.5591 11.2572L16.5089 11.1558C16.3082 10.8011 16.1075 10.4971 15.8065 10.2438C15.6058 10.0918 15.4051 9.88909 15.2045 9.78775C14.8533 9.53441 14.4519 9.33173 14.0004 9.17973C13.9502 9.17973 13.9 9.12906 13.8499 9.12906C13.6993 9.07839 13.599 9.02772 13.4485 9.02772H13.3983C13.2478 8.97705 13.0471 8.97705 12.8465 8.97705C12.6458 8.97705 12.4953 9.02772 12.3448 9.12906C12.2444 9.17973 12.1441 9.28106 12.0939 9.3824L12.0437 9.43307C11.9936 9.53441 11.9936 9.58508 11.9434 9.68642C11.9434 9.78775 11.8932 9.83842 11.8932 9.93976C11.8932 10.0411 11.8932 10.0411 11.8932 10.0918C11.8431 11.0038 11.9936 11.8652 12.3949 12.6759V12.7266L12.4451 12.7772V12.7266H12.5454H12.6458H12.7461H12.8465C12.8966 12.7266 12.997 12.7266 13.0471 12.7266C13.0471 12.7266 13.0471 12.7266 13.0471 12.7772H13.0973H13.1475C13.3482 12.8279 13.5488 12.8786 13.7495 12.9292L13.8499 12.9799L14.1007 13.0812H14.2011C14.6526 13.0306 15.0539 12.9799 15.4553 12.9292C15.4553 12.9292 15.4553 12.9292 15.4553 12.9799L15.5055 12.9292H15.5556C15.7563 12.9292 15.957 12.9292 16.1075 12.9292H16.1577C16.1577 12.9292 16.1577 12.9292 16.1577 12.9799L16.1075 13.0306L16.1577 13.0812V12.9292L16.2079 12.8786H16.6092C16.6594 12.7772 16.7096 12.6759 16.7096 12.5239V12.4732C16.8601 12.0679 16.7597 11.6625 16.5591 11.2572Z" fill="#FFF6CC" stroke="#FF7B00" stroke-width="0.5" stroke-linecap="round" stroke-linejoin="round"/>
<g opacity="0.2">
<path d="M13.2479 9.07837C13.2479 9.17971 13.1978 9.23037 13.1476 9.28104Z" fill="#FFF6CC"/>
<path d="M13.2479 9.07837C13.2479 9.17971 13.1978 9.23037 13.1476 9.28104" stroke="#FF7B00" stroke-width="0.5" stroke-linecap="round" stroke-linejoin="round"/>
</g>
<g opacity="0.2">
<path d="M13.7495 9.17969C13.7495 9.28103 13.6993 9.38236 13.599 9.43303Z" fill="#FFF6CC"/>
<path d="M13.7495 9.17969C13.7495 9.28103 13.6993 9.38236 13.599 9.43303" stroke="#FF7B00" stroke-width="0.5" stroke-linecap="round" stroke-linejoin="round"/>
</g>
<g opacity="0.2">
<path d="M13.4486 9.07837C13.4486 9.12904 13.4486 9.12904 13.4486 9.17971Z" fill="#FFF6CC"/>
<path d="M13.4486 9.07837C13.4486 9.12904 13.4486 9.12904 13.4486 9.17971" stroke="#FF7B00" stroke-width="0.5" stroke-linecap="round" stroke-linejoin="round"/>
</g>
<g opacity="0.2">
<path d="M14.201 9.28101C14.201 9.33168 14.201 9.38234 14.1509 9.43301Z" fill="#FFF6CC"/>
<path d="M14.201 9.28101C14.201 9.33168 14.201 9.38234 14.1509 9.43301" stroke="#FF7B00" stroke-width="0.5" stroke-linecap="round" stroke-linejoin="round"/>
</g>
<g opacity="0.2">
<path d="M14.0004 9.23022C14.0004 9.28089 13.9502 9.38223 13.9 9.38223Z" fill="#FFF6CC"/>
<path d="M14.0004 9.23022C14.0004 9.28089 13.9502 9.38223 13.9 9.38223" stroke="#FF7B00" stroke-width="0.5" stroke-linecap="round" stroke-linejoin="round"/>
</g>
<g opacity="0.2">
<path d="M15.1543 9.99023C15.1543 10.0409 15.1041 10.0916 15.054 10.1422Z" fill="#FFF6CC"/>
<path d="M15.1543 9.99023C15.1543 10.0409 15.1041 10.0916 15.054 10.1422" stroke="#FF7B00" stroke-width="0.5" stroke-linecap="round" stroke-linejoin="round"/>
</g>
<g opacity="0.2">
<path d="M15.4053 10.0918C15.4053 10.1425 15.3551 10.2438 15.3049 10.2945Z" fill="#FFF6CC"/>
<path d="M15.4053 10.0918C15.4053 10.1425 15.3551 10.2438 15.3049 10.2945" stroke="#FF7B00" stroke-width="0.5" stroke-linecap="round" stroke-linejoin="round"/>
</g>
<g opacity="0.2">
<path d="M15.7563 10.345C15.7563 10.497 15.7062 10.5983 15.6058 10.6997Z" fill="#FFF6CC"/>
<path d="M15.7563 10.345C15.7563 10.497 15.7062 10.5983 15.6058 10.6997" stroke="#FF7B00" stroke-width="0.5" stroke-linecap="round" stroke-linejoin="round"/>
</g>
<g opacity="0.2">
<path d="M15.8567 10.5479C15.8567 10.6999 15.8065 10.8012 15.7062 10.9025Z" fill="#FFF6CC"/>
<path d="M15.8567 10.5479C15.8567 10.6999 15.8065 10.8012 15.7062 10.9025" stroke="#FF7B00" stroke-width="0.5" stroke-linecap="round" stroke-linejoin="round"/>
</g>
<g opacity="0.2">
<path d="M16.4587 11.4092C16.4086 11.5612 16.3584 11.7132 16.2581 11.8145Z" fill="#FFF6CC"/>
<path d="M16.4587 11.4092C16.4086 11.5612 16.3584 11.7132 16.2581 11.8145" stroke="#FF7B00" stroke-width="0.5" stroke-linecap="round" stroke-linejoin="round"/>
</g>
<g opacity="0.2">
<path d="M16.5591 12.1692C16.5591 12.2705 16.5089 12.3212 16.4086 12.4225Z" fill="#FFF6CC"/>
<path d="M16.5591 12.1692C16.5591 12.2705 16.5089 12.3212 16.4086 12.4225" stroke="#FF7B00" stroke-width="0.5" stroke-linecap="round" stroke-linejoin="round"/>
</g>
<g opacity="0.2">
<path d="M16.3082 11.2571C16.2581 11.4598 16.1577 11.6624 16.0072 11.8144Z" fill="#FFF6CC"/>
<path d="M16.3082 11.2571C16.2581 11.4598 16.1577 11.6624 16.0072 11.8144" stroke="#FF7B00" stroke-width="0.5" stroke-linecap="round" stroke-linejoin="round"/>
</g>
<g opacity="0.2">
<path d="M16.5089 11.6116C16.4086 11.8649 16.2079 12.1183 15.957 12.3209Z" fill="#FFF6CC"/>
<path d="M16.5089 11.6116C16.4086 11.8649 16.2079 12.1183 15.957 12.3209" stroke="#FF7B00" stroke-width="0.5" stroke-linecap="round" stroke-linejoin="round"/>
</g>
<g opacity="0.2">
<path d="M16.5089 11.9158C16.4086 12.1691 16.2581 12.3718 16.1075 12.5745Z" fill="#FFF6CC"/>
<path d="M16.5089 11.9158C16.4086 12.1691 16.2581 12.3718 16.1075 12.5745" stroke="#FF7B00" stroke-width="0.5" stroke-linecap="round" stroke-linejoin="round"/>
</g>
<path opacity="0.2" d="M16.5591 12.5745C16.5591 12.5745 16.5089 12.6251 16.4587 12.6758C16.4086 12.7265 16.3584 12.8278 16.3082 12.8785L16.2581 12.9291L16.2079 12.9798L16.2581 12.9291L16.3082 12.8785L16.4587 12.7265L16.5591 12.5745Z" fill="#FFF6CC" stroke="#FF7B00" stroke-width="0.5" stroke-linecap="round" stroke-linejoin="round"/>
<g opacity="0.2">
<path d="M16.2079 11.0037C16.1577 11.1557 16.1075 11.257 16.0072 11.3583Z" fill="#FFF6CC"/>
<path d="M16.2079 11.0037C16.1577 11.1557 16.1075 11.257 16.0072 11.3583" stroke="#FF7B00" stroke-width="0.5" stroke-linecap="round" stroke-linejoin="round"/>
</g>
<g opacity="0.2">
<path d="M15.5557 10.2944C15.5557 10.3451 15.5557 10.3958 15.5055 10.3958Z" fill="#FFF6CC"/>
<path d="M15.5557 10.2944C15.5557 10.3451 15.5557 10.3958 15.5055 10.3958" stroke="#FF7B00" stroke-width="0.5" stroke-linecap="round" stroke-linejoin="round"/>
</g>
</g>
<path d="M16.6092 11.1559C16.6092 11.1052 16.6092 11.0545 16.5591 11.0039C16.4086 10.6492 16.1577 10.2945 15.8567 10.0412C15.656 9.83848 15.4553 9.68647 15.2546 9.53447C14.9035 9.28112 14.5021 9.07845 14.0506 8.87577L13.9001 8.8251C13.7495 8.77443 13.599 8.72376 13.4987 8.72376H13.4485C13.298 8.6731 13.0973 8.6731 12.8967 8.6731C12.696 8.6731 12.5455 8.72376 12.3949 8.8251C12.2946 8.87577 12.1943 8.97711 12.1441 9.12912V9.17979C12.0939 9.28112 12.0939 9.33179 12.0438 9.43313C12.0438 9.53447 11.9936 9.58514 11.9936 9.68647V9.83848C11.8932 10.8012 12.0939 11.7132 12.4953 12.5746V12.6253L12.5455 12.6759V12.6253H12.6458H12.7461H12.8465H12.9468C12.997 12.6253 13.0973 12.6253 13.1475 12.6253C13.1475 12.6253 13.1475 12.6253 13.1475 12.6759H13.1977H13.2478C13.4485 12.7266 13.6492 12.7773 13.8499 12.8786L13.9502 12.9293C14.0506 12.98 14.1007 12.98 14.2011 13.0306H14.3014C14.7028 12.98 15.1543 12.9293 15.5557 12.8786V12.9293C15.5557 12.9293 15.5557 12.9293 15.6058 12.8786H15.656H16.2079H16.2581C16.2581 12.8786 16.2581 12.8786 16.2581 12.9293L16.2079 12.98L16.2581 13.0306C16.2581 12.98 16.2581 12.98 16.2581 12.9293L16.3082 12.8786C16.3082 12.8786 16.3082 12.8786 16.3584 12.8279C16.5089 12.8279 16.6092 12.8279 16.7598 12.8279C16.8099 12.7266 16.8601 12.5746 16.8601 12.4733V12.4226C16.9103 12.0172 16.8099 11.5612 16.6092 11.1559Z" fill="#FFF6CC" stroke="#FF7B00" stroke-width="0.5" stroke-miterlimit="10"/>
<path d="M13.2479 8.82495C13.2479 8.92629 13.1978 8.97696 13.1476 9.0783Z" fill="#FFF6CC"/>
<path d="M13.2479 8.82495C13.2479 8.92629 13.1978 8.97696 13.1476 9.0783" stroke="#FF7B00" stroke-width="0.5" stroke-miterlimit="10" stroke-linecap="round" stroke-linejoin="round"/>
<path d="M13.7997 8.92627C13.7997 9.02761 13.7495 9.12895 13.6492 9.17962Z" fill="#FFF6CC"/>
<path d="M13.7997 8.92627C13.7997 9.02761 13.7495 9.12895 13.6492 9.17962" stroke="#FF7B00" stroke-width="0.5" stroke-miterlimit="10" stroke-linecap="round" stroke-linejoin="round"/>
<path d="M13.4987 8.82495C13.4987 8.87562 13.4987 8.87562 13.4485 8.92629Z" fill="#FFF6CC"/>
<path d="M13.4987 8.82495C13.4987 8.87562 13.4987 8.87562 13.4485 8.92629" stroke="#FF7B00" stroke-width="0.5" stroke-miterlimit="10" stroke-linecap="round" stroke-linejoin="round"/>
<path d="M14.201 9.07837C14.201 9.12904 14.201 9.17971 14.1509 9.23038Z" fill="#FFF6CC"/>
<path d="M14.201 9.07837C14.201 9.12904 14.201 9.17971 14.1509 9.23038" stroke="#FF7B00" stroke-width="0.5" stroke-miterlimit="10" stroke-linecap="round" stroke-linejoin="round"/>
<path d="M14.0505 9.02759C14.0505 9.07826 14.0004 9.17959 13.9502 9.23026Z" fill="#FFF6CC"/>
<path d="M14.0505 9.02759C14.0505 9.07826 14.0004 9.17959 13.9502 9.23026" stroke="#FF7B00" stroke-width="0.5" stroke-miterlimit="10" stroke-linecap="round" stroke-linejoin="round"/>
<path d="M15.2045 9.83813C15.2045 9.8888 15.1543 9.99014 15.1041 10.0408Z" fill="#FFF6CC"/>
<path d="M15.2045 9.83813C15.2045 9.8888 15.1543 9.99014 15.1041 10.0408" stroke="#FF7B00" stroke-width="0.5" stroke-miterlimit="10" stroke-linecap="round" stroke-linejoin="round"/>
<path d="M15.4051 9.9397C15.4051 9.99037 15.355 10.0917 15.3048 10.1424Z" fill="#FFF6CC"/>
<path d="M15.4051 9.9397C15.4051 9.99037 15.355 10.0917 15.3048 10.1424" stroke="#FF7B00" stroke-width="0.5" stroke-miterlimit="10" stroke-linecap="round" stroke-linejoin="round"/>
<path d="M15.8065 10.1929C15.8065 10.3449 15.7563 10.4969 15.656 10.5982Z" fill="#FFF6CC"/>
<path d="M15.8065 10.1929C15.8065 10.3449 15.7563 10.4969 15.656 10.5982" stroke="#FF7B00" stroke-width="0.5" stroke-miterlimit="10" stroke-linecap="round" stroke-linejoin="round"/>
<path d="M15.9069 10.3958C15.9069 10.5478 15.8567 10.6998 15.7563 10.8011Z" fill="#FFF6CC"/>
<path d="M15.9069 10.3958C15.9069 10.5478 15.8567 10.6998 15.7563 10.8011" stroke="#FF7B00" stroke-width="0.5" stroke-miterlimit="10" stroke-linecap="round" stroke-linejoin="round"/>
<path d="M16.4587 11.3076C16.4086 11.4596 16.3584 11.6116 16.2581 11.713Z" fill="#FFF6CC"/>
<path d="M16.4587 11.3076C16.4086 11.4596 16.3584 11.6116 16.2581 11.713" stroke="#FF7B00" stroke-width="0.5" stroke-miterlimit="10" stroke-linecap="round" stroke-linejoin="round"/>
<path d="M16.6093 12.1692C16.6093 12.2705 16.5591 12.3212 16.5089 12.4225Z" fill="#FFF6CC"/>
<path d="M16.6093 12.1692C16.6093 12.2705 16.5591 12.3212 16.5089 12.4225" stroke="#FF7B00" stroke-width="0.5" stroke-miterlimit="10" stroke-linecap="round" stroke-linejoin="round"/>
<path d="M16.3584 11.1558C16.3082 11.3584 16.2079 11.5611 16.0574 11.7638Z" fill="#FFF6CC"/>
<path d="M16.3584 11.1558C16.3082 11.3584 16.2079 11.5611 16.0574 11.7638" stroke="#FF7B00" stroke-width="0.5" stroke-miterlimit="10" stroke-linecap="round" stroke-linejoin="round"/>
<path d="M16.5591 11.561C16.4587 11.865 16.2581 12.1184 16.0072 12.3211Z" fill="#FFF6CC"/>
<path d="M16.5591 11.561C16.4587 11.865 16.2581 12.1184 16.0072 12.3211" stroke="#FF7B00" stroke-width="0.5" stroke-miterlimit="10" stroke-linecap="round" stroke-linejoin="round"/>
<path d="M16.559 11.8145C16.4586 12.0678 16.3081 12.3211 16.1576 12.4732Z" fill="#FFF6CC"/>
<path d="M16.559 11.8145C16.4586 12.0678 16.3081 12.3211 16.1576 12.4732" stroke="#FF7B00" stroke-width="0.5" stroke-miterlimit="10" stroke-linecap="round" stroke-linejoin="round"/>
<path d="M16.2079 10.9023C16.1577 11.0544 16.1075 11.1557 16.0072 11.257Z" fill="#FFF6CC"/>
<path d="M16.2079 10.9023C16.1577 11.0544 16.1075 11.1557 16.0072 11.257" stroke="#FF7B00" stroke-width="0.5" stroke-miterlimit="10" stroke-linecap="round" stroke-linejoin="round"/>
<path d="M15.6058 10.1423C15.6058 10.193 15.6058 10.2437 15.5557 10.2437Z" fill="#FFF6CC"/>
<path d="M15.6058 10.1423C15.6058 10.193 15.6058 10.2437 15.5557 10.2437" stroke="#FF7B00" stroke-width="0.5" stroke-miterlimit="10" stroke-linecap="round" stroke-linejoin="round"/>
<path d="M19.9706 9.63575C19.9706 9.48374 19.8703 9.33173 19.77 9.2304C19.6194 9.07839 19.4188 8.97705 19.1679 8.97705C18.7164 8.97705 18.315 8.97705 17.9137 9.07839C17.2113 9.2304 16.6092 9.53441 16.0072 9.93976L15.8567 10.0411C15.6058 10.2944 15.4051 10.5478 15.2546 10.9025C15.2045 11.0038 15.1543 11.1051 15.1543 11.2572V11.3078C15.054 11.8652 15.2045 12.4732 15.5557 12.9292L15.6058 12.9799C15.6058 12.9799 15.6058 12.9799 15.656 12.9292H15.7062H16.258H16.3082C16.3082 12.9292 16.3082 12.9292 16.3082 12.9799L16.258 13.0306L16.3082 13.0812C16.3082 13.0306 16.3082 13.0306 16.3082 12.9799L16.3584 12.9292C16.3584 12.9292 16.3584 12.9292 16.4086 12.8786C16.5591 12.8786 16.6594 12.8786 16.8099 12.8786H17.0608L17.3618 12.9292H17.412C17.6126 12.9799 17.8133 12.9799 18.014 13.0306L17.9638 13.0812L17.8635 13.1826H17.9137L18.014 13.1319L18.0642 13.0812H18.1143C18.2648 12.9799 18.4154 12.9292 18.616 12.8279L18.8167 12.7266L18.8669 12.6759C18.9171 12.6252 18.9171 12.6252 18.9672 12.5745C19.0174 12.5239 19.0676 12.4225 19.1679 12.3212C19.2683 12.1692 19.3686 12.0172 19.4188 11.9159C19.6696 11.4598 19.8703 10.9531 19.9205 10.4465C19.9205 10.3958 19.9205 10.3451 19.9205 10.3451C19.9205 10.2944 19.9205 10.2438 19.9205 10.1931C20.0208 9.99043 20.0208 9.78775 19.9706 9.63575Z" fill="#FFF6CC"/>
<path d="M16.258 12.9799V13.0306M16.258 13.0306L16.3082 12.9799M16.258 13.0306L16.3082 13.0812C16.3082 13.0306 16.3082 13.0306 16.3082 12.9799M16.3082 12.9799C16.3082 12.9292 16.3082 12.9292 16.3082 12.9292H16.258H15.7062H15.656C15.6058 12.9799 15.6058 12.9799 15.6058 12.9799L15.5557 12.9292C15.2045 12.4732 15.054 11.8652 15.1543 11.3078V11.2572C15.1543 11.1051 15.2045 11.0038 15.2546 10.9025C15.4051 10.5478 15.6058 10.2944 15.8567 10.0411L16.0072 9.93976C16.6092 9.53441 17.2113 9.2304 17.9137 9.07839C18.315 8.97705 18.7164 8.97705 19.1679 8.97705C19.4188 8.97705 19.6194 9.07839 19.77 9.2304C19.8703 9.33173 19.9706 9.48374 19.9706 9.63575C20.0208 9.78775 20.0208 9.99043 19.9205 10.1931C19.9205 10.2438 19.9205 10.2944 19.9205 10.3451C19.9205 10.3451 19.9205 10.3958 19.9205 10.4465C19.8703 10.9531 19.6696 11.4598 19.4188 11.9159C19.3686 12.0172 19.2683 12.1692 19.1679 12.3212C19.0676 12.4225 19.0174 12.5239 18.9672 12.5745C18.9171 12.6252 18.9171 12.6252 18.8669 12.6759L18.8167 12.7266L18.616 12.8279C18.4154 12.9292 18.2648 12.9799 18.1143 13.0812H18.0642L18.014 13.1319L17.9137 13.1826M16.3082 12.9799L16.3584 12.9292C16.3584 12.9292 16.3584 12.9292 16.4086 12.8786C16.5591 12.8786 16.6594 12.8786 16.8099 12.8786H17.0608L17.3618 12.9292H17.412C17.6126 12.9799 17.8133 12.9799 18.014 13.0306L17.9638 13.0812L17.8635 13.1826M17.8635 13.1826L17.7631 13.2332M17.8635 13.1826H17.9137M17.9137 13.1826H17.9638" stroke="#FF7B00" stroke-width="0.5" stroke-miterlimit="10" stroke-linecap="round" stroke-linejoin="round"/>
<path d="M19.9204 13.3854C19.9204 13.3854 20.4221 13.2334 21.3252 13.3854C21.3252 13.3854 20.4221 12.8787 19.7197 13.132C19.7197 13.132 20.0207 12.7267 20.5224 12.676C20.5224 12.676 19.4187 12.676 18.9672 13.0307C18.9672 13.0307 19.5692 12.372 19.9204 12.372C19.9204 12.372 17.8133 12.8787 17.3617 13.2334C17.3617 13.2334 17.9638 12.372 18.616 12.2706C18.616 12.2706 17.3116 12.372 16.3081 13.132C16.3081 13.132 17.2614 11.8146 17.5624 11.5613C17.5624 11.5613 16.1576 12.068 15.8064 12.676C15.8064 12.676 15.5054 12.3213 15.8064 12.0173C15.8064 12.0173 15.6058 12.068 15.4553 12.7773C15.4553 12.7773 14.9536 12.068 14.5522 12.1693C14.5522 12.1693 15.1041 12.676 15.1041 13.132C15.1041 13.132 14.1508 12.1693 13.599 12.3213C13.599 12.3213 14.201 12.7773 14.3013 13.1827C14.3013 13.1827 13.2478 11.9666 12.5454 12.068C12.5454 12.068 13.0471 12.4227 13.0973 12.676C13.0973 12.676 11.9935 11.7133 10.7393 12.4733C10.7393 12.4733 11.9935 12.524 12.1942 12.9293" fill="#FFF6CC"/>
<path d="M19.9204 13.3854C19.9204 13.3854 20.4221 13.2334 21.3252 13.3854C21.3252 13.3854 20.4221 12.8787 19.7197 13.132C19.7197 13.132 20.0207 12.7267 20.5224 12.676C20.5224 12.676 19.4187 12.676 18.9672 13.0307C18.9672 13.0307 19.5692 12.372 19.9204 12.372C19.9204 12.372 17.8133 12.8787 17.3617 13.2334C17.3617 13.2334 17.9638 12.372 18.616 12.2706C18.616 12.2706 17.3116 12.372 16.3081 13.132C16.3081 13.132 17.2614 11.8146 17.5624 11.5613C17.5624 11.5613 16.1576 12.068 15.8064 12.676C15.8064 12.676 15.5054 12.3213 15.8064 12.0173C15.8064 12.0173 15.6058 12.068 15.4553 12.7773C15.4553 12.7773 14.9536 12.068 14.5522 12.1693C14.5522 12.1693 15.1041 12.676 15.1041 13.132C15.1041 13.132 14.1508 12.1693 13.599 12.3213C13.599 12.3213 14.201 12.7773 14.3013 13.1827C14.3013 13.1827 13.2478 11.9666 12.5454 12.068C12.5454 12.068 13.0471 12.4227 13.0973 12.676C13.0973 12.676 11.9935 11.7133 10.7393 12.4733C10.7393 12.4733 11.9935 12.524 12.1942 12.9293" stroke="#FF7B00" stroke-width="0.5" stroke-miterlimit="10"/>
<path d="M38.5118 26.2915C37.3077 25.5821 36.3545 24.5687 35.6521 23.3527C34.8996 21.9846 34.5484 20.4139 34.5484 18.8432C34.4982 17.2724 34.8996 15.7017 35.6521 14.3336C36.3043 13.1176 37.3077 12.1042 38.5118 11.3948C39.6156 10.7361 40.92 10.3814 42.2244 10.3814C44.2814 10.3814 46.238 11.2428 47.5926 12.8135V5.0612C47.5926 4.65585 47.7431 4.30116 47.994 3.99715C48.2448 3.7438 48.6462 3.5918 48.9974 3.5918C49.3988 3.5918 49.75 3.7438 50.0008 3.99715C50.2517 4.25049 50.4022 4.65585 50.4022 5.01053V25.6835C50.4022 26.4435 49.8001 27.1022 48.9974 27.1022C48.9974 27.1022 48.9974 27.1022 48.9472 27.1022C48.596 27.1022 48.1947 26.9502 47.9438 26.6968C47.6428 26.4435 47.4923 26.0888 47.5425 25.6835V24.8728C46.1879 26.3928 44.2312 27.3049 42.1743 27.3049C40.92 27.3049 39.6156 26.9502 38.5118 26.2915ZM45.335 23.9607C46.1879 23.5047 46.9404 22.9473 47.5926 22.238V15.5497C46.9404 14.8403 46.1879 14.2323 45.335 13.8269C44.4821 13.3709 43.579 13.1176 42.6258 13.1176C41.221 13.0669 39.8664 13.6242 38.863 14.6376C37.9098 15.651 37.4583 17.0697 37.4583 18.8432C37.4583 20.6672 37.9098 22.086 38.863 23.0487C39.8163 24.0621 41.221 24.6194 42.6258 24.5687C43.579 24.6194 44.4821 24.4167 45.335 23.9607Z" stroke="#FF7B00" stroke-miterlimit="10"/>
<path d="M55.6699 7.13875C55.3689 6.83474 55.1682 6.42939 55.2184 5.97336V5.82136C55.2184 4.90932 55.9208 4.19995 56.8238 4.19995H57.0245C57.9276 4.19995 58.6299 4.90932 58.6299 5.82136V5.97336C58.6299 6.88541 57.9276 7.59477 57.0245 7.59477H56.8238C56.3723 7.59477 55.9709 7.44277 55.6699 7.13875ZM55.8204 26.8996C55.5696 26.6463 55.4191 26.2916 55.4191 25.8863V12.2056C55.4191 11.851 55.5696 11.4456 55.8204 11.1923C56.0713 10.8883 56.4225 10.7362 56.8238 10.7362C57.2252 10.7362 57.5764 10.8883 57.8774 11.1416C58.1282 11.3949 58.2788 11.8003 58.2788 12.2056V25.8356C58.2788 26.2409 58.1282 26.5956 57.8774 26.849C57.6265 27.1023 57.2252 27.2543 56.874 27.2543C56.4726 27.305 56.1214 27.153 55.8204 26.8996Z" stroke="#FF7B00" stroke-miterlimit="10"/>
<path d="M65.9047 26.8997C65.6539 26.6463 65.5034 26.241 65.5034 25.8863C65.5034 25.7343 65.5535 25.5316 65.6037 25.3796L67.6607 20.0594L61.7406 5.51737C61.6403 5.31469 61.6403 5.11202 61.5901 4.90934C61.5901 4.55466 61.7406 4.14931 61.9914 3.89596C62.2423 3.59195 62.5935 3.43994 62.9949 3.43994C63.2959 3.43994 63.5467 3.54128 63.7976 3.69329C63.9983 3.84529 64.1989 4.09864 64.2993 4.35198L69.1658 16.5125L74.1326 4.40265C74.3333 3.84529 74.835 3.43994 75.4371 3.43994C75.8384 3.43994 76.1896 3.59195 76.4405 3.89596C76.6913 4.14931 76.8418 4.55466 76.8418 4.90934C76.8418 5.11202 76.7917 5.26402 76.7415 5.4667L68.1624 26.2916C67.9617 26.849 67.46 27.2544 66.858 27.2544C66.5068 27.305 66.1556 27.153 65.9047 26.8997Z" stroke="#FF7B00" stroke-miterlimit="10"/>
<path d="M81.1565 25.0755C79.7517 23.6061 78.9991 21.5287 78.9991 18.8433C78.9991 17.4245 79.25 16.0058 79.8019 14.6884C80.3036 13.4217 81.2066 12.3576 82.3104 11.5976C83.5646 10.7869 85.0196 10.3815 86.5247 10.4322C87.9294 10.3815 89.3342 10.7869 90.5383 11.5469C91.642 12.2563 92.5451 13.2697 93.097 14.4857C93.699 15.7525 94 17.1205 94 18.4886C94 19.2486 93.398 19.9073 92.6454 19.9073C92.5953 19.9073 92.5451 19.9073 92.5451 19.9073H81.8588C81.9592 21.2247 82.5612 22.4914 83.5145 23.4035C84.4175 24.2142 85.7219 24.6195 87.3776 24.6195C88.8325 24.6702 90.3376 24.3155 91.642 23.6568C91.8427 23.5555 91.9932 23.5048 92.1939 23.5048C92.5451 23.5048 92.8461 23.6061 93.097 23.8595C93.3478 24.0622 93.4983 24.4169 93.4983 24.7715C93.4482 25.2782 93.1471 25.7342 92.6956 25.9369C91.04 26.9503 89.1335 27.4063 87.1769 27.3557C84.6182 27.305 82.6114 26.5449 81.1565 25.0755ZM91.1905 17.5259C91.1403 16.6138 90.8895 15.7018 90.3878 14.9418C89.9362 14.2831 89.3342 13.7764 88.6318 13.4217C87.2772 12.763 85.7219 12.763 84.4175 13.4217C83.7151 13.7764 83.1131 14.2831 82.7117 14.9418C82.21 15.7018 81.9592 16.6138 81.909 17.5259H91.1905Z" stroke="#FF7B00" stroke-miterlimit="10"/>
</svg>
