<svg width="95" height="31" viewBox="0 0 95 31" fill="none" xmlns="http://www.w3.org/2000/svg">
<path d="M30.4753 21.5012L30.4753 21.5014C30.4511 23.0843 30.1256 24.4024 29.7172 25.3829C29.2999 26.3845 28.82 26.979 28.5327 27.1785C28.3594 27.2988 28.1656 27.4696 27.9722 27.6398C27.9095 27.6951 27.8468 27.7503 27.7849 27.8037C27.5144 28.0371 27.2034 28.2885 26.8188 28.5251C26.059 28.9924 24.9797 29.4216 23.342 29.4707C21.3654 29.4688 19.5024 28.7085 18.2033 27.2559L18.1842 27.2346L18.1628 27.2155C17.0151 26.1955 16.4875 24.8637 16.2499 23.7599C16.1316 23.2103 16.0872 22.7261 16.0725 22.3807C16.0651 22.2083 16.0652 22.0715 16.067 21.9794C16.0679 21.9334 16.0692 21.8987 16.0702 21.8764L16.0714 21.8525L16.0717 21.8483L16.0717 21.8479L16.0717 21.8479L16.0717 21.8477L16.0718 21.8474L16.0729 21.8306V21.813C16.0729 18.9552 17.3695 17.2719 18.723 16.2746C20.0977 15.2616 21.5439 14.9512 21.784 14.9071L21.615 13.9216L16.1303 14.7962C16.0589 14.7263 15.9646 14.6277 15.8538 14.4971L15.501 14.0814L15.1173 14.4689L14.7981 14.7912L9.3345 13.8716L9.15251 14.8548C9.37652 14.9 10.8232 15.2112 12.2042 16.2245C13.5649 17.2228 14.8723 18.9064 14.8723 21.7623V21.7763L14.873 21.7894L14.873 21.7896L14.873 21.7899L14.873 21.79L14.873 21.7902L14.8733 21.7948L14.8742 21.8194C14.8749 21.8422 14.8758 21.8777 14.8761 21.9245C14.8767 22.0182 14.8751 22.1573 14.8659 22.3321C14.8474 22.6824 14.7985 23.1724 14.6769 23.7262C14.4325 24.8402 13.904 26.1708 12.783 27.1644L12.7676 27.178L12.7534 27.1929C11.392 28.6152 9.51651 29.419 7.59954 29.42C5.96393 29.3955 4.88704 28.967 4.12877 28.4949C3.74483 28.2558 3.43411 28.0003 3.16331 27.7628C3.10406 27.7108 3.04404 27.6571 2.98389 27.6034C2.78757 27.4278 2.58983 27.251 2.4125 27.1279C2.12858 26.9307 1.66087 26.3402 1.25507 25.337C0.858281 24.3561 0.544285 23.0364 0.52013 21.4507C0.518202 21.3242 0.515572 21.1933 0.512853 21.058C0.480056 19.4262 0.434496 17.1594 1.4575 14.2586C2.56549 11.1168 4.94319 7.19446 10.0355 2.5776C13.2066 -0.191972 17.8866 -0.192535 21.0583 2.57592C26.0999 7.24248 28.4535 11.1899 29.5497 14.339C30.5615 17.2456 30.5154 19.5025 30.4826 21.1124C30.4798 21.2465 30.4772 21.3761 30.4753 21.5012Z" stroke="#FFF6CC"/>
<path d="M2.62898 17.0501C2.62898 17.0501 1.47507 18.8235 2.32796 23.2317C2.62898 24.9544 3.43171 26.5758 4.63579 27.8932C6.09073 29.4639 8.29821 30.7307 11.2081 29.0586C12.663 28.1972 13.6664 26.6772 13.8169 24.9544C13.9674 23.4343 13.5159 21.9143 12.6128 20.7489C10.7566 18.3168 8.1477 16.594 5.18766 15.834C4.63579 15.682 3.98358 15.7833 3.48188 16.0873C3.08051 16.29 2.77949 16.6447 2.62898 17.0501Z" stroke="#FFF6CC" stroke-miterlimit="10"/>
<path d="M2.67908 17.9619C2.87976 18.0126 3.13061 18.0126 3.33129 17.9619" stroke="#FFF6CC" stroke-miterlimit="10"/>
<path d="M2.4281 19.2286C2.67895 19.2793 2.9298 19.2793 3.13048 19.178" stroke="#FFF6CC" stroke-miterlimit="10"/>
<path d="M2.47839 18.4688C2.52856 18.5194 2.6289 18.5194 2.67907 18.5194" stroke="#FFF6CC" stroke-miterlimit="10"/>
<path d="M2.27771 20.3943C2.42822 20.445 2.57873 20.445 2.72924 20.3943" stroke="#FFF6CC" stroke-miterlimit="10"/>
<path d="M2.37805 19.8873C2.52856 19.938 2.72924 19.8873 2.87975 19.8367" stroke="#FFF6CC" stroke-miterlimit="10"/>
<path d="M3.03027 23.3329C3.18078 23.3836 3.38146 23.3329 3.53198 23.2822" stroke="#FFF6CC" stroke-miterlimit="10"/>
<path d="M3.08044 23.941C3.23095 23.9917 3.43164 23.941 3.58215 23.8904" stroke="#FFF6CC" stroke-miterlimit="10"/>
<path d="M3.23096 25.0557C3.58215 25.157 3.93334 25.157 4.28453 25.0557" stroke="#FFF6CC" stroke-miterlimit="10"/>
<path d="M3.63232 25.5117C3.98352 25.6131 4.33471 25.6131 4.6859 25.5117" stroke="#FFF6CC" stroke-miterlimit="10"/>
<path d="M5.08728 27.6904C5.48864 27.7918 5.89 27.7411 6.29136 27.5891" stroke="#FFF6CC" stroke-miterlimit="10"/>
<path d="M6.89331 28.8053C7.09399 28.856 7.34484 28.8053 7.54552 28.7546" stroke="#FFF6CC" stroke-miterlimit="10"/>
<path d="M4.8866 27.2343C5.43847 27.3356 5.99034 27.285 6.49204 27.0823" stroke="#FFF6CC" stroke-miterlimit="10"/>
<path d="M5.63916 28.0959C6.39171 28.0959 7.19444 27.9439 7.89682 27.6399" stroke="#FFF6CC" stroke-miterlimit="10"/>
<path d="M6.24109 28.4506C6.8933 28.5013 7.59568 28.4 8.19773 28.0959" stroke="#FFF6CC" stroke-miterlimit="10"/>
<path d="M7.84668 29.2103C8.54906 29.0583 9.20127 28.8557 9.80332 28.501" stroke="#FFF6CC" stroke-miterlimit="10"/>
<path d="M12.5625 25.9169C12.9137 25.4609 13.2147 24.9035 13.3652 24.3462" stroke="#FFF6CC" stroke-miterlimit="10"/>
<path d="M12.663 26.525C12.964 26.1197 13.2148 25.7143 13.3152 25.2583" stroke="#FFF6CC" stroke-miterlimit="10"/>
<path d="M12.6128 25.005C12.663 24.9544 12.7131 24.9037 12.7633 24.853" stroke="#FFF6CC" stroke-miterlimit="10"/>
<path d="M13.1144 23.789C13.1646 23.7383 13.2147 23.6876 13.2649 23.637" stroke="#FFF6CC" stroke-miterlimit="10"/>
<path d="M8.69958 29.4133C9.00061 29.3626 9.30163 29.2106 9.55248 29.0586" stroke="#FFF6CC" stroke-miterlimit="10"/>
<path d="M4.43506 26.7277C4.78625 26.7783 5.08727 26.7783 5.43846 26.677" stroke="#FFF6CC" stroke-miterlimit="10"/>
<path d="M3.3313 24.5491C3.43164 24.5997 3.53198 24.5997 3.63232 24.5491" stroke="#FFF6CC" stroke-miterlimit="10"/>
<path d="M28.8178 17.0499C28.8178 17.0499 29.9717 18.8234 29.1188 23.2316C28.8178 24.9543 28.0151 26.5757 26.811 27.8424C25.356 29.4132 23.1486 30.6799 20.2387 29.0078C18.7838 28.1464 17.7804 26.6264 17.6298 24.9036C17.4793 23.3836 17.9309 21.8635 18.8339 20.6981C20.6902 18.266 23.2991 16.5432 26.2591 15.7832C26.811 15.6312 27.4632 15.7325 27.9649 16.0366C28.3663 16.2392 28.6673 16.5939 28.8178 17.0499Z" stroke="#FFF6CC" stroke-miterlimit="10"/>
<path d="M28.7678 17.9619C28.5671 18.0126 28.3163 18.0126 28.1156 17.9619" stroke="#FFF6CC" stroke-miterlimit="10"/>
<path d="M29.0187 19.2289C28.7678 19.2796 28.517 19.2796 28.3163 19.1782" stroke="#FFF6CC" stroke-miterlimit="10"/>
<path d="M28.9685 18.4688C28.9183 18.5194 28.818 18.5194 28.7678 18.5194" stroke="#FFF6CC" stroke-miterlimit="10"/>
<path d="M29.1691 20.3943C29.0185 20.445 28.868 20.445 28.7175 20.3943" stroke="#FFF6CC" stroke-miterlimit="10"/>
<path d="M29.0688 19.8873C28.9183 19.938 28.7176 19.8873 28.5671 19.8367" stroke="#FFF6CC" stroke-miterlimit="10"/>
<path d="M28.4166 23.3329C28.2661 23.3836 28.0654 23.3329 27.9149 23.2822" stroke="#FFF6CC" stroke-miterlimit="10"/>
<path d="M28.3663 23.941C28.2158 23.9917 28.0151 23.941 27.8646 23.8904" stroke="#FFF6CC" stroke-miterlimit="10"/>
<path d="M28.2158 25.0557C27.8646 25.157 27.5134 25.157 27.1622 25.0557" stroke="#FFF6CC" stroke-miterlimit="10"/>
<path d="M27.8146 25.5117C27.4634 25.6131 27.1122 25.6131 26.761 25.5117" stroke="#FFF6CC" stroke-miterlimit="10"/>
<path d="M26.3596 27.6904C25.9582 27.7918 25.5569 27.7411 25.1555 27.5891" stroke="#FFF6CC" stroke-miterlimit="10"/>
<path d="M24.5535 28.8053C24.3528 28.856 24.1019 28.8053 23.9012 28.7546" stroke="#FFF6CC" stroke-miterlimit="10"/>
<path d="M26.5603 27.2343C26.0084 27.3356 25.4565 27.285 24.9548 27.0823" stroke="#FFF6CC" stroke-miterlimit="10"/>
<path d="M25.8077 28.0959C25.0552 28.0959 24.2524 27.9439 23.55 27.6399" stroke="#FFF6CC" stroke-miterlimit="10"/>
<path d="M25.2057 28.4506C24.5534 28.5013 23.8511 28.4 23.249 28.0959" stroke="#FFF6CC" stroke-miterlimit="10"/>
<path d="M23.6003 29.2106C22.8979 29.0586 22.2457 28.8559 21.5935 28.5012" stroke="#FFF6CC" stroke-miterlimit="10"/>
<path d="M18.8843 25.9169C18.5331 25.4609 18.2321 24.9035 18.0815 24.3462" stroke="#FFF6CC" stroke-miterlimit="10"/>
<path d="M18.7838 26.525C18.4828 26.1703 18.2319 25.7143 18.1316 25.2583" stroke="#FFF6CC" stroke-miterlimit="10"/>
<path d="M18.834 25.005C18.7838 24.9544 18.7336 24.9037 18.6835 24.853" stroke="#FFF6CC" stroke-miterlimit="10"/>
<path d="M18.3324 23.789C18.2822 23.7383 18.2321 23.6876 18.1819 23.637" stroke="#FFF6CC" stroke-miterlimit="10"/>
<path d="M22.7473 29.4133C22.4463 29.3626 22.1453 29.2106 21.8944 29.0586" stroke="#FFF6CC" stroke-miterlimit="10"/>
<path d="M27.0118 26.7279C26.6606 26.7786 26.3596 26.7786 26.0084 26.6772" stroke="#FFF6CC" stroke-miterlimit="10"/>
<path d="M28.1156 24.5491C28.0153 24.5997 27.9149 24.5997 27.8146 24.5491" stroke="#FFF6CC" stroke-miterlimit="10"/>
<path d="M10.4856 13.4777C10.4856 13.4777 9.63267 14.2378 9.63267 14.7951C9.63267 14.7951 10.1845 14.0351 10.6862 13.8831C10.6862 13.8831 10.4856 14.2885 10.5357 14.5925C10.5357 14.5925 11.1378 14.2378 11.1378 14.1364C11.1378 14.0351 11.1378 14.2378 11.1378 14.2378C11.1378 14.2378 11.1879 15.8592 11.8402 16.1125C11.8402 16.1125 11.5391 15.4032 11.8402 14.7951C11.8402 14.7951 11.8903 15.5045 12.3419 15.7072C12.3419 15.7072 12.1913 15.2005 12.3419 14.5418C12.3419 14.5418 12.5425 15.6058 13.0944 15.9099C13.0944 15.9099 12.7432 15.2005 12.9941 14.7951C12.9941 14.7951 13.2449 15.8592 15.051 16.6192C15.051 16.6192 14.3988 15.5045 14.449 15.0485C14.449 15.0485 14.9005 15.8592 15.2016 16.0112C15.2016 16.0112 15.5026 15.3525 15.6531 15.2512C15.6531 15.2512 15.6029 15.8592 15.5026 16.0619C15.5026 16.0619 16.1548 15.6565 16.4558 15.0485C16.4558 15.0485 16.4056 16.1125 16.1548 16.4165C16.1548 16.4165 17.1582 15.5045 17.2084 15.0485C17.2084 15.0485 17.2084 15.7072 16.9575 16.0112C16.9575 16.0112 17.8104 15.4538 17.9609 15.0485C17.9609 15.0485 18.0111 16.2139 17.5596 16.3659C17.5596 16.3659 19.5162 15.1498 19.5664 14.3898C19.5664 14.3898 19.5162 15.3018 19.2653 15.3525C19.2653 15.3525 19.8172 14.9978 19.8674 14.4405C19.8674 14.4405 20.3691 14.8458 20.2186 15.4032C20.2186 15.4032 20.5698 14.8458 20.5698 14.4405C20.5698 14.4405 21.4227 15.2005 21.2721 15.9099C21.2721 15.9099 21.9244 15.0485 21.6233 13.4271C21.6233 13.4271 22.0749 13.7311 22.125 14.1871C22.125 14.1871 22.3257 13.7818 22.125 13.1231C22.125 13.1231 22.7271 13.2244 23.0783 13.7311C23.0783 13.7311 22.6769 12.9711 21.9745 12.515C21.9745 12.515 22.4762 12.363 22.6267 12.515C22.6267 12.515 22.2254 12.1097 21.7739 12.0083C21.7739 12.0083 22.8274 11.8057 23.1786 12.0083C23.1786 12.0083 22.4261 11.0456 21.0715 10.8936C21.0715 10.8936 21.2722 10.5389 21.5732 10.5896C21.5732 10.5896 20.8708 10.4376 20.6701 10.4376C20.6701 10.4376 21.7237 9.93092 21.9244 10.0323C21.9244 10.0323 21.7237 9.67757 19.9176 9.72824C19.9176 9.72824 20.2687 9.37356 20.8206 9.32289C20.8206 9.32289 20.1182 9.12022 18.8138 9.4749C18.8138 9.4749 19.4159 8.91754 19.6667 8.96821C19.6667 8.96821 19.0647 8.91754 18.2118 9.4749C18.2118 9.4749 18.4125 9.01888 18.7135 8.96821C18.7135 8.96821 18.0613 8.96821 17.7101 9.32289C17.7101 9.32289 17.6599 9.01888 18.0613 8.8162C18.0613 8.8162 17.2084 8.76553 16.8572 9.12022C16.8572 9.12022 16.8572 8.8162 17.1582 8.61353C17.1582 8.61353 16.5562 8.61353 16.2551 8.96821C16.2551 8.96821 16.1046 9.01888 15.9039 8.8162C15.9039 8.8162 15.7033 9.01888 15.8538 9.32289C15.8538 9.32289 15.1514 9.4749 15.5026 8.61353C15.5026 8.61353 14.9005 8.8162 14.5995 9.17088C14.5995 9.17088 14.6497 9.01888 13.6463 8.8162C13.6463 8.8162 14.2483 9.17088 14.2483 9.42423C14.2483 9.42423 13.9473 9.06955 12.7432 8.86687C12.7432 8.86687 13.1446 9.01888 13.0442 9.4749C13.0442 9.4749 13.0944 9.06955 12.4924 8.96821C12.4924 8.96821 12.6429 9.37356 12.2917 9.37356C12.2917 9.37356 12.2415 8.86687 11.79 8.8162C11.79 8.8162 12.091 9.17088 11.9405 9.22155C11.9405 9.22155 11.4388 9.01888 10.9873 9.17088C10.9873 9.17088 11.5391 9.32289 11.5893 9.72824C11.5893 9.72824 11.0374 9.12022 9.73301 9.77891C9.73301 9.77891 11.1378 9.72824 11.2381 10.0829C11.2381 10.0829 10.335 9.77891 9.48216 10.0829C9.48216 10.0829 10.4354 10.1336 10.5859 10.3869C10.5859 10.3869 9.28148 10.1843 8.07739 10.8936C8.07739 10.8936 9.33165 10.7416 9.48216 11.0963C9.48216 11.0963 8.17773 11.2483 8.02722 11.7043C8.02722 11.7043 8.7296 11.4003 9.53233 11.4003C9.53233 11.4003 8.57909 11.7043 8.2279 13.5791C8.2279 13.5791 8.98046 12.515 9.88352 12.3124C9.88352 12.3124 8.93029 13.0217 8.93029 13.3764C8.93029 13.3764 9.48216 12.9711 9.78318 13.0217C9.78318 13.0217 9.38182 13.3764 9.28148 13.7818C9.23131 13.9844 10.2347 13.3257 10.4856 13.4777Z" stroke="#FFF6CC" stroke-miterlimit="10"/>
<path d="M13.1445 12.667C13.1445 12.667 12.0909 12.819 11.8401 13.275" stroke="#FFF6CC" stroke-miterlimit="10"/>
<path d="M13.4957 12.667C13.4957 12.667 12.392 13.0723 12.2916 13.6297" stroke="#FFF6CC" stroke-miterlimit="10"/>
<path d="M14.0976 12.9709C14.0976 12.9709 13.1444 12.9203 12.8936 13.4776" stroke="#FFF6CC" stroke-miterlimit="10"/>
<path d="M15.6028 12.9709C15.6028 12.9709 15.0509 13.731 15.2516 14.5417" stroke="#FFF6CC" stroke-miterlimit="10"/>
<path d="M15.8036 12.667C15.8036 12.667 16.3053 13.731 16.0544 14.3391" stroke="#FFF6CC" stroke-miterlimit="10"/>
<path d="M17.2084 13.2751C17.2084 13.2751 17.4592 13.5792 17.4592 13.7312" stroke="#FFF6CC" stroke-miterlimit="10"/>
<path d="M17.2084 12.8696C17.3589 12.8696 18.7636 13.9337 18.7636 14.1364" stroke="#FFF6CC" stroke-miterlimit="10"/>
<path d="M17.4091 12.8696C17.4091 12.8696 17.8104 13.427 17.8104 13.6297" stroke="#FFF6CC" stroke-miterlimit="10"/>
<path d="M17.8103 12.8696C17.8103 12.8696 18.2117 13.1736 18.312 13.3256" stroke="#FFF6CC" stroke-miterlimit="10"/>
<path d="M18.011 12.667C18.011 12.667 18.5629 12.8697 18.6632 13.0723" stroke="#FFF6CC" stroke-miterlimit="10"/>
<path d="M19.7169 13.1736C19.7169 13.1736 20.1684 13.4776 20.1684 13.7816" stroke="#FFF6CC" stroke-miterlimit="10"/>
<path d="M19.7169 12.8696C19.7169 12.8696 20.3691 13.0723 20.4193 13.3256" stroke="#FFF6CC" stroke-miterlimit="10"/>
<path d="M13.6965 11.8562C13.6965 11.9069 13.6463 11.9575 13.5961 12.0082C13.546 12.1095 13.4456 12.1602 13.3453 12.1602C13.245 12.2109 13.1446 12.2109 13.0443 12.2109H12.9439C12.7433 12.2109 12.5426 12.2109 12.3419 12.1602C12.2416 12.1602 12.1914 12.1095 12.091 12.1095L11.8904 12.0589C11.7399 12.0082 11.5893 11.9069 11.4388 11.8562L11.3887 11.8055C11.188 11.7042 11.0375 11.5522 10.887 11.4002C10.7866 11.2988 10.7364 11.1468 10.6361 11.0455C10.5859 10.8935 10.5358 10.7415 10.5358 10.6401C10.5358 10.3361 10.6361 10.0828 10.7866 9.82944C11.0375 9.47476 11.4388 9.32275 11.8402 9.32275V9.32275C12.1914 9.32275 12.5426 9.47476 12.7433 9.72811C13.2951 10.2348 13.5961 10.9442 13.6965 11.6535C13.7467 11.7549 13.7467 11.8055 13.6965 11.8562Z" stroke="#FFF6CC" stroke-miterlimit="10"/>
<path d="M11.8905 11.9575C11.8905 11.9069 11.8905 11.8562 11.9407 11.8562" stroke="#FFF6CC" stroke-linecap="round" stroke-linejoin="round"/>
<path d="M11.74 11.907C11.74 11.8563 11.74 11.8057 11.7902 11.8057" stroke="#FFF6CC" stroke-linecap="round" stroke-linejoin="round"/>
<path d="M11.489 11.8564C11.489 11.755 11.489 11.7044 11.5392 11.603" stroke="#FFF6CC" stroke-linecap="round" stroke-linejoin="round"/>
<path d="M11.3887 11.7548C11.3887 11.6535 11.3887 11.6028 11.4388 11.5015" stroke="#FFF6CC" stroke-linecap="round" stroke-linejoin="round"/>
<path d="M10.8871 11.2989C10.8871 11.1975 10.8871 11.0962 10.9373 10.9949" stroke="#FFF6CC" stroke-linecap="round" stroke-linejoin="round"/>
<path d="M10.9874 11.4002C10.9874 11.2482 10.9874 11.1469 11.0878 10.9949" stroke="#FFF6CC" stroke-linecap="round" stroke-linejoin="round"/>
<path d="M10.8369 11.1468C10.8369 10.9441 10.9373 10.7921 11.0376 10.6401" stroke="#FFF6CC" stroke-linecap="round" stroke-linejoin="round"/>
<path d="M10.7365 11.0454C10.7365 10.8934 10.7866 10.7414 10.887 10.5894" stroke="#FFF6CC" stroke-linecap="round" stroke-linejoin="round"/>
<path d="M10.6361 10.5896C10.6863 10.4376 10.7866 10.2856 10.887 10.1335" stroke="#FFF6CC" stroke-linecap="round" stroke-linejoin="round"/>
<path d="M11.5393 9.57608C11.6396 9.47474 11.7902 9.42407 11.9407 9.42407" stroke="#FFF6CC" stroke-linecap="round" stroke-linejoin="round"/>
<path d="M11.3887 9.52541C11.489 9.47474 11.5894 9.42407 11.6897 9.42407" stroke="#FFF6CC" stroke-linecap="round" stroke-linejoin="round"/>
<path d="M11.74 9.57617C11.7912 9.57617 11.7912 9.57617 11.74 9.57617" stroke="#FFF6CC" stroke-linecap="round" stroke-linejoin="round"/>
<path d="M10.5861 10.387C10.5861 10.3363 10.6362 10.235 10.6864 10.1843" stroke="#FFF6CC" stroke-linecap="round" stroke-linejoin="round"/>
<path d="M11.0878 11.5016C11.0878 11.4003 11.0878 11.3496 11.1379 11.2483" stroke="#FFF6CC" stroke-linecap="round" stroke-linejoin="round"/>
<path d="M11.5895 11.8563V11.8057" stroke="#FFF6CC" stroke-linecap="round" stroke-linejoin="round"/>
<path d="M21.1217 10.9442C21.0715 11.0456 21.0715 11.0962 21.0213 11.1469V11.1976C20.8708 11.3496 20.7203 11.4509 20.5698 11.5522C20.5698 11.5522 20.5698 11.6029 20.62 11.6029C20.5196 11.6536 20.4193 11.7042 20.3189 11.7549C20.2186 11.8056 20.1684 11.8056 20.0681 11.8563C19.7169 11.9576 19.3657 12.0083 19.0145 11.9576H18.9644C18.864 11.9576 18.7637 11.8563 18.7135 11.8056C18.6633 11.7549 18.6132 11.6536 18.6132 11.5522C18.6132 11.1469 18.7637 10.7415 19.0145 10.4375C19.1149 10.2855 19.2654 10.1335 19.4159 10.0322C19.5162 9.93084 19.6166 9.88017 19.7671 9.77883H19.8172C19.9678 9.72816 20.1183 9.67749 20.2186 9.67749C20.3189 9.67749 20.4193 9.67749 20.5196 9.72816C20.6701 9.77883 20.7705 9.8295 20.8708 9.93083C20.8708 9.93083 20.8708 9.93084 20.921 9.9815L21.0213 10.0828C21.0715 10.1335 21.0715 10.1335 21.0715 10.1842C21.222 10.3869 21.222 10.6909 21.1217 10.9442Z" stroke="#FFF6CC" stroke-miterlimit="10" stroke-linecap="round" stroke-linejoin="round"/>
<path d="M18.7637 11.0962C18.8138 11.0962 18.864 11.1469 18.864 11.1469" stroke="#FFF6CC" stroke-miterlimit="10" stroke-linecap="round" stroke-linejoin="round"/>
<path d="M18.8138 10.8936C18.864 10.8936 18.864 10.8936 18.9142 10.9442" stroke="#FFF6CC" stroke-miterlimit="10" stroke-linecap="round" stroke-linejoin="round"/>
<path d="M18.7637 10.9951C18.8138 10.9951 18.8138 11.0458 18.864 11.0458" stroke="#FFF6CC" stroke-miterlimit="10" stroke-linecap="round" stroke-linejoin="round"/>
<path d="M19.165 10.4375C19.2152 10.4375 19.2152 10.4882 19.2654 10.4882" stroke="#FFF6CC" stroke-miterlimit="10" stroke-linecap="round" stroke-linejoin="round"/>
<path d="M19.2152 10.3362C19.2654 10.3362 19.2654 10.3362 19.3156 10.3869" stroke="#FFF6CC" stroke-miterlimit="10" stroke-linecap="round" stroke-linejoin="round"/>
<path d="M19.3156 10.1335C19.3657 10.1335 19.4661 10.1842 19.5162 10.1842" stroke="#FFF6CC" stroke-miterlimit="10" stroke-linecap="round" stroke-linejoin="round"/>
<path d="M19.416 10.083C19.4662 10.083 19.5665 10.1337 19.6167 10.1337" stroke="#FFF6CC" stroke-miterlimit="10" stroke-linecap="round" stroke-linejoin="round"/>
<path d="M19.8173 9.82959C19.9176 9.82959 19.9678 9.88026 20.0179 9.93093" stroke="#FFF6CC" stroke-miterlimit="10" stroke-linecap="round" stroke-linejoin="round"/>
<path d="M20.0681 9.77881C20.1685 9.82948 20.319 9.88015 20.3691 9.98148" stroke="#FFF6CC" stroke-miterlimit="10" stroke-linecap="round" stroke-linejoin="round"/>
<path d="M20.4192 9.77881C20.5195 9.82948 20.6199 9.93082 20.7202 10.0322" stroke="#FFF6CC" stroke-miterlimit="10" stroke-linecap="round" stroke-linejoin="round"/>
<path d="M21.0715 10.5896C21.1217 10.6909 21.1217 10.7923 21.1217 10.8429" stroke="#FFF6CC" stroke-miterlimit="10" stroke-linecap="round" stroke-linejoin="round"/>
<path d="M19.6166 9.93091C19.6667 9.93091 19.7169 9.98158 19.7671 10.0322" stroke="#FFF6CC" stroke-miterlimit="10" stroke-linecap="round" stroke-linejoin="round"/>
<path d="M19.2654 10.2349H19.3156" stroke="#FFF6CC" stroke-miterlimit="10" stroke-linecap="round" stroke-linejoin="round"/>
<path d="M17.8606 9.47485C17.8606 9.47485 17.6097 10.0829 16.4056 10.5896C15.9039 10.7922 15.4022 10.8936 14.9005 10.7922C14.148 10.7416 13.5459 10.1335 13.4958 9.32284C13.4456 8.81615 13.6965 8.30946 14.0476 8.00545C14.3988 7.70144 14.8504 7.6001 15.3019 7.6001C16.205 7.65077 17.0579 8.00545 17.7602 8.61348C17.9108 8.71481 17.9609 8.91749 18.0111 9.0695C17.9609 9.2215 17.9108 9.37351 17.8606 9.47485Z" stroke="#FFF6CC" stroke-miterlimit="10" stroke-linecap="round" stroke-linejoin="round"/>
<path d="M17.6097 9.62686C17.5596 9.57619 17.5094 9.52552 17.5094 9.47485" stroke="#FFF6CC" stroke-miterlimit="10" stroke-linecap="round" stroke-linejoin="round"/>
<path d="M17.3589 9.93095C17.3087 9.88028 17.2585 9.82961 17.2585 9.72827" stroke="#FFF6CC" stroke-miterlimit="10" stroke-linecap="round" stroke-linejoin="round"/>
<path d="M17.5098 9.77887C17.5098 9.77887 17.4586 9.7282 17.5098 9.77887" stroke="#FFF6CC" stroke-miterlimit="10" stroke-linecap="round" stroke-linejoin="round"/>
<path d="M17.108 10.1336C17.0579 10.0829 17.0579 10.0829 17.0077 10.0322" stroke="#FFF6CC" stroke-miterlimit="10" stroke-linecap="round" stroke-linejoin="round"/>
<path d="M17.2082 10.0324C17.1581 9.98171 17.1581 9.93104 17.1079 9.88037" stroke="#FFF6CC" stroke-miterlimit="10" stroke-linecap="round" stroke-linejoin="round"/>
<path d="M16.2551 10.4374C16.205 10.3867 16.205 10.3361 16.1548 10.2854" stroke="#FFF6CC" stroke-miterlimit="10" stroke-linecap="round" stroke-linejoin="round"/>
<path d="M16.0544 10.539C16.0043 10.4883 16.0043 10.4376 15.9541 10.387" stroke="#FFF6CC" stroke-miterlimit="10" stroke-linecap="round" stroke-linejoin="round"/>
<path d="M15.8036 10.6908C15.7032 10.6402 15.6531 10.5388 15.6029 10.4375" stroke="#FFF6CC" stroke-miterlimit="10" stroke-linecap="round" stroke-linejoin="round"/>
<path d="M15.6029 10.6403C15.5026 10.5896 15.4524 10.4883 15.4022 10.387" stroke="#FFF6CC" stroke-miterlimit="10" stroke-linecap="round" stroke-linejoin="round"/>
<path d="M14.8503 10.6402C14.75 10.5389 14.6998 10.4375 14.6497 10.3362" stroke="#FFF6CC" stroke-miterlimit="10" stroke-linecap="round" stroke-linejoin="round"/>
<path d="M14.2484 10.3869C14.1982 10.3362 14.1481 10.2855 14.1481 10.2349" stroke="#FFF6CC" stroke-miterlimit="10" stroke-linecap="round" stroke-linejoin="round"/>
<path d="M14.9507 10.6402C14.8503 10.5389 14.75 10.3869 14.6998 10.2349" stroke="#FFF6CC" stroke-miterlimit="10" stroke-linecap="round" stroke-linejoin="round"/>
<path d="M14.6497 10.5896C14.4991 10.3869 14.449 10.1843 14.3988 9.93091" stroke="#FFF6CC" stroke-miterlimit="10" stroke-linecap="round" stroke-linejoin="round"/>
<path d="M14.449 10.4883C14.3486 10.3363 14.2483 10.1336 14.1981 9.93091" stroke="#FFF6CC" stroke-miterlimit="10" stroke-linecap="round" stroke-linejoin="round"/>
<path d="M13.9974 10.235C13.8971 10.0323 13.8469 9.82963 13.8469 9.62695" stroke="#FFF6CC" stroke-miterlimit="10" stroke-linecap="round" stroke-linejoin="round"/>
<path d="M13.9974 8.51217C14.0476 8.36017 14.1479 8.15749 14.2483 8.05615" stroke="#FFF6CC" stroke-miterlimit="10" stroke-linecap="round" stroke-linejoin="round"/>
<path d="M13.8469 8.56282C13.8971 8.41082 13.9473 8.30948 14.0476 8.15747" stroke="#FFF6CC" stroke-miterlimit="10" stroke-linecap="round" stroke-linejoin="round"/>
<path d="M14.2484 8.30946V8.25879" stroke="#FFF6CC" stroke-miterlimit="10" stroke-linecap="round" stroke-linejoin="round"/>
<path d="M14.449 8.0055V7.95483" stroke="#FFF6CC" stroke-miterlimit="10" stroke-linecap="round" stroke-linejoin="round"/>
<path d="M13.847 10.0322C13.7969 9.93081 13.7969 9.82948 13.7969 9.77881" stroke="#FFF6CC" stroke-miterlimit="10" stroke-linecap="round" stroke-linejoin="round"/>
<path d="M15.2015 10.6403C15.1514 10.5896 15.1012 10.4883 15.051 10.387" stroke="#FFF6CC" stroke-miterlimit="10" stroke-linecap="round" stroke-linejoin="round"/>
<path d="M15.9039 10.5896C15.8538 10.539 15.8538 10.539 15.8538 10.4883" stroke="#FFF6CC" stroke-miterlimit="10" stroke-linecap="round" stroke-linejoin="round"/>
<g opacity="0.2">
<path opacity="0.2" d="M16.3554 10.8428L16.3053 10.7415C16.1046 10.3868 15.9039 10.0828 15.6029 9.82947C15.4022 9.67746 15.2015 9.47478 15.0008 9.37345C14.6496 9.1201 14.2483 8.91743 13.7968 8.76542C13.7466 8.76542 13.6964 8.71475 13.6462 8.71475C13.4957 8.66408 13.3954 8.61341 13.2449 8.61341H13.1947C13.0442 8.56274 12.8435 8.56274 12.6428 8.56274C12.4422 8.56274 12.2917 8.61341 12.1411 8.71475C12.0408 8.76542 11.9405 8.86676 11.8903 8.9681L11.8401 9.01876C11.7899 9.1201 11.7899 9.17077 11.7398 9.27211C11.7398 9.37345 11.6896 9.42412 11.6896 9.52545C11.6896 9.62679 11.6896 9.62679 11.6896 9.67746C11.6394 10.5895 11.7899 11.4509 12.1913 12.2616V12.3122L12.2415 12.3629V12.3122H12.3418H12.4422H12.5425H12.6428C12.693 12.3122 12.7934 12.3122 12.8435 12.3122C12.8435 12.3122 12.8435 12.3122 12.8435 12.3629H12.8937H12.9439C13.1445 12.4136 13.3452 12.4643 13.5459 12.5149L13.6462 12.5656L13.8971 12.6669H13.9974C14.449 12.6163 14.8503 12.5656 15.2517 12.5149C15.2517 12.5149 15.2517 12.5149 15.2517 12.5656L15.3019 12.5149H15.352C15.5527 12.5149 15.7534 12.5149 15.9039 12.5149H15.9541C15.9541 12.5149 15.9541 12.5149 15.9541 12.5656L15.9039 12.6163L15.9541 12.6669V12.5149L16.0042 12.4643H16.4056C16.4558 12.3629 16.5059 12.2616 16.5059 12.1096V12.0589C16.6565 11.6536 16.5561 11.2482 16.3554 10.8428Z" stroke="#FFF6CC" stroke-linecap="round" stroke-linejoin="round"/>
<path opacity="0.2" d="M13.0443 8.66406C13.0443 8.7654 12.9941 8.81607 12.944 8.86674" stroke="#FFF6CC" stroke-linecap="round" stroke-linejoin="round"/>
<path opacity="0.2" d="M13.5459 8.76538C13.5459 8.86672 13.4957 8.96806 13.3954 9.01873" stroke="#FFF6CC" stroke-linecap="round" stroke-linejoin="round"/>
<path opacity="0.2" d="M13.245 8.66406C13.245 8.71473 13.245 8.71473 13.245 8.7654" stroke="#FFF6CC" stroke-linecap="round" stroke-linejoin="round"/>
<path opacity="0.2" d="M13.9974 8.8667C13.9974 8.91737 13.9974 8.96804 13.9473 9.01871" stroke="#FFF6CC" stroke-linecap="round" stroke-linejoin="round"/>
<path opacity="0.2" d="M13.7967 8.81592C13.7967 8.86659 13.7466 8.96793 13.6964 8.96793" stroke="#FFF6CC" stroke-linecap="round" stroke-linejoin="round"/>
<path opacity="0.2" d="M14.9507 9.57593C14.9507 9.6266 14.9005 9.67727 14.8503 9.72794" stroke="#FFF6CC" stroke-linecap="round" stroke-linejoin="round"/>
<path opacity="0.2" d="M15.2017 9.67749C15.2017 9.72816 15.1515 9.8295 15.1013 9.88016" stroke="#FFF6CC" stroke-linecap="round" stroke-linejoin="round"/>
<path opacity="0.2" d="M15.5527 9.93066C15.5527 10.0827 15.5026 10.184 15.4022 10.2853" stroke="#FFF6CC" stroke-linecap="round" stroke-linejoin="round"/>
<path opacity="0.2" d="M15.6531 10.1335C15.6531 10.2856 15.6029 10.3869 15.5026 10.4882" stroke="#FFF6CC" stroke-linecap="round" stroke-linejoin="round"/>
<path opacity="0.2" d="M16.2551 10.9949C16.205 11.1469 16.1548 11.2989 16.0544 11.4002" stroke="#FFF6CC" stroke-linecap="round" stroke-linejoin="round"/>
<path opacity="0.2" d="M16.3555 11.7549C16.3555 11.8562 16.3053 11.9069 16.205 12.0082" stroke="#FFF6CC" stroke-linecap="round" stroke-linejoin="round"/>
<path opacity="0.2" d="M16.1046 10.8428C16.0544 11.0454 15.9541 11.2481 15.8036 11.4001" stroke="#FFF6CC" stroke-linecap="round" stroke-linejoin="round"/>
<path opacity="0.2" d="M16.3053 11.1973C16.205 11.4506 16.0043 11.704 15.7534 11.9066" stroke="#FFF6CC" stroke-linecap="round" stroke-linejoin="round"/>
<path opacity="0.2" d="M16.3053 11.5015C16.205 11.7548 16.0544 11.9575 15.9039 12.1602" stroke="#FFF6CC" stroke-linecap="round" stroke-linejoin="round"/>
<path opacity="0.2" d="M16.3555 12.1602C16.3555 12.1602 16.3053 12.2108 16.2551 12.2615C16.205 12.3122 16.1548 12.4135 16.1046 12.4642L16.0544 12.5148L16.0043 12.5655L16.0544 12.5148L16.1046 12.4642L16.2551 12.3122L16.3555 12.1602Z" stroke="#FFF6CC" stroke-linecap="round" stroke-linejoin="round"/>
<path opacity="0.2" d="M16.0043 10.5894C15.9541 10.7414 15.9039 10.8427 15.8036 10.944" stroke="#FFF6CC" stroke-linecap="round" stroke-linejoin="round"/>
<path opacity="0.2" d="M15.3521 9.88013C15.3521 9.9308 15.3521 9.98147 15.3019 9.98147" stroke="#FFF6CC" stroke-linecap="round" stroke-linejoin="round"/>
</g>
<path d="M16.4056 10.7416C16.4056 10.6909 16.4056 10.6402 16.3555 10.5896C16.2049 10.2349 15.9541 9.8802 15.6531 9.62685C15.4524 9.42417 15.2517 9.27217 15.051 9.12016C14.6998 8.86682 14.2985 8.66414 13.847 8.46146L13.6964 8.4108C13.5459 8.36013 13.3954 8.30946 13.2951 8.30946H13.2449C13.0944 8.25879 12.8937 8.25879 12.693 8.25879C12.4924 8.25879 12.3418 8.30946 12.1913 8.4108C12.091 8.46146 11.9907 8.5628 11.9405 8.71481V8.76548C11.8903 8.86682 11.8903 8.91749 11.8401 9.01882C11.8401 9.12016 11.79 9.17083 11.79 9.27217V9.42417C11.6896 10.3869 11.8903 11.2989 12.2917 12.1603V12.211L12.3418 12.2616V12.211H12.4422H12.5425H12.6429H12.7432C12.7934 12.211 12.8937 12.211 12.9439 12.211C12.9439 12.211 12.9439 12.211 12.9439 12.2616H12.9941H13.0442C13.2449 12.3123 13.4456 12.363 13.6463 12.4643L13.7466 12.515C13.847 12.5657 13.8971 12.5657 13.9975 12.6163H14.0978C14.4992 12.5657 14.9507 12.515 15.3521 12.4643V12.515C15.3521 12.515 15.3521 12.515 15.4022 12.4643H15.4524H16.0043H16.0544C16.0544 12.4643 16.0544 12.4643 16.0544 12.515L16.0043 12.5657L16.0544 12.6163C16.0544 12.5657 16.0544 12.5657 16.0544 12.515L16.1046 12.4643C16.1046 12.4643 16.1046 12.4643 16.1548 12.4136C16.3053 12.4136 16.4056 12.4136 16.5561 12.4136C16.6063 12.3123 16.6565 12.1603 16.6565 12.059V12.0083C16.7066 11.6029 16.6063 11.1469 16.4056 10.7416Z" stroke="#FFF6CC" stroke-miterlimit="10"/>
<path d="M13.0443 8.41064C13.0443 8.51198 12.9941 8.56265 12.944 8.66399" stroke="#FFF6CC" stroke-miterlimit="10" stroke-linecap="round" stroke-linejoin="round"/>
<path d="M13.5961 8.51196C13.5961 8.6133 13.5459 8.71464 13.4456 8.76531" stroke="#FFF6CC" stroke-miterlimit="10" stroke-linecap="round" stroke-linejoin="round"/>
<path d="M13.295 8.41064C13.295 8.46131 13.295 8.46131 13.2449 8.51198" stroke="#FFF6CC" stroke-miterlimit="10" stroke-linecap="round" stroke-linejoin="round"/>
<path d="M13.9974 8.66406C13.9974 8.71473 13.9974 8.7654 13.9473 8.81607" stroke="#FFF6CC" stroke-miterlimit="10" stroke-linecap="round" stroke-linejoin="round"/>
<path d="M13.8469 8.61328C13.8469 8.66395 13.7968 8.76529 13.7466 8.81596" stroke="#FFF6CC" stroke-miterlimit="10" stroke-linecap="round" stroke-linejoin="round"/>
<path d="M15.0009 9.42383C15.0009 9.4745 14.9507 9.57584 14.9005 9.6265" stroke="#FFF6CC" stroke-miterlimit="10" stroke-linecap="round" stroke-linejoin="round"/>
<path d="M15.2015 9.52539C15.2015 9.57606 15.1514 9.6774 15.1012 9.72807" stroke="#FFF6CC" stroke-miterlimit="10" stroke-linecap="round" stroke-linejoin="round"/>
<path d="M15.6029 9.77856C15.6029 9.93057 15.5527 10.0826 15.4524 10.1839" stroke="#FFF6CC" stroke-miterlimit="10" stroke-linecap="round" stroke-linejoin="round"/>
<path d="M15.7032 9.98145C15.7032 10.1335 15.6531 10.2855 15.5527 10.3868" stroke="#FFF6CC" stroke-miterlimit="10" stroke-linecap="round" stroke-linejoin="round"/>
<path d="M16.2551 10.8933C16.205 11.0453 16.1548 11.1973 16.0544 11.2987" stroke="#FFF6CC" stroke-miterlimit="10" stroke-linecap="round" stroke-linejoin="round"/>
<path d="M16.4056 11.7549C16.4056 11.8562 16.3555 11.9069 16.3053 12.0082" stroke="#FFF6CC" stroke-miterlimit="10" stroke-linecap="round" stroke-linejoin="round"/>
<path d="M16.1548 10.7415C16.1046 10.9441 16.0043 11.1468 15.8538 11.3495" stroke="#FFF6CC" stroke-miterlimit="10" stroke-linecap="round" stroke-linejoin="round"/>
<path d="M16.3555 11.1467C16.2551 11.4507 16.0544 11.7041 15.8036 11.9068" stroke="#FFF6CC" stroke-miterlimit="10" stroke-linecap="round" stroke-linejoin="round"/>
<path d="M16.3553 11.4001C16.255 11.6535 16.1045 11.9068 15.954 12.0588" stroke="#FFF6CC" stroke-miterlimit="10" stroke-linecap="round" stroke-linejoin="round"/>
<path d="M16.0043 10.488C15.9541 10.64 15.9039 10.7414 15.8036 10.8427" stroke="#FFF6CC" stroke-miterlimit="10" stroke-linecap="round" stroke-linejoin="round"/>
<path d="M15.4022 9.72803C15.4022 9.7787 15.4022 9.82936 15.3521 9.82936" stroke="#FFF6CC" stroke-miterlimit="10" stroke-linecap="round" stroke-linejoin="round"/>
<path d="M16.0544 12.5656V12.6163M16.0544 12.6163L16.1046 12.5656M16.0544 12.6163L16.1046 12.6669C16.1046 12.6163 16.1046 12.6163 16.1046 12.5656M16.1046 12.5656C16.1046 12.5149 16.1046 12.5149 16.1046 12.5149H16.0544H15.5026H15.4524C15.4022 12.5656 15.4022 12.5656 15.4022 12.5656L15.352 12.5149C15.0009 12.0589 14.8503 11.4509 14.9507 10.8935V10.8428C14.9507 10.6908 15.0009 10.5895 15.051 10.4882C15.2015 10.1335 15.4022 9.88014 15.6531 9.62679L15.8036 9.52545C16.4056 9.1201 17.0077 8.81609 17.71 8.66408C18.1114 8.56274 18.5128 8.56274 18.9643 8.56274C19.2151 8.56274 19.4158 8.66408 19.5663 8.81609C19.6667 8.91743 19.767 9.06943 19.767 9.22144C19.8172 9.37345 19.8172 9.57612 19.7169 9.7788C19.7169 9.82947 19.7169 9.88014 19.7169 9.93081C19.7169 9.93081 19.7169 9.98147 19.7169 10.0321C19.6667 10.5388 19.466 11.0455 19.2151 11.5015C19.165 11.6029 19.0646 11.7549 18.9643 11.9069C18.864 12.0082 18.8138 12.1096 18.7636 12.1602C18.7134 12.2109 18.7134 12.2109 18.6633 12.2616L18.6131 12.3122L18.4124 12.4136C18.2117 12.5149 18.0612 12.5656 17.9107 12.6669H17.8606L17.8104 12.7176L17.71 12.7683M16.1046 12.5656L16.1548 12.5149C16.1548 12.5149 16.1548 12.5149 16.2049 12.4643C16.3554 12.4643 16.4558 12.4643 16.6063 12.4643H16.8571L17.1582 12.5149H17.2083C17.409 12.5656 17.6097 12.5656 17.8104 12.6163L17.7602 12.6669L17.6599 12.7683M17.6599 12.7683L17.5595 12.8189M17.6599 12.7683H17.71M17.71 12.7683H17.7602" stroke="#FFF6CC" stroke-miterlimit="10" stroke-linecap="round" stroke-linejoin="round"/>
<path d="M19.7168 12.9711C19.7168 12.9711 20.2185 12.819 21.1216 12.9711C21.1216 12.9711 20.2185 12.4644 19.5161 12.7177C19.5161 12.7177 19.8171 12.3124 20.3188 12.2617C20.3188 12.2617 19.2151 12.2617 18.7636 12.6164C18.7636 12.6164 19.3656 11.9577 19.7168 11.9577C19.7168 11.9577 17.6096 12.4644 17.1581 12.819C17.1581 12.819 17.7601 11.9577 18.4124 11.8563C18.4124 11.8563 17.1079 11.9577 16.1045 12.7177C16.1045 12.7177 17.0578 11.4003 17.3588 11.147C17.3588 11.147 15.954 11.6537 15.6028 12.2617C15.6028 12.2617 15.3018 11.907 15.6028 11.603C15.6028 11.603 15.4022 11.6537 15.2516 12.363C15.2516 12.363 14.7499 11.6537 14.3486 11.755C14.3486 11.755 14.9005 12.2617 14.9005 12.7177C14.9005 12.7177 13.9472 11.755 13.3953 11.907C13.3953 11.907 13.9974 12.363 14.0977 12.7684C14.0977 12.7684 13.0442 11.5523 12.3418 11.6537C12.3418 11.6537 12.8435 12.0083 12.8936 12.2617C12.8936 12.2617 11.7899 11.299 10.5356 12.059C10.5356 12.059 11.7899 12.1097 11.9906 12.515" stroke="#FFF6CC" stroke-miterlimit="10"/>
<path d="M38.3082 25.8772C37.1041 25.1678 36.1509 24.1544 35.4485 22.9384C34.696 21.5703 34.3448 19.9996 34.3448 18.4288C34.2946 16.8581 34.696 15.2874 35.4485 13.9193C36.1007 12.7033 37.1041 11.6899 38.3082 10.9805C39.412 10.3218 40.7164 9.96713 42.0208 9.96713C44.0778 9.96713 46.0344 10.8285 47.389 12.3992V4.64689C47.389 4.24154 47.5395 3.88686 47.7904 3.58284C48.0412 3.3295 48.4426 3.17749 48.7938 3.17749C49.1951 3.17749 49.5463 3.3295 49.7972 3.58284C50.048 3.83619 50.1985 4.24154 50.1985 4.59622V25.2692C50.1985 26.0292 49.5965 26.6879 48.7938 26.6879C48.7938 26.6879 48.7938 26.6879 48.7436 26.6879C48.3924 26.6879 47.9911 26.5359 47.7402 26.2825C47.4392 26.0292 47.2887 25.6745 47.3388 25.2692V24.4585C45.9843 25.9785 44.0276 26.8906 41.9706 26.8906C40.7164 26.8906 39.412 26.5359 38.3082 25.8772ZM45.1314 23.5464C45.9843 23.0904 46.7368 22.533 47.389 21.8237V15.1354C46.7368 14.426 45.9843 13.818 45.1314 13.4126C44.2785 12.9566 43.3754 12.7033 42.4222 12.7033C41.0174 12.6526 39.6628 13.2099 38.6594 14.2233C37.7062 15.2367 37.2546 16.6554 37.2546 18.4288C37.2546 20.2529 37.7062 21.6717 38.6594 22.6344C39.6126 23.6477 41.0174 24.2051 42.4222 24.1544C43.3754 24.2051 44.2785 24.0024 45.1314 23.5464Z" stroke="#FFF6CC" stroke-miterlimit="10"/>
<path d="M55.4663 6.72444C55.1653 6.42043 54.9646 6.01508 55.0148 5.55906V5.40705C55.0148 4.49501 55.7171 3.78564 56.6202 3.78564H56.8209C57.724 3.78564 58.4263 4.49501 58.4263 5.40705V5.55906C58.4263 6.4711 57.724 7.18047 56.8209 7.18047H56.6202C56.1687 7.18047 55.7673 7.02846 55.4663 6.72444ZM55.6168 26.4853C55.366 26.232 55.2154 25.8773 55.2154 25.472V11.7913C55.2154 11.4367 55.366 11.0313 55.6168 10.778C55.8677 10.4739 56.2188 10.3219 56.6202 10.3219C57.0216 10.3219 57.3728 10.4739 57.6738 10.7273C57.9246 10.9806 58.0751 11.386 58.0751 11.7913V25.4213C58.0751 25.8266 57.9246 26.1813 57.6738 26.4347C57.4229 26.688 57.0216 26.84 56.6704 26.84C56.269 26.8907 55.9178 26.7387 55.6168 26.4853Z" stroke="#FFF6CC" stroke-miterlimit="10"/>
<path d="M65.7011 26.4854C65.4503 26.232 65.2997 25.8267 65.2997 25.472C65.2997 25.32 65.3499 25.1173 65.4001 24.9653L67.4571 19.6451L61.537 5.10306C61.4366 4.90039 61.4366 4.69771 61.3865 4.49504C61.3865 4.14035 61.537 3.735 61.7878 3.48166C62.0387 3.17764 62.3899 3.02563 62.7912 3.02563C63.0923 3.02563 63.3431 3.12697 63.594 3.27898C63.7946 3.43099 63.9953 3.68433 64.0957 3.93768L68.9622 16.0982L73.929 3.98835C74.1297 3.43099 74.6314 3.02563 75.2334 3.02563C75.6348 3.02563 75.986 3.17764 76.2368 3.48166C76.4877 3.735 76.6382 4.14035 76.6382 4.49504C76.6382 4.69771 76.588 4.84972 76.5379 5.05239L67.9588 25.8773C67.7581 26.4347 67.2564 26.84 66.6543 26.84C66.3031 26.8907 65.952 26.7387 65.7011 26.4854Z" stroke="#FFF6CC" stroke-miterlimit="10"/>
<path d="M80.9528 24.6612C79.5481 23.1918 78.7955 21.1144 78.7955 18.429C78.7955 17.0102 79.0464 15.5915 79.5983 14.2741C80.1 13.0074 81.003 11.9433 82.1068 11.1833C83.361 10.3726 84.816 9.96724 86.3211 10.0179C87.7258 9.96724 89.1306 10.3726 90.3347 11.1326C91.4384 11.842 92.3415 12.8554 92.8933 14.0714C93.4954 15.3382 93.7964 16.7062 93.7964 18.0743C93.7964 18.8343 93.1944 19.493 92.4418 19.493C92.3916 19.493 92.3415 19.493 92.3415 19.493H81.6552C81.7556 20.8104 82.3576 22.0771 83.3108 22.9892C84.2139 23.7999 85.5183 24.2052 87.174 24.2052C88.6289 24.2559 90.134 23.9012 91.4384 23.2425C91.6391 23.1412 91.7896 23.0905 91.9903 23.0905C92.3415 23.0905 92.6425 23.1918 92.8933 23.4452C93.1442 23.6479 93.2947 24.0025 93.2947 24.3572C93.2445 24.8639 92.9435 25.3199 92.492 25.5226C90.8364 26.536 88.9299 26.992 86.9733 26.9413C84.4146 26.8907 82.4078 26.1306 80.9528 24.6612ZM90.9869 17.1116C90.9367 16.1995 90.6859 15.2875 90.1842 14.5274C89.7326 13.8688 89.1306 13.3621 88.4282 13.0074C87.0736 12.3487 85.5183 12.3487 84.2139 13.0074C83.5115 13.3621 82.9095 13.8688 82.5081 14.5274C82.0064 15.2875 81.7556 16.1995 81.7054 17.1116H90.9869Z" stroke="#FFF6CC" stroke-miterlimit="10"/>
</svg>
